<?xml version="1.0" encoding="utf-8"?>
<!-- Generator: Adobe Illustrator 19.1.0, SVG Export Plug-In . SVG Version: 6.00 Build 0)  -->
<svg version="1.1" id="圖層_1" xmlns="http://www.w3.org/2000/svg" xmlns:xlink="http://www.w3.org/1999/xlink" x="0px" y="0px"
	 viewBox="0 0 198 24" style="enable-background:new 0 0 198 24;" xml:space="preserve">
<style type="text/css">
	.st0{fill:#009D95;}
	.st1{fill:#FFFFFF;}
</style>
<image style="display:none;overflow:visible;" width="198" height="24" xlink:href="../../../../../Users/apple/Desktop/headerFooter/logoSmallSize.png" >
</image>
<rect x="101.3" y="4.2" class="st0" width="9.2" height="2.5"/>
<path class="st0" d="M100.4,5.3c-1.2,1.6-2.8,3.2-4.5,4.3l-1.1-2.5c1.3-0.8,2.5-2.1,3.5-3.3C99,4.3,99.7,4.8,100.4,5.3z"/>
<polygon class="st0" points="61.6,17 65.2,17 65.2,6.3 67.8,6.3 67.8,20.4 65.2,20.4 65.2,19.5 55.3,19.5 55.3,20.4 52.6,20.4 
	52.6,6.2 55.3,6.2 55.3,17 58.9,16.9 58.9,3.9 61.6,3.9 "/>
<polygon class="st0" points="46.5,6.8 40.6,6.8 40.6,6.9 40.6,10.6 46.1,10.6 46.1,13.1 40.6,13.1 40.5,17.6 47.2,17.6 47.2,20.2 
	31.2,20.2 31.2,17.6 37.9,17.6 37.9,13.1 32.4,13.1 32.4,10.6 37.9,10.6 37.9,6.8 32,6.8 32,4.2 46.5,4.2 "/>
<path class="st0" d="M186,16.9C186.1,16.9,186.1,16.9,186,16.9l0.1-4.8h1.7V20h-1.7l-3-5.1l0,0V20h-1.7v-7.9h1.9L186,16.9z"/>
<path class="st0" d="M192.6,15c0,0,0.1,0,0.2,0l2.6-2.9h2.1l-2.9,3.1v0.2l3.1,4.6h-1.9c-0.8-1.1-1.6-2.4-2.4-3.5h-0.1l-0.7,0.6v2.8
	h-1.7v-7.8h1.7L192.6,15L192.6,15z"/>
<path class="st0" d="M111.1,9.4v2.4h-2.4l-0.1,6.9c-0.1,0.5-0.5,1-1,1.2c-1.1,0.5-2.5,0.3-3.8,0.3l-1-2.5h3c0.1,0,0.2-0.2,0.3-0.3
	V12l-5.7-0.2c0-0.6,0-1.2-0.1-1.8c-0.2,0.4-0.5,0.8-0.8,1.2v9.1H97c0-2,0-4,0-5.9c-0.4,0.3-0.8,0.7-1.2,1.1l-1.2-2.7
	c1.7-1.2,2.9-3,4-4.7l1.8,1.3L111.1,9.4z"/>
<path class="st0" d="M176.7,12.1h-1.8l-2.7,7.8v0.2h1.8l0.4-1.4c0-0.1,0-0.2,0.1-0.3h2.8l0.5,1.6h1.8l0,0L176.7,12.1z M175,17
	c0.3-1,0.6-2,0.9-2.9l0,0c0.3,1,0.6,2,0.9,2.9C176.7,17.1,175.6,17,175,17z"/>
<g>
	<path class="st0" d="M88.9,17.2c-0.2,0.1-0.1-0.2-0.3-0.2c0-0.2-0.2-0.2-0.3-0.3c0-0.2-0.2-0.2-0.2-0.4c0.1,0,0-0.2,0.2-0.1v-0.1
		c0.2-0.1,0.4-0.2,0.6-0.4c0-0.1,0.2-0.1,0.2-0.2h0.1l0,0h0.1v-0.1h0.1v-0.1h0.1v-0.1c0-0.1,0.1,0,0.1,0v-0.1h0.1l0,0h0.1v-0.4
		c-0.2,0-0.1-0.3-0.3-0.4c-0.1,0,0-0.1-0.1-0.1c-0.1-0.1-0.1-0.2-0.2-0.3c0-0.1-0.1-0.2-0.1-0.2c-0.1-0.1-0.1-0.2-0.2-0.3
		c-0.1-0.2-0.2-0.4-0.4-0.5c0,0-0.1,0.1-0.2,0.1v0.1c-0.3,0.1-0.5,0.5-0.8,0.6c-0.1,0.2-0.3,0.2-0.4,0.3c-0.2,0.1-0.2-0.1-0.3-0.2
		c-0.1-0.3-0.3-0.8,0-1h2.5V4.2h-7.9l-0.1,2.5c-1.1-0.6-2-1.8-2.6-2.8h-2.2c-0.7,1.3-1.8,2.6-3.1,3.7c0.3,0.9,0.6,1.8,0.9,2.7
		l0.6-0.4c0.1,0.1,0.1,0.4,0.1,0.5h1.3c0,0.2,0,0.4,0,0.6h-2.5v2.2l2.5,0.1v4l-0.4,0.2l-2.3,0.2l0.1,2.5c2.1-0.3,4.3-0.7,6.3-1.1
		c0.4,0.2,0.2,0.7,0.2,1.1c0.2,0.1,0.5,0,0.7,0c0.4,0,0.5-0.2,0.8-0.1c0.1-0.2,0.5,0,0.6-0.2c0.5,0,0.9-0.2,1.4-0.3
		c0.3-0.1,0.6-0.1,0.8-0.2c0.3-0.1,0.7,0,0.9-0.2v-1.6l0.1-0.1c0.1,0.1,0.2,0.2,0.2,0.4c0.1,0,0.2,0.2,0.3,0.3c0.1,0,0,0.2,0.1,0.1
		c0,0.2,0.3,0.2,0.3,0.4c0.2,0,0.2,0.3,0.4,0.4c0.1,0.2,0.2,0.2,0.4,0.4c0,0.2,0.3,0.2,0.3,0.3c0.2,0.1,0.3,0.2,0.5,0.3
		c0.2,0,0.1,0.1,0.3,0c0.1-0.2,0.2-0.3,0.3-0.5c0.1-0.1,0.2-0.2,0.2-0.3c0.1-0.1,0.1-0.1,0.1-0.3c0.1,0,0.1-0.2,0.2-0.2
		c0.1-0.2,0.2-0.3,0.3-0.5c0.1,0,0.1-0.1,0.2-0.2V18C89.5,17.8,89.1,17.5,88.9,17.2z M77.5,6.8c0.4,0.4,0.9,0.8,1.1,1.3h-1.9
		C76.9,7.8,77.2,7.3,77.5,6.8z M81.2,17.6h-0.5c0-0.3,0-0.6,0-0.9c-0.1,0-0.1-0.1-0.1-0.2c0.2-0.8,0.3-1.7,0.5-2.5
		c-0.6-0.2-1.2-0.3-1.8-0.4l-0.5,2.5v0.1l1.4,0.3c-0.5,0.2-1,0.3-1.6,0.3v-3.6h2.2V11h-2.3v-0.5c0.5-0.1,1.1,0,1.6,0
		c0.1-0.3,0-0.6,0.1-0.9c0.1-0.1,0.2,0.1,0.4,0.1c0.3-0.3,0.4-0.8,0.6-1.1C81.2,8.6,81.2,17.6,81.2,17.6z M83.7,6.8l0.2-0.1h2.7
		c0.1,0.2,0,0.5,0.1,0.8h-0.1h-2.7C83.6,7.4,83.8,7.1,83.7,6.8z M83.6,17.2v-4.3c0.1-0.1,0.7-0.2,0.6,0.2c0.2,1.3,0.5,2.5,1,3.7
		C84.7,17,84.2,17.1,83.6,17.2z M83.8,10.6c-0.1-0.2-0.1-0.6,0-0.8h2.7c0.2,0.2,0.1,0.5,0.1,0.8C85.7,10.6,84.7,10.6,83.8,10.6z"/>
	<path class="st0" d="M74.2,17.2c0.4-0.1,0.8-0.2,1.2-0.2c0.1-0.1,0.4,0,0.4-0.2c0-1-0.2-2-0.3-2.9c-0.2-0.2-0.5,0-0.8,0
		c-0.3,0.1-0.7,0.2-1,0.2l0.2,3.1H74C74.1,17.4,74.2,17.4,74.2,17.2z"/>
</g>
<path class="st0" d="M44.5,14.6c0.2,0.3,0.3,0.8,0.2,1.3s-0.6,1-1,1.1c-0.6,0.2-1.3,0-1.7-0.5c-0.3-0.3-0.4-0.7-0.3-1.2
	c0-0.6,0.5-1.2,1.1-1.3C43.4,13.6,44.1,13.9,44.5,14.6z"/>
<path class="st0" d="M169.1,15.8v-0.1c0.3-0.1,0.5-0.3,0.7-0.5c0.4-0.5,0.4-1.4,0.1-2c-0.4-0.7-1.1-1-1.8-1.1h-3.9V20h4
	c0.4,0,0.8-0.1,1.2-0.3c0.6-0.4,0.9-1,1-1.6C170.5,17.1,169.9,16.3,169.1,15.8z M166,13.4c0.9,0.1,2.2-0.2,2.5,0.6
	c0,0.4,0,0.8-0.3,1c-0.1,0.1-0.3,0.2-0.5,0.2H166V13.4z M168.4,18.3c-0.6,0.6-1.4,0.3-2.4,0.3v-2.1h1.9c0.3,0.1,0.5,0.2,0.7,0.5
	C168.6,17.5,168.7,18,168.4,18.3z"/>
<path class="st0" d="M23.3,7.6c1.8,4.6,0.5,9.9-3.1,13.2c-3.1,2.8-7.8,3.9-12,2.5C3.5,21.7,0.3,17.5,0,12.6
	C-0.2,7.9,2.2,3.7,6.3,1.5c3.7-2.1,9.3-1.8,12.8,0.8C20.9,3.6,22.4,5.5,23.3,7.6z"/>
<path class="st1" d="M11.5,5.6c0.4-0.1,1-0.4,1.4-0.1C13.2,6,14,6.1,13.8,6.7c0.4,0.5,0.9,1.1,1.4,1.5c0.1,0,0.2,0,0.2-0.1L15.3,8
	c0.2-0.1,0.6,0.1,0.9-0.1c0.2,0,0.4,0.1,0.5,0.2c0.1,0.2,0.1,0.4,0.3,0.6h0.1c0.1,0.2,0.2,0.4,0.3,0.6c0.9,0.3,1.3,1.4,2.1,1.8
	c1,0.7,2,1.4,3.1,1.9c-0.1,0.1,0.1,0.1,0.2,0.2l0,0c-0.1-0.1-0.3-0.1-0.5-0.1c0.2,0.2,0.5,0.1,0.6,0.4h-0.4c0,0.1,0.1,0.1,0.1,0.1
	c-0.2-0.1-0.4,0.1-0.5-0.2c-0.8-0.3-1.6-0.8-2.3-1.3l0,0c0.6,0.5,1.4,0.9,2,1.3c0.2,0.1,0.5,0.2,0.7,0.4c-0.1,0-0.2,0-0.2,0.1
	L22.2,14v0.1l0.1,0.1c-0.8-0.3-1.8-0.9-2.6-1.5c-0.4-0.2-0.7-0.4-1.1-0.7c-0.1,0-0.1,0-0.1,0.1c0.4,0.3,0.9,0.5,1.3,0.8
	c-0.8-0.4-1.7-0.9-2.3-1.7c-0.3-0.3-0.7-0.8-1.1-0.7c-0.2,0.1-0.4,0.1-0.6,0.2c-0.1,0-0.3-0.2-0.4,0c-0.1,0.3-0.5,0-0.6,0.3
	c-0.2,0.1-0.7,0-0.8,0.3v0.1c-0.5,0.2-1.2,0.1-1.5,0.6c-0.1,0.1-0.3,0-0.4,0.1c0,0,0-0.1-0.1-0.1s-0.2,0.1-0.3,0.1
	c-0.1-0.1,0.1-0.2,0.1-0.2c-0.2-0.1-0.3,0.2-0.5,0.3c0-0.2,0.3-0.2,0.3-0.4c-0.1-0.1-0.2,0.1-0.3,0.1c0.1,0,0.1-0.2,0-0.2
	c0.1-0.2,0.4-0.1,0.5-0.3h-0.2c0.2-0.1,0.4-0.3,0.6-0.5c-0.1,0-0.2-0.2-0.3,0c0,0,0,0,0-0.1c-0.1-0.1-0.2,0.1-0.3,0.1
	c0,0,0-0.1-0.1-0.1h-0.1c0.1-0.1,0.2-0.2,0.3-0.2h-0.1c0.4-0.2,0.7-0.5,1.1-0.6l0.1-0.1c-0.1-0.1-0.3-0.1-0.4,0c0.3,0,0-0.4,0.3-0.4
	c0-0.3,0.3-0.5,0.5-0.6c-0.3-0.3-0.4-0.8-0.8-1c0-0.2-0.2,0-0.3-0.2c-0.4,0-1,0.2-1.3-0.2c-0.2-0.1-0.5,0-0.7,0
	C9.8,7.4,9.7,7.6,9.6,7.8C9.4,8,9.3,8.2,9.1,8.5C8.9,8.8,8.6,9.1,8.2,9.3V9.2C8,9.6,7.4,9.4,7,9.8V9.7c-0.1,0-0.2,0-0.2,0.2l0,0
	c-0.2,0-0.3,0.2-0.4,0.2c-0.4,0.4-1.1,0.4-1.6,0.8l0,0C4,11.2,3.6,11.8,3,12.4c-0.1,0.2-0.4,0.4-0.6,0.6c0.1,0.2-0.2,0.3-0.3,0.4
	c0.1-0.2,0.3-0.3,0.3-0.5c-0.2,0.1-0.2,0.3-0.5,0.4c-0.1-0.1,0.1-0.2,0-0.3l-0.3,0.2L2,12.8c-0.1,0-0.3,0.3-0.5,0.3
	c0,0.1-0.1,0.1-0.2,0.1l0,0c0.1-0.1,0.3-0.3,0.4-0.4c-0.2-0.1-0.4,0.1-0.5,0.1c0,0,0-0.1-0.1-0.1c0.1-0.1,0.2-0.2,0.3-0.3
	c-0.1,0-0.2,0-0.3,0.1c0-0.1,0.3-0.2,0.2-0.4c-0.3,0-0.3,0.3-0.5,0.3c0.3-0.4,0.7-0.6,0.9-1l0,0c0.5-0.6,1.2-0.9,1.8-1.3
	C4,9.9,4.7,9.7,5,9.2C5.2,9,5.3,8.9,5.4,8.7c0.1,0,0.1,0,0.1-0.1c0.4-0.2,0.8-0.4,1.2-0.4C7,8,7.3,8.1,7.5,7.8
	c0.5-0.6,0.7-1.4,1.2-2C8.8,5.6,9,5.3,9.3,5.2C10,5.3,10.8,5.4,11.5,5.6z"/>
<g>
	<path class="st0" d="M119.6,12.3h5.7v1.3h-4.1v1.7h3.8v1.3h-3.8v2.1h4.3V20h-5.8L119.6,12.3L119.6,12.3z"/>
	<path class="st0" d="M132.1,17.3c0.1,0.4,0.3,1.5,1.7,1.5c1.1,0,1.5-0.6,1.5-1.1c0-0.6-0.5-0.8-1.9-1.1c-0.8-0.2-2.4-0.6-2.4-2.3
		c0-0.8,0.5-2.1,2.8-2.1c1.5,0,2.9,0.6,2.9,2.3l-1.5,0.1c-0.1-0.4-0.2-1.1-1.4-1.1c-0.5,0-1.3,0.1-1.3,0.8c0,0.5,0.5,0.7,1.7,1
		s2.7,0.7,2.7,2.5c0,0.9-0.6,1.7-1.2,2c-0.7,0.3-1.5,0.3-1.8,0.3c-0.8,0-2.9-0.1-3.2-2.6L132.1,17.3z"/>
	<path class="st0" d="M141.1,12.3v4.1c0,0.9,0,1.3,0.2,1.6c0.3,0.5,0.9,0.7,1.4,0.7c1.5,0,1.5-0.9,1.5-2.2v-4.2h1.5v4
		c0,1.4-0.1,2.1-0.4,2.7c-0.6,0.9-1.7,1.1-2.5,1.1c-3.1,0-3.1-1.9-3.1-3.7v-4.1C139.7,12.3,141.1,12.3,141.1,12.3z"/>
	<path class="st0" d="M148.9,12.3h1.5l3.1,5.1l0,0v-5.1h1.4v7.6h-1.5l-3.1-5l0,0v5h-1.4V12.3z"/>
	<circle class="st0" cx="128.3" cy="19" r="1"/>
</g>
</svg>
