<svg xmlns="http://www.w3.org/2000/svg" viewBox="0 0 517.7 58.63"><defs><style>.cls-1{opacity:0.97;}.cls-2{fill:#ffe8ca;}.cls-3{fill:#231815;}.cls-4{fill:#009e96;}.cls-5{fill:#fff;}</style></defs><title>資產 11</title><g id="圖層_2" data-name="圖層 2"><g id="Cut2_透過旅遊小夥伴的旅遊案例說明"><g class="cls-1"><circle class="cls-2" cx="64.35" cy="29.32" r="29.32"/></g><path class="cls-3" d="M24,35.45c0,.62-.28.91-.83.91H13.23a28.57,28.57,0,0,0,4.48,2.06,57.3,57.3,0,0,0,6.16,1.92.92.92,0,0,1,.6.91,1.09,1.09,0,0,1-.24.65.78.78,0,0,1-.67.36,3.83,3.83,0,0,1-1.1-.18c-1.66-.57-3.27-1.17-4.78-1.79A39.92,39.92,0,0,1,13.1,38v4c0,.6-.33.91-1,.91a.82.82,0,0,1-.94-.91V37.9a30.77,30.77,0,0,1-3.22,1.76,54.22,54.22,0,0,1-6.32,2.4c-.39,0-.62.1-.7.1-.62,0-.91-.34-.91-1a.87.87,0,0,1,.6-.92A47.87,47.87,0,0,0,7.36,38a16.89,16.89,0,0,0,3.12-1.61H1.3c-.55,0-.81-.29-.81-.91a.71.71,0,0,1,.81-.8h9.85V33.42a.82.82,0,0,1,.94-.91c.68,0,1,.31,1,.91v1.23h10A.73.73,0,0,1,24,35.45ZM12.9,19.72v.7h9.54c.81,0,1.22.55,1.22,1.64,0,.44-.05.94-.1,1.51-.11.41-.44.62-1,.62s-.7-.21-.7-.62v-.91c0-.47-.21-.7-.62-.7H2.94c-.42,0-.6.28-.6.8v.52c0,.63-.31.91-.94.91a.79.79,0,0,1-.91-.91V22.06a1.45,1.45,0,0,1,1.64-1.64h8.74v-.7a.89.89,0,0,1,1-1A.89.89,0,0,1,12.9,19.72Zm-.73,3.64a1.25,1.25,0,0,1-.21.57,6.64,6.64,0,0,1-.68,1H22.65a.72.72,0,0,1,.8.8c0,.57-.28.83-.8.83h-4.5a3.57,3.57,0,0,1-.36.65,11,11,0,0,1-2.48,2.47c-.15.11-.26.18-.36.24l7.7,1.61a.92.92,0,0,1,.7.81c-.05.64-.34,1-.91,1a2.31,2.31,0,0,1-.6-.1c-3-.78-5.95-1.54-8.81-2.21a18.16,18.16,0,0,1-2.58,1,26.86,26.86,0,0,1-4.78,1,31.61,31.61,0,0,1-4.06.31c-.67,0-1-.31-1-.91a.72.72,0,0,1,.7-.81,44.45,44.45,0,0,0,7.51-.88c.47-.11.91-.24,1.36-.39l-3.28-.7c-1-.21-1.51-.6-1.51-1.17a1.27,1.27,0,0,1,.65-1,11,11,0,0,0,1.25-.94H1.51C1,26.53.7,26.27.7,25.7a.71.71,0,0,1,.81-.8H9.07a11,11,0,0,0,1.28-1.83.9.9,0,0,1,.8-.52C11.78,22.61,12.12,22.87,12.17,23.36ZM9.75,26.53c-.57.47-1.22,1-1.95,1.46-.13.1-.18.18-.18.26s.1.18.34.23l4.55.91a6.72,6.72,0,0,0,1-.54,10.37,10.37,0,0,0,2.58-2.32Z"/><path class="cls-3" d="M34,19.2a.84.84,0,0,1,.34.62,2.56,2.56,0,0,1-.1.5,36.61,36.61,0,0,1-1.41,5.25V42A.92.92,0,0,1,31,42V29.7c-.26.5-.55,1-.81,1.38s-.47.42-.6.42c-.67,0-1-.26-1-.81a1.13,1.13,0,0,1,.18-.62A27.6,27.6,0,0,0,31,25.62a37,37,0,0,0,1.74-6c.08-.42.29-.63.6-.63A1.18,1.18,0,0,1,34,19.2Zm10.2,1.74c0,.63-.29.91-.81.91H38.84c0,.21-.05.37-.05.52a20.86,20.86,0,0,1-.28,2.21H42.2c.93,0,1.43.6,1.43,1.74a21.17,21.17,0,0,1-.6,5.13A19.8,19.8,0,0,1,40.9,37a19,19,0,0,1-5.2,5.41,1.89,1.89,0,0,1-.7.21.9.9,0,0,1-1-1,.85.85,0,0,1,.29-.62A18.62,18.62,0,0,0,38.9,36.6a12.69,12.69,0,0,0,1-1.62,0,0,0,0,1,0,0c-.78-.91-1.59-1.8-2.42-2.65a1,1,0,0,1-.21-.5c0-.54.29-.83.91-.83.16,0,.31.1.5.31a15.94,15.94,0,0,1,2,2A21.48,21.48,0,0,0,41.29,31a20.27,20.27,0,0,0,.49-4c0-.39-.13-.6-.39-.6h-3a.44.44,0,0,1-.21,0,4,4,0,0,0-.1.47,19,19,0,0,1-1.2,3.38,16.85,16.85,0,0,1-2,3.07.8.8,0,0,1-.62.21.67.67,0,0,1-.57-.29.81.81,0,0,1-.24-.62.78.78,0,0,1,.31-.63,17.85,17.85,0,0,0,1.69-2.75,18.42,18.42,0,0,0,1-3.12,26.76,26.76,0,0,0,.68-4.27H35.7c-.55,0-.81-.28-.81-.91a.73.73,0,0,1,.81-.83h7.72A.74.74,0,0,1,44.23,20.94Zm7-.83V40.23c0,1.57-.89,2.35-2.66,2.35a12.17,12.17,0,0,1-3.45-.73.92.92,0,0,1-.71-.91c0-.58.24-.86.71-.91a3.16,3.16,0,0,1,.57.07,13.69,13.69,0,0,0,2.88.63c.53,0,.81-.34.81-1V20.11a.93.93,0,0,1,1.85,0Zm-4,1.95V36a.8.8,0,0,1-.91.91c-.63,0-.91-.28-.91-.91V22.06a.8.8,0,0,1,.91-.91A.81.81,0,0,1,47.27,22.06Z"/><path class="cls-3" d="M64.19,40.26c-.57,0-.83-.34-.83-1V26.06a4.4,4.4,0,0,1-2.23.92c-.63,0-.91-.29-.91-.86,0-.34.26-.58.83-.73a3,3,0,0,0,.52-.11,4.16,4.16,0,0,0,1.9-1.48c.31-.41.57-.62.75-.62.57,0,.88.31.88.93V39.25C65.1,39.92,64.79,40.26,64.19,40.26Z"/><rect class="cls-4" x="117.24" y="10.54" width="400.46" height="40.44" rx="12"/><path class="cls-5" d="M167.5,24.23c.19,0,.3.06.3.18v6.73c0,.12-.11.18-.3.18h-.59c-.15,0-.22-.06-.22-.18v-1h-8.91v5c0,.48.27.71.82.71h7.56c.65,0,1-.12,1.17-.39a8.81,8.81,0,0,0,.59-2.37,1.86,1.86,0,0,0,.66.6c.13.06.21.13.21.22a7.6,7.6,0,0,1-.74,2.48,1.12,1.12,0,0,1-1.08.51h-8.49c-1.21,0-1.81-.38-1.81-1.11V27.69c0-.12,0-.18.06-.18l1.08.12c.13,0,.21.06.21.12s-.05.17-.11.18a.16.16,0,0,0-.13.17v1.06h8.91V25.23h-9.9c-.12,0-.18-.07-.18-.24v-.58a.16.16,0,0,1,.18-.18Z"/><path class="cls-5" d="M175.94,24.18l.08.17c0,.09-.09.13-.26.13s-.39.06-.45.17c-.51.81-1,1.54-1.44,2.2.3.27.6.57.92.89.45-.63.84-1.22,1.17-1.74a6.87,6.87,0,0,1,1,.93c0,.06-.06.09-.17.09a.54.54,0,0,0-.39.1c-.78,1.1-1.54,2.1-2.29,3,.61-.08,1.33-.15,2.16-.24l-.36-.74c0-.06.24-.22.75-.48q.42.84.69,1.53a11.88,11.88,0,0,1,.43,1.35,3.29,3.29,0,0,1-.88.29,10,10,0,0,0-.32-1.14c0-.06,0-.11-.06-.15l-1.38.33V37c0,.12-.09.18-.24.18h-.58a.16.16,0,0,1-.18-.18V31.13l-1.88.43a2.3,2.3,0,0,1-.4.41,5.77,5.77,0,0,1-.29-1.41,3.64,3.64,0,0,1,1.22-.26c.6-.75,1.09-1.41,1.5-1.95-.51-.42-.9-.72-1.16-.91a9.61,9.61,0,0,0-1.27-.69c0-.08.21-.33.63-.78a.14.14,0,0,1,.13-.09l.48.36c.29-.41.54-.8.77-1.19.39-.67.69-1.18.87-1.51Zm-2.1,8.37a.19.19,0,0,1-.12.18.37.37,0,0,0-.19.27,14.74,14.74,0,0,1-.36,2.21c-.09.33-.21.64-.33,1-.05.08-.08.12-.11.12a4.87,4.87,0,0,0-.81-.21c-.09,0-.13-.07-.13-.13a12.63,12.63,0,0,0,.49-1.4,12,12,0,0,0,.35-2.2c0-.09,0-.15.16-.15C173.48,32.36,173.84,32.48,173.84,32.55Zm3.26,1.23c.12.45.22.92.31,1.41a3.3,3.3,0,0,1-.87.29c0-.32-.12-.71-.22-1.19a14.19,14.19,0,0,0-.48-1.62c0-.06.25-.21.76-.46C176.8,32.78,177,33.3,177.1,33.78Zm2.76-7.65a.23.23,0,0,1,.07.15c0,.09-.07.15-.19.17a.47.47,0,0,0-.33.19,7.91,7.91,0,0,1-.83,1.64v.06a.17.17,0,0,1,.06,0,5.93,5.93,0,0,1,1,1.32,9.06,9.06,0,0,1,.34,1c0,.09-.06.13-.15.13l-.61.11c-.12,0-.17-.05-.12-.17a3.58,3.58,0,0,0-.63-1.38,4.74,4.74,0,0,0-.93-1s-.06-.06-.08-.06,0,0,.05-.06a8.59,8.59,0,0,0,.61-1,7.84,7.84,0,0,0,.51-1.38q0-.18.18-.18Zm4.93,5.55c.08,0,.12.06.12.17v.48c0,.15,0,.22-.12.22h-2.74V35.9h3.28c.06,0,.11.06.11.18v.46c0,.15-.05.23-.11.23h-7.74c-.09,0-.12-.08-.12-.23v-.46c0-.12,0-.18.12-.18H181V32.55h-2.76c-.09,0-.12-.07-.12-.22v-.48c0-.11,0-.17.12-.17Zm.42-7.39q.12,0,.12.18v.46c0,.17,0,.24-.12.24h-7.38c-.09,0-.12-.07-.12-.24v-.46c0-.12,0-.18.12-.18Zm-2.77,2a.23.23,0,0,1,.07.15c0,.09-.07.15-.21.17a.46.46,0,0,0-.31.18,6.58,6.58,0,0,1-.89,1.48v.05a.17.17,0,0,1,.06,0,5.85,5.85,0,0,1,1,1.29c.11.26.21.57.33.95,0,.09-.06.13-.15.15l-.61.09c-.12,0-.15-.05-.12-.17a3.58,3.58,0,0,0-.6-1.35,3.82,3.82,0,0,0-.9-.94s-.06-.06-.08-.06l0-.06a6.59,6.59,0,0,0,.64-.95,6.22,6.22,0,0,0,.54-1.27q0-.18.18-.18Zm2.46-.12a.23.23,0,0,1,.07.15c0,.09-.07.15-.19.17a.47.47,0,0,0-.33.19,8.48,8.48,0,0,1-.77,1.64v.06l0,0a5.25,5.25,0,0,1,.88,1.26,5.52,5.52,0,0,1,.3.92c0,.09,0,.13-.13.15l-.62.09c-.12,0-.15-.05-.12-.15a3.55,3.55,0,0,0-.57-1.32,4.41,4.41,0,0,0-.84-.95l-.06,0s0,0,0-.06a7.38,7.38,0,0,0,.6-1,10,10,0,0,0,.48-1.38q0-.18.18-.18Z"/><path class="cls-5" d="M191.44,23.88a.58.58,0,0,1,.4.11.87.87,0,0,1,.3.54l-1.63,3.52a.52.52,0,0,0,0,.17.19.19,0,0,0,.06.13,10.43,10.43,0,0,1,1,2,7.14,7.14,0,0,1,.28,1.88,3.32,3.32,0,0,1-.31,1.65,1.3,1.3,0,0,1-1.22.69c-.39,0-.58-.08-.6-.24s-.09-.41-.15-.65,0-.16.06-.16l.69,0a.43.43,0,0,0,.45-.37,4.8,4.8,0,0,0,.09-1.08,5.34,5.34,0,0,0-.31-1.7,7.33,7.33,0,0,0-1-2,.22.22,0,0,1-.08-.15.77.77,0,0,1,.06-.21L191,24.77h-1.77v12.3c0,.12-.07.18-.22.18h-.6c-.12,0-.17-.06-.17-.18v-13c0-.12,0-.18.17-.18Zm1.53,4c.27.3.49.58.69.82,0,0,0,.05-.06.11l-.41.54a11.18,11.18,0,0,0-1-1.08,5,5,0,0,0-.69-.56,2.8,2.8,0,0,1,.42-.55.15.15,0,0,1,.12-.09C192.44,27.41,192.73,27.68,193,27.92Zm1,2.82c.15,0,.22.06.22.18V35a1.89,1.89,0,0,0,0,.39,1.58,1.58,0,0,0,.5.56,2.54,2.54,0,0,0,1.2.22h2.94c.25,0,.69,0,1.29-.1a12.08,12.08,0,0,0,1.3-.23h.12c.08,0,.12,0,.12.12q-.23.42-.39.78c0,.18-.1.27-.25.27h-5.13a3,3,0,0,1-1.8-.51,2.06,2.06,0,0,1-.47-.62c-.33.32-.63.6-.88.86a.44.44,0,0,0-.27.34c0,.11,0,.17-.06.17s-.11,0-.17-.12l-.6-1a5.3,5.3,0,0,0,1.43-.85c.1,0,.16-.14.16-.32V31.79h-.82c-.12,0-.18-.08-.18-.23V31c0-.15.06-.24.18-.24Zm-.36-6c.22.26.42.48.58.68,0,0,0,.06-.07.12-.29.39-.44.58-.45.58-.26-.31-.53-.61-.8-.88a3.41,3.41,0,0,0-.55-.45,2.18,2.18,0,0,1,.42-.62c0-.06.07-.09.1-.09A9.54,9.54,0,0,1,193.6,24.78Zm2.55-.19a6.88,6.88,0,0,0,.15-1,.05.05,0,0,1,.06-.06,5.8,5.8,0,0,1,1,.28c0,.12,0,.18-.12.18s-.18.08-.18.18-.05.29-.08.41h4.25c.07,0,.12.06.12.18v.46c0,.12-.05.18-.12.18h-4.44c0,.12-.05.21-.08.3s-.16.48-.25.69h4.36c.06,0,.11.06.11.18v.47c0,.12,0,.18-.11.18h-1.93v1h2.16c.07,0,.12.06.12.18v.46c0,.12-.05.18-.12.18h-5.33c-.09,0-.12-.06-.12-.18V28.4c0-.12,0-.18.12-.18h2.16v-1h-1.84c-.05.07-.08.13-.11.18a5.08,5.08,0,0,1-1,1.33.35.35,0,0,1-.19.12.3.3,0,0,1-.26-.1l-.46-.29a.14.14,0,0,1-.09-.13.1.1,0,0,1,0-.08,4.26,4.26,0,0,0,.77-.67,5.8,5.8,0,0,0,.85-1.4,6.36,6.36,0,0,0,.3-.78h-1.26c-.09,0-.12-.06-.12-.18v-.46c0-.12,0-.18.12-.18Zm4.48,5.26a.22.22,0,0,1,.24.24V35q0,.31-.45.48a4.64,4.64,0,0,1-1.08.18.14.14,0,0,1-.16-.15,3,3,0,0,0-.3-.84s0-.05.07-.05a2.66,2.66,0,0,0,.83-.06.2.2,0,0,0,.15-.19v-.59h-3.39v1.65c0,.12-.09.17-.24.17h-.47c-.16,0-.24-.05-.24-.17V30q0-.18.24-.18Zm-.7,1.65v-.76h-3.39v.76Zm0,1.52v-.75h-3.39V33Z"/><path class="cls-5" d="M208.09,23.7c0,.14-.06.21-.15.23s-.15.12-.15.3v1.83h1.93c.12,0,.18.07.18.22v.47q0,.24-.18.24h-3c0,.79,0,1.48-.05,2.05h2.57c.12,0,.18.08.18.23,0,2.11-.08,3.63-.17,4.54a12.6,12.6,0,0,1-.43,2.45,1.29,1.29,0,0,1-1.4.87c-.63,0-1-.11-1-.3A2.23,2.23,0,0,0,206,36V35.9a9.51,9.51,0,0,0,1.35.12q.48,0,.63-.6a9.27,9.27,0,0,0,.27-1.89c.06-.72.11-1.91.14-3.56h-1.83c0,.45-.06.83-.09,1.13a21.84,21.84,0,0,1-.47,3,7.58,7.58,0,0,1-.64,1.67,5.57,5.57,0,0,1-.87,1.26c-.27-.29-.51-.54-.71-.77a4.1,4.1,0,0,0,.6-.9,7.86,7.86,0,0,0,.63-1.65,19.82,19.82,0,0,0,.42-2.85c.09-.88.14-2.19.17-3.91h-1.47q-.18,0-.18-.24v-.47c0-.15.06-.22.18-.22h2.58V23.7c0-.1.07-.16.24-.16C207.71,23.54,208.09,23.6,208.09,23.7ZM216.35,28a5.15,5.15,0,0,1-1.66.78l-.05,0a11.64,11.64,0,0,0,.26,2.31.27.27,0,0,0,0,.16.63.63,0,0,0,.12-.07,5.84,5.84,0,0,0,.93-.66,6.06,6.06,0,0,0,.66-.78.15.15,0,0,1,.11-.09l.91.64c.12.09.2.18.2.29s-.08.12-.23.12a.46.46,0,0,0-.33.1,10.35,10.35,0,0,1-2.11,1.46,6.14,6.14,0,0,0,.22.73,7.39,7.39,0,0,0,.89,1.64,9.87,9.87,0,0,0,1.56,1.69c0,.06-.05.11-.14.17l-.6.43a.41.41,0,0,1-.25.11,10,10,0,0,1-1.11-1.26,7.52,7.52,0,0,1-1.07-1.74,10.74,10.74,0,0,1-.7-2.25,16.7,16.7,0,0,1-.33-2.81,6.53,6.53,0,0,1-1.07.09v6.32c.54-.17,1.16-.38,1.82-.63.07,0,.12.06.12.16s-.11.42-.14.6-.06.27-.16.29a29.88,29.88,0,0,1-3.53.94c-.16,0-.25.08-.28.18s-.09.17-.12.17a.19.19,0,0,1-.2-.14l-.33-.87a.18.18,0,0,1,.14-.18c.69-.09,1.2-.15,1.53-.22l.09,0V28c0-.11.06-.17.18-.17l.82.32a7.35,7.35,0,0,0,1.62-.21,4.47,4.47,0,0,0,1.79-.84.26.26,0,0,1,.16-.09.26.26,0,0,1,.18.09c.5.4.75.67.75.79s-.06.29-.16.29l-.36-.18A.33.33,0,0,0,216.35,28ZM212.84,24c.11.09.17.15.17.21a.17.17,0,0,1-.12.17.16.16,0,0,0-.18.16c-.11.39-.2.74-.29,1h4.74c.12,0,.18.09.18.24v.46c0,.17-.06.24-.18.24h-5.08c-.18.42-.38.83-.56,1.19a6.68,6.68,0,0,1-.69,1,1,1,0,0,1-.31,0c-.2-.08-.39-.15-.59-.21s-.09-.06-.09-.09a.14.14,0,0,1,0-.11,7.25,7.25,0,0,0,1-1.62,7.7,7.7,0,0,0,.46-1.17,16,16,0,0,0,.41-1.68c0-.07,0-.12.09-.12Z"/><path class="cls-5" d="M225.91,27.57a.3.3,0,0,1-.24.3.74.74,0,0,0-.35.17,10.64,10.64,0,0,1-1.63,1.54V37c0,.12-.09.18-.24.18h-.59q-.24,0-.24-.18V30.36a23.35,23.35,0,0,1-2,1.26A7.05,7.05,0,0,0,220,31a.4.4,0,0,1-.1-.18s0-.06.07-.09a12,12,0,0,0,2.91-1.88,13.88,13.88,0,0,0,1.89-1.93.22.22,0,0,1,.17-.09A5.53,5.53,0,0,1,225.91,27.57Zm-.9-3.22a.38.38,0,0,1,.19.3c0,.09-.07.12-.22.12a.71.71,0,0,0-.5.15,15.36,15.36,0,0,1-3.37,2.47.29.29,0,0,1-.23-.1,4.55,4.55,0,0,0-.43-.44.24.24,0,0,1-.11-.15s0-.07.09-.1a4.81,4.81,0,0,0,1.08-.59,6.89,6.89,0,0,0,2.42-2.16c.06-.09.12-.15.16-.15Zm8.4,4c.12,0,.18.07.18.22v.48c0,.15-.06.23-.18.23h-2.22v6.79c0,.75-.62,1.13-1.82,1.13l-1.23-.06c-.07,0-.1-.11-.1-.29a2.53,2.53,0,0,0-.26-.78v0a8.29,8.29,0,0,0,1.53.16c.54,0,.81-.18.81-.52V29.33H226c-.12,0-.18-.08-.18-.23v-.48c0-.15.06-.22.18-.22Zm-.83-4c.12,0,.18.09.18.24v.46c0,.17-.06.24-.18.24h-5.79c-.12,0-.18-.07-.18-.24v-.46c0-.15.06-.24.18-.24Z"/><path class="cls-5" d="M238.16,29.63a.23.23,0,0,1-.16.22.62.62,0,0,0-.2.44,34,34,0,0,1-.37,3.39c-.09.49-.21,1-.33,1.51,0,.12-.08.18-.11.18a7.18,7.18,0,0,0-.85-.22A.13.13,0,0,1,236,35a18.93,18.93,0,0,0,.53-2.13,27.46,27.46,0,0,0,.36-3.37c0-.15,0-.24.16-.24Q238.16,29.51,238.16,29.63Zm3.59-2.46c.1,0,.16.07.16.22v.48c0,.15-.06.23-.16.23h-2.06V37c0,.12-.09.18-.24.18h-.58c-.15,0-.23-.06-.23-.18V28.1h-2.23c-.12,0-.18-.08-.18-.23v-.48c0-.15.06-.22.18-.22Zm-.54-2.82c.12,0,.18.09.18.24v.46c0,.17-.06.24-.18.24h-4.16c-.12,0-.18-.07-.18-.24v-.46c0-.15.06-.24.18-.24Zm.12,5a.22.22,0,0,1,.24.24,6.43,6.43,0,0,0-.18,1.48,11.65,11.65,0,0,0,.52,3.62c0,.07-.06.12-.15.15-.51.06-.78.07-.84.07s0-.06-.09-.21a46.39,46.39,0,0,1-.27-5.11.22.22,0,0,1,.24-.24Zm4.11-.87V23.82c0-.12.07-.18.22-.18.75,0,1.13.06,1.13.18s-.06.21-.15.23-.15.12-.15.3v4.11h2.86c.12,0,.18.07.18.22v.48c0,.15-.06.23-.18.23h-2.86v6h3.34c.11,0,.17.08.17.23v.46c0,.15-.06.24-.17.24h-8c-.12,0-.16-.09-.16-.24v-.46c0-.15,0-.23.16-.23h3.59v-6H242.8c-.12,0-.18-.08-.18-.23v-.48c0-.15.06-.22.18-.22Z"/><path class="cls-5" d="M257.29,24.18c.15,0,.22.06.22.17v4.23c0,.12-.07.16-.22.16H256v2.4h1.69c.12,0,.18.09.18.24v.47q0,.24-.18.24H256v2.76c.57-.15,1.12-.33,1.65-.51a.17.17,0,0,1,.1,0,.11.11,0,0,1,.12.12,2.89,2.89,0,0,1-.06.82c-1.6.51-3.22,1-4.87,1.35-.15.27-.26.41-.35.41s-.28-.42-.58-1.23l1-.18V30.09c0-.07.06-.12.18-.12.69,0,1,.06,1,.18s0,.2-.11.2-.12.1-.12.27v4.75l.69-.18.3-.07V28.74h-1.75c-.17,0-.24,0-.24-.16V24.35c0-.11.07-.17.24-.17Zm-.77.87H254v2.82h2.52Zm3.39,10.53c.87-.21,1.71-.45,2.51-.72a.11.11,0,0,1,.07,0q.12,0,.12.18a3.59,3.59,0,0,1-.06.89c-1.29.37-2.61.72-3.93,1.05-.16.27-.3.4-.4.4s-.29-.43-.59-1.27l1.23-.26V24.41a.21.21,0,0,1,.24-.23h5.57c.15,0,.22.06.22.17v5.86c0,.17-.07.24-.22.24h-2.4a7.36,7.36,0,0,0,.25,1.2,6.63,6.63,0,0,0,.42,1.28.61.61,0,0,0,.15-.12,4.74,4.74,0,0,0,.74-.68,5.81,5.81,0,0,0,.51-.78q0-.09.09-.09l.87.6a.36.36,0,0,1,.18.29c0,.09-.06.12-.17.12a.34.34,0,0,0-.27.09,8.57,8.57,0,0,1-1.66,1.42,6.09,6.09,0,0,0,.45.65,4.09,4.09,0,0,0,1,1,5.43,5.43,0,0,0,1.43.78c.06,0,.1.07.1.1a.31.31,0,0,1-.07.17,4.29,4.29,0,0,0-.53.52c-.07.09-.13.14-.16.14a.86.86,0,0,1-.2-.12c-.28-.15-.6-.33-.93-.54a7.48,7.48,0,0,1-1.11-1,6.83,6.83,0,0,1-.91-1.29,5.44,5.44,0,0,1-.65-1.59,13.45,13.45,0,0,1-.51-2.15h-1.38Zm0-8.77h3.93v-1.7h-3.93Zm0,2.7h3.93V27.75h-3.93Z"/><path class="cls-5" d="M281.14,23.88c.15,0,.24.06.24.18v13c0,.12-.09.18-.24.18h-.59q-.24,0-.24-.18v-.41H270.07v.53c0,.1-.09.16-.24.16h-.59c-.15,0-.22-.06-.22-.16V24.06c0-.12.07-.18.22-.18Zm-.83,12V24.71H270.07V35.84Zm-5.62-9.9v-.71c0-.07.06-.12.18-.12.69,0,1.05.06,1.05.18s-.05.18-.11.2-.12.1-.12.27v.18h3.93c.06,0,.11.06.11.16v.36c0,.17-.05.24-.11.24h-3.93v.59h2.81c.15,0,.24.06.24.16v3c0,.12-.09.17-.24.17h-.18a7.92,7.92,0,0,1,.72.94,7.65,7.65,0,0,1,.52.93,2.9,2.9,0,0,1-.82.24,3.3,3.3,0,0,0-.36-.75l-.69.05v1h2c.07,0,.12.06.12.18v.36c0,.15-.05.22-.12.22h-2v.59c0,.72-.42,1.06-1.23,1.06h-.89q-.09,0-.09-.27a2.13,2.13,0,0,0-.19-.73v-.06a4.72,4.72,0,0,0,1.11.12c.18,0,.28-.17.28-.53v-.18h-3.31l.51.32.64.51-.07.1-.41.54a8.41,8.41,0,0,0-.88-.66c-.26-.15-.47-.27-.63-.34a1.8,1.8,0,0,1,.33-.47h-2c-.09,0-.12-.07-.12-.22V33.2c0-.12,0-.18.12-.18h5.79v-1l-5,.36c-.07.23-.15.35-.22.36a.13.13,0,0,1-.14-.07l-.28-1.1c.51,0,1.74-.07,3.69-.16v-.84h-2.75c-.16,0-.24-.05-.24-.17v-3c0-.1.08-.16.24-.16h2.75V26.7h-3.75c-.08,0-.11-.07-.11-.24V26.1c0-.1,0-.16.11-.16Zm0,2.68V28h-1.92v.64Zm0,.65h-1.92v.64h1.92Zm1-.65h2V28h-2Zm2,.65h-2v.64h2Zm-.12,1.65c0-.05.13-.15.42-.3h-2.3v.79c.51,0,1.05,0,1.62-.07.21,0,.42,0,.6,0Z"/><path class="cls-5" d="M292,31.4a3.12,3.12,0,0,1-1,1.05l-.39-.44a2.3,2.3,0,0,0,1-1.71h-1.11V28.5h1.8v1.65A2.67,2.67,0,0,1,292,31.4Z"/><path class="cls-5" d="M303.67,30.8c.15,0,.22.06.22.18v3.33a1.94,1.94,0,0,0,.2.91.9.9,0,0,0,.42.48,2.57,2.57,0,0,0,.91.32,11.51,11.51,0,0,0,1.52.1H310a26.67,26.67,0,0,0,4.26-.4.47.47,0,0,1,.21-.06c.07,0,.12,0,.12.06a7.88,7.88,0,0,0-.27,1.21c0,.17-.11.26-.26.26h-7.15a7.09,7.09,0,0,1-1.16-.09c-.39-.08-.75-.17-1.09-.27a3.3,3.3,0,0,1-.9-.5,3.55,3.55,0,0,1-.6-.9l-.05-.06c-.09,0-.13,0-.13.05a6.57,6.57,0,0,0-1.79,1.72c0,.06-.07.11-.13.11s-.27-.26-.59-.77a.7.7,0,0,1-.06-.3,12.1,12.1,0,0,0,2.33-1.51.65.65,0,0,0,.07-.36V31.73H301c-.12,0-.18-.08-.18-.23V31c0-.15.06-.24.18-.24ZM302.78,28q.68.33,1.17.63a.61.61,0,0,1-.07.12q-.5.69-.51.69a14.77,14.77,0,0,0-1.58-.84,8.66,8.66,0,0,0-1.12-.45,3,3,0,0,1,.46-.66c.05-.06.09-.11.14-.11C301.87,27.56,302.38,27.77,302.78,28Zm.29-3.53,1.12.63a.26.26,0,0,1-.09.14l-.49.69c-.48-.3-1-.59-1.5-.86a8.49,8.49,0,0,0-1.08-.43,3,3,0,0,1,.46-.66c.05-.06.09-.11.12-.11C302.2,24.05,302.68,24.24,303.07,24.42Zm9.73,4.79c.15,0,.24.06.24.18v2.34c0,.12-.09.18-.24.18h-2.68a2.3,2.3,0,0,0,.3.54,2.81,2.81,0,0,0,.57.75,1.21,1.21,0,0,0,.16.16,6,6,0,0,0,.72-.37,5.58,5.58,0,0,0,1-.8.3.3,0,0,1,.13,0,3.9,3.9,0,0,1,.81.76c0,.06-.06.09-.15.09s-.3,0-.31.08A8.61,8.61,0,0,1,312,34a.72.72,0,0,0,.21.12,4.83,4.83,0,0,0,1.44.53s.06,0,.06.06a.24.24,0,0,1-.12.18,5.92,5.92,0,0,0-.41.49.18.18,0,0,1-.18.14,1.26,1.26,0,0,1-.39-.17,6.17,6.17,0,0,1-1.72-1.08,3.64,3.64,0,0,1-.84-1,5.16,5.16,0,0,1-.63-1.33h-.75a11.43,11.43,0,0,1-.83.85v1.7c.81-.12,1.56-.27,2.27-.42l.07,0a.11.11,0,0,1,.12.12,2.09,2.09,0,0,1-.06.69c-1.23.27-2.49.5-3.75.71-.12.24-.22.36-.28.36s-.27-.36-.53-1.11c.35,0,.74-.09,1.17-.17V33.54a2.5,2.5,0,0,1-.36.24,8.87,8.87,0,0,1-1.41.71.29.29,0,0,1-.22-.09c-.17-.17-.33-.33-.5-.48a.29.29,0,0,1,0-.14,7.72,7.72,0,0,0,1.1-.45,6.77,6.77,0,0,0,1.3-.78,9.4,9.4,0,0,0,.75-.64h-1.8q-.24,0-.24-.18V29.39q0-.18.24-.18ZM314,27.57q.12,0,.12.18v.47q0,.18-.12.18h-9.43c-.09,0-.12-.06-.12-.18v-.47c0-.12,0-.18.12-.18Zm-1.17-3.75c.15,0,.24.06.24.18v2.64c0,.12-.09.17-.24.17h-7.26c-.16,0-.24,0-.24-.17V24q0-.18.24-.18Zm-5.22.83h-1.23V26h1.23ZM312,30h-5.51v1H312Zm-2.22-5.38h-1.17V26h1.17Zm2.22,0h-1.23V26H312Z"/><path class="cls-5" d="M328.93,24c.12,0,.18.08.18.23v.48c0,.15-.06.22-.18.22h-4.8v.89h5.44c.15,0,.24.06.24.18v2.74c0,.12-.09.18-.24.18H329c-.17,0-.24-.06-.24-.18v-2h-4.62V30c0,.12-.09.18-.24.18h-.59q-.24,0-.24-.18V26.7h-4.74v2c0,.12-.09.18-.24.18h-.58c-.15,0-.23-.06-.23-.18V26c0-.12.08-.18.23-.18h5.56v-.89h-4.62c-.12,0-.18-.07-.18-.22v-.48c0-.15.06-.23.18-.23Zm.82,6.68c.11,0,.17.09.17.24v.46c0,.17-.06.24-.17.24h-5.67c-.15.42-.31.84-.48,1.23H329c.15,0,.24.06.24.17v2.52a1.49,1.49,0,0,1-.23,1c0,.24-.6.47-1.71.71-.21,0-.3-.08-.3-.23a6.67,6.67,0,0,0-.22-.84c.9-.06,1.36-.27,1.39-.64V33.72h-2.34v3c0,.12-.09.18-.24.18H325c-.15,0-.23-.06-.23-.18v-3h-2.29v3c0,.12-.08.18-.23.18h-.58c-.17,0-.24-.06-.24-.18v-3h-2.28V37c0,.12-.09.18-.24.18h-.59q-.24,0-.24-.18V33c0-.11.08-.17.24-.17h4.19a5.44,5.44,0,0,0,.34-.69,2.77,2.77,0,0,0,.21-.54H317.5c-.12,0-.17-.07-.17-.24v-.46c0-.15.05-.24.17-.24ZM322,27.45q.12,0,.12.18v.47q0,.18-.12.18h-2.46c-.09,0-.12-.06-.12-.18v-.47c0-.12,0-.18.12-.18ZM322,29q.12,0,.12.18v.47q0,.18-.12.18h-2.46c-.09,0-.12-.06-.12-.18v-.47c0-.12,0-.18.12-.18Zm5.69-1.59c.07,0,.12.06.12.18V28c0,.12-.05.18-.12.18h-2.28c-.09,0-.12-.06-.12-.18v-.47c0-.12,0-.18.12-.18Zm0,1.59c.07,0,.12.06.12.18v.47c0,.12-.05.18-.12.18h-2.28c-.09,0-.12-.06-.12-.18v-.47c0-.12,0-.18.12-.18Z"/><path class="cls-5" d="M346.16,24.12c.08,0,.12.06.12.17v.48c0,.15,0,.22-.12.22H342v1.29h3.22c.15,0,.24.06.24.18V30c0,.12-.09.18-.24.18h-4.81l.12.12c0,.09-.05.14-.11.14a.44.44,0,0,0-.36.15c-.19.33-.37.61-.55.88h6.94q.12,0,.12.18v.47q0,.24-.12.24h-2.58a6.71,6.71,0,0,1-.66,1,5,5,0,0,1-1.05,1.13l1.41.55c1,.42,2.06.87,3.06,1.38a.35.35,0,0,1-.09.21c-.34.41-.55.62-.61.62a.87.87,0,0,1-.23-.06c-1.17-.57-2.14-1-2.91-1.34-.6-.24-1.15-.45-1.68-.64a6.1,6.1,0,0,1-.81.4,18.93,18.93,0,0,1-2.22.8c-1.08.3-2.35.57-3.82.84-.12,0-.18,0-.2-.12a8.81,8.81,0,0,1-.48-.74.29.29,0,0,1-.13-.21,7.16,7.16,0,0,0,1.18-.13q.94-.13,2.07-.33a17.56,17.56,0,0,0,2.52-.71,3.37,3.37,0,0,0,.54-.24c-.81-.24-1.72-.46-2.74-.7l-1,.76a.44.44,0,0,1-.32-.13l-.46-.38a.23.23,0,0,1-.11-.18c.48-.36,1-.73,1.46-1.14a5.86,5.86,0,0,0,.73-.67h-4.12c-.09,0-.12-.08-.12-.24v-.47c0-.12,0-.18.12-.18h4.89a.61.61,0,0,0,.13-.16,10,10,0,0,0,.71-1.13h-4.38c-.17,0-.24-.06-.24-.18V26.46c0-.12.07-.18.24-.18h3V25H333.4c-.09,0-.12-.07-.12-.22v-.48c0-.11,0-.17.12-.17Zm-8.61,3.11h-2.22v2h2.22Zm1.25,5.1a10,10,0,0,1-.87.93h0c.86.2,1.65.41,2.4.65l.65.19a5.61,5.61,0,0,0,1-.84,4.72,4.72,0,0,0,.73-.94ZM340.9,25h-2.3v1.29h2.3Zm0,2.24h-2.3v2h2.3Zm3.45,0H342v2h2.4Z"/><path class="cls-5" d="M351.4,26.46V24.65a3.37,3.37,0,0,0-.06-.66.66.66,0,0,1-.06-.29c0-.07.09-.12.28-.12l1.19.17c.1.06.16.1.16.13s-.06.14-.16.14-.3.31-.3.69v1.75H354c.1,0,.16.09.16.24v.47c0,.15-.06.22-.16.22h-1.59v3.33c.54-.27,1.06-.57,1.56-.87a.07.07,0,0,1,.07,0c.08,0,.12,0,.12.1a3.06,3.06,0,0,1-.06.83c-.57.34-1.14.67-1.69,1v4.41c0,.71-.53,1.07-1.58,1.07h-1c-.09,0-.12-.09-.12-.26a3,3,0,0,0-.29-.69c0-.09,0-.12.12-.12a6.28,6.28,0,0,0,1.17.12c.42,0,.65-.18.65-.52V32.28c-.54.29-1.07.56-1.59.8-.15.28-.26.42-.35.42s-.28-.41-.58-1.23a19.5,19.5,0,0,0,2.43-1l.09-.05V27.39h-2c-.12,0-.18-.07-.18-.22V26.7c0-.15.06-.24.18-.24Zm9.6,3.93a.34.34,0,0,1,.24.09,1.81,1.81,0,0,1,.3.5,13.13,13.13,0,0,1-.89,2,7.51,7.51,0,0,1-1,1.47c-.12.12-.22.24-.34.34a6.73,6.73,0,0,0,1.39.77,12.72,12.72,0,0,0,2.16.67c.09,0,.15.06.15.09a.31.31,0,0,1-.07.17,4.29,4.29,0,0,0-.53.52c-.07.09-.13.14-.16.14A2.43,2.43,0,0,1,362,37c-.42-.12-.89-.28-1.38-.46a14.41,14.41,0,0,1-1.67-.86c-.15-.1-.28-.21-.4-.3a.87.87,0,0,1-.2.15,10,10,0,0,1-1.95,1,10.75,10.75,0,0,1-1.86.56.31.31,0,0,1-.28-.14l-.35-.49a.2.2,0,0,1-.07-.14c0-.06,0-.09.1-.09.48-.1,1-.22,1.4-.36a7.47,7.47,0,0,0,2.16-1,2.43,2.43,0,0,0,.28-.2.68.68,0,0,1-.19-.19,4,4,0,0,1-1-1.38,7.17,7.17,0,0,1-.75-1.85h-.69c-.12,0-.18-.07-.18-.24v-.46c0-.15.06-.23.18-.23Zm-.81-6.33c.15,0,.22.08.22.23V28a.27.27,0,0,0,.12.27.76.76,0,0,0,.41.09h.3q.19,0,.27-.24a8.11,8.11,0,0,0,.16-1.14.08.08,0,0,1,.09-.09l.2.06a3.09,3.09,0,0,0,.48.18c.13,0,.21.1.21.22a13.1,13.1,0,0,1-.38,1.67.58.58,0,0,1-.63.39h-1.23a1.49,1.49,0,0,1-.87-.2.53.53,0,0,1-.18-.46V25h-2.28v.72a6.31,6.31,0,0,1-.25,1.8,2.74,2.74,0,0,1-.87,1.26,5.07,5.07,0,0,1-1.11.74.31.31,0,0,1-.27-.11c-.14-.18-.27-.34-.39-.51a.25.25,0,0,1-.11-.21,3.41,3.41,0,0,0,1.71-1.54,4.4,4.4,0,0,0,.23-1.47V24.29c0-.15.07-.23.24-.23Zm-3,8.24a5.9,5.9,0,0,0,.89,1.41,4.22,4.22,0,0,0,.4.43,3.33,3.33,0,0,0,.42-.42,6.12,6.12,0,0,0,.93-1.42,7.18,7.18,0,0,0,.44-1h-3.44A6.39,6.39,0,0,0,357.2,32.3Z"/><path class="cls-5" d="M370,24.41c0,.09,0,.13-.12.13s-.3.08-.34.17a17.78,17.78,0,0,1-1.35,2.7v9.72c0,.12-.09.18-.24.18h-.59q-.24,0-.24-.18v-8.3c-.34.42-.78.9-1.29,1.44a.39.39,0,0,1-.3-.13l-.46-.39a.2.2,0,0,1-.11-.18c.44-.45.87-.95,1.32-1.46a11.53,11.53,0,0,0,1.5-2.22,13.08,13.08,0,0,0,.87-2.13c0-.07.06-.12.12-.12C369.56,24.08,370,24.33,370,24.41Zm7.79-.12c.15,0,.24.06.24.18v5c0,.12-.09.18-.24.18h-.59c-.15,0-.22-.06-.22-.18v-.65h-2.24V31h4c.12,0,.18.07.18.22v.47q0,.24-.18.24h-3.78a10.25,10.25,0,0,0,1.19,1.45,7.62,7.62,0,0,0,1.57,1.32,5.78,5.78,0,0,0,1.55.74c0,.09-.06.13-.15.16a5.44,5.44,0,0,0-.53.6c-.06.08-.12.12-.15.12a9.47,9.47,0,0,1-1.9-1.23,7.79,7.79,0,0,1-1.43-1.51c-.12-.15-.24-.3-.36-.47v4c0,.12-.07.18-.22.18h-.59q-.24,0-.24-.18V33.39l-.43.54a11.76,11.76,0,0,1-1.35,1.38,13.51,13.51,0,0,1-1.68,1.17.35.35,0,0,1-.26-.1c-.19-.18-.39-.36-.57-.51a.37.37,0,0,1,0-.15,8.26,8.26,0,0,0,1.3-.77,7.61,7.61,0,0,0,1.55-1.35A18.41,18.41,0,0,0,373.46,32h-3.54q-.18,0-.18-.24v-.47c0-.15.06-.22.18-.22h3.75V28.86H371.5v.71c0,.12-.08.18-.23.18h-.58c-.17,0-.24-.06-.24-.18v-5a.21.21,0,0,1,.24-.24ZM377,27.93v-2.7H371.5v2.7Z"/><path class="cls-5" d="M385.46,23.7c0,.14-.06.21-.15.23s-.15.12-.15.3v1.83h1.94c.12,0,.18.07.18.22v.47q0,.24-.18.24h-3.05c0,.79,0,1.48,0,2.05h2.56c.12,0,.18.08.18.23,0,2.11-.07,3.63-.16,4.54a12.45,12.45,0,0,1-.44,2.45,1.28,1.28,0,0,1-1.39.87c-.63,0-1-.11-1-.3a2,2,0,0,0-.37-.81V35.9a9.51,9.51,0,0,0,1.35.12q.47,0,.63-.6a11,11,0,0,0,.27-1.89c.06-.72.1-1.91.13-3.56H384c0,.45-.06.83-.09,1.13a23.66,23.66,0,0,1-.46,3,7.1,7.1,0,0,1-.65,1.67,5.26,5.26,0,0,1-.87,1.26c-.27-.29-.51-.54-.7-.77a4.1,4.1,0,0,0,.6-.9,9.14,9.14,0,0,0,.63-1.65,21.32,21.32,0,0,0,.42-2.85c.09-.88.13-2.19.16-3.91h-1.47q-.18,0-.18-.24v-.47c0-.15.06-.22.18-.22h2.58V23.7c0-.1.08-.16.24-.16C385.09,23.54,385.46,23.6,385.46,23.7ZM393.73,28a5.21,5.21,0,0,1-1.67.78l0,0a12.57,12.57,0,0,0,.25,2.31.28.28,0,0,0,.05.16s.09,0,.12-.07a5.84,5.84,0,0,0,.93-.66,7,7,0,0,0,.66-.78c0-.06.07-.09.1-.09l.92.64a.38.38,0,0,1,.19.29c0,.09-.07.12-.22.12a.45.45,0,0,0-.33.1,10.39,10.39,0,0,1-2.12,1.46,6.18,6.18,0,0,0,.23.73,6.94,6.94,0,0,0,.88,1.64,10.29,10.29,0,0,0,1.56,1.69c0,.06,0,.11-.13.17l-.6.43a.46.46,0,0,1-.26.11,10.83,10.83,0,0,1-1.11-1.26,7.81,7.81,0,0,1-1.06-1.74,11.32,11.32,0,0,1-.71-2.25A17.81,17.81,0,0,1,391,29a6.5,6.5,0,0,1-1.06.09v6.32c.54-.17,1.15-.38,1.81-.63.08,0,.12.06.12.16s-.1.42-.13.6-.06.27-.17.29a29.69,29.69,0,0,1-3.52.94c-.17,0-.26.08-.29.18s-.09.17-.12.17a.18.18,0,0,1-.19-.14l-.33-.87a.17.17,0,0,1,.13-.18c.69-.09,1.2-.15,1.53-.22l.09,0V28c0-.11.06-.17.18-.17l.83.32a7.35,7.35,0,0,0,1.62-.21,4.43,4.43,0,0,0,1.78-.84.22.22,0,0,1,.35,0c.49.4.75.67.75.79s-.06.29-.17.29l-.36-.18A.27.27,0,0,0,393.73,28ZM390.22,24c.1.09.16.15.16.21a.16.16,0,0,1-.12.17.18.18,0,0,0-.18.16c-.1.39-.19.74-.28,1h4.74c.12,0,.18.09.18.24v.46c0,.17-.06.24-.18.24h-5.09c-.18.42-.37.83-.55,1.19a6.68,6.68,0,0,1-.69,1,1,1,0,0,1-.32,0c-.19-.08-.39-.15-.58-.21s-.09-.06-.09-.09a.14.14,0,0,1,0-.11,7.25,7.25,0,0,0,1-1.62,8.91,8.91,0,0,0,.47-1.17,16.32,16.32,0,0,0,.4-1.68c0-.07.05-.12.09-.12Z"/><path class="cls-5" d="M403.28,27.57a.3.3,0,0,1-.24.3.65.65,0,0,0-.34.17,11.17,11.17,0,0,1-1.64,1.54V37c0,.12-.09.18-.24.18h-.58c-.17,0-.24-.06-.24-.18V30.36a23.35,23.35,0,0,1-2,1.26,8.58,8.58,0,0,0-.66-.64.37.37,0,0,1-.11-.18s0-.06.08-.09a12.22,12.22,0,0,0,2.91-1.88,15.1,15.1,0,0,0,1.89-1.93.19.19,0,0,1,.16-.09A5.53,5.53,0,0,1,403.28,27.57Zm-.9-3.22a.39.39,0,0,1,.2.3c0,.09-.08.12-.23.12a.68.68,0,0,0-.49.15,15.39,15.39,0,0,1-3.38,2.47.27.27,0,0,1-.22-.1,3.64,3.64,0,0,0-.44-.44.25.25,0,0,1-.1-.15s0-.07.09-.1a4.81,4.81,0,0,0,1.08-.59,7.67,7.67,0,0,0,1.41-1,6.76,6.76,0,0,0,1-1.16c.06-.09.12-.15.17-.15Zm8.4,4c.12,0,.18.07.18.22v.48c0,.15-.06.23-.18.23h-2.22v6.79c0,.75-.61,1.13-1.81,1.13l-1.23-.06c-.08,0-.11-.11-.11-.29a2.48,2.48,0,0,0-.25-.78v0a8.12,8.12,0,0,0,1.53.16c.54,0,.81-.18.81-.52V29.33h-4.1c-.12,0-.18-.08-.18-.23v-.48c0-.15.06-.22.18-.22Zm-.82-4c.12,0,.18.09.18.24v.46c0,.17-.06.24-.18.24h-5.79c-.12,0-.18-.07-.18-.24v-.46c0-.15.06-.24.18-.24Z"/><path class="cls-5" d="M426.2,24.23a.16.16,0,0,1,.18.18V25c0,.17-.06.24-.18.24H421v5.91h5.91a.16.16,0,0,1,.18.18v.59q0,.24-.18.24H421v4.92c0,.12-.11.18-.3.18h-.59q-.24,0-.24-.18V32.15h-6q-.18,0-.18-.24v-.59a.16.16,0,0,1,.18-.18h6V25.23h-5.26c-.12,0-.18-.07-.18-.24v-.58a.16.16,0,0,1,.18-.18Zm-8.86,4a12.47,12.47,0,0,1,.6,1.69c0,.06-.36.18-1.05.36a11.55,11.55,0,0,0-.44-1.47,13.46,13.46,0,0,0-1-2c0-.06.28-.24.88-.53C416.75,27,417.08,27.63,417.34,28.22Zm8.26-1.43c.09.08.14.14.14.2s-.08.16-.2.18-.31.1-.34.22a20.78,20.78,0,0,1-1.46,2.94c-.15,0-.24,0-.25-.07l-.74-.45a10.52,10.52,0,0,0,1-1.65,15,15,0,0,0,.64-1.79.21.21,0,0,1,.2-.15Z"/><path class="cls-5" d="M437.45,27.71a1,1,0,0,1,.08.16q0,.16-.18.18c-.29,0-.44.08-.47.17-.28.48-.6,1-.93,1.53H443c.12,0,.18.06.18.16v.59q0,.24-.18.24h-2.94a10.06,10.06,0,0,1-.63,1.45,6.75,6.75,0,0,1-1.08,1.68l-.25.29.45.21q2.31,1.17,3.93,2.11l-.08.14-.51.69a44.09,44.09,0,0,0-4.62-2.45c-.15.11-.28.2-.43.29a11.56,11.56,0,0,1-2,1.05,29.61,29.61,0,0,1-3.4,1.11c-.12,0-.18-.05-.2-.11s-.28-.42-.45-.7c-.09-.08-.12-.14-.12-.2a4.42,4.42,0,0,0,1-.19,18.64,18.64,0,0,0,1.85-.47,15.08,15.08,0,0,0,2.25-1l.39-.27c-1.14-.48-2.12-.85-2.93-1.11l-.67.81a.25.25,0,0,1-.21-.09c-.2-.09-.39-.16-.6-.24s-.08-.06-.08-.15c.9-1.08,1.59-2,2.1-2.71a1,1,0,0,1,.11-.15h-4q-.18,0-.18-.24v-.59c0-.1.06-.16.18-.16h4.63a16.09,16.09,0,0,0,.95-1.61,8,8,0,0,0,.51-1.09q0-.12.12-.12Zm0-3.83c0,.14-.06.21-.15.23s-.15.12-.15.3v.76h5.16c.15,0,.24.06.24.18v2.93c0,.12-.09.18-.24.18h-.59c-.15,0-.22-.06-.22-.18V26.1h-10.2v2.18c0,.12-.09.18-.24.18h-.59c-.15,0-.22-.06-.22-.18V25.41c0-.15.07-.24.22-.24h5.57V23.88c0-.12.07-.18.24-.18Q437.47,23.7,437.47,23.88Zm-2.18,6.86a.07.07,0,0,1,0,0c-.36.51-.78,1.08-1.27,1.71,1.18.44,2.23.84,3.13,1.22,0,0,.05,0,.06-.05a6.38,6.38,0,0,0,1.13-1.47,6.79,6.79,0,0,0,.69-1.45Z"/><path class="cls-5" d="M450.61,24.41a.11.11,0,0,1-.12.13.43.43,0,0,0-.35.17,17.78,17.78,0,0,1-1.35,2.7v9.72c0,.12-.09.18-.24.18H448c-.17,0-.24-.06-.24-.18v-8.3q-.53.63-1.29,1.44a.39.39,0,0,1-.3-.13l-.47-.39a.21.21,0,0,1-.1-.18c.43-.45.87-.95,1.32-1.46a11.53,11.53,0,0,0,1.5-2.22,13.08,13.08,0,0,0,.87-2.13.13.13,0,0,1,.12-.12C450.19,24.08,450.61,24.33,450.61,24.41Zm7.78-.12c.15,0,.24.06.24.18v5c0,.12-.09.18-.24.18h-.58c-.15,0-.23-.06-.23-.18v-.65h-2.23V31h4c.12,0,.18.07.18.22v.47q0,.24-.18.24h-3.78a11.05,11.05,0,0,0,1.18,1.45,7.69,7.69,0,0,0,1.58,1.32,5.87,5.87,0,0,0,1.54.74c0,.09-.06.13-.15.16a4.43,4.43,0,0,0-.52.6c-.06.08-.12.12-.15.12a9.57,9.57,0,0,1-1.91-1.23,7.73,7.73,0,0,1-1.42-1.51c-.12-.15-.24-.3-.36-.47v4c0,.12-.08.18-.23.18h-.58c-.17,0-.24-.06-.24-.18V33.39l-.44.54a11.76,11.76,0,0,1-1.35,1.38,12.8,12.8,0,0,1-1.68,1.17.32.32,0,0,1-.25-.1c-.2-.18-.39-.36-.57-.51a.43.43,0,0,1-.05-.15,8.41,8.41,0,0,0,1.31-.77,7.85,7.85,0,0,0,1.54-1.35A18.08,18.08,0,0,0,454.09,32h-3.54q-.18,0-.18-.24v-.47c0-.15.06-.22.18-.22h3.75V28.86h-2.18v.71c0,.12-.07.18-.22.18h-.59q-.24,0-.24-.18v-5a.22.22,0,0,1,.24-.24Zm-.81,3.64v-2.7h-5.46v2.7Z"/><path class="cls-5" d="M465.73,23.88a.74.74,0,0,1,.36.08c.22.19.34.33.34.39l-1.3,3.78a.76.76,0,0,0-.05.21.35.35,0,0,0,.08.21,7.54,7.54,0,0,1,.79,1.66,7,7,0,0,1,.32,2.06,3.83,3.83,0,0,1-.21,1.29,1.51,1.51,0,0,1-.65.81,1.38,1.38,0,0,1-.91.24q-.36,0-.36-.24a2.13,2.13,0,0,0-.23-.77c0-.06.06-.1.18-.1l.65.06c.18,0,.31-.14.4-.41a2.59,2.59,0,0,0,.12-.88,6.55,6.55,0,0,0-.25-1.64,8.43,8.43,0,0,0-1-1.95c-.06-.06-.09-.1-.09-.16a1.07,1.07,0,0,1,0-.23l1.41-3.52h-2V37c0,.12-.08.18-.23.18h-.58a.16.16,0,0,1-.18-.18V24.06a.16.16,0,0,1,.18-.18Zm5.89.29c.09.07.15.13.15.18s-.1.18-.3.18a.69.69,0,0,0-.22,0,10.07,10.07,0,0,0,.9,1.23,6.71,6.71,0,0,0,1.3,1.15,7.17,7.17,0,0,0,2.15,1.13c.09,0,.15.06.15.09a.18.18,0,0,1-.08.16c-.21.18-.39.35-.55.5s-.09.1-.12.1a6.44,6.44,0,0,1-1.58-.81l-.25-.18v.35c0,.16-.05.24-.11.24h-4.45c-.09,0-.12-.08-.12-.24v-.47c0-.12,0-.18.12-.18h4.15a6.31,6.31,0,0,1-1-.9,11.58,11.58,0,0,1-1.17-1.48,10.93,10.93,0,0,1-.79,1,11.33,11.33,0,0,1-1,1.05,14.86,14.86,0,0,1-1.21,1,9.45,9.45,0,0,1-1,.61.25.25,0,0,1-.22-.13,2.07,2.07,0,0,0-.44-.53c-.12-.06-.16-.12-.16-.16s0-.05.07-.08a7,7,0,0,0,1.41-.75,8.88,8.88,0,0,0,1.56-1.3,6.33,6.33,0,0,0,.86-1,8.14,8.14,0,0,0,.66-1.14.26.26,0,0,1,.19-.14Zm-2.32,9.51c.07.06.12.12.12.16s-.08.18-.23.18a.25.25,0,0,0-.24.14c-.12.24-.24.43-.33.6a6.26,6.26,0,0,0,.6.82,4.88,4.88,0,0,0,.89.74.28.28,0,0,1,.07.16,2.5,2.5,0,0,1-.52.65.25.25,0,0,1-.11-.05,10.6,10.6,0,0,1-1.41-1.56c-.12.18-.24.33-.36.5l-.64.72-.53.45a.24.24,0,0,1-.21-.14,1.82,1.82,0,0,0-.42-.49c-.09-.06-.13-.11-.13-.14s0,0,0,0a6,6,0,0,0,.72-.57,5.43,5.43,0,0,0,.81-1,4.64,4.64,0,0,0,.44-.72,6.1,6.1,0,0,0,.34-.84.15.15,0,0,1,.11-.09Zm.76-4.17c.15,0,.24.06.24.18v3c0,.12-.09.18-.24.18h-2.74c-.17,0-.24-.06-.24-.18v-3c0-.12.07-.18.24-.18Zm-.75.88h-1.23V32h1.23Zm4.55,3.29c.09.06.13.12.13.16s-.07.18-.22.18a.29.29,0,0,0-.26.14c-.12.25-.24.48-.34.66a5.07,5.07,0,0,0,.81.84,8.16,8.16,0,0,0,1.3.88.25.25,0,0,1-.09.21c-.15.12-.33.29-.55.5a.14.14,0,0,1-.09,0,4,4,0,0,1-.87-.58c-.3-.29-.62-.65-1-1.07a4,4,0,0,1-.36.51c-.21.26-.43.5-.64.72s-.39.36-.51.47a.28.28,0,0,1-.23-.14,2.19,2.19,0,0,0-.4-.49c-.09-.06-.14-.11-.14-.14s0,0,0-.06a5.47,5.47,0,0,0,.74-.55,6.5,6.5,0,0,0,.81-1,5.29,5.29,0,0,0,.43-.75,6.89,6.89,0,0,0,.35-.84c0-.06.07-.1.1-.1Zm.49-4.17c.15,0,.23.06.23.18v3c0,.12-.08.18-.23.18h-2.76q-.24,0-.24-.18v-3q0-.18.24-.18Zm-.76.88h-1.23V32h1.23Z"/><path class="cls-5" d="M482.15,25c.15,0,.24.06.24.18v7.56c0,.12-.09.18-.24.18h-.58c-.17,0-.24-.06-.24-.18v-.64h-1.82V34c0,.12-.07.18-.22.18h-.6c-.15,0-.23-.06-.23-.18V25.23a.21.21,0,0,1,.23-.24Zm-.82,6.15v-5.2h-1.82v5.2Zm2.05,2.43c.12,0,.18.06.18.15a11.33,11.33,0,0,1-1.06,2.7.71.71,0,0,1-.11.12.82.82,0,0,1-.34-.06,5.22,5.22,0,0,0-.56-.19.21.21,0,0,1-.1-.17,7.36,7.36,0,0,0,1.18-2.43c0-.12.12-.19.29-.19Zm4.68-7.17h2.58c.12,0,.18.09.18.24v.47c0,.15-.06.22-.18.22h-2.58v1.41h2.58c.12,0,.18.09.18.24v.47q0,.24-.18.24h-2.58v1.45h3.29c.12,0,.18.09.18.24,0,1.56-.09,2.67-.18,3.35a6.44,6.44,0,0,1-.48,1.81c-.2.42-.71.65-1.52.65-.6,0-.9-.11-.91-.3a2.63,2.63,0,0,0-.38-.81V36a9,9,0,0,0,1.29.12.72.72,0,0,0,.74-.44,4.49,4.49,0,0,0,.31-1.32c.06-.48.12-1.21.15-2.23h-5.94v.52c0,.12-.09.18-.24.18h-.58c-.15,0-.23-.06-.23-.18V24.23a.21.21,0,0,1,.23-.23h7.27c.11,0,.17.08.17.23v.48c0,.15-.06.22-.17.22h-3Zm-3,7.2c.12,0,.18,0,.18.12.07.78.12,1.59.12,2.46,0,.12-.08.18-.2.18h-.61c-.21,0-.3-.06-.3-.18.06-.72.1-1.54.1-2.46,0-.07.06-.12.18-.12Zm-.41-7.2H487V24.93h-2.4Zm2.4.93h-2.4v1.41H487Zm0,3.81V29.69h-2.4v1.45Zm-.12,2.4a15.76,15.76,0,0,1,.53,2.36c0,.06-.08.1-.23.13l-.76,0c-.06,0-.11-.06-.11-.18,0-.72-.12-1.49-.24-2.3a.13.13,0,0,1,.14-.15h.51A.18.18,0,0,1,486.89,33.54Zm1.68-.52a12.06,12.06,0,0,1,1,2c0,.14-.07.2-.22.2l-.71.16c-.09,0-.15,0-.18-.16a10.83,10.83,0,0,0-.7-2c0-.08,0-.12.15-.15l.55-.14S488.51,33,488.57,33Z"/><path class="cls-5" d="M503.78,28.61c-.39.4-.78.81-1.17,1.2a4,4,0,0,0-1,2.77h-1.1A5.17,5.17,0,0,1,501.92,29l.87-.89a1.7,1.7,0,0,0,.45-1.11,1.16,1.16,0,0,0-.46-.93,2,2,0,0,0-1.22-.37c-1.09,0-1.66.51-1.69,1.51h-1.1a2.6,2.6,0,0,1,.68-1.74,2.76,2.76,0,0,1,2.11-.78,3.19,3.19,0,0,1,1.86.54,2.09,2.09,0,0,1,.92,1.77A2.5,2.5,0,0,1,503.78,28.61Zm-3.51,7.24V34.32h1.53v1.53Z"/><path class="cls-5" d="M143,35.48a13,13,0,0,0,2.8,1.53l-.64,1.51a12.53,12.53,0,0,1-3.54-2,8.07,8.07,0,0,1-4,1,7.83,7.83,0,0,1-4.06-1.08,7.23,7.23,0,0,1-2.8-3,9.69,9.69,0,0,1-1-4.4,9.84,9.84,0,0,1,1-4.43,6.88,6.88,0,0,1,2.81-3,8.15,8.15,0,0,1,4.08-1,7.93,7.93,0,0,1,4.11,1.08,7.17,7.17,0,0,1,2.79,3,9.84,9.84,0,0,1,1,4.4,10.29,10.29,0,0,1-.61,3.66A7.78,7.78,0,0,1,143,35.48Zm-4.79-2.78a8.07,8.07,0,0,1,3.11,1.57A6.78,6.78,0,0,0,143.25,29a8.39,8.39,0,0,0-.68-3.49,5.27,5.27,0,0,0-2-2.32,5.68,5.68,0,0,0-7,.84A6.92,6.92,0,0,0,132,29a7,7,0,0,0,1.59,4.93,5.28,5.28,0,0,0,4.06,1.72,5.41,5.41,0,0,0,2.2-.44,7.19,7.19,0,0,0-2.15-.94Z"/></g></g></svg>