<svg xmlns="http://www.w3.org/2000/svg" viewBox="0 0 263.28 123.84"><defs><style>.cls-1{opacity:0.97;}.cls-2{fill:#ffe8ca;}.cls-3{fill:#231815;}.cls-4{fill:#009e96;}.cls-5{fill:#fff;}</style></defs><title>資產 4</title><g id="圖層_2" data-name="圖層 2"><g id="Cut2_透過旅遊小夥伴的旅遊案例說明"><g class="cls-1"><circle class="cls-2" cx="149.61" cy="29.32" r="29.32"/></g><path class="cls-3" d="M109.24,35.45c0,.63-.29.91-.83.91H98.5A28,28,0,0,0,103,38.42a57.3,57.3,0,0,0,6.16,1.92.92.92,0,0,1,.6.91,1.14,1.14,0,0,1-.23.65.8.8,0,0,1-.68.36,4.14,4.14,0,0,1-1.09-.18c-1.66-.57-3.28-1.17-4.79-1.79A40.61,40.61,0,0,1,98.37,38v4c0,.6-.34.91-1,.91a.82.82,0,0,1-.93-.91V37.9a30.9,30.9,0,0,1-3.23,1.76,54,54,0,0,1-6.31,2.4c-.39,0-.63.1-.71.1-.62,0-.91-.34-.91-1a.86.86,0,0,1,.6-.91A49,49,0,0,0,92.62,38a17.52,17.52,0,0,0,3.12-1.61H86.56c-.54,0-.8-.28-.8-.91a.71.71,0,0,1,.8-.8h9.86V33.42a.82.82,0,0,1,.93-.91c.68,0,1,.32,1,.91v1.23h10A.73.73,0,0,1,109.24,35.45ZM98.16,19.72v.7h9.54c.81,0,1.22.55,1.22,1.64,0,.44,0,.94-.1,1.51-.1.42-.44.62-1,.62s-.71-.2-.71-.62v-.91c0-.47-.2-.7-.62-.7H88.2c-.41,0-.6.28-.6.8v.52c0,.63-.31.91-.93.91s-.91-.28-.91-.91V22.06a1.45,1.45,0,0,1,1.64-1.64h8.73v-.7a1,1,0,0,1,2,0Zm-.73,3.64a1.25,1.25,0,0,1-.21.57,6.61,6.61,0,0,1-.67,1h11.36a.82.82,0,0,1,0,1.63h-4.5a3.57,3.57,0,0,1-.36.65,10.92,10.92,0,0,1-2.47,2.47,4.34,4.34,0,0,1-.37.24c2.19.46,4.74,1,7.7,1.61a.92.92,0,0,1,.7.81c0,.64-.34,1-.91,1a2.38,2.38,0,0,1-.6-.1c-3-.79-5.95-1.54-8.81-2.22a17,17,0,0,1-2.57,1,27.89,27.89,0,0,1-4.79,1,31.47,31.47,0,0,1-4.05.31c-.68,0-1-.31-1-.91a.74.74,0,0,1,.7-.81,44.58,44.58,0,0,0,7.52-.88,11.69,11.69,0,0,0,1.35-.39l-3.28-.7c-1-.21-1.5-.6-1.5-1.17a1.24,1.24,0,0,1,.65-1,13.35,13.35,0,0,0,1.24-.94H86.77c-.54,0-.8-.26-.8-.83a.71.71,0,0,1,.8-.8h7.57a11.29,11.29,0,0,0,1.27-1.82.92.92,0,0,1,.81-.53C97,22.61,97.38,22.87,97.43,23.36ZM95,26.53c-.57.47-1.22,1-2,1.46-.13.1-.18.18-.18.26s.11.18.34.23l4.55.91a6.34,6.34,0,0,0,1-.54,10.31,10.31,0,0,0,2.57-2.32Z"/><path class="cls-3" d="M119.3,19.2a.84.84,0,0,1,.34.63,2.83,2.83,0,0,1-.11.49,38,38,0,0,1-1.4,5.25V42a.81.81,0,0,1-.91.91.82.82,0,0,1-.94-.91V29.7c-.26.5-.54,1-.8,1.38s-.47.42-.6.42c-.68,0-1-.26-1-.81a1.17,1.17,0,0,1,.19-.62,27.58,27.58,0,0,0,2.23-4.45,34.84,34.84,0,0,0,1.74-6c.08-.42.29-.63.6-.63A1.24,1.24,0,0,1,119.3,19.2Zm10.19,1.74c0,.63-.29.91-.81.91h-4.57a3.75,3.75,0,0,0,0,.52c-.06.73-.16,1.48-.29,2.21h3.69c.94,0,1.43.6,1.43,1.75a21.15,21.15,0,0,1-.6,5.12A19.5,19.5,0,0,1,126.16,37a18.91,18.91,0,0,1-5.2,5.41,1.84,1.84,0,0,1-.7.21.89.89,0,0,1-1-1,.84.84,0,0,1,.28-.62,18.46,18.46,0,0,0,4.63-4.35,12.38,12.38,0,0,0,1-1.61s0,0,0,0c-.78-.91-1.58-1.8-2.42-2.65a1,1,0,0,1-.2-.5c0-.55.28-.83.91-.83a.7.7,0,0,1,.49.31,15.29,15.29,0,0,1,2,2,21.48,21.48,0,0,0,.65-2.21,20.36,20.36,0,0,0,.5-4c0-.39-.13-.6-.39-.6h-3a.42.42,0,0,1-.2,0,4.33,4.33,0,0,0-.11.47,20.14,20.14,0,0,1-1.19,3.38,16.85,16.85,0,0,1-2,3.07.83.83,0,0,1-.63.21.69.69,0,0,1-.57-.29.82.82,0,0,1-.23-.62A.75.75,0,0,1,119,32a19.2,19.2,0,0,0,1.69-2.75,19,19,0,0,0,1-3.12,26.85,26.85,0,0,0,.67-4.27H121c-.54,0-.8-.28-.8-.91a.72.72,0,0,1,.8-.83h7.72A.74.74,0,0,1,129.49,20.94Zm7-.83V40.24c0,1.56-.88,2.34-2.65,2.34a11.88,11.88,0,0,1-3.46-.73.91.91,0,0,1-.7-.91c0-.58.23-.86.7-.91a3.16,3.16,0,0,1,.57.07,13.61,13.61,0,0,0,2.89.63c.52,0,.8-.34.8-1V20.11a.82.82,0,0,1,.94-.91A.81.81,0,0,1,136.51,20.11Zm-4,1.95V36a.91.91,0,0,1-1.82,0V22.06a.91.91,0,1,1,1.82,0Z"/><path class="cls-3" d="M149.46,40.26c-.57,0-.83-.34-.83-1V26.07a4.49,4.49,0,0,1-2.24.91c-.62,0-.91-.29-.91-.86,0-.34.26-.58.83-.73a2.69,2.69,0,0,0,.52-.11,4.11,4.11,0,0,0,1.9-1.48c.31-.41.57-.62.75-.62a.81.81,0,0,1,.89.93V39.25C150.37,39.92,150.06,40.26,149.46,40.26Z"/><rect class="cls-4" y="67.12" width="263.28" height="56.72" rx="12"/><path class="cls-5" d="M59.91,78.15c.19,0,.3.06.3.18v6.73c0,.12-.11.18-.3.18h-.59c-.15,0-.22-.06-.22-.18v-1H50.19v5c0,.48.27.71.82.71h7.56c.65,0,1-.12,1.17-.39A8.81,8.81,0,0,0,60.33,87a1.86,1.86,0,0,0,.66.6c.13.06.21.13.21.22a7.6,7.6,0,0,1-.74,2.48,1.12,1.12,0,0,1-1.08.51H50.89c-1.21,0-1.81-.38-1.81-1.11V81.61c0-.12,0-.18.06-.18l1.08.12c.13,0,.21.06.21.12s0,.17-.11.18a.16.16,0,0,0-.13.17v1.06H59.1V79.15H49.2c-.12,0-.18-.07-.18-.24v-.58a.16.16,0,0,1,.18-.18Z"/><path class="cls-5" d="M68.35,78.1l.08.17c0,.09-.09.13-.26.13s-.39.06-.45.17c-.51.81-1,1.54-1.44,2.2.3.27.6.57.92.89.45-.63.84-1.22,1.17-1.74a6.87,6.87,0,0,1,1,.93c0,.06-.06.09-.17.09a.54.54,0,0,0-.39.1c-.78,1.1-1.54,2.1-2.29,3,.61-.08,1.33-.15,2.16-.24l-.36-.74c0-.06.24-.22.75-.48q.42.84.69,1.53a11.88,11.88,0,0,1,.43,1.35,3.29,3.29,0,0,1-.88.29A10,10,0,0,0,69,84.63c0-.06,0-.11-.06-.15l-1.38.33v6.12c0,.12-.09.18-.24.18h-.58a.16.16,0,0,1-.18-.18V85.05l-1.88.43a2.3,2.3,0,0,1-.4.41A5.77,5.77,0,0,1,64,84.48a3.64,3.64,0,0,1,1.22-.26c.6-.75,1.09-1.41,1.5-2-.51-.42-.9-.72-1.16-.91a9.61,9.61,0,0,0-1.27-.69c0-.08.21-.33.63-.78a.14.14,0,0,1,.13-.09l.48.36c.29-.41.54-.8.77-1.19.39-.67.69-1.18.87-1.51Zm-2.1,8.37a.19.19,0,0,1-.12.18.37.37,0,0,0-.19.27,14.74,14.74,0,0,1-.36,2.21c-.09.33-.21.64-.33,1,0,.08-.08.12-.11.12a4.87,4.87,0,0,0-.81-.21c-.09,0-.13-.07-.13-.13a12.63,12.63,0,0,0,.49-1.4,12,12,0,0,0,.35-2.2c0-.09,0-.15.16-.15C65.89,86.28,66.25,86.4,66.25,86.47Zm3.26,1.23c.12.45.22.92.31,1.41a3.3,3.3,0,0,1-.87.29c0-.32-.12-.71-.22-1.19a14.19,14.19,0,0,0-.48-1.62c0-.06.25-.21.76-.46C69.21,86.7,69.37,87.22,69.51,87.7Zm2.76-7.65a.23.23,0,0,1,.07.15c0,.09-.07.15-.19.17a.47.47,0,0,0-.33.19A7.91,7.91,0,0,1,71,82.2v.06a.17.17,0,0,1,.06,0,5.93,5.93,0,0,1,1,1.32,9.06,9.06,0,0,1,.34,1c0,.09-.06.13-.15.13l-.61.11c-.12,0-.17,0-.12-.17a3.58,3.58,0,0,0-.63-1.38,4.74,4.74,0,0,0-.93-1s-.06-.06-.08-.06,0,0,.05-.06a8.59,8.59,0,0,0,.61-1,7.84,7.84,0,0,0,.51-1.38q0-.18.18-.18ZM77.2,85.6c.08,0,.12.06.12.17v.48c0,.15,0,.22-.12.22H74.46v3.35h3.28c.06,0,.11.06.11.18v.46c0,.15,0,.23-.11.23H70c-.09,0-.12-.08-.12-.23V90c0-.12,0-.18.12-.18h3.41V86.47H70.65c-.09,0-.12-.07-.12-.22v-.48c0-.11,0-.17.12-.17Zm.42-7.39q.12,0,.12.18v.46c0,.17,0,.24-.12.24H70.24c-.09,0-.12-.07-.12-.24v-.46c0-.12,0-.18.12-.18Zm-2.77,2a.23.23,0,0,1,.07.15c0,.09-.07.15-.21.17a.46.46,0,0,0-.31.18,6.58,6.58,0,0,1-.89,1.48v0a.17.17,0,0,1,.06,0,5.85,5.85,0,0,1,1,1.29c.11.26.21.57.33,1,0,.09-.06.13-.15.15l-.61.09c-.12,0-.15,0-.12-.17a3.58,3.58,0,0,0-.6-1.35,3.82,3.82,0,0,0-.9-.94s-.06-.06-.08-.06l0-.06a6.59,6.59,0,0,0,.64-1,6.22,6.22,0,0,0,.54-1.27q0-.18.18-.18Zm2.46-.12a.23.23,0,0,1,.07.15c0,.09-.07.15-.19.17a.47.47,0,0,0-.33.19,8.48,8.48,0,0,1-.77,1.64v.06l0,0A5.25,5.25,0,0,1,77,83.56a5.52,5.52,0,0,1,.3.92c0,.09,0,.13-.13.15l-.62.09c-.12,0-.15,0-.12-.15a3.55,3.55,0,0,0-.57-1.32,4.41,4.41,0,0,0-.84-1,.17.17,0,0,0-.06,0s0,0,0-.06a7.38,7.38,0,0,0,.6-1,10,10,0,0,0,.48-1.38q0-.18.18-.18Z"/><path class="cls-5" d="M83.85,77.8a.58.58,0,0,1,.4.11.87.87,0,0,1,.3.54L82.92,82a.52.52,0,0,0,0,.17.19.19,0,0,0,.06.13,10.43,10.43,0,0,1,1,2,7.14,7.14,0,0,1,.28,1.88,3.32,3.32,0,0,1-.31,1.65,1.3,1.3,0,0,1-1.22.69c-.39,0-.58-.08-.6-.24s-.09-.41-.15-.65,0-.16.06-.16l.69,0a.43.43,0,0,0,.45-.37,4.8,4.8,0,0,0,.09-1.08,5.34,5.34,0,0,0-.31-1.7,7.33,7.33,0,0,0-1-2,.22.22,0,0,1-.08-.15.77.77,0,0,1,.06-.21l1.53-3.36H81.67V91c0,.12-.07.18-.22.18h-.6c-.12,0-.17-.06-.17-.18V78c0-.12,0-.18.17-.18Zm1.53,4c.27.3.49.58.69.82,0,0,0,0-.06.11l-.41.54a11.18,11.18,0,0,0-1-1.08,5,5,0,0,0-.69-.56,2.8,2.8,0,0,1,.42-.55.15.15,0,0,1,.12-.09C84.85,81.33,85.14,81.6,85.38,81.84Zm1,2.82c.15,0,.22.06.22.18v4.09a1.89,1.89,0,0,0,0,.39,1.58,1.58,0,0,0,.5.56,2.54,2.54,0,0,0,1.2.22h2.94c.25,0,.69,0,1.29-.1a12.08,12.08,0,0,0,1.3-.23H94c.08,0,.12,0,.12.12q-.23.42-.39.78c0,.18-.1.27-.25.27H88.32a3,3,0,0,1-1.8-.51,2.06,2.06,0,0,1-.47-.62c-.33.32-.63.6-.88.86a.44.44,0,0,0-.27.34c0,.11,0,.17-.06.17s-.11,0-.17-.12l-.6-1a5.3,5.3,0,0,0,1.43-.85c.1,0,.16-.14.16-.32V85.71h-.82c-.12,0-.18-.08-.18-.23V84.9c0-.15.06-.24.18-.24Zm-.36-6c.22.26.42.48.58.68,0,0,0,.06-.07.12-.29.39-.44.58-.45.58-.26-.31-.53-.61-.8-.88a3.41,3.41,0,0,0-.55-.45,2.18,2.18,0,0,1,.42-.62c0-.06.07-.09.1-.09A9.54,9.54,0,0,1,86,78.7Zm2.55-.19a6.88,6.88,0,0,0,.15-1,.05.05,0,0,1,.06-.06,5.8,5.8,0,0,1,1,.28c0,.12,0,.18-.12.18s-.18.08-.18.18,0,.29-.08.41h4.25c.07,0,.12.06.12.18v.46c0,.12,0,.18-.12.18H89.25c0,.12,0,.21-.08.3-.09.24-.16.48-.25.69h4.36c.06,0,.11.06.11.18V81c0,.12,0,.18-.11.18H91.35v1h2.16c.07,0,.12.06.12.18v.46c0,.12,0,.18-.12.18H88.18c-.09,0-.12-.06-.12-.18v-.46c0-.12,0-.18.12-.18h2.16v-1H88.5c0,.07-.08.13-.11.18a5.08,5.08,0,0,1-1,1.33.35.35,0,0,1-.19.12.3.3,0,0,1-.26-.1l-.46-.29a.14.14,0,0,1-.09-.13.1.1,0,0,1,0-.08,4.26,4.26,0,0,0,.77-.67,5.8,5.8,0,0,0,.85-1.4,6.36,6.36,0,0,0,.3-.78H87.07c-.09,0-.12-.06-.12-.18v-.46c0-.12,0-.18.12-.18ZM93,83.77a.22.22,0,0,1,.24.24v4.91q0,.31-.45.48a4.64,4.64,0,0,1-1.08.18.14.14,0,0,1-.16-.15,3,3,0,0,0-.3-.84s0,0,.07,0a2.66,2.66,0,0,0,.83-.06.2.2,0,0,0,.15-.19V87.7H89v1.65c0,.12-.09.17-.24.17h-.47c-.16,0-.24,0-.24-.17V84q0-.18.24-.18Zm-.7,1.65v-.76H89v.76Zm0,1.52v-.75H89v.75Z"/><path class="cls-5" d="M100.5,77.62c0,.14-.06.21-.15.23s-.15.12-.15.3V80h1.93c.12,0,.18.07.18.22v.47q0,.24-.18.24h-3c0,.79,0,1.48,0,2h2.57c.12,0,.18.08.18.23,0,2.11-.08,3.63-.17,4.54a12.6,12.6,0,0,1-.43,2.45,1.29,1.29,0,0,1-1.4.87c-.63,0-1-.11-1-.3a2.23,2.23,0,0,0-.38-.81v-.12a9.51,9.51,0,0,0,1.35.12q.48,0,.63-.6a9.27,9.27,0,0,0,.27-1.89c.06-.72.11-1.91.14-3.56H99c0,.45-.06.83-.09,1.13a21.84,21.84,0,0,1-.47,3,7.58,7.58,0,0,1-.64,1.67A5.57,5.57,0,0,1,96.93,91c-.27-.29-.51-.54-.71-.77a4.1,4.1,0,0,0,.6-.9,7.86,7.86,0,0,0,.63-1.65,19.82,19.82,0,0,0,.42-2.85c.09-.88.14-2.19.17-3.91H96.57q-.18,0-.18-.24V80.2c0-.15.06-.22.18-.22h2.58V77.62c0-.1.07-.16.24-.16C100.12,77.46,100.5,77.52,100.5,77.62Zm8.26,4.32a5.15,5.15,0,0,1-1.66.78l0,0a11.64,11.64,0,0,0,.26,2.31.27.27,0,0,0,0,.16.63.63,0,0,0,.12-.07,5.84,5.84,0,0,0,.93-.66,6.06,6.06,0,0,0,.66-.78.15.15,0,0,1,.11-.09l.91.64c.12.09.2.18.2.29s-.08.12-.23.12a.46.46,0,0,0-.33.1,10.35,10.35,0,0,1-2.11,1.46,6.14,6.14,0,0,0,.22.73,7.39,7.39,0,0,0,.89,1.64,9.87,9.87,0,0,0,1.56,1.69c0,.06,0,.11-.14.17l-.6.43a.41.41,0,0,1-.25.11,10,10,0,0,1-1.11-1.26A7.52,7.52,0,0,1,107.11,88a10.74,10.74,0,0,1-.7-2.25,16.7,16.7,0,0,1-.33-2.81A6.53,6.53,0,0,1,105,83v6.32c.54-.17,1.16-.38,1.82-.63.07,0,.12.06.12.16s-.11.42-.14.6-.06.27-.16.29a29.88,29.88,0,0,1-3.53.94c-.16,0-.25.08-.28.18s-.09.17-.12.17a.19.19,0,0,1-.2-.14l-.33-.87a.18.18,0,0,1,.14-.18c.69-.09,1.2-.15,1.53-.22l.09,0V81.9c0-.11.06-.17.18-.17l.82.32a7.35,7.35,0,0,0,1.62-.21,4.47,4.47,0,0,0,1.79-.84.26.26,0,0,1,.16-.09.26.26,0,0,1,.18.09c.5.4.75.67.75.79s-.06.29-.16.29l-.36-.18A.33.33,0,0,0,108.76,81.94Zm-3.51-4c.11.09.17.15.17.21a.17.17,0,0,1-.12.17.16.16,0,0,0-.18.16c-.11.39-.2.74-.29,1h4.74c.12,0,.18.09.18.24v.46c0,.17-.06.24-.18.24h-5.08c-.18.42-.38.83-.56,1.19a6.68,6.68,0,0,1-.69,1,1,1,0,0,1-.31,0c-.2-.08-.39-.15-.59-.21s-.09-.06-.09-.09a.14.14,0,0,1,0-.11,7.25,7.25,0,0,0,1-1.62,7.7,7.7,0,0,0,.46-1.17,16,16,0,0,0,.41-1.68c0-.07,0-.12.09-.12Z"/><path class="cls-5" d="M118.32,81.49a.3.3,0,0,1-.24.3.74.74,0,0,0-.35.17,10.64,10.64,0,0,1-1.63,1.54v7.43c0,.12-.09.18-.24.18h-.59q-.24,0-.24-.18V84.28a23.35,23.35,0,0,1-2,1.26,7.05,7.05,0,0,0-.66-.64.4.4,0,0,1-.1-.18s0-.06.07-.09a12,12,0,0,0,2.91-1.88,13.88,13.88,0,0,0,1.89-1.93.22.22,0,0,1,.17-.09A5.53,5.53,0,0,1,118.32,81.49Zm-.9-3.22a.38.38,0,0,1,.19.3c0,.09-.07.12-.22.12a.71.71,0,0,0-.5.15,15.36,15.36,0,0,1-3.37,2.47.29.29,0,0,1-.23-.1,4.55,4.55,0,0,0-.43-.44.24.24,0,0,1-.11-.15s0-.07.09-.1a4.81,4.81,0,0,0,1.08-.59,6.89,6.89,0,0,0,2.42-2.16c.06-.09.12-.15.16-.15Zm8.4,4c.12,0,.18.07.18.22V83c0,.15-.06.23-.18.23H123.6V90c0,.75-.62,1.13-1.82,1.13l-1.23-.06c-.07,0-.1-.11-.1-.29a2.53,2.53,0,0,0-.26-.78v0a8.29,8.29,0,0,0,1.53.16c.54,0,.81-.18.81-.52V83.25h-4.09c-.12,0-.18-.08-.18-.23v-.48c0-.15.06-.22.18-.22Zm-.83-4c.12,0,.18.09.18.24V79c0,.17-.06.24-.18.24H119.2c-.12,0-.18-.07-.18-.24v-.46c0-.15.06-.24.18-.24Z"/><path class="cls-5" d="M130.57,83.55a.23.23,0,0,1-.16.22.62.62,0,0,0-.2.44,34,34,0,0,1-.37,3.39c-.09.49-.21,1-.33,1.51,0,.12-.08.18-.11.18a7.18,7.18,0,0,0-.85-.22.13.13,0,0,1-.14-.14,18.93,18.93,0,0,0,.53-2.13,27.46,27.46,0,0,0,.36-3.37c0-.15,0-.24.16-.24Q130.57,83.43,130.57,83.55Zm3.59-2.46c.1,0,.16.07.16.22v.48c0,.15-.06.23-.16.23H132.1v8.91c0,.12-.09.18-.24.18h-.58c-.15,0-.23-.06-.23-.18V82h-2.23c-.12,0-.18-.08-.18-.23v-.48c0-.15.06-.22.18-.22Zm-.54-2.82c.12,0,.18.09.18.24V79c0,.17-.06.24-.18.24h-4.16c-.12,0-.18-.07-.18-.24v-.46c0-.15.06-.24.18-.24Zm.12,5a.22.22,0,0,1,.24.24A6.43,6.43,0,0,0,133.8,85a11.65,11.65,0,0,0,.52,3.62c0,.07-.06.12-.15.15-.51.06-.78.07-.84.07s0-.06-.09-.21a46.39,46.39,0,0,1-.27-5.11.22.22,0,0,1,.24-.24Zm4.11-.87V77.74c0-.12.07-.18.22-.18.75,0,1.13.06,1.13.18s-.06.21-.15.23-.15.12-.15.3v4.11h2.86c.12,0,.18.07.18.22v.48c0,.15-.06.23-.18.23H138.9v6h3.34c.11,0,.17.08.17.23V90c0,.15-.06.24-.17.24h-8c-.12,0-.16-.09-.16-.24v-.46c0-.15,0-.23.16-.23h3.59v-6h-2.64c-.12,0-.18-.08-.18-.23V82.6c0-.15.06-.22.18-.22Z"/><path class="cls-5" d="M149.7,78.1c.15,0,.22.06.22.17V82.5c0,.12-.07.16-.22.16h-1.29v2.4h1.69c.12,0,.18.09.18.24v.47q0,.24-.18.24h-1.69v2.76c.57-.15,1.12-.33,1.65-.51a.17.17,0,0,1,.1,0,.11.11,0,0,1,.12.12,2.89,2.89,0,0,1-.06.82c-1.6.51-3.22,1-4.87,1.35-.15.27-.26.41-.35.41s-.28-.42-.58-1.23l1-.18V84c0-.07.06-.12.18-.12.69,0,1,.06,1,.18s0,.2-.11.2-.12.1-.12.27v4.75l.69-.18.3-.07V82.66h-1.75c-.17,0-.24,0-.24-.16V78.27c0-.11.07-.17.24-.17Zm-.77.87h-2.52v2.82h2.52Zm3.39,10.53c.87-.21,1.71-.45,2.51-.72a.11.11,0,0,1,.07,0q.12,0,.12.18a3.59,3.59,0,0,1-.06.89c-1.29.37-2.61.72-3.93,1.05-.16.27-.3.4-.4.4s-.29-.43-.59-1.27l1.23-.26V78.33a.21.21,0,0,1,.24-.23h5.57c.15,0,.22.06.22.17v5.86c0,.17-.07.24-.22.24h-2.4a7.36,7.36,0,0,0,.25,1.2,6.63,6.63,0,0,0,.42,1.28.61.61,0,0,0,.15-.12,4.74,4.74,0,0,0,.74-.68,5.81,5.81,0,0,0,.51-.78q0-.09.09-.09l.87.6a.36.36,0,0,1,.18.29c0,.09-.06.12-.17.12a.34.34,0,0,0-.27.09,8.57,8.57,0,0,1-1.66,1.42,6.09,6.09,0,0,0,.45.65,4.09,4.09,0,0,0,1,1,5.43,5.43,0,0,0,1.43.78c.06,0,.1.07.1.1a.31.31,0,0,1-.07.17,4.29,4.29,0,0,0-.53.52c-.07.09-.13.14-.16.14a.86.86,0,0,1-.2-.12c-.28-.15-.6-.33-.93-.54a7.48,7.48,0,0,1-1.11-1,6.83,6.83,0,0,1-.91-1.29,5.44,5.44,0,0,1-.65-1.59,13.45,13.45,0,0,1-.51-2.15h-1.38Zm0-8.77h3.93V79h-3.93Zm0,2.7h3.93V81.67h-3.93Z"/><path class="cls-5" d="M173.55,77.8c.15,0,.24.06.24.18V91c0,.12-.09.18-.24.18H173q-.24,0-.24-.18v-.41H162.48v.53c0,.1-.09.16-.24.16h-.59c-.15,0-.22-.06-.22-.16V78c0-.12.07-.18.22-.18Zm-.83,12V78.63H162.48V89.76Zm-5.62-9.9v-.71c0-.07.06-.12.18-.12.69,0,1.05.06,1.05.18s-.05.18-.11.2-.12.1-.12.27v.18H172c.06,0,.11.06.11.16v.36c0,.17,0,.24-.11.24H168.1v.59h2.81c.15,0,.24.06.24.16v3c0,.12-.09.17-.24.17h-.18a7.92,7.92,0,0,1,.72.94,7.65,7.65,0,0,1,.52.93,2.9,2.9,0,0,1-.82.24,3.3,3.3,0,0,0-.36-.75l-.69,0v1h2c.07,0,.12.06.12.18v.36c0,.15,0,.22-.12.22h-2v.59c0,.72-.42,1.06-1.23,1.06H168q-.09,0-.09-.27a2.13,2.13,0,0,0-.19-.73v-.06a4.72,4.72,0,0,0,1.11.12c.18,0,.28-.17.28-.53V87.7h-3.31l.51.32.64.51a1,1,0,0,1-.07.1l-.41.54a8.41,8.41,0,0,0-.88-.66c-.26-.15-.47-.27-.63-.34a1.8,1.8,0,0,1,.33-.47h-2c-.09,0-.12-.07-.12-.22v-.36c0-.12,0-.18.12-.18h5.79V86l-5,.36c-.07.23-.15.35-.22.36a.13.13,0,0,1-.14-.07l-.28-1.1c.51,0,1.74-.07,3.69-.16v-.84h-2.75c-.16,0-.24-.05-.24-.17v-3c0-.1.08-.16.24-.16h2.75v-.59h-3.75c-.08,0-.11-.07-.11-.24V80c0-.1,0-.16.11-.16Zm0,2.68V81.9h-1.92v.64Zm0,.65h-1.92v.64h1.92Zm1-.65h2V81.9h-2Zm2,.65h-2v.64h2ZM170,84.84s.13-.15.42-.3h-2.3v.79c.51,0,1.05,0,1.62-.07.21,0,.42,0,.6,0Z"/><path class="cls-5" d="M184.38,85.32a3.12,3.12,0,0,1-1,1.05l-.39-.44a2.3,2.3,0,0,0,1-1.71h-1.11v-1.8h1.8v1.65A2.67,2.67,0,0,1,184.38,85.32Z"/><path class="cls-5" d="M196.08,84.72c.15,0,.22.06.22.18v3.33a1.94,1.94,0,0,0,.2.91.9.9,0,0,0,.42.48,2.57,2.57,0,0,0,.91.32,11.51,11.51,0,0,0,1.52.1h3.09a26.67,26.67,0,0,0,4.26-.4.47.47,0,0,1,.21-.06c.07,0,.12,0,.12.06a7.88,7.88,0,0,0-.27,1.21c0,.17-.11.26-.26.26h-7.15a7.09,7.09,0,0,1-1.16-.09c-.39-.08-.75-.17-1.09-.27a3.3,3.3,0,0,1-.9-.5,3.55,3.55,0,0,1-.6-.9l0-.06c-.09,0-.13,0-.13,0a6.57,6.57,0,0,0-1.79,1.72c0,.06-.07.11-.13.11s-.27-.26-.59-.77a.7.7,0,0,1-.06-.3,12.1,12.1,0,0,0,2.33-1.51.65.65,0,0,0,.07-.36V85.65h-1.81c-.12,0-.18-.08-.18-.23V85c0-.15.06-.24.18-.24Zm-.89-2.85q.67.33,1.17.63a.61.61,0,0,1-.07.12q-.49.69-.51.69a14.77,14.77,0,0,0-1.58-.84,8.66,8.66,0,0,0-1.12-.45,3,3,0,0,1,.46-.66c.05-.06.09-.11.14-.11C194.28,81.48,194.79,81.69,195.19,81.87Zm.29-3.53,1.12.63a.26.26,0,0,1-.09.14l-.49.69c-.48-.3-1-.59-1.5-.86a8.49,8.49,0,0,0-1.08-.43,3,3,0,0,1,.46-.66c0-.06.09-.11.12-.11C194.61,78,195.09,78.16,195.48,78.34Zm9.73,4.79c.15,0,.24.06.24.18v2.34c0,.12-.09.18-.24.18h-2.68a2.3,2.3,0,0,0,.3.54,2.81,2.81,0,0,0,.57.75,1.21,1.21,0,0,0,.16.16,6,6,0,0,0,.72-.37,5.58,5.58,0,0,0,1-.8.3.3,0,0,1,.13,0,3.9,3.9,0,0,1,.81.76c0,.06-.06.09-.15.09s-.3,0-.31.08a8.61,8.61,0,0,1-1.41.88.72.72,0,0,0,.21.12,4.83,4.83,0,0,0,1.44.53s.06,0,.06.06a.24.24,0,0,1-.12.18,5.92,5.92,0,0,0-.41.49.18.18,0,0,1-.18.14,1.26,1.26,0,0,1-.39-.17,6.17,6.17,0,0,1-1.72-1.08,3.64,3.64,0,0,1-.84-1,5.16,5.16,0,0,1-.63-1.33h-.75a11.43,11.43,0,0,1-.83.85v1.7c.81-.12,1.56-.27,2.27-.42l.07,0a.11.11,0,0,1,.12.12,2.09,2.09,0,0,1-.06.69c-1.23.27-2.49.5-3.75.71-.12.24-.22.36-.28.36s-.27-.36-.53-1.11c.35,0,.74-.09,1.17-.17V87.46a2.5,2.5,0,0,1-.36.24,8.87,8.87,0,0,1-1.41.71.29.29,0,0,1-.22-.09c-.17-.17-.33-.33-.5-.48a.29.29,0,0,1,0-.14,7.72,7.72,0,0,0,1.1-.45,6.77,6.77,0,0,0,1.3-.78,9.4,9.4,0,0,0,.75-.64h-1.8q-.24,0-.24-.18V83.31q0-.18.24-.18Zm1.17-1.64q.12,0,.12.18v.47q0,.18-.12.18H197c-.09,0-.12-.06-.12-.18v-.47c0-.12,0-.18.12-.18Zm-1.17-3.75c.15,0,.24.06.24.18v2.64c0,.12-.09.17-.24.17H198c-.16,0-.24,0-.24-.17V77.92q0-.18.24-.18Zm-5.22.83h-1.23v1.35H200Zm4.4,5.38h-5.51v1h5.51Zm-2.22-5.38H201v1.35h1.17Zm2.22,0h-1.23v1.35h1.23Z"/><path class="cls-5" d="M221.34,77.92c.12,0,.18.08.18.23v.48c0,.15-.06.22-.18.22h-4.8v.89H222c.15,0,.24.06.24.18v2.74c0,.12-.09.18-.24.18h-.58c-.17,0-.24-.06-.24-.18v-2h-4.62v3.27c0,.12-.09.18-.24.18h-.59q-.24,0-.24-.18V80.62h-4.74v2c0,.12-.09.18-.24.18h-.58c-.15,0-.23-.06-.23-.18V79.92c0-.12.08-.18.23-.18h5.56v-.89h-4.62c-.12,0-.18-.07-.18-.22v-.48c0-.15.06-.23.18-.23Zm.82,6.68c.11,0,.17.09.17.24v.46c0,.17-.06.24-.17.24h-5.67c-.15.42-.31.84-.48,1.23h5.39c.15,0,.24.06.24.17v2.52a1.49,1.49,0,0,1-.23,1c0,.24-.6.47-1.71.71-.21,0-.3-.08-.3-.23a6.67,6.67,0,0,0-.22-.84c.9-.06,1.36-.27,1.39-.64V87.64h-2.34v3c0,.12-.09.18-.24.18h-.58c-.15,0-.23-.06-.23-.18v-3h-2.29v3c0,.12-.08.18-.23.18h-.58c-.17,0-.24-.06-.24-.18v-3h-2.28v3.29c0,.12-.09.18-.24.18h-.59q-.24,0-.24-.18v-4c0-.11.08-.17.24-.17h4.19a5.44,5.44,0,0,0,.34-.69,2.77,2.77,0,0,0,.21-.54h-5.56c-.12,0-.17-.07-.17-.24v-.46c0-.15,0-.24.17-.24Zm-7.8-3.23q.12,0,.12.18V82q0,.18-.12.18H211.9c-.09,0-.12-.06-.12-.18v-.47c0-.12,0-.18.12-.18Zm0,1.53q.12,0,.12.18v.47q0,.18-.12.18H211.9c-.09,0-.12-.06-.12-.18v-.47c0-.12,0-.18.12-.18Zm5.69-1.59c.07,0,.12.06.12.18V82c0,.12,0,.18-.12.18h-2.28c-.09,0-.12-.06-.12-.18v-.47c0-.12,0-.18.12-.18Zm0,1.59c.07,0,.12.06.12.18v.47c0,.12,0,.18-.12.18h-2.28c-.09,0-.12-.06-.12-.18v-.47c0-.12,0-.18.12-.18Z"/><path class="cls-5" d="M238.57,78c.08,0,.12.06.12.17v.48c0,.15,0,.22-.12.22h-4.21V80.2h3.22c.15,0,.24.06.24.18v3.51c0,.12-.09.18-.24.18h-4.81a.59.59,0,0,1,.12.12c0,.09,0,.14-.11.14a.44.44,0,0,0-.36.15c-.19.33-.37.61-.55.88h6.94q.12,0,.12.18V86q0,.24-.12.24h-2.58a6.71,6.71,0,0,1-.66,1,5,5,0,0,1-1,1.13l1.41.55c1,.42,2.06.87,3.06,1.38a.35.35,0,0,1-.09.21c-.34.41-.55.62-.61.62a.87.87,0,0,1-.23-.06c-1.17-.57-2.14-1-2.91-1.34-.6-.24-1.15-.45-1.68-.64a6.1,6.1,0,0,1-.81.4,18.93,18.93,0,0,1-2.22.8c-1.08.3-2.35.57-3.82.84-.12,0-.18,0-.2-.12a8.81,8.81,0,0,1-.48-.74.29.29,0,0,1-.13-.21A7.16,7.16,0,0,0,227,90q.94-.14,2.07-.33a17.56,17.56,0,0,0,2.52-.71,3.37,3.37,0,0,0,.54-.24c-.81-.24-1.72-.46-2.74-.7l-1,.76a.44.44,0,0,1-.32-.13l-.46-.38a.23.23,0,0,1-.11-.18c.48-.36,1-.73,1.46-1.14a5.86,5.86,0,0,0,.73-.67h-4.12c-.09,0-.12-.08-.12-.24v-.47c0-.12,0-.18.12-.18h4.89a.61.61,0,0,0,.13-.16,10,10,0,0,0,.71-1.13h-4.38c-.17,0-.24-.06-.24-.18V80.38c0-.12.07-.18.24-.18h3V78.91h-4.15c-.09,0-.12-.07-.12-.22v-.48c0-.11,0-.17.12-.17ZM230,81.15h-2.22v2H230Zm1.25,5.1a10,10,0,0,1-.87.93h0c.86.2,1.65.41,2.4.65l.65.19a5.61,5.61,0,0,0,1-.84,4.72,4.72,0,0,0,.73-.94Zm2.1-7.34H231V80.2h2.3Zm0,2.24H231v2h2.3Zm3.45,0h-2.4v2h2.4Z"/><path class="cls-5" d="M50.31,102V100.2a3.45,3.45,0,0,0-.06-.66.59.59,0,0,1-.06-.28c0-.08.09-.12.28-.12l1.19.16c.1.06.16.11.16.14s-.06.13-.16.13-.3.32-.3.69V102H53c.1,0,.16.09.16.24v.46c0,.15-.06.23-.16.23H51.36v3.33c.54-.27,1.06-.57,1.56-.87a.08.08,0,0,1,.07,0,.11.11,0,0,1,.12.11,2.89,2.89,0,0,1-.06.82c-.57.35-1.14.68-1.69,1v4.41c0,.7-.53,1.06-1.58,1.06h-1c-.09,0-.12-.09-.12-.25a2.85,2.85,0,0,0-.29-.69c0-.09,0-.12.12-.12a7.26,7.26,0,0,0,1.17.12c.42,0,.65-.18.65-.53v-3.43c-.54.28-1.07.55-1.59.79-.15.29-.26.42-.35.42s-.28-.4-.58-1.23a19.5,19.5,0,0,0,2.43-1l.09,0V103h-2c-.12,0-.18-.08-.18-.23v-.46c0-.15.06-.24.18-.24Zm9.6,3.93a.34.34,0,0,1,.24.09,1.84,1.84,0,0,1,.3.49,13.13,13.13,0,0,1-.89,2,7.22,7.22,0,0,1-1,1.47c-.12.12-.22.24-.34.35a6.72,6.72,0,0,0,1.39.76,11.81,11.81,0,0,0,2.16.68c.09,0,.15.06.15.09a.28.28,0,0,1-.07.16,4.41,4.41,0,0,0-.53.53c-.07.09-.13.13-.16.13a1.67,1.67,0,0,1-.27-.1c-.42-.12-.89-.29-1.38-.47a14.42,14.42,0,0,1-1.67-.85l-.4-.3a.87.87,0,0,1-.2.15,10.54,10.54,0,0,1-1.95,1,10,10,0,0,1-1.86.55.31.31,0,0,1-.28-.13c-.12-.17-.24-.33-.35-.5a.18.18,0,0,1-.07-.13c0-.06,0-.09.1-.09.48-.11.95-.23,1.4-.36a7.75,7.75,0,0,0,2.16-1l.28-.19a.7.7,0,0,1-.19-.2,3.93,3.93,0,0,1-1-1.38,7.09,7.09,0,0,1-.75-1.84h-.69q-.18,0-.18-.24v-.47c0-.15.06-.22.18-.22Zm-.81-6.33a.19.19,0,0,1,.22.22v3.69c0,.14,0,.23.12.27a.76.76,0,0,0,.41.09h.3c.13,0,.22-.07.27-.24a7.87,7.87,0,0,0,.16-1.14.08.08,0,0,1,.09-.09l.2.06a3.09,3.09,0,0,0,.48.18.24.24,0,0,1,.21.23,12.88,12.88,0,0,1-.38,1.66.58.58,0,0,1-.63.39H59.32a1.58,1.58,0,0,1-.87-.19.54.54,0,0,1-.18-.47v-3.73H56v.72a6.31,6.31,0,0,1-.25,1.8,2.74,2.74,0,0,1-.87,1.26,5.07,5.07,0,0,1-1.11.73.33.33,0,0,1-.27-.1l-.39-.51a.26.26,0,0,1-.11-.21,3.46,3.46,0,0,0,1.71-1.55,4.36,4.36,0,0,0,.23-1.47V99.84c0-.15.07-.22.24-.22Zm-3,8.23a5.9,5.9,0,0,0,.89,1.41,3.5,3.5,0,0,0,.4.44,4.16,4.16,0,0,0,.42-.42,6.18,6.18,0,0,0,.93-1.43,6.5,6.5,0,0,0,.44-1H55.75A6.65,6.65,0,0,0,56.11,107.85Z"/><path class="cls-5" d="M68.89,100c0,.09,0,.14-.12.14s-.3.07-.34.16a16.88,16.88,0,0,1-1.35,2.7v9.72c0,.12-.09.18-.24.18h-.59q-.24,0-.24-.18v-8.29c-.34.42-.78.9-1.29,1.44a.41.41,0,0,1-.3-.14c-.15-.12-.31-.25-.46-.39a.18.18,0,0,1-.11-.18c.44-.45.87-.94,1.32-1.45a11.53,11.53,0,0,0,1.5-2.22,13.46,13.46,0,0,0,.87-2.13q0-.12.12-.12A4.65,4.65,0,0,1,68.89,100Zm7.79-.12c.15,0,.24.06.24.18v5c0,.12-.09.18-.24.18h-.59c-.15,0-.22-.06-.22-.18v-.64H73.63v2.17h4c.12,0,.18.08.18.23v.46c0,.17-.06.24-.18.24H73.84A10.43,10.43,0,0,0,75,109a7.62,7.62,0,0,0,1.57,1.32,5.74,5.74,0,0,0,1.55.73c0,.09-.06.14-.15.17a4.66,4.66,0,0,0-.53.6c-.06.07-.12.12-.15.12a9.93,9.93,0,0,1-1.9-1.23A8.14,8.14,0,0,1,74,109.17l-.36-.46v4c0,.12-.07.18-.22.18h-.59q-.24,0-.24-.18V109l-.43.54a11.76,11.76,0,0,1-1.35,1.38A14.67,14.67,0,0,1,69.12,112a.35.35,0,0,1-.26-.11c-.19-.18-.39-.36-.57-.51a.37.37,0,0,1,0-.15,9.51,9.51,0,0,0,2.85-2.11,17.45,17.45,0,0,0,1.27-1.64H68.83c-.12,0-.18-.07-.18-.24v-.46c0-.15.06-.23.18-.23h3.75v-2.17H70.41v.7c0,.12-.08.18-.23.18H69.6c-.17,0-.24-.06-.24-.18v-5a.21.21,0,0,1,.24-.24Zm-.81,3.65v-2.7H70.41v2.7Z"/><path class="cls-5" d="M84.37,99.26c0,.13-.06.21-.15.22s-.15.12-.15.3v1.83H86c.12,0,.18.08.18.23v.46c0,.17-.06.24-.18.24H83c0,.8,0,1.49,0,2.06h2.56c.12,0,.18.07.18.22,0,2.12-.07,3.63-.16,4.55a12.17,12.17,0,0,1-.44,2.44,1.28,1.28,0,0,1-1.39.87c-.63,0-1-.1-1-.3a2,2,0,0,0-.37-.81v-.12a8.24,8.24,0,0,0,1.35.12c.31,0,.52-.19.63-.6a11,11,0,0,0,.27-1.89c.06-.72.1-1.9.13-3.55H82.87c0,.45-.06.82-.09,1.12a23.84,23.84,0,0,1-.46,3,7,7,0,0,1-.65,1.66,5.26,5.26,0,0,1-.87,1.26c-.27-.28-.51-.54-.7-.76a4.1,4.1,0,0,0,.6-.9,9.43,9.43,0,0,0,.63-1.65,21.32,21.32,0,0,0,.42-2.85c.09-.89.13-2.19.16-3.92H80.44c-.12,0-.18-.07-.18-.24v-.46c0-.15.06-.23.18-.23H83V99.26c0-.11.08-.17.24-.17C84,99.09,84.37,99.15,84.37,99.26Zm8.27,4.32a5.43,5.43,0,0,1-1.67.78h0a12.57,12.57,0,0,0,.25,2.31.34.34,0,0,0,0,.17,1.25,1.25,0,0,0,.12-.08,5.26,5.26,0,0,0,.93-.66,7,7,0,0,0,.66-.78c0-.06.07-.09.1-.09l.92.65a.38.38,0,0,1,.19.28c0,.09-.07.12-.22.12a.44.44,0,0,0-.33.11,9.91,9.91,0,0,1-2.12,1.45,5.79,5.79,0,0,0,.23.74,6.7,6.7,0,0,0,.88,1.63,10.77,10.77,0,0,0,1.56,1.7c0,.06,0,.1-.13.16s-.39.27-.6.44a.44.44,0,0,1-.26.1,10.83,10.83,0,0,1-1.11-1.26A7.59,7.59,0,0,1,91,109.62a10.91,10.91,0,0,1-.71-2.25,17.67,17.67,0,0,1-.33-2.8,6.5,6.5,0,0,1-1.06.09V111c.54-.16,1.15-.37,1.81-.63.08,0,.12.06.12.17a6,6,0,0,0-.13.6c0,.18-.06.27-.17.28a29.63,29.63,0,0,1-3.52,1c-.17,0-.26.07-.29.18s-.09.16-.12.16a.18.18,0,0,1-.19-.13l-.33-.87a.17.17,0,0,1,.13-.18c.69-.09,1.2-.15,1.53-.23h.09v-7.73c0-.1.06-.16.18-.16l.83.31a7.35,7.35,0,0,0,1.62-.21,4.43,4.43,0,0,0,1.78-.84.22.22,0,0,1,.35,0c.49.41.75.68.75.8s-.06.28-.17.28l-.36-.18A.28.28,0,0,0,92.64,103.58Zm-3.51-4c.1.09.16.15.16.21a.15.15,0,0,1-.12.16c-.1,0-.16.06-.18.17-.1.39-.19.73-.28,1h4.74c.12,0,.18.09.18.24v.47q0,.24-.18.24H88.36c-.18.42-.37.82-.55,1.18a7.39,7.39,0,0,1-.69,1,1,1,0,0,1-.32-.05l-.58-.21q-.09,0-.09-.09a.13.13,0,0,1,0-.1,7.73,7.73,0,0,0,1-1.62,8.91,8.91,0,0,0,.47-1.17,17,17,0,0,0,.4-1.68q0-.12.09-.12Z"/><path class="cls-5" d="M102.19,103.13a.31.31,0,0,1-.24.3.59.59,0,0,0-.34.16,11.83,11.83,0,0,1-1.64,1.55v7.42c0,.12-.09.18-.24.18h-.58c-.17,0-.24-.06-.24-.18v-6.64a23.35,23.35,0,0,1-2,1.26,9.22,9.22,0,0,0-.66-.65.37.37,0,0,1-.11-.18s0-.06.08-.09a12.51,12.51,0,0,0,2.91-1.87,15.21,15.21,0,0,0,1.89-1.94.19.19,0,0,1,.16-.09A6,6,0,0,1,102.19,103.13Zm-.9-3.23a.39.39,0,0,1,.2.3c0,.09-.08.12-.23.12a.68.68,0,0,0-.49.15A15.48,15.48,0,0,1,97.39,103a.25.25,0,0,1-.22-.11,3.51,3.51,0,0,0-.44-.43.25.25,0,0,1-.1-.15c0-.05,0-.08.09-.11a4.75,4.75,0,0,0,1.08-.58,8.24,8.24,0,0,0,1.41-1,7.1,7.1,0,0,0,1-1.15c.06-.09.12-.15.17-.15Zm8.4,4c.12,0,.18.08.18.23v.48c0,.15-.06.22-.18.22h-2.22v6.8c0,.75-.61,1.12-1.81,1.12l-1.23-.06c-.08,0-.11-.1-.11-.28a2.4,2.4,0,0,0-.25-.78v-.05a7.39,7.39,0,0,0,1.53.17c.54,0,.81-.18.81-.53v-6.39h-4.1c-.12,0-.18-.07-.18-.22v-.48c0-.15.06-.23.18-.23Zm-.82-4c.12,0,.18.09.18.24v.47q0,.24-.18.24h-5.79q-.18,0-.18-.24v-.47c0-.15.06-.24.18-.24Z"/><path class="cls-5" d="M125.11,99.78a.16.16,0,0,1,.18.18v.59q0,.24-.18.24h-5.2v5.91h5.91a.16.16,0,0,1,.18.18v.58c0,.17-.06.24-.18.24h-5.91v4.92c0,.12-.11.18-.3.18H119q-.24,0-.24-.18V107.7h-6c-.12,0-.18-.07-.18-.24v-.58a.16.16,0,0,1,.18-.18h6v-5.91h-5.26q-.18,0-.18-.24V100a.16.16,0,0,1,.18-.18Zm-8.86,4a12.61,12.61,0,0,1,.6,1.7c0,.06-.36.18-1,.36a11.09,11.09,0,0,0-.44-1.47,14.06,14.06,0,0,0-1-2c0-.06.28-.24.88-.52C115.66,102.54,116,103.19,116.25,103.77Zm8.26-1.42c.09.07.14.13.14.19s-.08.17-.2.18-.31.11-.34.23a21.32,21.32,0,0,1-1.46,2.94c-.15,0-.24,0-.25-.08l-.74-.45a10.08,10.08,0,0,0,1-1.65,15.59,15.59,0,0,0,.64-1.78.21.21,0,0,1,.2-.15Z"/><path class="cls-5" d="M136.36,103.26a.68.68,0,0,1,.08.17q0,.15-.18.18c-.29,0-.44.07-.47.16-.28.48-.6,1-.93,1.53h7.08c.12,0,.18.06.18.17v.58c0,.17-.06.24-.18.24H139a9.72,9.72,0,0,1-.63,1.46,6.75,6.75,0,0,1-1.08,1.68c-.09.1-.18.19-.25.28l.45.21q2.31,1.17,3.93,2.12l-.08.13-.51.69a42.22,42.22,0,0,0-4.62-2.44l-.43.28a10.9,10.9,0,0,1-2,1,27.77,27.77,0,0,1-3.4,1.11c-.12,0-.18,0-.2-.1s-.28-.42-.45-.71a.24.24,0,0,1-.12-.19,4.54,4.54,0,0,0,1.05-.2,18.44,18.44,0,0,0,1.85-.46,17.47,17.47,0,0,0,2.25-1l.39-.27c-1.14-.48-2.12-.86-2.93-1.11l-.67.81a.25.25,0,0,1-.21-.09,6.25,6.25,0,0,0-.6-.24c-.06,0-.08-.06-.08-.15.9-1.08,1.59-2,2.1-2.72,0-.06.08-.1.11-.15h-4c-.12,0-.18-.07-.18-.24v-.58c0-.11.06-.17.18-.17h4.63a17.18,17.18,0,0,0,1-1.6,8,8,0,0,0,.51-1.1c0-.07.07-.12.12-.12Zm0-3.82c0,.13-.06.21-.15.22s-.15.12-.15.3v.77h5.16c.15,0,.24.06.24.18v2.92c0,.12-.09.18-.24.18h-.59c-.15,0-.22-.06-.22-.18v-2.17h-10.2v2.17c0,.12-.09.18-.24.18h-.59c-.15,0-.22-.06-.22-.18V101c0-.15.07-.24.22-.24H135V99.44c0-.12.07-.18.24-.18Q136.38,99.26,136.38,99.44Zm-2.18,6.85a.14.14,0,0,1,0,0c-.36.51-.78,1.08-1.27,1.71,1.18.43,2.23.84,3.13,1.21l.06,0a6.6,6.6,0,0,0,1.13-1.47,7.15,7.15,0,0,0,.69-1.46Z"/><path class="cls-5" d="M149.52,100c0,.09-.05.14-.12.14a.4.4,0,0,0-.35.16,16.88,16.88,0,0,1-1.35,2.7v9.72c0,.12-.09.18-.24.18h-.58c-.17,0-.24-.06-.24-.18v-8.29q-.52.63-1.29,1.44a.41.41,0,0,1-.3-.14c-.15-.12-.32-.25-.47-.39a.19.19,0,0,1-.1-.18c.43-.45.87-.94,1.32-1.45a11.53,11.53,0,0,0,1.5-2.22,13.46,13.46,0,0,0,.87-2.13.12.12,0,0,1,.12-.12A4.65,4.65,0,0,1,149.52,100Zm7.78-.12c.15,0,.24.06.24.18v5c0,.12-.09.18-.24.18h-.58c-.15,0-.23-.06-.23-.18v-.64h-2.23v2.17h4c.12,0,.18.08.18.23v.46c0,.17-.06.24-.18.24h-3.78a11.26,11.26,0,0,0,1.18,1.46,7.69,7.69,0,0,0,1.58,1.32,5.83,5.83,0,0,0,1.54.73c0,.09-.06.14-.15.17a3.9,3.9,0,0,0-.52.6c-.06.07-.12.12-.15.12a10,10,0,0,1-1.91-1.23,8.07,8.07,0,0,1-1.42-1.52l-.36-.46v4c0,.12-.08.18-.23.18h-.58c-.17,0-.24-.06-.24-.18V109l-.44.54a11.76,11.76,0,0,1-1.35,1.38,13.84,13.84,0,0,1-1.68,1.17.33.33,0,0,1-.25-.11c-.2-.18-.39-.36-.57-.51a.43.43,0,0,1,0-.15,8.43,8.43,0,0,0,1.31-.76,8.58,8.58,0,0,0,1.54-1.35,17.15,17.15,0,0,0,1.28-1.64h-3.54c-.12,0-.18-.07-.18-.24v-.46c0-.15.06-.23.18-.23h3.75v-2.17H151v.7c0,.12-.07.18-.22.18h-.59q-.24,0-.24-.18v-5a.22.22,0,0,1,.24-.24Zm-.81,3.65v-2.7H151v2.7Z"/><path class="cls-5" d="M164.64,99.44a.88.88,0,0,1,.36.07c.22.2.34.33.34.39l-1.3,3.78a.85.85,0,0,0,0,.21.33.33,0,0,0,.08.21,7.63,7.63,0,0,1,.79,1.67,7,7,0,0,1,.32,2,3.79,3.79,0,0,1-.21,1.29,1.51,1.51,0,0,1-.65.81,1.32,1.32,0,0,1-.91.24c-.24,0-.36-.07-.36-.24a2.07,2.07,0,0,0-.23-.76c0-.06.06-.11.18-.11l.65.06c.18,0,.31-.13.4-.4a2.61,2.61,0,0,0,.12-.89,6.48,6.48,0,0,0-.25-1.63,8.43,8.43,0,0,0-1-2,.24.24,0,0,1-.09-.17,1,1,0,0,1,.05-.22l1.41-3.53h-2v12.24c0,.12-.08.18-.23.18h-.58a.16.16,0,0,1-.18-.18V99.62a.16.16,0,0,1,.18-.18Zm5.89.28c.09.08.15.14.15.18s-.1.18-.3.18a1.17,1.17,0,0,0-.22,0,9.35,9.35,0,0,0,.9,1.23,8.41,8.41,0,0,0,3.45,2.28c.09,0,.15.06.15.09a.19.19,0,0,1-.08.17l-.55.49c-.05.08-.09.11-.12.11a6.44,6.44,0,0,1-1.58-.81l-.25-.18v.34c0,.17-.05.24-.11.24h-4.45c-.09,0-.12-.07-.12-.24v-.46c0-.12,0-.18.12-.18h4.15a6.31,6.31,0,0,1-1-.9,11.77,11.77,0,0,1-1.17-1.49,9.86,9.86,0,0,1-.79,1,11.33,11.33,0,0,1-1,1,12.85,12.85,0,0,1-1.21,1,8.31,8.31,0,0,1-1,.62.26.26,0,0,1-.22-.14,2,2,0,0,0-.44-.52c-.12-.06-.16-.12-.16-.17s0,0,.07-.07a7,7,0,0,0,1.41-.75,9,9,0,0,0,1.56-1.31,6.33,6.33,0,0,0,.86-1,8.14,8.14,0,0,0,.66-1.14.25.25,0,0,1,.19-.13Zm-2.32,9.51c.07.06.12.12.12.17s-.08.18-.23.18a.24.24,0,0,0-.24.13c-.12.24-.24.44-.33.6a6.43,6.43,0,0,0,.6.83,5.34,5.34,0,0,0,.89.73.31.31,0,0,1,.07.17,2.55,2.55,0,0,1-.52.64.21.21,0,0,1-.11,0,11.13,11.13,0,0,1-1.41-1.56c-.12.18-.24.33-.36.49s-.43.5-.64.72l-.53.45a.23.23,0,0,1-.21-.13,1.86,1.86,0,0,0-.42-.5c-.09-.06-.13-.1-.13-.13s0,0,0,0a5.17,5.17,0,0,0,.72-.57,5.43,5.43,0,0,0,.81-1,4.64,4.64,0,0,0,.44-.72,5.63,5.63,0,0,0,.34-.84.15.15,0,0,1,.11-.09Zm.76-4.17c.15,0,.24.06.24.18v3.05c0,.12-.09.18-.24.18h-2.74c-.17,0-.24-.06-.24-.18v-3.05c0-.12.07-.18.24-.18Zm-.75.89H167v1.63h1.23Zm4.55,3.28c.09.06.13.12.13.17s-.07.18-.22.18a.28.28,0,0,0-.26.13c-.12.26-.24.48-.34.66a5.07,5.07,0,0,0,.81.84,8.89,8.89,0,0,0,1.3.89.26.26,0,0,1-.09.21c-.15.12-.33.28-.55.49a.12.12,0,0,1-.09,0,4,4,0,0,1-.87-.59,13.56,13.56,0,0,1-1-1.06,4,4,0,0,1-.36.51c-.21.25-.43.49-.64.72s-.39.36-.51.46a.27.27,0,0,1-.23-.13,2.25,2.25,0,0,0-.4-.5c-.09-.06-.14-.1-.14-.13s0-.05,0-.06a6.44,6.44,0,0,0,.74-.56,6.08,6.08,0,0,0,1.24-1.72,7.62,7.62,0,0,0,.35-.84c0-.06.07-.11.1-.11Zm.49-4.17c.15,0,.23.06.23.18v3.05c0,.12-.08.18-.23.18H170.5q-.24,0-.24-.18v-3.05q0-.18.24-.18Zm-.76.89h-1.23v1.63h1.23Z"/><path class="cls-5" d="M181.06,100.55c.15,0,.24.06.24.18v7.56c0,.12-.09.18-.24.18h-.58c-.17,0-.24-.06-.24-.18v-.65h-1.82v1.88c0,.12-.07.18-.22.18h-.6c-.15,0-.23-.06-.23-.18v-8.73a.21.21,0,0,1,.23-.24Zm-.82,6.15v-5.21h-1.82v5.21Zm2,2.43c.12,0,.18.06.18.15a11.33,11.33,0,0,1-1.06,2.7l-.11.12A.82.82,0,0,1,181,112a3.65,3.65,0,0,0-.56-.2.18.18,0,0,1-.1-.16,7.36,7.36,0,0,0,1.18-2.43.26.26,0,0,1,.29-.2ZM187,102h2.58c.12,0,.18.09.18.24v.46c0,.15-.06.23-.18.23H187v1.41h2.58c.12,0,.18.09.18.24V105c0,.17-.06.24-.18.24H187v1.46h3.29c.12,0,.18.09.18.24a33.25,33.25,0,0,1-.18,3.34,6.43,6.43,0,0,1-.48,1.82c-.2.42-.71.64-1.52.64-.6,0-.9-.1-.91-.3a2.63,2.63,0,0,0-.38-.81v-.12a7.74,7.74,0,0,0,1.29.12.72.72,0,0,0,.74-.43,4.58,4.58,0,0,0,.31-1.32c.06-.48.12-1.22.15-2.24h-5.94v.53c0,.12-.09.18-.24.18h-.58c-.15,0-.23-.06-.23-.18V99.78c0-.15.08-.22.23-.22H190c.11,0,.17.07.17.22v.48c0,.15-.06.23-.17.23h-3Zm-3,7.2q.18,0,.18.12c.07.78.12,1.59.12,2.46,0,.12-.08.18-.2.18h-.61c-.21,0-.3-.06-.3-.18.06-.72.1-1.55.1-2.46q0-.12.18-.12Zm-.41-7.2h2.4v-1.47h-2.4Zm2.4.93h-2.4v1.41h2.4Zm0,3.81v-1.46h-2.4v1.46Zm-.12,2.4a15.66,15.66,0,0,1,.53,2.35c0,.06-.08.11-.23.14l-.76,0c-.06,0-.11-.06-.11-.18,0-.72-.12-1.48-.24-2.29a.13.13,0,0,1,.14-.15l.51,0A.19.19,0,0,1,185.8,109.1Zm1.68-.53a12.15,12.15,0,0,1,1,2c0,.13-.07.19-.22.19l-.71.17c-.09,0-.15-.05-.18-.17a10.83,10.83,0,0,0-.7-2c0-.07,0-.12.15-.15l.55-.13A.31.31,0,0,1,187.48,108.57Z"/><path class="cls-5" d="M202.69,104.16q-.58.61-1.17,1.2a4.06,4.06,0,0,0-1,2.78h-1.1a5.22,5.22,0,0,1,1.44-3.59c.29-.28.57-.58.87-.88a1.7,1.7,0,0,0,.45-1.11,1.15,1.15,0,0,0-.46-.93,2,2,0,0,0-1.22-.38c-1.09,0-1.66.51-1.69,1.52h-1.1a2.6,2.6,0,0,1,.68-1.74,2.76,2.76,0,0,1,2.11-.78,3.19,3.19,0,0,1,1.86.54,2.08,2.08,0,0,1,.92,1.77A2.47,2.47,0,0,1,202.69,104.16Zm-3.51,7.25v-1.53h1.53v1.53Z"/><path class="cls-5" d="M31.75,92.06a13.19,13.19,0,0,0,2.8,1.53l-.64,1.52a12.85,12.85,0,0,1-3.54-2,8.07,8.07,0,0,1-4,1A7.83,7.83,0,0,1,22.27,93a7.26,7.26,0,0,1-2.8-3,10.41,10.41,0,0,1,0-8.84,7,7,0,0,1,2.81-3,8.05,8.05,0,0,1,4.08-1.05,7.93,7.93,0,0,1,4.11,1.08,7.22,7.22,0,0,1,2.8,3,9.93,9.93,0,0,1,1,4.39,10.25,10.25,0,0,1-.62,3.66A7.66,7.66,0,0,1,31.75,92.06ZM27,89.28a8,8,0,0,1,3.11,1.57A6.78,6.78,0,0,0,32,85.58a8.42,8.42,0,0,0-.68-3.49,5.2,5.2,0,0,0-2-2.32,5.72,5.72,0,0,0-7,.84,7,7,0,0,0-1.6,5,7,7,0,0,0,1.59,4.93,5.25,5.25,0,0,0,4.06,1.72,5.47,5.47,0,0,0,2.2-.44,7.13,7.13,0,0,0-2.16-.94Z"/></g></g></svg>