<svg xmlns="http://www.w3.org/2000/svg" viewBox="0 0 263.28 129.99"><defs><style>.cls-1{opacity:0.97;}.cls-2{fill:#ffe8ca;}.cls-3{fill:#231815;}.cls-4{fill:#e5625b;}.cls-5{fill:#fff;}</style></defs><title>資產 5</title><g id="圖層_2" data-name="圖層 2"><g id="Cut2_透過旅遊小夥伴的旅遊案例說明"><g class="cls-1"><circle class="cls-2" cx="146.76" cy="29.32" r="29.32"/></g><path class="cls-3" d="M112.09,33.24c0,.63-.29.91-.83.91h-9.91a27.58,27.58,0,0,0,4.47,2.06A53.7,53.7,0,0,0,112,38.13a.92.92,0,0,1,.6.91,1.14,1.14,0,0,1-.23.65.78.78,0,0,1-.68.37,3.79,3.79,0,0,1-1.09-.19c-1.66-.57-3.28-1.17-4.78-1.79a39.92,39.92,0,0,1-4.58-2.29v4c0,.6-.34.91-1,.91a.82.82,0,0,1-.94-.91V35.69a31.92,31.92,0,0,1-3.22,1.77,57.17,57.17,0,0,1-6.32,2.39L89,40c-.63,0-.91-.34-.91-1a.85.85,0,0,1,.59-.91,50.12,50.12,0,0,0,6.76-2.26,17.54,17.54,0,0,0,3.12-1.62H89.41c-.54,0-.8-.28-.8-.91a.71.71,0,0,1,.8-.8h9.86V31.22a.82.82,0,0,1,.94-.91c.67,0,1,.31,1,.91v1.22h10A.73.73,0,0,1,112.09,33.24ZM101,17.51v.71h9.54c.81,0,1.23.54,1.23,1.63,0,.45-.06.94-.11,1.51s-.44.63-1,.63-.7-.21-.7-.63v-.91c0-.47-.21-.7-.63-.7H91.05c-.41,0-.59.29-.59.81v.52c0,.62-.32.91-.94.91a.79.79,0,0,1-.91-.91V19.85a1.45,1.45,0,0,1,1.64-1.63H99v-.71a1,1,0,0,1,2,0Zm-.73,3.64a1.29,1.29,0,0,1-.2.58,8.13,8.13,0,0,1-.68,1h11.36a.82.82,0,0,1,0,1.64h-4.5a3.09,3.09,0,0,1-.36.65,11.13,11.13,0,0,1-2.47,2.47c-.16.1-.26.18-.36.23,2.18.47,4.73,1,7.69,1.61a.92.92,0,0,1,.7.81c0,.65-.33,1-.91,1A1.94,1.94,0,0,1,110,31c-3-.78-6-1.54-8.82-2.21a18,18,0,0,1-2.57,1,26.12,26.12,0,0,1-4.79,1,31.35,31.35,0,0,1-4,.31c-.68,0-1-.31-1-.91a.72.72,0,0,1,.7-.8,45.36,45.36,0,0,0,7.52-.89,10,10,0,0,0,1.35-.39L95,27.42c-1-.21-1.51-.6-1.51-1.17a1.27,1.27,0,0,1,.65-1,13.55,13.55,0,0,0,1.25-.93H89.62c-.54,0-.8-.26-.8-.84a.71.71,0,0,1,.8-.8h7.57a10.86,10.86,0,0,0,1.27-1.82.91.91,0,0,1,.81-.52C99.89,20.4,100.23,20.66,100.28,21.15Zm-2.41,3.18c-.58.46-1.23,1-2,1.45-.13.11-.19.18-.19.26s.11.18.34.24l4.55.91a7.35,7.35,0,0,0,1-.55,10.09,10.09,0,0,0,2.57-2.31Z"/><path class="cls-3" d="M122.15,17a.86.86,0,0,1,.34.63,2,2,0,0,1-.11.49,36.32,36.32,0,0,1-1.4,5.25V39.74a.81.81,0,0,1-.91.91.82.82,0,0,1-.94-.91V27.5c-.26.49-.54,1-.8,1.38s-.47.41-.6.41c-.68,0-1-.26-1-.8a1.17,1.17,0,0,1,.18-.63,27.46,27.46,0,0,0,2.23-4.44,36.13,36.13,0,0,0,1.75-6c.07-.42.28-.62.59-.62A1.23,1.23,0,0,1,122.15,17Zm10.19,1.75c0,.62-.28.91-.8.91H127a3.49,3.49,0,0,0,0,.52,21.24,21.24,0,0,1-.29,2.21h3.69c.94,0,1.43.59,1.43,1.74a21.16,21.16,0,0,1-.59,5.12A19.51,19.51,0,0,1,129,34.75a18.91,18.91,0,0,1-5.2,5.41,1.84,1.84,0,0,1-.7.21,1,1,0,0,1-.73-1.64A18.09,18.09,0,0,0,127,34.39a12.64,12.64,0,0,0,1-1.61,0,0,0,0,1,0,0c-.78-.91-1.58-1.79-2.41-2.65a1,1,0,0,1-.21-.5c0-.54.28-.83.91-.83a.74.74,0,0,1,.49.31,16.69,16.69,0,0,1,2,2,20.11,20.11,0,0,0,.65-2.21,19.54,19.54,0,0,0,.5-4c0-.39-.13-.6-.39-.6h-3a.65.65,0,0,1-.21,0c-.05.18-.08.33-.11.46A19.83,19.83,0,0,1,125,28,16.85,16.85,0,0,1,123,31.11a.83.83,0,0,1-.63.21.7.7,0,0,1-.57-.29.85.85,0,0,1-.23-.62.72.72,0,0,1,.31-.62A19.25,19.25,0,0,0,123.58,27a17.84,17.84,0,0,0,1-3.12,28,28,0,0,0,.68-4.26h-1.49c-.54,0-.8-.29-.8-.91s.26-.84.8-.84h7.73A.73.73,0,0,1,132.34,18.74Zm7-.84V38c0,1.56-.88,2.34-2.65,2.34a11.88,11.88,0,0,1-3.46-.73.91.91,0,0,1-.7-.91c0-.57.23-.86.7-.91a3.41,3.41,0,0,1,.57.08,14,14,0,0,0,2.89.62c.52,0,.81-.34.81-1V17.9a.92.92,0,0,1,1.84,0Zm-4,2V33.76a.91.91,0,0,1-1.82,0V19.85a.81.81,0,0,1,.91-.91A.81.81,0,0,1,135.38,19.85Z"/><path class="cls-3" d="M156.05,37.69h-8.68c-.83,0-1.25-.31-1.25-.94a4.79,4.79,0,0,1,1.3-2.23,25.19,25.19,0,0,1,3-3l2.65-2.42a5.1,5.1,0,0,0,2-3.62,2.52,2.52,0,0,0-1-2.1,4,4,0,0,0-2.36-.68,3.84,3.84,0,0,0-2.91,1.28,3.43,3.43,0,0,0-.89,1.84c-.13.76-.36,1.12-.7,1.12-.62,0-.94-.34-.94-1a4.7,4.7,0,0,1,1.54-3.41,5.39,5.39,0,0,1,3.9-1.53,6,6,0,0,1,3.64,1.11A4,4,0,0,1,157,25.44q0,2.34-2.66,4.61c-1.4,1.22-2.44,2.15-3.09,2.78A22.85,22.85,0,0,0,148.54,36h7.51c.68,0,1,.28,1,.86S156.73,37.69,156.05,37.69Z"/><rect class="cls-4" y="70.45" width="263.28" height="59.54" rx="12"/><path class="cls-5" d="M62.79,84.5a.22.22,0,0,1-.16.23c-.1,0-.14.11-.14.29v8.57c1.24-.45,2.41-1,3.52-1.47a.17.17,0,0,1,.12-.06c.06,0,.1.06.1.18a2.86,2.86,0,0,1-.06.87c-2,.91-3.91,1.74-5.91,2.46-.18.3-.31.46-.4.46s-.32-.46-.65-1.39c.63-.15,1.36-.38,2.16-.66V84.5c0-.12.08-.18.25-.18C62.39,84.32,62.79,84.38,62.79,84.5ZM71.15,84a.25.25,0,0,1-.16.21.31.31,0,0,0-.18.32,44.72,44.72,0,0,1-.41,5.85A12.34,12.34,0,0,1,69.64,93a3.11,3.11,0,0,1-.14.31c.72.45,1.34.86,1.82,1.22.66.55,1.23,1,1.71,1.48a.56.56,0,0,1-.08.14c-.33.45-.49.69-.51.69a19.12,19.12,0,0,0-2.31-1.92c-.45-.3-.82-.56-1.15-.74a4.36,4.36,0,0,1-.77.83,7.28,7.28,0,0,1-2.74,1.54,8.28,8.28,0,0,1-1.17.29.2.2,0,0,1-.22-.15,5.13,5.13,0,0,0-.46-.66.36.36,0,0,1-.07-.24,9.05,9.05,0,0,0,2.7-.84A5.77,5.77,0,0,0,68,93.59a7.61,7.61,0,0,0,1-2.31,21.32,21.32,0,0,0,.51-4c0-1.06.06-2.16.06-3.26,0-.12,0-.19.06-.19A4.72,4.72,0,0,1,71.15,84Zm-4.54,3.11c.51.58,1,1.11,1.33,1.57a.26.26,0,0,1-.09.14l-.49.69a18.08,18.08,0,0,0-1.82-2,9.75,9.75,0,0,0-1.29-1.07,3.25,3.25,0,0,1,.5-.72c.06-.06.1-.1.13-.1A16.74,16.74,0,0,1,66.61,87.14Z"/><path class="cls-5" d="M77.44,88.49a33,33,0,0,1-.21,4.21,14.94,14.94,0,0,1-.57,2.6A7.24,7.24,0,0,1,76,96.8a.49.49,0,0,1-.15,0,3.65,3.65,0,0,0-.54-.41.29.29,0,0,1-.06-.21,8.72,8.72,0,0,0,.6-1.8,20.8,20.8,0,0,0,.39-2.52c.07-.91.12-2,.12-3.34V84.26c0-.15.07-.23.24-.23h7.08c.15,0,.24.06.24.17v3.28a.21.21,0,0,1-.24.24H81.55v1.94h2.28c.19,0,.3.07.3.22v5.54c0,.24-.15.4-.45.54a4.69,4.69,0,0,1-1.08.19.17.17,0,0,1-.19-.16,3,3,0,0,0-.33-.95s0,0,.07,0a1.86,1.86,0,0,0,.76-.07.25.25,0,0,0,.15-.23V90.59H81.55V97c0,.12-.09.18-.24.18h-.59c-.16,0-.23-.06-.23-.18V90.59H79v5.34c0,.1-.09.16-.24.16h-.59c-.16,0-.23-.06-.23-.16V89.88c0-.15.07-.22.23-.22h2.35V87.72h-3Zm0-1.71h5.44V85H77.44Zm9.15-1.17c0,.13-.06.21-.15.22s-.15.12-.15.3v7.8c0,.12-.09.18-.24.18h-.59c-.15,0-.22-.06-.22-.18V85.61c0-.12.07-.18.22-.18C86.21,85.43,86.59,85.49,86.59,85.61Zm2.46-1.83c.1.06.16.1.16.13s-.06.14-.16.14-.3.3-.3.69V95.93c0,.69-.53,1-1.58,1h-.94c-.09,0-.12-.09-.12-.26a3,3,0,0,0-.29-.69c0-.07,0-.1.12-.1a7.86,7.86,0,0,0,1.11.1c.42,0,.65-.18.65-.52V84.68a3.45,3.45,0,0,0-.06-.66.71.71,0,0,1-.06-.29c0-.07.09-.12.3-.12Z"/><path class="cls-5" d="M98.42,83.79c0,.14,0,.21-.13.23s-.15.12-.15.3v1.53h5.16c.1,0,.16.07.16.22v.48c0,.15-.06.23-.16.23H98.14v2.29h6.79c.12,0,.18.08.18.23v.46c0,.17-.06.24-.18.24H98.14v1.31a25,25,0,0,1,2.41,1.23c.8.49,1.47.94,2,1.33a.41.41,0,0,1-.07.12l-.45.65a24.91,24.91,0,0,0-2.74-1.74c-.46-.24-.85-.44-1.19-.6v4.8c0,.1-.09.16-.24.16h-.59c-.15,0-.22-.06-.22-.16V90H91.81c-.12,0-.18-.07-.18-.24V89.3c0-.15.06-.23.18-.23h5.28V83.79c0-.12.07-.18.22-.18Q98.42,83.61,98.42,83.79Z"/><path class="cls-5" d="M109.54,87.32l1,.57s0,.07-.08.13l-.45.63a13.39,13.39,0,0,0-1.41-.73,7.49,7.49,0,0,0-1-.38,3.62,3.62,0,0,1,.47-.66c.05-.06.09-.1.14-.1Zm1.09,3c.16,0,.23.06.23.17v3.28A4,4,0,0,0,111,95a1.12,1.12,0,0,0,.34.65,1.68,1.68,0,0,0,.71.43,5,5,0,0,0,1.2.15h3.36a31.54,31.54,0,0,0,4.62-.42.57.57,0,0,1,.22,0c.08,0,.12,0,.12.06a7.88,7.88,0,0,0-.27,1.21c0,.15-.1.24-.25.24h-7.8a5,5,0,0,1-1-.1,8.1,8.1,0,0,1-.92-.38,2.85,2.85,0,0,1-.73-.67,5.42,5.42,0,0,1-.51-1.2l0-.11c-.07,0-.12,0-.12.06a7.41,7.41,0,0,0-1.53,2.1c0,.09-.06.14-.12.14s-.26-.26-.57-.77a.5.5,0,0,1-.07-.3,11,11,0,0,0,2-1.86,1,1,0,0,0,.06-.42V91.29H108c-.13,0-.18-.07-.18-.24v-.46c0-.15.05-.23.18-.23Zm-.4-6.15c.36.27.66.5.93.69,0,0,0,.08-.08.14-.29.42-.45.63-.45.63a10.31,10.31,0,0,0-1.27-.89,6.44,6.44,0,0,0-.9-.46,3,3,0,0,1,.46-.66c0-.06.09-.11.12-.11A12.61,12.61,0,0,1,110.23,84.21Zm9.9,1.92c.1,0,.16.09.16.24v.47c0,.16-.06.24-.16.24H116.9c0,1.11-.1,2-.18,2.64h3.81c.12,0,.18.07.18.22v.47q0,.24-.18.24H117.1a2.67,2.67,0,0,0,.18.6,3.62,3.62,0,0,0,.48,1,2.47,2.47,0,0,0,.58.74,2.75,2.75,0,0,0,.83.63,5,5,0,0,0,1.17.51s.07,0,.07.06a.2.2,0,0,1-.07.16,5.3,5.3,0,0,0-.53.53c-.07.09-.13.13-.16.13a.23.23,0,0,1-.15-.07,5.78,5.78,0,0,1-.77-.36,5.94,5.94,0,0,1-.93-.66,4.17,4.17,0,0,1-.75-.89,2.91,2.91,0,0,1-.52-1.06,2.35,2.35,0,0,1-.18-.51,8,8,0,0,1-.56,1.41,4.56,4.56,0,0,1-1.09,1.35,5.68,5.68,0,0,1-1.49,1c-.26-.27-.5-.52-.7-.76a4.19,4.19,0,0,0,1.09-.72,5.75,5.75,0,0,0,1.17-1.32,6.91,6.91,0,0,0,.68-1.83h-3.06q-.18,0-.18-.24v-.47c0-.15.06-.22.18-.22h3.24c.09-.69.16-1.56.2-2.64h-3c-.11,0-.18-.08-.18-.24v-.47c0-.15.07-.24.18-.24Zm-5.28-1.48a5.57,5.57,0,0,1,.58,1,2.89,2.89,0,0,1-.93.3,3.8,3.8,0,0,0-.43-.8,7.15,7.15,0,0,0-.91-1.08s.23-.22.75-.48A10.31,10.31,0,0,1,114.85,84.65Zm4.75-.72c.15.06.23.13.23.21s-.06.1-.15.12-.2,0-.22.12a7.59,7.59,0,0,1-1,1.41c-.09.09-.15.12-.18.12a.39.39,0,0,1-.25-.11l-.57-.24c-.09,0-.12,0-.12-.07a.16.16,0,0,1,0-.09,5.3,5.3,0,0,0,.72-.79,3.15,3.15,0,0,0,.51-.92c0-.09.08-.14.14-.14Z"/><path class="cls-5" d="M128.2,83.76a.22.22,0,0,1,.19.22c0,.14-.07.21-.22.21a.27.27,0,0,0-.18.19,17.83,17.83,0,0,1-.87,1.75h2.33c.14,0,.23.06.23.18v10c0,.12-.09.18-.23.18h-.59c-.15,0-.23-.06-.23-.18v-.76h-3.16v1.17c0,.12-.09.18-.24.18h-.58c-.17,0-.24-.06-.24-.18V86.37a.21.21,0,0,1,.24-.24H126a25.41,25.41,0,0,0,1.16-2.46.2.2,0,0,1,.18-.12Zm.43,6.54V87.08h-3.16V90.3Zm0,4.28V91.23h-3.16v3.35Zm5.16-10.76c.11.09.17.16.17.21a.17.17,0,0,1-.12.17.22.22,0,0,0-.23.18c-.22.66-.42,1.18-.6,1.59h3.71a.25.25,0,0,1,.28.28q0,5.13-.18,7.08a8.29,8.29,0,0,1-.55,2.51,1.51,1.51,0,0,1-.81.82,4.55,4.55,0,0,1-1.68.26c-.63,0-1-.11-1-.3a4.61,4.61,0,0,0-.21-.75c0-.09,0-.12.06-.12h.12a7.6,7.6,0,0,0,.76,0,2.54,2.54,0,0,0,1.5-.32q.45-.33.63-1.89a56.87,56.87,0,0,0,.28-6.7h-3.4a9.23,9.23,0,0,1-.51.88,8.47,8.47,0,0,1-.89,1,1,1,0,0,1-.33,0l-.58-.23c-.07,0-.1,0-.1-.07a.14.14,0,0,1,.06-.14,7.44,7.44,0,0,0,1.32-1.72,10.49,10.49,0,0,0,.6-1.26,14.93,14.93,0,0,0,.54-1.82.16.16,0,0,1,.12-.1ZM132.5,89.6A23.64,23.64,0,0,1,134,92.52q0,.23-.09.24a1.69,1.69,0,0,1-.84.35c-.51-1.25-1-2.28-1.41-3.11,0-.1.21-.25.65-.46A.24.24,0,0,1,132.5,89.6Z"/><path class="cls-5" d="M144.05,83.61c0,.14-.05.21-.14.23s-.16.12-.16.3V86h1.94c.12,0,.18.07.18.22v.47q0,.24-.18.24h-3.05c0,.79,0,1.48,0,2h2.56c.13,0,.18.08.18.23,0,2.11-.07,3.63-.16,4.54a13.43,13.43,0,0,1-.43,2.45,1.3,1.3,0,0,1-1.4.87c-.63,0-1-.11-1-.3a2,2,0,0,0-.37-.81v-.12a9.51,9.51,0,0,0,1.35.12q.47,0,.63-.6a11,11,0,0,0,.27-1.89c.06-.72.1-1.91.13-3.56h-1.83c0,.45-.05.83-.09,1.13a22,22,0,0,1-.46,3,7.58,7.58,0,0,1-.64,1.67,5.91,5.91,0,0,1-.87,1.26c-.28-.29-.52-.54-.71-.77a4.1,4.1,0,0,0,.6-.9,9.14,9.14,0,0,0,.63-1.65,19.82,19.82,0,0,0,.42-2.85c.09-.88.14-2.19.16-3.91h-1.47c-.12,0-.17-.08-.17-.24v-.47c0-.15.05-.22.17-.22h2.59V83.61c0-.1.07-.16.24-.16C143.68,83.45,144.05,83.51,144.05,83.61Zm8.27,4.32a5.21,5.21,0,0,1-1.67.78l0,0a12.57,12.57,0,0,0,.25,2.31.28.28,0,0,0,0,.16.63.63,0,0,0,.12-.07,5.84,5.84,0,0,0,.93-.66,7,7,0,0,0,.66-.78c0-.06.07-.09.1-.09l.92.64a.38.38,0,0,1,.19.29c0,.09-.07.12-.22.12a.45.45,0,0,0-.33.1,10.39,10.39,0,0,1-2.12,1.46,6.18,6.18,0,0,0,.23.73,6.94,6.94,0,0,0,.88,1.64,10.29,10.29,0,0,0,1.56,1.69c0,.06,0,.11-.13.17l-.6.43a.46.46,0,0,1-.26.11,10.83,10.83,0,0,1-1.11-1.26A7.81,7.81,0,0,1,150.67,94a11.32,11.32,0,0,1-.71-2.25,17.81,17.81,0,0,1-.33-2.81,6.5,6.5,0,0,1-1.06.09v6.32c.54-.17,1.15-.38,1.81-.63.08,0,.12.06.12.16s-.1.42-.13.6-.06.27-.16.29a30.41,30.41,0,0,1-3.53.94c-.17,0-.26.08-.29.18s-.09.17-.12.17a.18.18,0,0,1-.19-.14l-.33-.87a.17.17,0,0,1,.13-.18c.7-.09,1.2-.15,1.53-.22l.09,0V87.89c0-.11.06-.17.18-.17l.83.32a7.35,7.35,0,0,0,1.62-.21,4.43,4.43,0,0,0,1.78-.84.22.22,0,0,1,.35,0c.49.4.75.67.75.79s-.06.29-.17.29l-.36-.18A.27.27,0,0,0,152.32,87.93Zm-3.51-4.05c.1.1.16.15.16.21a.16.16,0,0,1-.12.17.18.18,0,0,0-.18.16c-.1.39-.19.74-.28,1h4.74c.12,0,.18.09.18.24v.46c0,.17-.06.24-.18.24H148c-.17.42-.37.83-.55,1.19a6.68,6.68,0,0,1-.69,1,1.08,1.08,0,0,1-.32,0c-.19-.08-.39-.15-.58-.21s-.09-.06-.09-.09a.18.18,0,0,1,0-.11,7.25,7.25,0,0,0,1-1.62,8.39,8.39,0,0,0,.47-1.17,16.32,16.32,0,0,0,.4-1.68c0-.07,0-.12.09-.12Z"/><path class="cls-5" d="M161.87,87.48a.29.29,0,0,1-.24.3.7.7,0,0,0-.34.17,11.64,11.64,0,0,1-1.63,1.54v7.43c0,.12-.09.18-.25.18h-.58c-.17,0-.24-.06-.24-.18V90.27a23.35,23.35,0,0,1-2,1.26,7.05,7.05,0,0,0-.66-.64.37.37,0,0,1-.11-.18s0-.06.08-.09a12.22,12.22,0,0,0,2.91-1.88,15.1,15.1,0,0,0,1.89-1.93.21.21,0,0,1,.16-.09A5.15,5.15,0,0,1,161.87,87.48Zm-.9-3.22a.39.39,0,0,1,.2.3c0,.09-.08.12-.22.12a.71.71,0,0,0-.5.15,15.36,15.36,0,0,1-3.37,2.47.29.29,0,0,1-.23-.1,3.64,3.64,0,0,0-.44-.44c-.07-.06-.1-.11-.1-.15s0-.07.09-.1a4.81,4.81,0,0,0,1.08-.59,7.35,7.35,0,0,0,1.41-1,6.76,6.76,0,0,0,1-1.16c.07-.09.12-.15.17-.15Zm8.4,4c.12,0,.18.07.18.22V89c0,.15-.06.23-.18.23h-2.22V96c0,.75-.61,1.13-1.81,1.13l-1.23-.06c-.07,0-.11-.11-.11-.29a2.48,2.48,0,0,0-.25-.78v0a8.2,8.2,0,0,0,1.53.16c.54,0,.81-.18.81-.52V89.24H162c-.13,0-.19-.08-.19-.23v-.48c0-.15.06-.22.19-.22Zm-.82-4c.12,0,.18.09.18.24V85c0,.17-.06.24-.18.24h-5.79c-.12,0-.18-.07-.18-.24v-.46c0-.15.06-.24.18-.24Z"/><path class="cls-5" d="M184.79,84.14a.16.16,0,0,1,.18.18v.58c0,.17-.06.25-.18.25h-5.2v5.9h5.91a.16.16,0,0,1,.18.18v.59q0,.24-.18.24h-5.91V97c0,.12-.11.18-.3.18h-.58c-.17,0-.25-.06-.25-.18V92.06h-6c-.13,0-.18-.08-.18-.24v-.59c0-.12.05-.18.18-.18h6v-5.9H173.2c-.12,0-.18-.08-.18-.25v-.58a.16.16,0,0,1,.18-.18Zm-8.86,4a11.25,11.25,0,0,1,.6,1.69c0,.06-.36.18-1.05.36a10.11,10.11,0,0,0-.44-1.47,13.46,13.46,0,0,0-1-2c0-.06.29-.24.89-.53C175.34,86.9,175.67,87.54,175.93,88.13Zm8.26-1.43c.09.08.14.14.14.2s-.08.16-.2.18-.31.1-.34.22a19.74,19.74,0,0,1-1.46,2.94c-.15,0-.24,0-.25-.07l-.74-.45a10.52,10.52,0,0,0,1-1.65,15,15,0,0,0,.64-1.79.22.22,0,0,1,.2-.15Z"/><path class="cls-5" d="M196,87.62a1,1,0,0,1,.08.16q0,.16-.18.18c-.28,0-.44.08-.47.17-.28.48-.6,1-.93,1.53h7.08c.12,0,.18.06.18.16v.59q0,.24-.18.24h-2.94a10.06,10.06,0,0,1-.63,1.45A6.75,6.75,0,0,1,197,93.78l-.25.29.45.21q2.31,1.17,3.93,2.11l-.08.14-.51.69a44.09,44.09,0,0,0-4.62-2.45,4,4,0,0,1-.43.29,11.83,11.83,0,0,1-2,1,29.82,29.82,0,0,1-3.41,1.11c-.12,0-.18,0-.19-.11a6.16,6.16,0,0,1-.45-.7c-.09-.08-.12-.14-.12-.2a4.45,4.45,0,0,0,1-.19,18,18,0,0,0,1.85-.47,15.08,15.08,0,0,0,2.25-1l.39-.27c-1.14-.48-2.11-.85-2.93-1.11l-.67.81a.25.25,0,0,1-.21-.09c-.19-.09-.39-.16-.6-.24-.06,0-.08-.06-.08-.15.91-1.08,1.59-2,2.1-2.71a1,1,0,0,1,.11-.15h-4q-.18,0-.18-.24v-.59c0-.1.06-.16.18-.16h4.63a14.38,14.38,0,0,0,.95-1.61,8,8,0,0,0,.51-1.09c0-.08.08-.12.12-.12Zm0-3.83c0,.14-.06.21-.15.23s-.15.12-.15.3v.76h5.16c.15,0,.24.07.24.18v2.93c0,.12-.09.18-.24.18h-.59c-.15,0-.22-.06-.22-.18V86h-10.2v2.18c0,.12-.09.18-.24.18h-.59c-.14,0-.22-.06-.22-.18V85.32a.21.21,0,0,1,.22-.24h5.57V83.79c0-.12.07-.18.24-.18Q196.06,83.61,196.06,83.79Zm-2.18,6.86a.07.07,0,0,1,0,0c-.35.51-.77,1.08-1.27,1.71,1.18.44,2.23.84,3.13,1.22,0,0,0,0,.06-.05a6.38,6.38,0,0,0,1.13-1.47,6.79,6.79,0,0,0,.69-1.45Z"/><path class="cls-5" d="M209.2,84.32c0,.09,0,.13-.12.13s-.3.08-.34.17a17.73,17.73,0,0,1-1.36,2.7V97c0,.12-.09.18-.24.18h-.58c-.17,0-.24-.06-.24-.18v-8.3q-.52.63-1.29,1.44a.39.39,0,0,1-.3-.13l-.47-.39a.21.21,0,0,1-.1-.18c.43-.45.87-1,1.32-1.46A11.53,11.53,0,0,0,207,85.8a13.08,13.08,0,0,0,.87-2.13c0-.07.06-.12.12-.12C208.78,84,209.2,84.24,209.2,84.32ZM217,84.2c.15,0,.24.06.24.18v5c0,.12-.09.18-.24.18h-.58c-.15,0-.23-.06-.23-.18v-.65h-2.23V91h4c.12,0,.18.07.18.22v.47q0,.24-.18.24h-3.78a11.05,11.05,0,0,0,1.18,1.45,7.69,7.69,0,0,0,1.58,1.32,5.87,5.87,0,0,0,1.54.74c0,.09-.06.13-.15.16a4.43,4.43,0,0,0-.52.6c-.06.08-.12.12-.15.12A9.87,9.87,0,0,1,215.72,95a7.73,7.73,0,0,1-1.42-1.51c-.12-.15-.24-.3-.36-.47v4c0,.12-.08.18-.23.18h-.58c-.17,0-.24-.06-.24-.18V93.3l-.43.54a11.83,11.83,0,0,1-1.36,1.38,12.17,12.17,0,0,1-1.68,1.17.32.32,0,0,1-.25-.1c-.2-.18-.39-.36-.57-.51a.43.43,0,0,1,0-.15,8.41,8.41,0,0,0,1.31-.77,7.88,7.88,0,0,0,1.55-1.35,18.41,18.41,0,0,0,1.27-1.63h-3.54q-.18,0-.18-.24v-.47c0-.15.06-.22.18-.22h3.75V88.77h-2.18v.71c0,.12-.07.18-.22.18h-.58c-.17,0-.25-.06-.25-.18v-5a.22.22,0,0,1,.25-.24Zm-.81,3.64V85.15h-5.46v2.69Z"/><path class="cls-5" d="M224.32,83.79a.74.74,0,0,1,.36.08c.23.19.35.33.35.39L223.72,88a.76.76,0,0,0-.05.21.35.35,0,0,0,.08.21,7.54,7.54,0,0,1,.79,1.66,7,7,0,0,1,.32,2.06,3.6,3.6,0,0,1-.21,1.29,1.47,1.47,0,0,1-.65.81,1.36,1.36,0,0,1-.91.24q-.36,0-.36-.24a2.13,2.13,0,0,0-.23-.77c0-.06.07-.1.18-.1l.65.06c.18,0,.31-.14.41-.41a2.91,2.91,0,0,0,.11-.88,6.55,6.55,0,0,0-.25-1.64,8.43,8.43,0,0,0-1-2c-.05-.06-.09-.1-.09-.16a1.07,1.07,0,0,1,.05-.23L224,84.68h-2V96.92c0,.12-.08.18-.22.18h-.59a.16.16,0,0,1-.18-.18V84a.17.17,0,0,1,.18-.19Zm5.89.29c.09.07.15.13.15.18s-.1.18-.3.18a.69.69,0,0,0-.22,0,9.35,9.35,0,0,0,.9,1.23,7.14,7.14,0,0,0,1.3,1.16A7.39,7.39,0,0,0,234.19,88c.09,0,.15.06.15.09a.18.18,0,0,1-.08.16c-.21.18-.39.35-.55.5s-.09.1-.12.1A6.44,6.44,0,0,1,232,88l-.25-.18v.35c0,.16,0,.24-.11.24H227.2c-.09,0-.12-.08-.12-.24v-.47c0-.12,0-.18.12-.18h4.15a7.39,7.39,0,0,1-1-.89,13.66,13.66,0,0,1-1.17-1.49,9.4,9.4,0,0,1-.79,1,11.33,11.33,0,0,1-1,1.05,14.86,14.86,0,0,1-1.21,1,9.53,9.53,0,0,1-1,.61.27.27,0,0,1-.23-.13,2.07,2.07,0,0,0-.44-.53c-.12-.06-.16-.12-.16-.16s0,0,.08-.08a7.33,7.33,0,0,0,1.41-.75,9.21,9.21,0,0,0,1.55-1.3,6.33,6.33,0,0,0,.86-1,8.14,8.14,0,0,0,.66-1.14.28.28,0,0,1,.19-.14Zm-2.32,9.51c.07.06.12.12.12.16s-.08.18-.22.18a.25.25,0,0,0-.25.14c-.12.24-.24.43-.33.6a6.26,6.26,0,0,0,.6.82,4.88,4.88,0,0,0,.89.74.23.23,0,0,1,.07.16,2.5,2.5,0,0,1-.52.65.25.25,0,0,1-.11-.05,10.6,10.6,0,0,1-1.41-1.56,5.74,5.74,0,0,1-.36.5l-.64.72-.52.45A.23.23,0,0,1,225,97a2.26,2.26,0,0,0-.42-.49c-.09-.06-.14-.11-.14-.14s0,0,.05,0a8.25,8.25,0,0,0,.72-.57,5.41,5.41,0,0,0,.8-1,4,4,0,0,0,.44-.72,6.1,6.1,0,0,0,.34-.84c0-.06.08-.09.11-.09Zm.76-4.17c.15,0,.24.06.24.18v3c0,.12-.09.18-.24.18h-2.74q-.24,0-.24-.18v-3q0-.18.24-.18Zm-.74.88h-1.24v1.64h1.24Zm4.54,3.29c.09.06.13.12.13.16s-.07.18-.22.18a.29.29,0,0,0-.26.14c-.12.25-.24.48-.34.66a5.07,5.07,0,0,0,.81.84,8.16,8.16,0,0,0,1.3.88.25.25,0,0,1-.09.21c-.15.12-.33.29-.55.5a.14.14,0,0,1-.09,0,4,4,0,0,1-.87-.58c-.3-.29-.62-.65-1-1.07a4,4,0,0,1-.36.51c-.21.26-.43.5-.64.72s-.39.36-.51.47a.28.28,0,0,1-.23-.14,2.19,2.19,0,0,0-.4-.49c-.09-.06-.14-.11-.14-.14s0,0,0-.06a5.47,5.47,0,0,0,.74-.55,6.5,6.5,0,0,0,.81-1,5.29,5.29,0,0,0,.43-.75,6.89,6.89,0,0,0,.35-.84c0-.06.07-.1.1-.1Zm.49-4.17c.15,0,.23.06.23.18v3c0,.12-.08.18-.23.18h-2.76q-.24,0-.24-.18v-3q0-.18.24-.18Zm-.76.88H231v1.64h1.23Z"/><path class="cls-5" d="M61.63,114.23c.13.06.21.14.21.23a.2.2,0,0,1-.15.19.24.24,0,0,0-.26.2,12.64,12.64,0,0,1-1.09,2.4c-.09.13-.17.19-.19.19a.5.5,0,0,1-.26-.1l-.57-.24c-.07,0-.11,0-.11-.08a.36.36,0,0,1,0-.13,8.62,8.62,0,0,0,.78-1.32,7.49,7.49,0,0,0,.55-1.49c0-.13.08-.21.14-.21Zm2.15-8.86a.2.2,0,0,1-.16.22c-.08,0-.13.12-.13.3v1h2.68c.12,0,.18.07.18.22v.48c0,.15-.06.23-.18.23H59.68c-.12,0-.18-.08-.18-.23v-.48c0-.15.06-.22.18-.22h2.74v-1.53q0-.18.24-.18C63.4,105.19,63.78,105.25,63.78,105.37Zm1.7,3.75c.15,0,.23.06.23.18v3.45c0,.12-.08.18-.23.18h-2v4.39c0,.74-.62,1.11-1.82,1.11H61.2c-.07,0-.09-.09-.09-.27a2.53,2.53,0,0,0-.26-.78v-.06a2.58,2.58,0,0,0,.77.12c.54,0,.8-.16.8-.52v-4h-2c-.16,0-.23-.06-.23-.18V109.3c0-.12.07-.18.23-.18Zm-.82.94H61.2V112h3.46Zm.64,3.86a21,21,0,0,1,1,1.87c0,.15,0,.24-.09.24a1.66,1.66,0,0,1-.84.35,19.48,19.48,0,0,0-.94-2c0-.11.21-.26.64-.47A.26.26,0,0,1,65.3,113.92Zm3.09-5.21c0-1,0-2.07,0-3.33,0-.19.06-.3.19-.3l1.14.11c.09,0,.15.06.15.18s-.07.18-.22.24-.21.1-.21.3c0,1,0,2-.09,2.8h2.94c.1,0,.16.08.16.23v.48c0,.15-.06.22-.16.22h-3c-.06.86-.12,1.59-.21,2.22a18.37,18.37,0,0,1-1,3.89,12.64,12.64,0,0,1-1.71,3,.8.8,0,0,1-.31,0l-.6-.36c-.09,0-.14-.06-.14-.12a.33.33,0,0,1,.09-.21,8.58,8.58,0,0,0,1.86-3.18,19.47,19.47,0,0,0,.88-4c0-.34.07-.73.1-1.17H66.66c-.12,0-.19-.07-.19-.22v-.48c0-.15.07-.23.19-.23Zm2.42,2.34a.65.65,0,0,1-.12.3v5.91c0,.15,0,.24.12.24h.82c.2,0,.39-.54.59-1.65l.93.59c-.33,1.36-.75,2-1.23,2H70.4c-.51,0-.76-.24-.76-.7V111c0-.12,0-.18.12-.18C70.45,110.87,70.81,111,70.81,111.05Zm1-4.44.79.63s0,.06-.07.12L72,108a8.65,8.65,0,0,0-1.1-.81,5.23,5.23,0,0,0-.78-.42,2.62,2.62,0,0,1,.47-.66c0-.06.09-.11.12-.11C71.17,106.24,71.5,106.43,71.77,106.61Z"/><path class="cls-5" d="M79.62,105.61c0,.1-.08.15-.21.15s-.21,0-.21.13c-.29.53-.65,1.11-1.08,1.76a5.73,5.73,0,0,1-.46.63c1.14-.11,2.3-.26,3.44-.44-.17-.43-.35-.87-.56-1.3,0-.06.26-.21.77-.47.33.69.58,1.32.79,1.89s.35,1.1.5,1.68c0,0-.31.15-.94.3a10.66,10.66,0,0,0-.26-1.12q-2.2.36-4.86.63a.22.22,0,0,0-.21.13c0,.17-.12.24-.24.24s-.36-.45-.75-1.35l1.16-.09a22.07,22.07,0,0,0,1.18-2.14,9.77,9.77,0,0,0,.44-1.16s0-.06.09-.06C79.13,105.32,79.62,105.52,79.62,105.61Zm2,4.74c.18,0,.28.09.28.24v7.12c0,.3-.19.53-.58.71a7.8,7.8,0,0,1-1.47.25.17.17,0,0,1-.18-.18,3,3,0,0,0-.35-.93s0-.06.12-.06a4,4,0,0,0,1.19-.1.32.32,0,0,0,.22-.32v-1H77.38v2.46c0,.12-.08.18-.22.18h-.59q-.24,0-.24-.18v-8a.22.22,0,0,1,.24-.24Zm-.77,2.4v-1.46H77.38v1.46Zm0,2.4v-1.46H77.38v1.46Zm7.49-8.06a8.59,8.59,0,0,1-1,.6,11.69,11.69,0,0,1-1.5.59c-.37.12-.83.25-1.38.37v1c0,.44.27.65.83.65h1.57c.57,0,.9-.06,1-.21a3,3,0,0,0,.51-1.26,1.54,1.54,0,0,0,.62.55c.12.06.19.12.19.21a3.42,3.42,0,0,1-.63,1.41c-.15.21-.46.3-.94.3H85.12c-1.17,0-1.75-.34-1.75-1.06v-5c0-.11,0-.17.11-.17l1,.12c.12,0,.18.06.18.11s0,.16-.1.18-.14.07-.14.18v2a9.92,9.92,0,0,0,1.26-.36,6.71,6.71,0,0,0,1.41-.66A4.87,4.87,0,0,0,88,106s0,0,.06,0,.11,0,.17.14c.43.54.66.82.66.85a.11.11,0,0,1-.12.12l-.35-.06A.11.11,0,0,0,88.33,107.09Zm.16,7a8.81,8.81,0,0,1-1.06.57,10.92,10.92,0,0,1-1.58.57q-.59.18-1.44.36v1.29c0,.43.27.64.83.64h1.57c.57,0,.9-.07,1-.22a3.71,3.71,0,0,0,.51-1.37,1.63,1.63,0,0,0,.62.56c.12.06.19.12.19.21a3.81,3.81,0,0,1-.63,1.5c-.15.21-.46.31-.94.31H85.12c-1.17,0-1.75-.36-1.75-1v-5.34c0-.1,0-.16.11-.16l1,.12c.12,0,.18.06.18.1s0,.17-.1.18a.17.17,0,0,0-.14.18v2.09c.48-.11.93-.23,1.34-.35a7.49,7.49,0,0,0,1.48-.63,5,5,0,0,0,.92-.64h.07s.11,0,.17.13a10.08,10.08,0,0,1,.66.86.11.11,0,0,1-.12.12l-.36-.06A.13.13,0,0,0,88.49,114.13Z"/><path class="cls-5" d="M96.33,106c0,.09,0,.14-.12.14a.4.4,0,0,0-.35.16,16.88,16.88,0,0,1-1.35,2.7v9.72c0,.12-.09.18-.24.18h-.59c-.16,0-.23-.06-.23-.18v-8.29c-.35.42-.79.9-1.29,1.44a.41.41,0,0,1-.3-.14c-.15-.12-.32-.25-.47-.39a.19.19,0,0,1-.1-.18c.43-.45.87-.94,1.32-1.45a12.52,12.52,0,0,0,1.5-2.22,14.39,14.39,0,0,0,.86-2.13c0-.08.07-.12.12-.12A4.62,4.62,0,0,1,96.33,106Zm7.78-.12c.15,0,.24.06.24.18v5c0,.12-.09.18-.24.18h-.59c-.15,0-.22-.06-.22-.18v-.64h-2.24v2.17h4c.12,0,.18.08.18.23v.46c0,.17-.06.24-.18.24h-3.78a10.43,10.43,0,0,0,1.19,1.46,7.62,7.62,0,0,0,1.57,1.32,5.74,5.74,0,0,0,1.55.73c0,.09-.06.14-.15.17a4.66,4.66,0,0,0-.53.6c-.06.07-.12.12-.15.12a9.93,9.93,0,0,1-1.9-1.23,8.14,8.14,0,0,1-1.43-1.52l-.36-.46v4c0,.12-.07.18-.22.18h-.59q-.24,0-.24-.18v-3.73l-.43.54a11.76,11.76,0,0,1-1.35,1.38A14.67,14.67,0,0,1,96.55,118a.35.35,0,0,1-.26-.11c-.19-.18-.38-.36-.57-.51a.68.68,0,0,1,0-.15A8.43,8.43,0,0,0,97,116.5a8.58,8.58,0,0,0,1.54-1.35,17.45,17.45,0,0,0,1.27-1.64H96.26c-.12,0-.18-.07-.18-.24v-.46c0-.15.06-.23.18-.23H100v-2.17H97.84v.7c0,.12-.08.18-.22.18H97q-.24,0-.24-.18v-5a.22.22,0,0,1,.24-.24Zm-.81,3.65v-2.7H97.84v2.7Z"/><path class="cls-5" d="M111.56,105.55a.74.74,0,0,1,.48.1c.23.21.35.39.35.54l-1.46,3.87a1,1,0,0,0,0,.17.12.12,0,0,0,.08.12,7.58,7.58,0,0,1,1.18,1.65,4.08,4.08,0,0,1,.33,1.51,3.3,3.3,0,0,1-.45,1.95,1.72,1.72,0,0,1-1.6.81c-.46,0-.68-.09-.7-.3a6,6,0,0,0-.19-.76c0-.15,0-.23.06-.23l.83.12a.69.69,0,0,0,.73-.45,4.3,4.3,0,0,0,.15-1.26A3,3,0,0,0,111,112a5.35,5.35,0,0,0-1.23-1.57q-.09-.07-.09-.12a.67.67,0,0,1,.06-.23l1.52-3.7h-2.1v12.07c0,.12-.08.18-.23.18h-.6c-.15,0-.23-.06-.23-.18V105.73c0-.12.08-.18.23-.18Zm3.73,2.74c.1.2.19.39.28.59h2.08c.15-.21.29-.41.38-.57a4.34,4.34,0,0,0,.36-.83c0-.07.06-.12.09-.12l.79.33c.14.06.21.12.21.2s0,.09-.1.1a.19.19,0,0,0-.18.12,6.29,6.29,0,0,1-.36.77H121c.07,0,.12.06.12.18v.46c0,.17-.05.24-.12.24h-8.91c-.08,0-.1-.07-.1-.24v-.46c0-.12,0-.18.1-.18h2.49a1,1,0,0,1-.08-.14,5.85,5.85,0,0,0-.59-.91c0-.06.25-.21.76-.47C114.92,107.71,115.13,108,115.29,108.29Zm4.72,2.46c.15,0,.22.06.22.18v4c0,.12-.07.17-.22.17h-2.82v1.06h3.93c.07,0,.12.06.12.17v.48c0,.15,0,.22-.12.22h-3.93v1.47c0,.12-.08.18-.23.18h-.58c-.17,0-.24-.06-.24-.18v-1.47h-4c-.08,0-.1-.07-.1-.22v-.48c0-.11,0-.17.1-.17h4v-1.06h-2.7c-.15,0-.23-.05-.23-.17v-4c0-.12.08-.18.23-.18Zm-2.52-5.56c0,.15-.06.22-.15.22s-.15.12-.15.32v.58h3.46c.06,0,.11.06.11.17V107c0,.15-.05.22-.11.22h-7.91c-.08,0-.11-.07-.11-.22v-.48c0-.11,0-.17.11-.17h3.4v-1.12c0-.11.07-.17.24-.17C117.11,105,117.49,105.08,117.49,105.19Zm1.69,7.33v-.94h-4.92v.94Zm0,.81h-4.92v1h4.92Z"/><path class="cls-5" d="M127.46,106.54c-.12,0-.17-.08-.17-.23v-.58c0-.12,0-.18.17-.18h3.39a.49.49,0,0,1,.35.15,8.24,8.24,0,0,0,2,2.8,7.56,7.56,0,0,0,4.05,1.77c.21,0,.32.11.32.2s0,.1-.09.16c-.21.18-.38.35-.53.5a.28.28,0,0,1-.25.16,12.64,12.64,0,0,1-1.47-.49v.43c0,.15-.06.23-.18.23h-3.91v2.35H135a.15.15,0,0,1,.17.17v.58c0,.17-.06.24-.17.24h-3.8v2.58h5.5a.16.16,0,0,1,.18.18v.59c0,.15-.06.22-.18.22H124.41c-.12,0-.17-.07-.17-.22v-.59c0-.12.05-.18.17-.18H130V114.8h-3.91c-.12,0-.19-.07-.19-.24V114c0-.11.07-.17.19-.17H130v-2.35h-4.1c-.11,0-.18-.08-.18-.23v-.33a5.93,5.93,0,0,1-1.34.62c-.07,0-.14-.06-.2-.2l-.5-.55c-.09-.08-.12-.14-.12-.18a15.61,15.61,0,0,0,2.49-1.07,11.3,11.3,0,0,0,2.06-1.5,13.67,13.67,0,0,0,1.24-1.48Zm7,3.93a7.7,7.7,0,0,1-2.05-1.25,10.07,10.07,0,0,1-1.9-2.59,8.82,8.82,0,0,1-1.06,1.35,12,12,0,0,1-2.93,2.49Z"/><path class="cls-5" d="M143.53,106.79V109h2c.12,0,.18.09.18.24v.46c0,.17-.06.24-.18.24h-1.8a9.83,9.83,0,0,0,.58,1.29,6.91,6.91,0,0,0,1.23,1.62.17.17,0,0,1,.11.14s-.05.07-.11.12a2.23,2.23,0,0,1-.43.45c-.06.09-.12.13-.16.13a.32.32,0,0,1-.19-.1,7.27,7.27,0,0,1-1.05-1.55,2.77,2.77,0,0,1-.22-.46v7c0,.12-.09.18-.24.18h-.58c-.13,0-.18-.06-.18-.18V112c-.07.15-.11.27-.16.39-.26.62-.54,1.19-.82,1.71a11.11,11.11,0,0,1-1,1.46.27.27,0,0,1-.24-.11l-.53-.51a.68.68,0,0,1,0-.15,9.8,9.8,0,0,0,.77-1,12.78,12.78,0,0,0,.91-1.71c.18-.43.45-1.17.81-2.19h-2.09c-.12,0-.17-.07-.17-.24v-.46c0-.15.05-.24.17-.24h2.41v-2a9.88,9.88,0,0,1-1.88.16.22.22,0,0,1-.25-.19,6.3,6.3,0,0,0-.33-.57c0-.15.05-.23.18-.23a11.82,11.82,0,0,0,2.47-.18,4.43,4.43,0,0,0,2.07-.87.43.43,0,0,1,.2-.06s.11,0,.21.11a8.23,8.23,0,0,1,.61.76c0,.12-.05.18-.12.18l-.4-.06A6.47,6.47,0,0,1,143.53,106.79Zm8.86,4.83a12.77,12.77,0,0,1-1.64.36l-.61.09v2.09H153c.11,0,.17.09.17.24v.46c0,.17-.06.24-.17.24h-2.82v2h3.41c.1,0,.16.09.16.24v.47c0,.15-.06.24-.16.24h-8c-.12,0-.16-.09-.16-.24v-.47c0-.15,0-.24.16-.24h3.52v-2h-2.93c-.12,0-.17-.07-.17-.24v-.46c0-.15,0-.24.17-.24h2.93v-2a2.45,2.45,0,0,1-.46,0c-.78.06-1.49.09-2.12.09-.16,0-.25-.06-.28-.19s-.27-.36-.42-.57a.16.16,0,0,1,.18-.18l.81.06a16.31,16.31,0,0,0,2.11-.11,9.8,9.8,0,0,0,1.59-.22,6.07,6.07,0,0,0,1.56-.51l.14,0a.53.53,0,0,1,.24.06c.54.48.81.76.81.87a.16.16,0,0,1-.18.18l-.41-.12A1,1,0,0,0,152.39,111.62Zm.15-6.07c.15,0,.24.06.24.18v3.85c0,.12-.09.18-.24.18h-5.68c-.15,0-.23-.06-.23-.18v-3.85c0-.12.08-.18.23-.18Zm-.81.82h-4v2.57h4Z"/><path class="cls-5" d="M160.18,105.25c0,.13-.06.21-.15.22s-.15.12-.15.3v1.83h1.93c.12,0,.19.08.19.23v.46c0,.17-.07.24-.19.24h-3c0,.8,0,1.49-.05,2.06h2.57c.12,0,.18.07.18.22,0,2.12-.08,3.63-.17,4.55a12.32,12.32,0,0,1-.43,2.44,1.29,1.29,0,0,1-1.4.87c-.63,0-1-.1-1-.3a2.08,2.08,0,0,0-.38-.81v-.12a8.33,8.33,0,0,0,1.35.12c.32,0,.53-.19.63-.6a9.27,9.27,0,0,0,.27-1.89c.06-.72.11-1.9.14-3.55h-1.83c0,.45-.06.82-.09,1.12a22,22,0,0,1-.47,3,6.61,6.61,0,0,1-.64,1.66,5.57,5.57,0,0,1-.87,1.26c-.27-.28-.51-.54-.7-.76a4.57,4.57,0,0,0,.59-.9,8.07,8.07,0,0,0,.63-1.65,19.82,19.82,0,0,0,.42-2.85c.1-.89.14-2.19.17-3.92h-1.47c-.12,0-.18-.07-.18-.24v-.46c0-.15.06-.23.18-.23h2.58v-2.35c0-.11.08-.17.24-.17C159.8,105.08,160.18,105.14,160.18,105.25Zm8.26,4.32a5.37,5.37,0,0,1-1.66.78h-.05a11.64,11.64,0,0,0,.26,2.31.33.33,0,0,0,0,.17.62.62,0,0,0,.12-.08,5.26,5.26,0,0,0,.93-.66,6.06,6.06,0,0,0,.66-.78.15.15,0,0,1,.11-.09l.91.65c.12.09.2.18.2.28s-.08.12-.23.12a.46.46,0,0,0-.33.11,9.88,9.88,0,0,1-2.11,1.45,5.77,5.77,0,0,0,.22.74,7.12,7.12,0,0,0,.89,1.63,10.31,10.31,0,0,0,1.56,1.7c0,.06-.05.1-.14.16s-.39.27-.6.44a.39.39,0,0,1-.25.1,10,10,0,0,1-1.11-1.26,7.31,7.31,0,0,1-1.07-1.74,11,11,0,0,1-.7-2.25,16.56,16.56,0,0,1-.33-2.8,6.53,6.53,0,0,1-1.07.09V117c.54-.16,1.16-.37,1.82-.63.07,0,.12.06.12.17a4.09,4.09,0,0,0-.13.6c0,.18-.07.27-.17.28a29.81,29.81,0,0,1-3.53,1c-.16,0-.25.07-.28.18s-.09.16-.12.16-.17,0-.19-.13l-.34-.87a.18.18,0,0,1,.14-.18c.69-.09,1.2-.15,1.53-.23h.09v-7.73c0-.1.06-.16.18-.16l.82.31a7.35,7.35,0,0,0,1.62-.21,4.47,4.47,0,0,0,1.79-.84.21.21,0,0,1,.34,0c.5.41.75.68.75.8s-.06.28-.16.28l-.36-.18A.34.34,0,0,0,168.44,109.57Zm-3.51-4c.11.09.17.15.17.21a.16.16,0,0,1-.12.16.17.17,0,0,0-.18.17c-.11.39-.2.73-.29,1h4.74c.12,0,.18.09.18.24v.47q0,.24-.18.24h-5.08c-.18.42-.38.82-.55,1.18a7.43,7.43,0,0,1-.7,1,1,1,0,0,1-.31,0c-.2-.07-.39-.15-.59-.21s-.09-.06-.09-.09a.14.14,0,0,1,0-.1,9.08,9.08,0,0,0,1.45-2.79,14.31,14.31,0,0,0,.41-1.68q0-.12.09-.12Z"/><path class="cls-5" d="M175.13,112.34c.16,0,.23.06.23.18v3.63a1.15,1.15,0,0,0,.15.62.55.55,0,0,0,.34.31,1.75,1.75,0,0,0,.71.23,7.53,7.53,0,0,0,1.2.07h3.3a28.12,28.12,0,0,0,4.56-.42.61.61,0,0,1,.24,0c.06,0,.1,0,.1.06a8.15,8.15,0,0,0-.27,1.21c0,.15-.1.24-.25.24h-7.68c-.33,0-.66,0-1-.06l-.92-.18a3.46,3.46,0,0,1-.73-.33,2.62,2.62,0,0,1-.51-.61l0,0c-.07,0-.12,0-.12,0a5.57,5.57,0,0,0-1.63,1.41.15.15,0,0,1-.12.09c-.08,0-.28-.25-.59-.76a.7.7,0,0,1-.06-.3,12.32,12.32,0,0,0,2.15-1.23.47.47,0,0,0,.07-.29v-2.88H172.5c-.13,0-.18-.07-.18-.22v-.47c0-.15.05-.24.18-.24Zm-.64-3.06c.43.33.81.63,1.11.89,0,0,0,.07-.07.13-.31.42-.45.63-.45.63-.49-.42-1-.79-1.5-1.15a9.38,9.38,0,0,0-1.08-.6,3,3,0,0,1,.46-.66c0-.06.09-.11.12-.11A13.41,13.41,0,0,1,174.49,109.28Zm.29-3.43,1.06.69s0,.07-.08.13a7.21,7.21,0,0,1-.46.63,12.17,12.17,0,0,0-1.43-.88,8.26,8.26,0,0,0-1-.47,3.25,3.25,0,0,1,.46-.66.28.28,0,0,1,.12-.1C174,105.43,174.41,105.65,174.78,105.85Zm7.3-.42c.09.06.13.12.13.18s-.1.16-.28.16l-.17,0a7.57,7.57,0,0,0,.8.93,6.56,6.56,0,0,0,1.24,1,7.32,7.32,0,0,0,2.07.93c.09,0,.15.06.15.09a.25.25,0,0,1-.07.18,6.45,6.45,0,0,0-.6.53c-.06.07-.11.1-.14.1a5.47,5.47,0,0,1-1.53-.69,6.25,6.25,0,0,1-1.54-1.18A10.36,10.36,0,0,1,181,106.4a11.87,11.87,0,0,1-.87.87,12.86,12.86,0,0,1-1.12.92,15.12,15.12,0,0,1-1.31.85,7.61,7.61,0,0,1-1.08.54.28.28,0,0,1-.23-.13,2.22,2.22,0,0,0-.43-.53c-.11-.06-.15-.1-.15-.15s0,0,.07-.07a12.24,12.24,0,0,0,1.54-.66,11.41,11.41,0,0,0,1.69-1.14,7,7,0,0,0,.91-.89,6.72,6.72,0,0,0,.74-1c.07-.07.13-.12.19-.12Zm-2.83,8.13a.39.39,0,0,1,.1.19s0,.06-.09.06a.81.81,0,0,0-.22.09,7.82,7.82,0,0,1-.75,1,8.7,8.7,0,0,1-1.22,1c-.12,0-.21,0-.24-.1a4.47,4.47,0,0,1-.48-.42c-.07,0-.1-.06-.1-.12a.12.12,0,0,1,0-.08,1.86,1.86,0,0,0,.57-.33,4.37,4.37,0,0,0,.85-.81,7.53,7.53,0,0,0,.68-.93s0-.07.07-.07Zm4.25-4.73c.12,0,.18.08.18.23v.46c0,.17-.06.24-.18.24h-2v1.7h3.64c.11,0,.17.09.17.24v.46c0,.17-.06.24-.17.24h-3.64v3.35c0,.75-.62,1.11-1.82,1.11h-.52c-.08,0-.11-.09-.11-.29a2.74,2.74,0,0,0-.23-.78v0a3.13,3.13,0,0,0,.8.1c.54,0,.83-.16.83-.52V112.4H177c-.12,0-.18-.07-.18-.24v-.46c0-.15.06-.24.18-.24h3.51v-1.7h-2.05c-.12,0-.17-.07-.17-.24v-.46c0-.15,0-.23.17-.23Zm.93,5.31c.39.39.72.75,1,1.07,0,0,0,.07-.08.13l-.45.63a12.68,12.68,0,0,0-1.36-1.38,7.13,7.13,0,0,0-1-.72,2.62,2.62,0,0,1,.47-.66c0-.06.07-.1.12-.1A13.27,13.27,0,0,1,184.43,114.14Z"/><path class="cls-5" d="M197.87,110.15l-1.16,1.2a4,4,0,0,0-1,2.78h-1.09a5.16,5.16,0,0,1,1.43-3.59c.29-.28.57-.58.87-.88a1.7,1.7,0,0,0,.45-1.11,1.15,1.15,0,0,0-.46-.93,2,2,0,0,0-1.21-.38c-1.1,0-1.67.51-1.7,1.52h-1.09a2.55,2.55,0,0,1,.67-1.74,2.77,2.77,0,0,1,2.12-.78,3.18,3.18,0,0,1,1.85.54,2.08,2.08,0,0,1,.92,1.77A2.47,2.47,0,0,1,197.87,110.15Zm-3.5,7.25v-1.53h1.52v1.53Z"/><path class="cls-5" d="M37.74,95.39a13,13,0,0,0,2.8,1.53l-.64,1.52a12.77,12.77,0,0,1-3.54-2,8.18,8.18,0,0,1-4,1,7.79,7.79,0,0,1-4.05-1.08,7.2,7.2,0,0,1-2.8-3,9.63,9.63,0,0,1-1-4.41,10,10,0,0,1,1-4.43,6.93,6.93,0,0,1,2.82-3,8.41,8.41,0,0,1,8.19,0,7.14,7.14,0,0,1,2.79,3,9.8,9.8,0,0,1,1,4.39,10.25,10.25,0,0,1-.62,3.66A7.63,7.63,0,0,1,37.74,95.39Zm-4.8-2.78a7.93,7.93,0,0,1,3.11,1.57A6.78,6.78,0,0,0,38,88.91a8.27,8.27,0,0,0-.68-3.49,5.24,5.24,0,0,0-2-2.32,5.72,5.72,0,0,0-7,.84,7,7,0,0,0-1.61,5,7,7,0,0,0,1.59,4.94,5.29,5.29,0,0,0,4.06,1.71,5.6,5.6,0,0,0,2.2-.43,7,7,0,0,0-2.15-1Z"/></g></g></svg>