<svg xmlns="http://www.w3.org/2000/svg" viewBox="0 0 501.07 58.63"><defs><style>.cls-1{opacity:0.97;}.cls-2{fill:#ffe8ca;}.cls-3{fill:#231815;}.cls-4{fill:#e5625b;}.cls-5{fill:#fff;}</style></defs><title>資產 12</title><g id="圖層_2" data-name="圖層 2"><g id="Cut2_透過旅遊小夥伴的旅遊案例說明"><g class="cls-1"><circle class="cls-2" cx="58.64" cy="29.32" r="29.32"/></g><path class="cls-3" d="M24,33.24c0,.63-.28.91-.83.91H13.23a27.69,27.69,0,0,0,4.48,2.06,53.09,53.09,0,0,0,6.16,1.92.92.92,0,0,1,.6.91,1.09,1.09,0,0,1-.24.65.77.77,0,0,1-.67.37,3.85,3.85,0,0,1-1.1-.19c-1.66-.57-3.27-1.17-4.78-1.79a39.78,39.78,0,0,1-4.57-2.29v4c0,.6-.34.91-1,.91a.82.82,0,0,1-.94-.91V35.69a30.87,30.87,0,0,1-3.22,1.77,56.39,56.39,0,0,1-6.32,2.39c-.39,0-.62.1-.7.1-.62,0-.91-.34-.91-1A.85.85,0,0,1,.6,38a50.61,50.61,0,0,0,6.76-2.26,17.54,17.54,0,0,0,3.12-1.62H1.3c-.55,0-.81-.28-.81-.91a.71.71,0,0,1,.81-.8h9.85V31.22a.82.82,0,0,1,.94-.91c.68,0,1,.31,1,.91v1.22h10A.73.73,0,0,1,24,33.24ZM12.9,17.51v.71h9.54c.81,0,1.22.54,1.22,1.63,0,.45-.05.94-.1,1.51s-.44.63-1,.63-.7-.21-.7-.63v-.91c0-.47-.21-.7-.62-.7H2.94c-.42,0-.6.29-.6.81v.52c0,.62-.31.91-.94.91a.79.79,0,0,1-.91-.91V19.85a1.45,1.45,0,0,1,1.64-1.63h8.74v-.71a.9.9,0,0,1,1-1A.9.9,0,0,1,12.9,17.51Zm-.73,3.64a1.33,1.33,0,0,1-.21.58,8.09,8.09,0,0,1-.67,1H22.65a.72.72,0,0,1,.8.8c0,.58-.28.84-.8.84h-4.5a4.38,4.38,0,0,1-.36.65,11.39,11.39,0,0,1-2.48,2.47,3.94,3.94,0,0,1-.36.23c2.18.47,4.73,1,7.7,1.61a.93.93,0,0,1,.7.81c-.05.65-.34,1-.91,1a2,2,0,0,1-.6-.1c-3-.78-5.95-1.54-8.81-2.21a17.72,17.72,0,0,1-2.58,1,26,26,0,0,1-4.78,1,31.61,31.61,0,0,1-4.06.31c-.67,0-1-.31-1-.91a.72.72,0,0,1,.7-.8,45.36,45.36,0,0,0,7.51-.89,10.57,10.57,0,0,0,1.36-.39l-3.28-.7c-1-.21-1.51-.6-1.51-1.17a1.27,1.27,0,0,1,.65-1,12.31,12.31,0,0,0,1.25-.93H1.51c-.55,0-.81-.26-.81-.84a.71.71,0,0,1,.81-.8H9.07a10.9,10.9,0,0,0,1.28-1.82.88.88,0,0,1,.8-.52C11.78,20.4,12.12,20.66,12.17,21.15ZM9.75,24.33c-.57.46-1.22,1-1.95,1.45-.13.11-.18.18-.18.26s.1.18.34.24l4.55.91a7.89,7.89,0,0,0,1-.55,10.13,10.13,0,0,0,2.58-2.31Z"/><path class="cls-3" d="M34,17a.88.88,0,0,1,.33.63,2.49,2.49,0,0,1-.1.49,37.66,37.66,0,0,1-1.4,5.25V39.74a.93.93,0,0,1-1.85,0V27.5c-.26.49-.55,1-.81,1.38s-.47.41-.59.41c-.68,0-1-.26-1-.8a1.17,1.17,0,0,1,.18-.63A26.69,26.69,0,0,0,31,23.42a36.17,36.17,0,0,0,1.74-6c.08-.42.29-.62.6-.62A1.23,1.23,0,0,1,34,17Zm10.19,1.75c0,.62-.29.91-.81.91H38.84c0,.2-.05.36-.05.52a21.19,21.19,0,0,1-.28,2.21H42.2c.93,0,1.43.59,1.43,1.74a21.15,21.15,0,0,1-.6,5.12,19.8,19.8,0,0,1-2.13,5.51,19,19,0,0,1-5.2,5.41,1.89,1.89,0,0,1-.7.21.9.9,0,0,1-1-1,.87.87,0,0,1,.29-.62,18.26,18.26,0,0,0,4.63-4.34,12.57,12.57,0,0,0,1-1.61s0,0,0,0c-.78-.91-1.59-1.79-2.42-2.65a1.07,1.07,0,0,1-.21-.5c0-.54.29-.83.91-.83a.74.74,0,0,1,.5.31,16.69,16.69,0,0,1,2,2,19.32,19.32,0,0,0,1.14-6.21c0-.39-.13-.6-.39-.6h-3a.68.68,0,0,1-.21,0,3.92,3.92,0,0,0-.1.46A19,19,0,0,1,36.84,28a16.85,16.85,0,0,1-2,3.07.8.8,0,0,1-.62.21A.67.67,0,0,1,33.7,31a.81.81,0,0,1-.24-.62.73.73,0,0,1,.32-.62A19.1,19.1,0,0,0,35.46,27a17.84,17.84,0,0,0,1-3.12,25.71,25.71,0,0,0,.68-4.26H35.7c-.55,0-.81-.29-.81-.91s.26-.84.81-.84h7.72A.74.74,0,0,1,44.23,18.74Zm7-.84V38c0,1.56-.89,2.34-2.65,2.34a11.82,11.82,0,0,1-3.46-.73.91.91,0,0,1-.7-.91c0-.57.23-.86.7-.91a3.41,3.41,0,0,1,.57.08,14,14,0,0,0,2.89.62c.52,0,.8-.34.8-1V17.9a.82.82,0,0,1,.94-.91A.81.81,0,0,1,51.25,17.9Zm-4,2V33.76a.8.8,0,0,1-.91.91c-.63,0-.91-.28-.91-.91V19.85a.8.8,0,0,1,.91-.91A.81.81,0,0,1,47.27,19.85Z"/><path class="cls-3" d="M67.94,37.69H59.25c-.83,0-1.24-.31-1.24-.94a4.7,4.7,0,0,1,1.3-2.23,24.32,24.32,0,0,1,3-3L65,29.06A5.08,5.08,0,0,0,67,25.44a2.52,2.52,0,0,0-1-2.1,4,4,0,0,0-2.37-.68,3.86,3.86,0,0,0-2.91,1.28,3.35,3.35,0,0,0-.88,1.84c-.13.76-.37,1.12-.71,1.12-.62,0-.93-.34-.93-1a4.68,4.68,0,0,1,1.53-3.41A5.39,5.39,0,0,1,63.62,21a6,6,0,0,1,3.64,1.11,4,4,0,0,1,1.64,3.38q0,2.34-2.65,4.61c-1.41,1.22-2.45,2.15-3.1,2.78A24.31,24.31,0,0,0,60.42,36h7.52c.68,0,1,.28,1,.86S68.62,37.69,67.94,37.69Z"/><rect class="cls-4" x="112.56" y="9.71" width="388.51" height="40.44" rx="12"/><path class="cls-5" d="M161.51,23.76c0,.13-.06.21-.15.22s-.15.12-.15.3v8.57c1.25-.45,2.42-1,3.53-1.47a.17.17,0,0,1,.12-.06c.06,0,.1.06.1.18a3.3,3.3,0,0,1-.06.87c-2,.91-3.91,1.74-5.91,2.46-.18.3-.31.46-.4.46s-.32-.46-.65-1.39c.63-.15,1.35-.38,2.16-.66V23.76q0-.18.24-.18Q161.51,23.58,161.51,23.76Zm8.37-.47c0,.08-.06.15-.16.21a.3.3,0,0,0-.18.32,44.72,44.72,0,0,1-.41,5.85,12.34,12.34,0,0,1-.76,2.61,3.11,3.11,0,0,1-.14.31c.72.45,1.34.86,1.82,1.22.66.55,1.23,1,1.71,1.48a.56.56,0,0,1-.08.14c-.33.45-.49.69-.51.69a19.12,19.12,0,0,0-2.31-1.92c-.45-.3-.82-.56-1.15-.74a4.36,4.36,0,0,1-.77.83,7.28,7.28,0,0,1-2.74,1.54,8.64,8.64,0,0,1-1.17.29.22.22,0,0,1-.23-.15,4.88,4.88,0,0,0-.45-.66.36.36,0,0,1-.07-.24,9.05,9.05,0,0,0,2.7-.84,5.77,5.77,0,0,0,1.77-1.38,7.85,7.85,0,0,0,1.05-2.31,21.32,21.32,0,0,0,.51-4c0-1.06.06-2.16.06-3.27,0-.12,0-.18.06-.18A4.36,4.36,0,0,1,169.88,23.29Zm-4.54,3.11c.51.58,1,1.11,1.33,1.57a.26.26,0,0,1-.09.14l-.49.69a18.08,18.08,0,0,0-1.82-2A9,9,0,0,0,163,25.69a3.25,3.25,0,0,1,.5-.72c.06-.06.1-.1.13-.1A17.86,17.86,0,0,1,165.34,26.4Z"/><path class="cls-5" d="M176.17,27.75A35,35,0,0,1,176,32a14.94,14.94,0,0,1-.57,2.6,7.24,7.24,0,0,1-.63,1.5.49.49,0,0,1-.15,0,4.26,4.26,0,0,0-.54-.41.29.29,0,0,1-.06-.21,8.72,8.72,0,0,0,.6-1.8,20.8,20.8,0,0,0,.39-2.52c.07-.91.12-2,.12-3.34V23.52c0-.15.07-.23.24-.23h7.08c.15,0,.24.06.24.17v3.28a.21.21,0,0,1-.24.24h-2.16v1.94h2.28c.19,0,.3.07.3.22v5.54c0,.24-.15.4-.45.54a4.79,4.79,0,0,1-1.08.19.18.18,0,0,1-.2-.16,2.72,2.72,0,0,0-.33-1s0,0,.08,0a1.86,1.86,0,0,0,.76-.07.25.25,0,0,0,.15-.23V29.85h-1.51v6.39c0,.12-.09.18-.24.18h-.59q-.24,0-.24-.18V29.85H177.7v5.34c0,.1-.09.16-.24.16h-.59c-.16,0-.24-.06-.24-.16v-6c0-.15.08-.22.24-.22h2.34V27h-3Zm0-1.71h5.44V24.22h-5.44Zm9.15-1.17c0,.13-.06.21-.15.22s-.15.12-.15.3v7.8c0,.12-.09.18-.24.18h-.59c-.15,0-.22-.06-.22-.18V24.87c0-.12.07-.18.22-.18C184.94,24.69,185.32,24.75,185.32,24.87ZM187.78,23c.1.06.16.1.16.13s-.06.14-.16.14-.3.3-.3.69V35.19c0,.69-.53,1.05-1.58,1.05H185c-.09,0-.12-.09-.12-.26a3,3,0,0,0-.29-.69c0-.07,0-.1.12-.1a7.86,7.86,0,0,0,1.11.1c.42,0,.65-.18.65-.52V23.94a3.37,3.37,0,0,0-.06-.66.71.71,0,0,1-.06-.29c0-.07.09-.12.3-.12Z"/><path class="cls-5" d="M197.15,23.05c0,.14,0,.21-.13.23s-.15.12-.15.3v1.53H202c.1,0,.16.07.16.22v.48c0,.15-.06.23-.16.23h-5.16v2.29h6.79c.12,0,.18.08.18.23V29c0,.17-.06.24-.18.24h-6.79v1.31a26.25,26.25,0,0,1,2.41,1.23c.8.49,1.47.94,2,1.33a.41.41,0,0,1-.07.12l-.45.65a25,25,0,0,0-2.75-1.74c-.45-.24-.84-.44-1.18-.6v4.8c0,.1-.09.16-.24.16H196c-.15,0-.22-.06-.22-.16v-7.1h-5.28c-.12,0-.18-.07-.18-.24v-.46c0-.15.06-.23.18-.23h5.28V23.05c0-.12.07-.18.22-.18Q197.15,22.87,197.15,23.05Z"/><path class="cls-5" d="M208.27,26.58l1,.57s0,.07-.07.13l-.45.63a13.39,13.39,0,0,0-1.41-.73,8.65,8.65,0,0,0-1-.38,3.09,3.09,0,0,1,.47-.66A.19.19,0,0,1,207,26Zm1.09,3c.15,0,.23.06.23.17v3.28a4,4,0,0,0,.15,1.23,1.12,1.12,0,0,0,.34.65,1.68,1.68,0,0,0,.71.43,4.92,4.92,0,0,0,1.2.15h3.36a31.54,31.54,0,0,0,4.62-.42.57.57,0,0,1,.22,0c.08,0,.12,0,.12.06a7.88,7.88,0,0,0-.27,1.21c0,.15-.1.24-.25.24H212a5,5,0,0,1-1-.1,7.41,7.41,0,0,1-.92-.38,2.7,2.7,0,0,1-.73-.67,5.42,5.42,0,0,1-.51-1.2l0-.11c-.08,0-.12,0-.12.06a7.41,7.41,0,0,0-1.53,2.1c0,.09-.06.14-.12.14s-.26-.26-.57-.77a.5.5,0,0,1-.08-.3,11,11,0,0,0,2.06-1.86,1,1,0,0,0,.06-.42V30.55h-1.82c-.12,0-.18-.07-.18-.24v-.46c0-.15.06-.23.18-.23Zm-.4-6.15c.36.27.66.5.93.69a.29.29,0,0,1-.08.14l-.45.63a10.31,10.31,0,0,0-1.27-.89,6.44,6.44,0,0,0-.9-.46,3,3,0,0,1,.46-.66c0-.06.09-.11.12-.11C208.25,23.05,208.66,23.28,209,23.47Zm9.9,1.92c.1,0,.16.09.16.24v.47c0,.16-.06.24-.16.24h-3.23c0,1.11-.1,2-.18,2.64h3.81c.12,0,.18.07.18.22v.47q0,.24-.18.24h-3.43a2.24,2.24,0,0,0,.18.6,3.62,3.62,0,0,0,.48,1,2.47,2.47,0,0,0,.58.74,2.75,2.75,0,0,0,.83.63,5,5,0,0,0,1.17.51s.07,0,.07.06a.2.2,0,0,1-.07.16,5.3,5.3,0,0,0-.53.53c-.07.09-.13.13-.16.13a.23.23,0,0,1-.15-.07,5.78,5.78,0,0,1-.77-.36,5.94,5.94,0,0,1-.93-.66,4.17,4.17,0,0,1-.75-.89,2.91,2.91,0,0,1-.52-1.06,1.92,1.92,0,0,1-.18-.51,8,8,0,0,1-.56,1.41,4.72,4.72,0,0,1-1.09,1.35,5.68,5.68,0,0,1-1.49,1,9.22,9.22,0,0,1-.7-.76,4.19,4.19,0,0,0,1.09-.72,5.75,5.75,0,0,0,1.17-1.32,7.27,7.27,0,0,0,.68-1.83h-3.06q-.18,0-.18-.24V29.2c0-.15.06-.22.18-.22h3.24a26.29,26.29,0,0,0,.19-2.64h-3q-.18,0-.18-.24v-.47c0-.15.06-.24.18-.24Zm-5.28-1.48a6.28,6.28,0,0,1,.58,1,2.89,2.89,0,0,1-.93.3,3.8,3.8,0,0,0-.43-.8,6.3,6.3,0,0,0-.92-1.08c0-.06.24-.22.75-.48A9.44,9.44,0,0,1,213.58,23.91Zm4.75-.72c.15.06.23.13.23.21s-.06.1-.15.12-.2,0-.23.12a7.17,7.17,0,0,1-1,1.41c-.09.09-.15.12-.18.12a.39.39,0,0,1-.25-.11l-.57-.24c-.09,0-.12,0-.12-.07a.16.16,0,0,1,0-.09,4.86,4.86,0,0,0,.72-.8,3,3,0,0,0,.51-.91c0-.09.08-.14.14-.14Z"/><path class="cls-5" d="M226.93,23c.12,0,.19.09.19.21s-.07.21-.22.21a.3.3,0,0,0-.18.2c-.3.67-.59,1.26-.87,1.75h2.32c.15,0,.24.06.24.18v10c0,.12-.09.18-.24.18h-.58c-.15,0-.23-.06-.23-.18v-.76H224.2v1.17c0,.12-.09.18-.24.18h-.59q-.24,0-.24-.18V25.63a.22.22,0,0,1,.24-.24h1.35a23.12,23.12,0,0,0,1.17-2.46.19.19,0,0,1,.18-.12Zm.43,6.54V26.34H224.2v3.22Zm0,4.28V30.49H224.2v3.35Zm5.16-10.76c.11.09.17.15.17.21a.17.17,0,0,1-.12.17.22.22,0,0,0-.23.18c-.22.66-.42,1.18-.6,1.59h3.71a.25.25,0,0,1,.28.28q0,5.13-.18,7.08A8.29,8.29,0,0,1,235,35.1a1.51,1.51,0,0,1-.81.82,4.55,4.55,0,0,1-1.68.26c-.63,0-1-.11-1-.3a4.61,4.61,0,0,0-.21-.75c0-.09,0-.12.06-.12h.12a7.42,7.42,0,0,0,.76,0,2.54,2.54,0,0,0,1.5-.32q.45-.33.63-1.89a55.39,55.39,0,0,0,.27-6.7h-3.39a9.23,9.23,0,0,1-.51.88,7.75,7.75,0,0,1-.9,1.05,1.06,1.06,0,0,1-.33,0l-.57-.23c-.07,0-.1,0-.1-.07a.14.14,0,0,1,.06-.14,7.44,7.44,0,0,0,1.32-1.72,10.49,10.49,0,0,0,.6-1.26,14.93,14.93,0,0,0,.54-1.82c0-.06.07-.1.12-.1Zm-1.29,5.78a23.64,23.64,0,0,1,1.52,2.92q0,.22-.09.24a1.72,1.72,0,0,1-.84.35c-.51-1.25-1-2.28-1.41-3.11,0-.1.21-.25.64-.46A.25.25,0,0,1,231.23,28.86Z"/><path class="cls-5" d="M242.78,22.87c0,.14-.06.21-.15.23s-.15.12-.15.3v1.83h1.94c.12,0,.18.07.18.22v.47q0,.24-.18.24h-3c0,.79,0,1.48,0,2.05h2.56c.12,0,.18.08.18.23,0,2.11-.07,3.63-.16,4.54a12.45,12.45,0,0,1-.44,2.45,1.28,1.28,0,0,1-1.39.87c-.63,0-1-.11-1-.3a2,2,0,0,0-.37-.81v-.12a9.51,9.51,0,0,0,1.35.12q.46,0,.63-.6A11,11,0,0,0,243,32.7c.06-.72.1-1.91.13-3.56h-1.83c0,.45-.06.83-.09,1.13a23.66,23.66,0,0,1-.46,3,7.1,7.1,0,0,1-.65,1.67,5.26,5.26,0,0,1-.87,1.26c-.27-.29-.51-.54-.7-.77a4.1,4.1,0,0,0,.6-.9,9.14,9.14,0,0,0,.63-1.65,21.32,21.32,0,0,0,.42-2.85c.09-.88.13-2.19.16-3.91h-1.47q-.18,0-.18-.24v-.47c0-.15.06-.22.18-.22h2.58V22.87c0-.1.08-.16.24-.16C242.41,22.71,242.78,22.77,242.78,22.87Zm8.27,4.32a5.21,5.21,0,0,1-1.67.78l0,0a12.57,12.57,0,0,0,.25,2.31.28.28,0,0,0,0,.16s.09,0,.12-.07a5.84,5.84,0,0,0,.93-.66,7,7,0,0,0,.66-.78c0-.06.07-.09.1-.09l.92.64a.38.38,0,0,1,.19.29c0,.09-.07.12-.22.12a.45.45,0,0,0-.33.1,10.39,10.39,0,0,1-2.12,1.46,6.18,6.18,0,0,0,.23.73,6.94,6.94,0,0,0,.88,1.64,10.29,10.29,0,0,0,1.56,1.69c0,.06,0,.11-.13.17l-.6.43a.46.46,0,0,1-.26.11A10.83,10.83,0,0,1,250.46,35a7.81,7.81,0,0,1-1.06-1.74,11.32,11.32,0,0,1-.71-2.25,17.81,17.81,0,0,1-.33-2.81,6.5,6.5,0,0,1-1.06.09v6.32c.54-.17,1.15-.38,1.81-.63.08,0,.12.06.12.16s-.1.42-.13.6-.06.27-.17.29a29.69,29.69,0,0,1-3.52.94c-.17,0-.26.08-.29.18s-.09.17-.12.17a.18.18,0,0,1-.19-.14l-.33-.87a.17.17,0,0,1,.13-.18c.69-.09,1.2-.15,1.53-.22l.09,0V27.15c0-.11.06-.17.18-.17l.83.32a7.35,7.35,0,0,0,1.62-.21,4.43,4.43,0,0,0,1.78-.84.22.22,0,0,1,.35,0c.49.4.75.67.75.79s-.06.29-.17.29l-.36-.18A.27.27,0,0,0,251.05,27.19Zm-3.51-4.05c.1.09.16.15.16.21a.16.16,0,0,1-.12.17.18.18,0,0,0-.18.16c-.1.39-.19.74-.28,1h4.74c.12,0,.18.09.18.24v.46c0,.17-.06.24-.18.24h-5.09c-.18.42-.37.83-.55,1.19a6.68,6.68,0,0,1-.69,1,1,1,0,0,1-.32,0c-.19-.08-.39-.15-.58-.21s-.09-.06-.09-.09a.14.14,0,0,1,0-.11,7.25,7.25,0,0,0,1-1.62,8.91,8.91,0,0,0,.47-1.17,16.32,16.32,0,0,0,.4-1.68c0-.07.05-.12.09-.12Z"/><path class="cls-5" d="M260.6,26.74a.3.3,0,0,1-.24.3.65.65,0,0,0-.34.17,11.17,11.17,0,0,1-1.64,1.54v7.43c0,.12-.09.18-.24.18h-.58c-.17,0-.24-.06-.24-.18V29.53a23.35,23.35,0,0,1-2,1.26,8.58,8.58,0,0,0-.66-.64.37.37,0,0,1-.11-.18s0-.06.08-.09A12.22,12.22,0,0,0,257.56,28a15.1,15.1,0,0,0,1.89-1.93.19.19,0,0,1,.16-.09A5.53,5.53,0,0,1,260.6,26.74Zm-.9-3.22a.39.39,0,0,1,.2.3c0,.09-.08.12-.23.12a.68.68,0,0,0-.49.15,15.39,15.39,0,0,1-3.38,2.47.27.27,0,0,1-.22-.1,3.64,3.64,0,0,0-.44-.44.25.25,0,0,1-.1-.15s0-.07.09-.1a4.81,4.81,0,0,0,1.08-.59,7.67,7.67,0,0,0,1.41-1,6.76,6.76,0,0,0,1-1.16c.06-.09.12-.15.17-.15Zm8.4,4.05c.12,0,.18.07.18.22v.48c0,.15-.06.23-.18.23h-2.22v6.79c0,.75-.61,1.13-1.81,1.13l-1.23-.06c-.08,0-.11-.11-.11-.29a2.48,2.48,0,0,0-.25-.78v0a8.12,8.12,0,0,0,1.53.16c.54,0,.81-.18.81-.52V28.5h-4.1c-.12,0-.18-.08-.18-.23v-.48c0-.15.06-.22.18-.22Zm-.82-4c.12,0,.18.09.18.24v.46c0,.17-.06.24-.18.24h-5.79c-.12,0-.18-.07-.18-.24v-.46c0-.15.06-.24.18-.24Z"/><path class="cls-5" d="M283.52,23.4a.16.16,0,0,1,.18.18v.58c0,.17-.06.24-.18.24h-5.2v5.91h5.91a.16.16,0,0,1,.18.18v.59q0,.24-.18.24h-5.91v4.92c0,.12-.11.18-.3.18h-.59q-.24,0-.24-.18V31.32h-6q-.18,0-.18-.24v-.59a.16.16,0,0,1,.18-.18h6V24.4h-5.26c-.12,0-.18-.07-.18-.24v-.58a.16.16,0,0,1,.18-.18Zm-8.86,4a12.47,12.47,0,0,1,.6,1.69c0,.06-.36.18-1.05.36a11.55,11.55,0,0,0-.44-1.47,13.46,13.46,0,0,0-1-2c0-.06.28-.24.88-.53C274.07,26.16,274.4,26.8,274.66,27.39ZM282.92,26c.09.08.14.14.14.2s-.08.16-.2.18-.31.1-.34.22a20.78,20.78,0,0,1-1.46,2.94c-.15,0-.24,0-.25-.07l-.74-.45a10.52,10.52,0,0,0,1-1.65,15,15,0,0,0,.64-1.79.21.21,0,0,1,.2-.15Z"/><path class="cls-5" d="M294.77,26.88l.08.16q0,.16-.18.18c-.29,0-.44.08-.47.17-.28.48-.6,1-.93,1.53h7.08c.12,0,.18.06.18.16v.59q0,.24-.18.24h-2.94a10.06,10.06,0,0,1-.63,1.45A6.75,6.75,0,0,1,295.7,33l-.25.29.45.21q2.31,1.17,3.93,2.11l-.08.14-.51.69A44.09,44.09,0,0,0,294.62,34c-.15.11-.28.2-.43.29a11.56,11.56,0,0,1-2,1,29.61,29.61,0,0,1-3.4,1.11c-.12,0-.18,0-.2-.11s-.28-.42-.45-.7c-.09-.08-.12-.14-.12-.2a4.42,4.42,0,0,0,1.05-.19,18.64,18.64,0,0,0,1.85-.47,15.08,15.08,0,0,0,2.25-1l.39-.27c-1.14-.48-2.12-.85-2.93-1.11l-.67.81a.25.25,0,0,1-.21-.09l-.6-.24c-.06,0-.08-.06-.08-.15.9-1.08,1.59-2,2.1-2.71a1,1,0,0,1,.11-.15h-4q-.18,0-.18-.24v-.59c0-.1.06-.16.18-.16H292a16.09,16.09,0,0,0,.95-1.61,8,8,0,0,0,.51-1.09q0-.12.12-.12Zm0-3.83c0,.14-.06.21-.15.23s-.15.12-.15.3v.76h5.16c.15,0,.24.06.24.18v2.93c0,.12-.09.18-.24.18h-.59c-.15,0-.22-.06-.22-.18V25.27h-10.2v2.18c0,.12-.09.18-.24.18h-.59c-.15,0-.22-.06-.22-.18V24.58c0-.15.07-.24.22-.24h5.57V23.05c0-.12.07-.18.24-.18Q294.79,22.87,294.79,23.05Zm-2.18,6.86a.07.07,0,0,1,0,0c-.36.51-.78,1.08-1.27,1.71,1.18.44,2.23.84,3.13,1.22,0,0,.05,0,.06-.05a6.38,6.38,0,0,0,1.13-1.47,6.79,6.79,0,0,0,.69-1.45Z"/><path class="cls-5" d="M307.93,23.58a.11.11,0,0,1-.12.13.43.43,0,0,0-.35.17,17.78,17.78,0,0,1-1.35,2.7V36.3c0,.12-.09.18-.24.18h-.58c-.17,0-.24-.06-.24-.18V28q-.53.63-1.29,1.44a.39.39,0,0,1-.3-.13l-.47-.39a.21.21,0,0,1-.1-.18c.43-.45.87-.95,1.32-1.46a11.53,11.53,0,0,0,1.5-2.22,13.08,13.08,0,0,0,.87-2.13.13.13,0,0,1,.12-.12C307.51,23.25,307.93,23.5,307.93,23.58Zm7.78-.12c.15,0,.24.06.24.18v5c0,.12-.09.18-.24.18h-.58c-.15,0-.23-.06-.23-.18V28h-2.23v2.18h4c.12,0,.18.07.18.22v.47q0,.24-.18.24h-3.78a11.05,11.05,0,0,0,1.18,1.45,7.69,7.69,0,0,0,1.58,1.32,5.87,5.87,0,0,0,1.54.74c0,.09-.06.13-.15.16a4.43,4.43,0,0,0-.52.6c-.06.08-.12.12-.15.12a9.57,9.57,0,0,1-1.91-1.23A7.73,7.73,0,0,1,313,32.79c-.12-.15-.24-.3-.36-.47v4c0,.12-.08.18-.23.18h-.58c-.17,0-.24-.06-.24-.18V32.56l-.44.54a11.76,11.76,0,0,1-1.35,1.38,12.8,12.8,0,0,1-1.68,1.17.32.32,0,0,1-.25-.1c-.2-.18-.39-.36-.57-.51a.43.43,0,0,1-.05-.15,8.41,8.41,0,0,0,1.31-.77,7.85,7.85,0,0,0,1.54-1.35,18.08,18.08,0,0,0,1.28-1.63h-3.54q-.18,0-.18-.24v-.47c0-.15.06-.22.18-.22h3.75V28h-2.18v.71c0,.12-.07.18-.22.18h-.59q-.24,0-.24-.18v-5a.22.22,0,0,1,.24-.24Zm-.81,3.64V24.4h-5.46v2.7Z"/><path class="cls-5" d="M323.05,23.05a.74.74,0,0,1,.36.08c.22.19.34.33.34.39l-1.3,3.78a.76.76,0,0,0-.05.21.35.35,0,0,0,.08.21,7.54,7.54,0,0,1,.79,1.66,7,7,0,0,1,.32,2.06,3.83,3.83,0,0,1-.21,1.29,1.51,1.51,0,0,1-.65.81,1.38,1.38,0,0,1-.91.24q-.36,0-.36-.24a2.13,2.13,0,0,0-.23-.77c0-.06.06-.1.18-.1l.65.06c.18,0,.31-.14.4-.41a2.59,2.59,0,0,0,.12-.88,6.55,6.55,0,0,0-.25-1.64,8.43,8.43,0,0,0-1-1.95c-.06-.06-.09-.1-.09-.16a1.07,1.07,0,0,1,0-.23l1.41-3.52h-2V36.18c0,.12-.08.18-.23.18h-.58a.16.16,0,0,1-.18-.18V23.23a.16.16,0,0,1,.18-.18Zm5.89.29c.09.07.15.13.15.18s-.1.18-.3.18a.69.69,0,0,0-.22,0,10.07,10.07,0,0,0,.9,1.23,6.71,6.71,0,0,0,1.3,1.15,7.17,7.17,0,0,0,2.15,1.13c.09,0,.15.06.15.09a.18.18,0,0,1-.08.16c-.21.18-.39.35-.55.5s-.09.1-.12.1a6.44,6.44,0,0,1-1.58-.81l-.25-.18v.35c0,.16-.05.24-.11.24h-4.45c-.09,0-.12-.08-.12-.24V27c0-.12,0-.18.12-.18h4.15a6.31,6.31,0,0,1-1-.9A11.58,11.58,0,0,1,328,24.42a10.93,10.93,0,0,1-.79,1,11.33,11.33,0,0,1-1,1.05,14.86,14.86,0,0,1-1.21,1,9.45,9.45,0,0,1-1,.61.25.25,0,0,1-.22-.13,2.07,2.07,0,0,0-.44-.53c-.12-.06-.16-.12-.16-.16s0-.05.07-.08a7,7,0,0,0,1.41-.75,8.88,8.88,0,0,0,1.56-1.3,6.33,6.33,0,0,0,.86-1,8.14,8.14,0,0,0,.66-1.14.26.26,0,0,1,.19-.14Zm-2.32,9.51c.07.06.12.12.12.16s-.08.18-.23.18a.25.25,0,0,0-.24.14c-.12.24-.24.43-.33.6a6.26,6.26,0,0,0,.6.82,4.88,4.88,0,0,0,.89.74.28.28,0,0,1,.07.16,2.5,2.5,0,0,1-.52.65.25.25,0,0,1-.11,0,10.6,10.6,0,0,1-1.41-1.56c-.12.18-.24.33-.36.5l-.64.72-.53.45a.24.24,0,0,1-.21-.14,1.82,1.82,0,0,0-.42-.49c-.09-.06-.13-.11-.13-.14s0,0,0,0a6,6,0,0,0,.72-.57,5.43,5.43,0,0,0,.81-1,4.64,4.64,0,0,0,.44-.72,6.1,6.1,0,0,0,.34-.84.15.15,0,0,1,.11-.09Zm.76-4.17c.15,0,.24.06.24.18v3c0,.12-.09.18-.24.18h-2.74c-.17,0-.24-.06-.24-.18v-3c0-.12.07-.18.24-.18Zm-.75.88H325.4V31.2h1.23Zm4.55,3.29c.09.06.13.12.13.16s-.07.18-.22.18a.29.29,0,0,0-.26.14c-.12.25-.24.48-.34.66a5.07,5.07,0,0,0,.81.84,8.16,8.16,0,0,0,1.3.88.25.25,0,0,1-.09.21c-.15.12-.33.29-.55.5a.14.14,0,0,1-.09-.05,4,4,0,0,1-.87-.58c-.3-.29-.62-.65-1-1.07a4,4,0,0,1-.36.51c-.21.26-.43.5-.64.72s-.39.36-.51.47a.28.28,0,0,1-.23-.14,2.19,2.19,0,0,0-.4-.49c-.09-.06-.14-.11-.14-.14s0,0,0-.06a5.47,5.47,0,0,0,.74-.55,6.5,6.5,0,0,0,.81-1,5.29,5.29,0,0,0,.43-.75,6.89,6.89,0,0,0,.35-.84c0-.06.07-.1.1-.1Zm.49-4.17c.15,0,.23.06.23.18v3c0,.12-.08.18-.23.18h-2.76q-.24,0-.24-.18v-3q0-.18.24-.18Zm-.76.88h-1.23V31.2h1.23Z"/><path class="cls-5" d="M337.73,31.86c.14.06.21.13.21.22a.21.21,0,0,1-.15.2.23.23,0,0,0-.25.19,12.91,12.91,0,0,1-1.1,2.4c-.09.14-.16.2-.19.2A.52.52,0,0,1,336,35l-.57-.24c-.07,0-.1,0-.1-.07a.33.33,0,0,1,0-.14,8.17,8.17,0,0,0,.78-1.32,7.45,7.45,0,0,0,.56-1.48c0-.14.07-.21.13-.21ZM339.88,23c0,.14-.06.21-.15.23s-.14.12-.14.3v1h2.69c.12,0,.18.08.18.23v.48c0,.15-.06.22-.18.22h-6.5c-.12,0-.18-.07-.18-.22v-.48c0-.15.06-.23.18-.23h2.75V23c0-.12.07-.18.24-.18C339.5,22.81,339.88,22.87,339.88,23Zm1.71,3.75c.15,0,.22.06.22.18v3.45c0,.12-.07.18-.22.18h-2V35c0,.73-.61,1.11-1.81,1.11h-.48q-.09,0-.09-.27A2.45,2.45,0,0,0,337,35V35a2.94,2.94,0,0,0,.77.12c.54,0,.81-.17.81-.53v-4h-2c-.17,0-.24-.06-.24-.18V26.92c0-.12.07-.18.24-.18Zm-.83,1H337.3v1.93h3.46Zm.65,3.85c.37.6.72,1.22,1,1.88,0,.15,0,.24-.09.24a1.68,1.68,0,0,1-.84.34,19.32,19.32,0,0,0-.95-2c0-.1.21-.25.65-.46A.26.26,0,0,1,341.41,31.54Zm3.09-5.2c0-1,0-2.07,0-3.33,0-.2.06-.3.2-.3l1.14.1c.09,0,.15.06.15.18s-.08.18-.23.24-.21.11-.21.3c0,1,0,2-.09,2.81h2.94c.11,0,.17.07.17.22V27c0,.15-.06.23-.17.23h-3c-.06.85-.12,1.59-.21,2.22a19.06,19.06,0,0,1-1,3.88,12.71,12.71,0,0,1-1.71,3,.78.78,0,0,1-.32,0l-.6-.36c-.09,0-.13-.06-.13-.12a.3.3,0,0,1,.09-.21,8.5,8.5,0,0,0,1.86-3.18,19.37,19.37,0,0,0,.87-4c0-.35.07-.74.1-1.17h-1.69c-.12,0-.18-.08-.18-.23v-.48c0-.15.06-.22.18-.22Zm2.41,2.34a.55.55,0,0,1-.12.3v5.91c0,.15,0,.24.12.24h.83c.19,0,.39-.54.58-1.65l.93.58c-.33,1.37-.75,2.06-1.23,2.06h-1.51c-.51,0-.77-.24-.77-.71V28.62c0-.12,0-.18.12-.18C346.55,28.5,346.91,28.59,346.91,28.68Zm1-4.44.8.63s0,.06-.08.12l-.45.64a7.9,7.9,0,0,0-1.09-.81,7.19,7.19,0,0,0-.78-.42,2.73,2.73,0,0,1,.46-.66c0-.06.09-.1.12-.1A11.13,11.13,0,0,1,347.87,24.24Z"/><path class="cls-5" d="M355.72,23.23c0,.11-.08.15-.21.15s-.21.05-.21.14c-.29.52-.65,1.11-1.08,1.75a5.72,5.72,0,0,1-.45.63c1.14-.1,2.29-.25,3.43-.43-.16-.44-.34-.87-.55-1.31,0-.06.25-.21.76-.46.33.69.59,1.32.8,1.89s.34,1.09.49,1.68a2.9,2.9,0,0,1-.94.3,10.78,10.78,0,0,0-.26-1.13q-2.21.36-4.86.63a.24.24,0,0,0-.21.14q-.06.24-.24.24c-.12,0-.36-.45-.75-1.35L352.6,26a22.24,22.24,0,0,0,1.18-2.15,10.34,10.34,0,0,0,.44-1.15s0-.06.09-.06C355.24,23,355.72,23.14,355.72,23.23Zm2,4.74c.18,0,.29.09.29.24v7.13c0,.3-.2.52-.59.7a7.71,7.71,0,0,1-1.47.26q-.15,0-.18-.18a3.06,3.06,0,0,0-.34-.93s0-.06.12-.06a3.8,3.8,0,0,0,1.18-.11.32.32,0,0,0,.23-.31v-1h-3.47v2.46c0,.12-.07.18-.22.18h-.59q-.24,0-.24-.18v-8a.22.22,0,0,1,.24-.24Zm-.76,2.4V28.92h-3.47v1.45Zm0,2.4V31.32h-3.47v1.45Zm7.48-8.05a8.45,8.45,0,0,1-1,.6,12.26,12.26,0,0,1-1.5.58c-.38.12-.84.26-1.38.38v1c0,.43.27.64.82.64h1.58c.57,0,.9-.06,1-.21a3.15,3.15,0,0,0,.51-1.26,1.68,1.68,0,0,0,.61.56c.12.06.2.12.2.21a3.5,3.5,0,0,1-.63,1.41c-.15.21-.47.3-.95.3h-2.46c-1.17,0-1.75-.35-1.75-1.07v-5c0-.1,0-.16.12-.16l1,.12c.12,0,.18.06.18.1s-.05.17-.11.18a.16.16,0,0,0-.13.18v2q.68-.16,1.26-.36a7.53,7.53,0,0,0,1.41-.66,4.92,4.92,0,0,0,.9-.65h.06c.06,0,.1,0,.16.13a8,8,0,0,1,.66.86c0,.09,0,.12-.12.12l-.34-.06A.11.11,0,0,0,364.43,24.72Zm.17,7a9,9,0,0,1-1.07.57,9.74,9.74,0,0,1-1.57.57q-.58.18-1.44.36v1.29c0,.44.27.65.82.65h1.58c.57,0,.9-.08,1-.23a3.92,3.92,0,0,0,.51-1.36,1.58,1.58,0,0,0,.61.55c.12.06.2.12.2.21a3.81,3.81,0,0,1-.63,1.5,1.12,1.12,0,0,1-.95.32h-2.46c-1.17,0-1.75-.36-1.75-1V29.79c0-.11,0-.17.12-.17l1,.12c.12,0,.18.06.18.11a.17.17,0,0,1-.11.18c-.09,0-.13.07-.13.18v2.08c.48-.1.93-.22,1.33-.34a9,9,0,0,0,1.49-.63,5,5,0,0,0,.91-.65h.08s.1,0,.16.14a8.68,8.68,0,0,1,.66.85c0,.09,0,.12-.12.12l-.36-.06S364.63,31.74,364.6,31.75Z"/><path class="cls-5" d="M372.43,23.58a.11.11,0,0,1-.12.13.43.43,0,0,0-.35.17,17.78,17.78,0,0,1-1.35,2.7V36.3c0,.12-.09.18-.24.18h-.58c-.17,0-.24-.06-.24-.18V28q-.53.63-1.29,1.44a.39.39,0,0,1-.3-.13l-.47-.39a.21.21,0,0,1-.1-.18c.43-.45.87-.95,1.32-1.46a11.53,11.53,0,0,0,1.5-2.22,13.08,13.08,0,0,0,.87-2.13.13.13,0,0,1,.12-.12C372,23.25,372.43,23.5,372.43,23.58Zm7.78-.12c.15,0,.24.06.24.18v5c0,.12-.09.18-.24.18h-.58c-.15,0-.23-.06-.23-.18V28h-2.23v2.18h4c.12,0,.18.07.18.22v.47q0,.24-.18.24h-3.78a11.05,11.05,0,0,0,1.18,1.45,7.69,7.69,0,0,0,1.58,1.32,5.87,5.87,0,0,0,1.54.74c0,.09-.06.13-.15.16a4.43,4.43,0,0,0-.52.6c-.06.08-.12.12-.15.12A9.57,9.57,0,0,1,379,34.3a7.73,7.73,0,0,1-1.42-1.51c-.12-.15-.24-.3-.36-.47v4c0,.12-.08.18-.23.18h-.58c-.17,0-.24-.06-.24-.18V32.56l-.44.54a11.76,11.76,0,0,1-1.35,1.38,12.8,12.8,0,0,1-1.68,1.17.32.32,0,0,1-.25-.1c-.2-.18-.39-.36-.57-.51a.43.43,0,0,1-.05-.15,8.41,8.41,0,0,0,1.31-.77,7.85,7.85,0,0,0,1.54-1.35,18.08,18.08,0,0,0,1.28-1.63h-3.54q-.18,0-.18-.24v-.47c0-.15.06-.22.18-.22h3.75V28h-2.18v.71c0,.12-.07.18-.22.18h-.59q-.24,0-.24-.18v-5a.22.22,0,0,1,.24-.24Zm-.81,3.64V24.4h-5.46v2.7Z"/><path class="cls-5" d="M387.67,23.17a.77.77,0,0,1,.48.11.88.88,0,0,1,.34.54L387,27.69a.5.5,0,0,0,0,.16.12.12,0,0,0,.08.12,7.48,7.48,0,0,1,1.18,1.65,4.17,4.17,0,0,1,.33,1.52,3.32,3.32,0,0,1-.45,2,1.72,1.72,0,0,1-1.6.81c-.45,0-.68-.09-.69-.3s-.11-.48-.2-.77,0-.22.06-.22l.83.12a.68.68,0,0,0,.73-.45,4.4,4.4,0,0,0,.15-1.26,2.92,2.92,0,0,0-.39-1.35,5.38,5.38,0,0,0-1.23-1.58.18.18,0,0,1-.09-.12,1,1,0,0,1,.06-.22L387.31,24h-2.1V36.12c0,.12-.08.18-.23.18h-.6c-.15,0-.22-.06-.22-.18V23.35c0-.12.07-.18.22-.18Zm3.72,2.75c.1.19.19.39.28.58h2.09a5.37,5.37,0,0,0,.37-.57,4.54,4.54,0,0,0,.36-.82q0-.12.09-.12l.8.33c.13.06.21.12.21.19s0,.09-.11.11a.17.17,0,0,0-.18.12,6.09,6.09,0,0,1-.36.76h2.16q.12,0,.12.18v.47q0,.24-.12.24h-8.91c-.07,0-.1-.08-.1-.24v-.47c0-.12,0-.18.1-.18h2.49a.42.42,0,0,1-.07-.13,5.34,5.34,0,0,0-.6-.92c0-.06.25-.21.76-.46A7.86,7.86,0,0,1,391.39,25.92Zm4.72,2.46c.15,0,.23.06.23.18v4.05c0,.12-.08.16-.23.16h-2.82v1.07h3.93c.08,0,.12.06.12.16v.48c0,.15,0,.23-.12.23h-3.93v1.47c0,.12-.07.18-.22.18h-.59q-.24,0-.24-.18V34.71h-4.05c-.07,0-.1-.08-.1-.23V34c0-.1,0-.16.1-.16h4.05V32.77h-2.7c-.15,0-.22,0-.22-.16V28.56c0-.12.07-.18.22-.18Zm-2.52-5.57c0,.15-.06.23-.15.23s-.15.12-.15.31v.59h3.47c.06,0,.1.06.1.16v.48c0,.15,0,.23-.1.23h-7.92c-.08,0-.11-.08-.11-.23V24.1c0-.1,0-.16.11-.16h3.4V22.81c0-.1.08-.16.24-.16C393.22,22.65,393.59,22.71,393.59,22.81Zm1.7,7.34V29.2h-4.92v.95Zm0,.81h-4.92v1h4.92Z"/><path class="cls-5" d="M403.57,24.16c-.12,0-.18-.07-.18-.22v-.59a.16.16,0,0,1,.18-.18H407a.49.49,0,0,1,.34.15,8.07,8.07,0,0,0,2,2.81,7.64,7.64,0,0,0,4.05,1.77c.21,0,.31.1.31.19a.24.24,0,0,1-.09.17c-.21.18-.37.34-.52.49a.32.32,0,0,1-.26.17,13.25,13.25,0,0,1-1.47-.5v.44c0,.15-.06.22-.18.22h-3.91v2.36h3.81a.15.15,0,0,1,.16.16v.59c0,.16-.06.24-.16.24h-3.81V35h5.5a.16.16,0,0,1,.18.18v.58c0,.15-.06.23-.18.23H400.51c-.12,0-.17-.08-.17-.23v-.58c0-.12.05-.18.17-.18h5.62V32.43h-3.91q-.18,0-.18-.24V31.6c0-.1.06-.16.18-.16h3.91V29.08H402c-.12,0-.18-.07-.18-.22v-.33a5.61,5.61,0,0,1-1.35.61c-.06,0-.14-.06-.2-.19l-.49-.56c-.09-.07-.12-.13-.12-.18a17.08,17.08,0,0,0,2.49-1.06,12.13,12.13,0,0,0,2.05-1.5,15.12,15.12,0,0,0,1.25-1.49Zm7,3.93a7.62,7.62,0,0,1-2-1.24,9.75,9.75,0,0,1-1.91-2.6,7.74,7.74,0,0,1-1.06,1.35,11,11,0,0,1-2.93,2.49Z"/><path class="cls-5" d="M419.63,24.42v2.2h2c.12,0,.18.09.18.24v.47q0,.24-.18.24h-1.8a10.32,10.32,0,0,0,.59,1.29,6.64,6.64,0,0,0,1.23,1.62.15.15,0,0,1,.1.13s0,.08-.1.12a2.64,2.64,0,0,1-.44.45c-.06.09-.12.14-.16.14a.26.26,0,0,1-.18-.11,7.08,7.08,0,0,1-1.05-1.54,2.56,2.56,0,0,1-.23-.47v7c0,.12-.09.18-.24.18h-.58a.16.16,0,0,1-.18-.18V29.64c-.06.15-.11.27-.15.39-.27.61-.54,1.18-.83,1.71a11,11,0,0,1-1,1.45.3.3,0,0,1-.24-.1l-.52-.51a.43.43,0,0,1-.05-.15,9.8,9.8,0,0,0,.77-1,12.78,12.78,0,0,0,.91-1.71q.27-.66.81-2.19h-2.08q-.18,0-.18-.24v-.47c0-.15.06-.24.18-.24h2.4v-2a9.89,9.89,0,0,1-1.88.17.23.23,0,0,1-.25-.2c-.12-.22-.23-.42-.33-.57s.06-.22.18-.22a11.76,11.76,0,0,0,2.47-.18,4.39,4.39,0,0,0,2.07-.87.43.43,0,0,1,.2-.06.43.43,0,0,1,.21.1,7.46,7.46,0,0,1,.61.77q0,.18-.12.18l-.4-.06A6.34,6.34,0,0,1,419.63,24.42Zm8.87,4.83q-.71.2-1.65.36l-.6.09v2.08h2.82c.1,0,.16.09.16.24v.47c0,.16-.06.24-.16.24h-2.82v2h3.4c.11,0,.17.09.17.24v.46c0,.15-.06.24-.17.24h-8c-.12,0-.16-.09-.16-.24V35c0-.15,0-.24.16-.24h3.53v-2h-2.94c-.12,0-.17-.08-.17-.24V32c0-.15.05-.24.17-.24h2.94v-2a2.69,2.69,0,0,1-.47.05c-.78.06-1.48.09-2.11.09-.17,0-.26-.06-.29-.2s-.27-.36-.42-.57a.16.16,0,0,1,.18-.18l.81.06A18.73,18.73,0,0,0,425,29a10,10,0,0,0,1.59-.23,6.21,6.21,0,0,0,1.56-.51l.13,0a.5.5,0,0,1,.24.06q.81.72.81.87a.16.16,0,0,1-.18.18l-.4-.12A1,1,0,0,0,428.5,29.25Zm.15-6.08c.15,0,.24.06.24.18v3.86c0,.12-.09.18-.24.18H423c-.15,0-.22-.06-.22-.18V23.35c0-.12.07-.18.22-.18Zm-.81.83h-4v2.56h4Z"/><path class="cls-5" d="M436.28,22.87c0,.14-.06.21-.15.23s-.15.12-.15.3v1.83h1.94c.12,0,.18.07.18.22v.47q0,.24-.18.24h-3.05c0,.79,0,1.48,0,2.05h2.56c.12,0,.18.08.18.23,0,2.11-.07,3.63-.16,4.54a12.45,12.45,0,0,1-.44,2.45,1.28,1.28,0,0,1-1.39.87c-.63,0-1-.11-1-.3a2,2,0,0,0-.37-.81v-.12a9.51,9.51,0,0,0,1.35.12q.46,0,.63-.6a11,11,0,0,0,.27-1.89c.06-.72.1-1.91.13-3.56h-1.83c0,.45-.06.83-.09,1.13a23.66,23.66,0,0,1-.46,3,7.1,7.1,0,0,1-.65,1.67,5.26,5.26,0,0,1-.87,1.26c-.27-.29-.51-.54-.7-.77a4.1,4.1,0,0,0,.6-.9,9.14,9.14,0,0,0,.63-1.65,21.32,21.32,0,0,0,.42-2.85c.09-.88.13-2.19.16-3.91h-1.47q-.18,0-.18-.24v-.47c0-.15.06-.22.18-.22h2.58V22.87c0-.1.08-.16.24-.16C435.91,22.71,436.28,22.77,436.28,22.87Zm8.27,4.32a5.21,5.21,0,0,1-1.67.78l0,0a12.57,12.57,0,0,0,.25,2.31.28.28,0,0,0,.05.16s.09,0,.12-.07a5.84,5.84,0,0,0,.93-.66,7,7,0,0,0,.66-.78c0-.06.07-.09.1-.09l.92.64a.38.38,0,0,1,.19.29c0,.09-.07.12-.22.12a.45.45,0,0,0-.33.1,10.39,10.39,0,0,1-2.12,1.46,6.18,6.18,0,0,0,.23.73,6.94,6.94,0,0,0,.88,1.64,10.29,10.29,0,0,0,1.56,1.69c0,.06,0,.11-.13.17l-.6.43a.46.46,0,0,1-.26.11A10.83,10.83,0,0,1,444,35a7.81,7.81,0,0,1-1.06-1.74,11.32,11.32,0,0,1-.71-2.25,17.81,17.81,0,0,1-.33-2.81,6.5,6.5,0,0,1-1.06.09v6.32c.54-.17,1.15-.38,1.81-.63.08,0,.12.06.12.16s-.1.42-.13.6-.06.27-.17.29a29.69,29.69,0,0,1-3.52.94c-.17,0-.26.08-.29.18s-.09.17-.12.17a.18.18,0,0,1-.19-.14l-.33-.87a.17.17,0,0,1,.13-.18c.69-.09,1.2-.15,1.53-.22l.09,0V27.15c0-.11.06-.17.18-.17l.83.32a7.35,7.35,0,0,0,1.62-.21,4.43,4.43,0,0,0,1.78-.84.22.22,0,0,1,.35,0c.49.4.75.67.75.79s-.06.29-.17.29l-.36-.18A.27.27,0,0,0,444.55,27.19ZM441,23.14c.1.09.16.15.16.21a.16.16,0,0,1-.12.17.18.18,0,0,0-.18.16c-.1.39-.19.74-.28,1h4.74c.12,0,.18.09.18.24v.46c0,.17-.06.24-.18.24h-5.09c-.18.42-.37.83-.55,1.19a6.68,6.68,0,0,1-.69,1,1,1,0,0,1-.32,0c-.19-.08-.39-.15-.58-.21s-.09-.06-.09-.09a.14.14,0,0,1,0-.11,7.25,7.25,0,0,0,1-1.62,8.91,8.91,0,0,0,.47-1.17,16.32,16.32,0,0,0,.4-1.68c0-.07.05-.12.09-.12Z"/><path class="cls-5" d="M451.24,30c.15,0,.22.06.22.18v3.63a1.09,1.09,0,0,0,.15.61.56.56,0,0,0,.35.32,1.65,1.65,0,0,0,.7.22,7.47,7.47,0,0,0,1.2.08h3.3a29.29,29.29,0,0,0,4.56-.42.64.64,0,0,1,.24-.05c.06,0,.11,0,.11.06a8.58,8.58,0,0,0-.27,1.22.25.25,0,0,1-.26.24h-7.68c-.33,0-.66,0-1-.06l-.91-.18a4.15,4.15,0,0,1-.74-.33,2.5,2.5,0,0,1-.51-.62l0,0c-.07,0-.12,0-.12,0A5.57,5.57,0,0,0,449,36.27a.15.15,0,0,1-.12.09c-.08,0-.27-.26-.59-.77a.7.7,0,0,1-.06-.3,12.32,12.32,0,0,0,2.15-1.23.41.41,0,0,0,.07-.28V30.9H448.6c-.12,0-.18-.08-.18-.23v-.46c0-.15.06-.24.18-.24Zm-.65-3.06c.44.33.81.63,1.11.88a.35.35,0,0,1-.07.14l-.45.63a18.22,18.22,0,0,0-1.5-1.16,9.38,9.38,0,0,0-1.08-.6,3.25,3.25,0,0,1,.46-.66c.05-.06.09-.1.12-.1A11.92,11.92,0,0,1,450.59,26.91Zm.29-3.44,1.06.69a.35.35,0,0,1-.07.14,5.93,5.93,0,0,1-.47.63A13,13,0,0,0,450,24a8.66,8.66,0,0,0-1-.46,2.83,2.83,0,0,1,.47-.66c0-.06.09-.11.12-.11C450.07,23.05,450.52,23.28,450.88,23.47Zm7.3-.42c.09.06.14.12.14.18s-.11.17-.29.17h-.16a6.76,6.76,0,0,0,.79.93,6.3,6.3,0,0,0,1.25,1,7.32,7.32,0,0,0,2.07.93c.09,0,.15.06.15.09a.25.25,0,0,1-.08.18c-.22.18-.42.34-.6.52s-.1.11-.13.11a5.77,5.77,0,0,1-1.53-.69,6.81,6.81,0,0,1-1.55-1.19A11.1,11.1,0,0,1,457.13,24a11.87,11.87,0,0,1-.87.87,10.21,10.21,0,0,1-1.12.91,13.92,13.92,0,0,1-1.31.86,10.67,10.67,0,0,1-1.08.54.26.26,0,0,1-.22-.14,2.43,2.43,0,0,0-.44-.52q-.15-.09-.15-.15s0,0,.08-.08a10.29,10.29,0,0,0,1.53-.66,10.68,10.68,0,0,0,1.69-1.14,7.87,7.87,0,0,0,.92-.88,6.66,6.66,0,0,0,.73-1c.08-.08.14-.12.2-.12Zm-2.83,8.13a.37.37,0,0,1,.1.2s0,.06-.09.06a.81.81,0,0,0-.22.09,6.27,6.27,0,0,1-.75,1,8.7,8.7,0,0,1-1.22,1c-.12,0-.21,0-.24-.11a5.73,5.73,0,0,1-.48-.42c-.07,0-.1-.06-.1-.12a.13.13,0,0,1,0-.07,1.94,1.94,0,0,0,.57-.33,4.43,4.43,0,0,0,.86-.81,8.43,8.43,0,0,0,.67-.93c0-.05.05-.08.08-.08Zm4.26-4.72c.12,0,.18.07.18.22v.47q0,.24-.18.24h-2v1.69h3.65c.1,0,.16.09.16.24v.47c0,.16-.06.24-.16.24h-3.65v3.34c0,.75-.61,1.11-1.81,1.11h-.53c-.07,0-.1-.09-.1-.28a3.19,3.19,0,0,0-.24-.78v-.05a2.82,2.82,0,0,0,.81.11c.54,0,.82-.17.82-.53V30h-3.51q-.18,0-.18-.24v-.47c0-.15.06-.24.18-.24h3.51V27.39h-2.05c-.12,0-.17-.08-.17-.24v-.47c0-.15.05-.22.17-.22Zm.93,5.31c.39.39.72.75,1,1.06a.35.35,0,0,1-.07.14l-.45.63a13.75,13.75,0,0,0-1.37-1.38,7.83,7.83,0,0,0-1-.72,2.73,2.73,0,0,1,.46-.66c0-.06.08-.11.12-.11A13.47,13.47,0,0,1,460.54,31.77Z"/><path class="cls-5" d="M474,27.78,472.81,29a4,4,0,0,0-1,2.77h-1.09a5.09,5.09,0,0,1,1.44-3.58l.87-.89a1.7,1.7,0,0,0,.45-1.11,1.17,1.17,0,0,0-.47-.93,1.94,1.94,0,0,0-1.21-.37c-1.1,0-1.67.51-1.7,1.51H469a2.6,2.6,0,0,1,.67-1.74,2.79,2.79,0,0,1,2.12-.78,3.21,3.21,0,0,1,1.86.54,2.08,2.08,0,0,1,.91,1.77A2.49,2.49,0,0,1,474,27.78ZM470.47,35V33.49H472V35Z"/><path class="cls-5" d="M138.33,34.65a13.19,13.19,0,0,0,2.8,1.53l-.64,1.52a12.71,12.71,0,0,1-3.54-2,8.07,8.07,0,0,1-4,1,7.83,7.83,0,0,1-4.06-1.08,7.26,7.26,0,0,1-2.8-3,10.41,10.41,0,0,1,0-8.84,6.94,6.94,0,0,1,2.81-3.05,8.15,8.15,0,0,1,4.08-1,7.93,7.93,0,0,1,4.11,1.08,7.14,7.14,0,0,1,2.79,3,9.77,9.77,0,0,1,1,4.39,10.25,10.25,0,0,1-.61,3.66A7.66,7.66,0,0,1,138.33,34.65Zm-4.79-2.78a8.07,8.07,0,0,1,3.11,1.57,6.78,6.78,0,0,0,1.92-5.27,8.42,8.42,0,0,0-.68-3.49,5.2,5.2,0,0,0-2-2.32,5.68,5.68,0,0,0-7,.84,7,7,0,0,0-1.61,5,7,7,0,0,0,1.59,4.93A5.28,5.28,0,0,0,133,34.83a5.49,5.49,0,0,0,2.21-.44,7.24,7.24,0,0,0-2.16-.94Z"/></g></g></svg>