<svg xmlns="http://www.w3.org/2000/svg" viewBox="0 0 263.28 136.86"><defs><style>.cls-1{opacity:0.97;}.cls-2{fill:#ffe8ca;}.cls-3{fill:#231815;}.cls-4{fill:#009e96;}.cls-5{fill:#fff;}</style></defs><title>資產 6</title><g id="圖層_2" data-name="圖層 2"><g id="Cut2_透過旅遊小夥伴的旅遊案例說明"><g class="cls-1"><circle class="cls-2" cx="144.48" cy="29.32" r="29.32"/></g><path class="cls-3" d="M114.37,32.94c0,.62-.29.91-.84.91h-9.9a27.16,27.16,0,0,0,4.47,2,55.39,55.39,0,0,0,6.16,1.93.91.91,0,0,1,.6.91,1.14,1.14,0,0,1-.23.65.8.8,0,0,1-.68.36,4.08,4.08,0,0,1-1.09-.18c-1.67-.57-3.28-1.17-4.79-1.79a39.78,39.78,0,0,1-4.57-2.29v3.95c0,.6-.34.91-1,.91a.82.82,0,0,1-.93-.91V35.38a30.19,30.19,0,0,1-3.23,1.77A52.7,52.7,0,0,1,92,39.54c-.39.06-.62.11-.7.11-.62,0-.91-.34-.91-1a.86.86,0,0,1,.6-.91,49.2,49.2,0,0,0,6.76-2.26,17.52,17.52,0,0,0,3.12-1.61H91.69c-.54,0-.8-.29-.8-.91a.72.72,0,0,1,.8-.81h9.86V30.91a.82.82,0,0,1,.93-.91c.68,0,1,.31,1,.91v1.22h10A.74.74,0,0,1,114.37,32.94ZM103.29,17.21v.7h9.54c.81,0,1.22.55,1.22,1.64,0,.44,0,.94-.1,1.51-.11.41-.44.62-1,.62s-.71-.21-.71-.62v-.91c0-.47-.2-.7-.62-.7H93.33c-.42,0-.6.28-.6.8v.52c0,.63-.31.91-.93.91s-.91-.28-.91-.91V19.55a1.45,1.45,0,0,1,1.63-1.64h8.74v-.7a1,1,0,0,1,2,0Zm-.73,3.64a1.25,1.25,0,0,1-.21.57,6,6,0,0,1-.67,1H113a.73.73,0,0,1,.8.81c0,.57-.28.83-.8.83h-4.5a3.57,3.57,0,0,1-.36.65,11.13,11.13,0,0,1-2.47,2.47,4.34,4.34,0,0,1-.37.24c2.19.46,4.74,1,7.7,1.61a.91.91,0,0,1,.7.8c0,.65-.34,1-.91,1a2,2,0,0,1-.6-.11c-3-.78-6-1.53-8.81-2.21a17.76,17.76,0,0,1-2.58,1,27.77,27.77,0,0,1-4.78,1,33.54,33.54,0,0,1-4.06.31c-.67,0-1-.31-1-.91a.72.72,0,0,1,.7-.81,44.58,44.58,0,0,0,7.52-.88q.69-.16,1.35-.39l-3.28-.7c-1-.21-1.51-.6-1.51-1.17a1.27,1.27,0,0,1,.65-1A12.32,12.32,0,0,0,97.67,24H91.9c-.55,0-.81-.26-.81-.83a.72.72,0,0,1,.81-.81h7.57a11,11,0,0,0,1.27-1.82.92.92,0,0,1,.81-.52C102.17,20.1,102.51,20.36,102.56,20.85ZM100.14,24c-.57.47-1.22,1-2,1.46-.13.1-.18.18-.18.26s.1.18.34.23l4.55.91a7.29,7.29,0,0,0,1-.54A10.51,10.51,0,0,0,106.46,24Z"/><path class="cls-3" d="M124.43,16.69a.86.86,0,0,1,.33.62,2.56,2.56,0,0,1-.1.5,38,38,0,0,1-1.4,5.25V39.44a.93.93,0,0,1-1.85,0V27.19c-.26.5-.55,1-.81,1.38s-.46.42-.59.42c-.68,0-1-.26-1-.81a1.13,1.13,0,0,1,.18-.62,26.8,26.8,0,0,0,2.24-4.45,36,36,0,0,0,1.74-6c.08-.42.29-.63.6-.63A1.24,1.24,0,0,1,124.43,16.69Zm10.19,1.74c0,.63-.29.91-.81.91h-4.57a4,4,0,0,0-.06.52,20.86,20.86,0,0,1-.28,2.21h3.69c.94,0,1.43.6,1.43,1.74a21.17,21.17,0,0,1-.6,5.13,19.73,19.73,0,0,1-2.13,5.51,19,19,0,0,1-5.2,5.41,1.84,1.84,0,0,1-.7.2.89.89,0,0,1-1-1,.83.83,0,0,1,.29-.62,18.46,18.46,0,0,0,4.63-4.35,13.89,13.89,0,0,0,1-1.61s0,0,0,0c-.78-.91-1.59-1.8-2.42-2.66a1,1,0,0,1-.21-.49c0-.55.29-.83.92-.83a.7.7,0,0,1,.49.31,15.29,15.29,0,0,1,2,1.95,21.48,21.48,0,0,0,.65-2.21,20.27,20.27,0,0,0,.49-4c0-.39-.13-.6-.38-.6h-3a.4.4,0,0,1-.2,0,4.33,4.33,0,0,0-.11.47,20.14,20.14,0,0,1-1.19,3.38,16.91,16.91,0,0,1-2,3.07.84.84,0,0,1-.62.21.69.69,0,0,1-.57-.29.83.83,0,0,1-.24-.62.76.76,0,0,1,.32-.63,20.15,20.15,0,0,0,1.69-2.75,19.35,19.35,0,0,0,1-3.12,26.85,26.85,0,0,0,.67-4.27h-1.48c-.55,0-.81-.28-.81-.91a.72.72,0,0,1,.81-.83h7.72A.73.73,0,0,1,134.62,18.43Zm7-.83V37.72c0,1.56-.89,2.34-2.65,2.34a12.09,12.09,0,0,1-3.46-.72.91.91,0,0,1-.7-.91c0-.58.23-.86.7-.91a3.16,3.16,0,0,1,.57.07,13.61,13.61,0,0,0,2.89.63c.52,0,.8-.34.8-1V17.6a.82.82,0,0,1,.94-.91A.81.81,0,0,1,141.64,17.6Zm-4,1.95V33.46a.91.91,0,1,1-1.82,0V19.55a.91.91,0,1,1,1.82,0Z"/><path class="cls-3" d="M157.6,36.55a6.75,6.75,0,0,1-4,1.2,6.14,6.14,0,0,1-3.61-1,3.61,3.61,0,0,1-1.77-3.2c0-.73.31-1.12,1-1.12.28,0,.52.34.67,1,.42,1.77,1.67,2.63,3.75,2.63a4.93,4.93,0,0,0,2.73-.76A2.63,2.63,0,0,0,157.71,33a3.27,3.27,0,0,0-1.25-2.66,6.7,6.7,0,0,0-3.9-.83c-.81,0-1.2-.28-1.2-.86s.39-.8,1.2-.85a9.76,9.76,0,0,0,3.2-.52,2.38,2.38,0,0,0,1.71-2.34,2.15,2.15,0,0,0-1.3-1.95,5.47,5.47,0,0,0-2.52-.55,3.51,3.51,0,0,0-2.18.7,2.66,2.66,0,0,0-1,1.59c-.16.57-.39.83-.71.83-.64,0-1-.31-1-1a3.35,3.35,0,0,1,1.67-2.88,5.62,5.62,0,0,1,3.22-1,7.26,7.26,0,0,1,3.8,1A3.73,3.73,0,0,1,159.32,25c0,1.67-1.07,2.89-3.15,3.62A4.31,4.31,0,0,1,159.55,33,4.12,4.12,0,0,1,157.6,36.55Z"/><rect class="cls-4" y="71.8" width="263.28" height="65.06" rx="12"/><path class="cls-5" d="M54.64,85.49c.19,0,.3.06.3.18v6.74c0,.12-.11.18-.3.18h-.59c-.15,0-.22-.06-.22-.18v-1H44.92v5c0,.48.27.7.82.7H53.3c.65,0,1-.12,1.17-.39a8.69,8.69,0,0,0,.59-2.37,1.77,1.77,0,0,0,.66.6c.13.06.21.14.21.23a7.5,7.5,0,0,1-.74,2.47,1.12,1.12,0,0,1-1.08.51H45.62c-1.21,0-1.81-.37-1.81-1.11V89c0-.12,0-.18.06-.18L45,88.9c.13,0,.21.06.21.12a.17.17,0,0,1-.11.18.14.14,0,0,0-.13.16v1.07h8.91V86.5h-9.9q-.18,0-.18-.24v-.59a.16.16,0,0,1,.18-.18Z"/><path class="cls-5" d="M61.16,87.73V85.91a3.45,3.45,0,0,0-.06-.66A.74.74,0,0,1,61,85c0-.08.09-.12.29-.12l1.18.16c.11.06.17.11.17.14s-.06.13-.17.13-.3.32-.3.69v1.76H63.8c.11,0,.17.09.17.24v.46c0,.15-.06.23-.17.23H62.21V92c.54-.27,1.07-.57,1.56-.87a.1.1,0,0,1,.08-.05.11.11,0,0,1,.12.11,2.89,2.89,0,0,1-.06.82c-.57.35-1.14.68-1.7,1v4.4c0,.71-.52,1.07-1.57,1.07h-1c-.09,0-.12-.09-.12-.25a2.6,2.6,0,0,0-.28-.7c0-.08,0-.12.12-.12a6.28,6.28,0,0,0,1.17.12c.42,0,.64-.17.64-.52V93.55c-.54.28-1.06.55-1.59.79-.15.29-.25.42-.34.42s-.29-.4-.59-1.23a18.34,18.34,0,0,0,2.43-1,.19.19,0,0,0,.09,0V88.66h-2c-.12,0-.18-.08-.18-.23V88c0-.15.06-.24.18-.24Zm9.6,3.93a.34.34,0,0,1,.24.09,1.57,1.57,0,0,1,.3.49,13.27,13.27,0,0,1-.88,2,7.64,7.64,0,0,1-1,1.47c-.12.12-.23.24-.35.35a6.81,6.81,0,0,0,1.4.76,11.32,11.32,0,0,0,2.16.68c.09,0,.15.06.15.09a.24.24,0,0,1-.08.16,5.1,5.1,0,0,0-.52.52c-.08.09-.14.14-.17.14s-.12,0-.27-.1c-.42-.12-.88-.29-1.38-.47A12.84,12.84,0,0,1,68.68,97l-.41-.29a.83.83,0,0,1-.19.15,10.87,10.87,0,0,1-2,1,10,10,0,0,1-1.86.55.32.32,0,0,1-.29-.14c-.12-.16-.24-.33-.34-.49s-.08-.1-.08-.13,0-.09.11-.09c.48-.11.94-.23,1.39-.37a7.47,7.47,0,0,0,2.16-1,2.51,2.51,0,0,0,.29-.2.73.73,0,0,1-.2-.19,4.07,4.07,0,0,1-1-1.38,7.09,7.09,0,0,1-.75-1.84h-.69q-.18,0-.18-.24v-.47c0-.15.06-.22.18-.22ZM70,85.33c.15,0,.23.07.23.22v3.69c0,.14,0,.23.12.27a.72.72,0,0,0,.4.09H71c.14,0,.23-.07.27-.24a7.44,7.44,0,0,0,.17-1.14.08.08,0,0,1,.09-.09l.19.06a3.54,3.54,0,0,0,.48.18.23.23,0,0,1,.21.23A13.17,13.17,0,0,1,72,90.26a.58.58,0,0,1-.63.39H70.18a1.56,1.56,0,0,1-.87-.19.54.54,0,0,1-.18-.47V86.26H66.85V87a6,6,0,0,1-.26,1.8A2.74,2.74,0,0,1,65.72,90a5.07,5.07,0,0,1-1.11.73.33.33,0,0,1-.27-.1L64,90.16a.28.28,0,0,1-.1-.21,3.46,3.46,0,0,0,1.71-1.55,4.37,4.37,0,0,0,.22-1.47V85.55c0-.15.08-.22.24-.22Zm-3,8.23A5.56,5.56,0,0,0,67.85,95a3.54,3.54,0,0,0,.41.44,4.16,4.16,0,0,0,.42-.42A8.69,8.69,0,0,0,70,92.59H66.61A4.93,4.93,0,0,0,67,93.56Z"/><path class="cls-5" d="M79.75,85.67c0,.09,0,.14-.12.14a.4.4,0,0,0-.35.16,16.88,16.88,0,0,1-1.35,2.7v9.72c0,.12-.09.18-.24.18h-.58c-.17,0-.24-.06-.24-.18V90.1q-.53.63-1.29,1.44a.41.41,0,0,1-.3-.14c-.15-.12-.32-.25-.47-.39a.19.19,0,0,1-.1-.18c.43-.45.87-.94,1.32-1.45a11.53,11.53,0,0,0,1.5-2.22A13.46,13.46,0,0,0,78.4,85a.12.12,0,0,1,.12-.12A4.65,4.65,0,0,1,79.75,85.67Zm7.78-.12c.15,0,.24.06.24.18v5c0,.12-.09.18-.24.18H87c-.15,0-.23-.06-.23-.18v-.64H84.49V92.3h4c.12,0,.18.08.18.23V93c0,.17-.06.24-.18.24H84.7a11.26,11.26,0,0,0,1.18,1.46A7.35,7.35,0,0,0,87.46,96a5.57,5.57,0,0,0,1.54.74c0,.09-.06.14-.15.17a4.4,4.4,0,0,0-.52.59c-.06.08-.12.13-.15.13a10,10,0,0,1-1.91-1.23,8.07,8.07,0,0,1-1.42-1.52l-.36-.46v4c0,.12-.08.18-.23.18h-.58c-.17,0-.24-.06-.24-.18V94.66L83,95.2a11.76,11.76,0,0,1-1.35,1.38A13.84,13.84,0,0,1,80,97.75a.33.33,0,0,1-.25-.11c-.2-.18-.39-.36-.57-.51A.43.43,0,0,1,79.1,97a7.69,7.69,0,0,0,1.31-.77A8.11,8.11,0,0,0,82,94.87a17.15,17.15,0,0,0,1.28-1.64H79.69c-.12,0-.18-.07-.18-.24v-.46c0-.15.06-.23.18-.23h3.75V90.13H81.26v.7c0,.12-.07.18-.22.18h-.59q-.24,0-.24-.18v-5a.22.22,0,0,1,.24-.24Zm-.81,3.65V86.5H81.26v2.7Z"/><path class="cls-5" d="M93.65,95.42c.15.06.23.14.23.21s-.06.14-.15.17a.22.22,0,0,0-.24.16,9.73,9.73,0,0,1-1.07,2c-.09.09-.15.15-.18.15A.48.48,0,0,1,92,98l-.57-.25-.12-.06a.15.15,0,0,1,.06-.12,6.68,6.68,0,0,0,.73-1.1,5.56,5.56,0,0,0,.54-1.24c0-.12.08-.18.14-.18Zm5-10.51c0,.15-.05.22-.14.22s-.15.12-.15.32v.46h5q.12,0,.12.18v.47c0,.12,0,.16-.12.16h-2l.11,0c.12.06.19.12.19.19s0,.09-.1.11a.18.18,0,0,0-.2.13,6.24,6.24,0,0,1-.73,1.35h3.61c.08,0,.12.06.12.17v.48c0,.15,0,.22-.12.22H91.54c-.09,0-.12-.07-.12-.22v-.48c0-.11,0-.17.12-.17h3.93c-.41-.6-.78-1.11-1.13-1.53,0-.07.11-.18.33-.3H92.41c-.08,0-.11,0-.11-.16v-.47c0-.12,0-.18.11-.18h4.92v-1c0-.11.07-.17.24-.17C98.3,84.74,98.68,84.8,98.68,84.91Zm3.87,5.4c.15,0,.24.06.24.16v3.81c0,.12-.09.18-.24.18h-9q-.24,0-.24-.18V90.47c0-.1.08-.16.24-.16Zm-.83,1.75v-1H94.34v1Zm0,.77H94.34v.87h7.38ZM96,95.09c.11,0,.17,0,.17.08s0,.16-.08.18-.09.07-.09.16v1.12c0,.44.24.65.75.65h2.88a2.62,2.62,0,0,0,1.29-.18,2.42,2.42,0,0,0,.65-1,1.6,1.6,0,0,0,.57.51q.18.07.18.18c-.36.74-.62,1.14-.8,1.22a2,2,0,0,1-1.18.25H96.64c-1.11,0-1.65-.33-1.65-1V95.11c0-.08,0-.12.06-.12Zm4.11-6.54-.37-.18c-.08,0-.11,0-.11-.06a.09.09,0,0,1,0-.07,5.76,5.76,0,0,0,.93-1.52H95.21a15,15,0,0,1,1.25,1.41c0,.15,0,.23-.11.24a1.54,1.54,0,0,1-.28.18Zm-1.21,7,.85.63s0,0-.07.12a5.11,5.11,0,0,1-.47.58,9.63,9.63,0,0,0-1.12-.81c-.33-.18-.59-.33-.8-.42a3.4,3.4,0,0,1,.41-.6c0-.06.07-.1.12-.1Q98.45,95.26,98.89,95.53Zm5,.46c.38.39.71.75,1,1.05,0,0,0,.06-.08.12a6.44,6.44,0,0,1-.45.65A11.34,11.34,0,0,0,103,96.46a8.45,8.45,0,0,0-1-.71,3.09,3.09,0,0,1,.47-.66c0-.06.07-.1.12-.1A12.68,12.68,0,0,1,103.91,96Z"/><path class="cls-5" d="M112,85.18c.12.09.18.15.18.21a.21.21,0,0,1-.18.22.3.3,0,0,0-.33.27l-.45,1.32h3.12a.44.44,0,0,1,.27.09,1.49,1.49,0,0,1,.31.5,30.19,30.19,0,0,1-.84,3.33,15.6,15.6,0,0,1-1,2.47,9.3,9.3,0,0,1-1.26,1.87,7.94,7.94,0,0,1-1.84,1.7,7.1,7.1,0,0,1-1.77.93.36.36,0,0,1-.32-.13l-.36-.53a.27.27,0,0,1-.09-.15c0-.09,0-.15.09-.16a11.26,11.26,0,0,0,1.34-.6,6.67,6.67,0,0,0,2-1.65,8.18,8.18,0,0,0,.76-1,12.45,12.45,0,0,0-2-1.47c-.06,0-.07,0-.07-.08a2.89,2.89,0,0,1,.51-.7.24.24,0,0,1,.18-.12,19.28,19.28,0,0,1,1.9,1.44l0-.09a14.54,14.54,0,0,0,.87-2.4,20.59,20.59,0,0,0,.54-2.3h-2.84a7.15,7.15,0,0,1-.28.68c-.36.72-.74,1.41-1.13,2a11.68,11.68,0,0,1-1.27,1.55.88.88,0,0,1-.35-.06c-.21-.09-.4-.17-.61-.24a.15.15,0,0,1-.09-.11.21.21,0,0,1,.07-.18,9.94,9.94,0,0,0,1.91-2.47,11.52,11.52,0,0,0,.87-1.8,19.59,19.59,0,0,0,.78-2.58c0-.11.1-.17.16-.17Zm6.21-.09c0,.13-.06.21-.15.22s-.15.12-.15.3v3.75a28.56,28.56,0,0,1,3,3.26.32.32,0,0,1,.13.27s0,.07-.09.1a2.47,2.47,0,0,1-.66.54.25.25,0,0,1-.21-.12,26.38,26.38,0,0,0-2.14-2.5v7.42c0,.12-.08.18-.23.18h-.58c-.17,0-.24-.06-.24-.18V85.09c0-.12.07-.18.24-.18C117.83,84.91,118.21,85,118.21,85.09Z"/><path class="cls-5" d="M127.12,85.15a.88.88,0,0,1,.36.07c.22.2.34.33.34.39l-1.3,3.78a.85.85,0,0,0,0,.21.33.33,0,0,0,.08.21,7.63,7.63,0,0,1,.79,1.67,7,7,0,0,1,.32,2,3.79,3.79,0,0,1-.21,1.29,1.51,1.51,0,0,1-.65.81,1.32,1.32,0,0,1-.91.24c-.24,0-.36-.07-.36-.24a2.07,2.07,0,0,0-.23-.76c0-.06.06-.11.18-.11l.65.06c.18,0,.31-.13.4-.4a2.61,2.61,0,0,0,.12-.89,6.48,6.48,0,0,0-.25-1.63,8.43,8.43,0,0,0-1-2,.24.24,0,0,1-.09-.17,1,1,0,0,1,0-.22L126.76,86h-2V98.27c0,.12-.08.18-.23.18h-.58a.16.16,0,0,1-.18-.18V85.33a.16.16,0,0,1,.18-.18Zm5.89.28c.09.08.15.14.15.18s-.1.18-.3.18a1.17,1.17,0,0,0-.22,0,9.35,9.35,0,0,0,.9,1.23A8.41,8.41,0,0,0,137,89.33c.09,0,.15.06.15.09a.19.19,0,0,1-.08.17l-.55.49c0,.08-.09.11-.12.11a6.44,6.44,0,0,1-1.58-.81l-.25-.18v.34c0,.17-.05.24-.11.24H130c-.09,0-.12-.07-.12-.24v-.46c0-.12,0-.18.12-.18h4.15a6.31,6.31,0,0,1-1-.9A11.77,11.77,0,0,1,132,86.51a9.86,9.86,0,0,1-.79,1,11.33,11.33,0,0,1-1,1.05,12.85,12.85,0,0,1-1.21,1,8.31,8.31,0,0,1-1,.62.26.26,0,0,1-.22-.14,2,2,0,0,0-.44-.52c-.12-.06-.16-.12-.16-.17s0,0,.07-.07a7,7,0,0,0,1.41-.75,9,9,0,0,0,1.56-1.31,6.33,6.33,0,0,0,.86-1,8.14,8.14,0,0,0,.66-1.14.25.25,0,0,1,.19-.13Zm-2.32,9.51c.07.06.12.12.12.17s-.08.18-.23.18a.24.24,0,0,0-.24.13c-.12.24-.24.44-.33.6a7.22,7.22,0,0,0,.6.83,5.34,5.34,0,0,0,.89.73.31.31,0,0,1,.07.17,2.55,2.55,0,0,1-.52.64.17.17,0,0,1-.11,0,10.58,10.58,0,0,1-1.41-1.55l-.36.49c-.22.26-.43.5-.64.72l-.53.45a.23.23,0,0,1-.21-.13,1.86,1.86,0,0,0-.42-.5c-.09-.06-.13-.11-.13-.13s0,0,0,0a5.17,5.17,0,0,0,.72-.57,5.43,5.43,0,0,0,.81-1,4.64,4.64,0,0,0,.44-.72,5.63,5.63,0,0,0,.34-.84.15.15,0,0,1,.11-.09Zm.76-4.17c.15,0,.24.06.24.18v3c0,.12-.09.18-.24.18h-2.74c-.17,0-.24-.06-.24-.18V91c0-.12.07-.18.24-.18Zm-.75.89h-1.23v1.63h1.23Zm4.55,3.28c.09.06.13.12.13.17s-.07.18-.22.18a.28.28,0,0,0-.26.13c-.12.26-.24.48-.34.66a5.07,5.07,0,0,0,.81.84,8.89,8.89,0,0,0,1.3.89.26.26,0,0,1-.09.21,6.35,6.35,0,0,0-.55.49.11.11,0,0,1-.09-.05,3.67,3.67,0,0,1-.87-.58,13.56,13.56,0,0,1-1-1.06,4,4,0,0,1-.36.51c-.21.25-.43.49-.64.72s-.39.36-.51.46a.29.29,0,0,1-.23-.13,2.25,2.25,0,0,0-.4-.5c-.09-.06-.14-.1-.14-.13s0,0,0-.06a6.44,6.44,0,0,0,.74-.56,6.08,6.08,0,0,0,1.24-1.72,7.62,7.62,0,0,0,.35-.84c0-.07.07-.11.1-.11Zm.49-4.17c.15,0,.23.06.23.18v3c0,.12-.08.18-.23.18H133q-.24,0-.24-.18V91q0-.18.24-.18Zm-.76.89h-1.23v1.63H135Z"/><path class="cls-5" d="M146.86,92.66a3.12,3.12,0,0,1-1,1l-.39-.43a2.33,2.33,0,0,0,1-1.71H145.4v-1.8h1.8v1.65A2.63,2.63,0,0,1,146.86,92.66Z"/><path class="cls-5" d="M168.34,85.33c.15,0,.24.06.24.16V98.27c0,.12-.09.18-.24.18h-.59q-.24,0-.24-.18v-.46h-10.3v.46c0,.12-.09.18-.24.18h-.59c-.15,0-.22-.06-.22-.18V85.49c0-.1.07-.16.22-.16Zm-.83,11.53V86.2h-10.3V96.86Zm-5-2.92a3.1,3.1,0,0,1,0,.76c-1.23.35-2.46.66-3.71.93-.15.29-.25.42-.34.42s-.26-.39-.53-1.18c.57-.09,1.28-.23,2.1-.44s1.61-.4,2.34-.64a.11.11,0,0,1,.08,0C162.43,93.76,162.47,93.82,162.47,93.94Zm.51-6c0-.32,0-.65,0-1,0-.12,0-.18.11-.18l.93.08c.16,0,.25,0,.25.1s0,.21-.12.24-.12.18-.12.41V88h1.94c-.24-.21-.5-.39-.74-.57a3.13,3.13,0,0,0-.55-.32,2.9,2.9,0,0,1,.4-.61q.07-.09.12-.09c.3.18.56.33.75.46l.6.48s0,.05-.07.11L166,88h1c.07,0,.12.06.12.16v.47c0,.16,0,.24-.12.24h-3c0,.57,0,1,.06,1.44a10.48,10.48,0,0,0,.33,2c.06.27.13.52.19.73a8.6,8.6,0,0,0,.56-1.18,9.06,9.06,0,0,0,.51-1.67.13.13,0,0,1,.15-.13c.78.27,1.17.45,1.17.52a.24.24,0,0,1-.18.24.28.28,0,0,0-.26.17,15.51,15.51,0,0,1-.81,2.11,9.41,9.41,0,0,1-.66,1.1,3.2,3.2,0,0,0,.47.72.76.76,0,0,0,.39.18c.06,0,.13-.09.24-.27a5.81,5.81,0,0,0,.34-.9s.11,0,.17.13a1.62,1.62,0,0,0,.42.49.37.37,0,0,1,.18.32,8.08,8.08,0,0,1-.57,1c-.27.35-.51.54-.72.54a.74.74,0,0,1-.35-.08,1.93,1.93,0,0,1-.64-.52,3.87,3.87,0,0,1-.6-.81A8.84,8.84,0,0,1,163,96.23a.41.41,0,0,1-.18,0,.28.28,0,0,1-.27-.17,3.57,3.57,0,0,0-.37-.4.19.19,0,0,1-.12-.2s0-.05.09-.07a3.2,3.2,0,0,0,.76-.48,5.36,5.36,0,0,0,1.07-1,7.64,7.64,0,0,1-.39-1.17,17.42,17.42,0,0,1-.41-2.28c-.06-.45-.09-1-.12-1.66h-4.93c-.08,0-.11-.08-.11-.24v-.47c0-.1,0-.16.11-.16Zm-1,1.81c.15,0,.24.06.24.17v3c0,.12-.09.16-.24.16H158.5c-.17,0-.24,0-.24-.16V90c0-.11.07-.17.24-.17Zm-.77.87h-2v1.59h2Z"/><path class="cls-5" d="M178.24,87.79a11.91,11.91,0,0,1-.15-1.76h-2.3c-.12,0-.18-.07-.18-.24v-.46c0-.15.06-.24.18-.24h3c.15,0,.24.06.24.18a14.86,14.86,0,0,0,.19,2.52H184c.18,0,.28.07.28.22v9.16a1,1,0,0,1-.64.89,6.29,6.29,0,0,1-1.58.33.17.17,0,0,1-.19-.18,2.81,2.81,0,0,0-.33-.93c0-.06,0-.07.13-.07a3.38,3.38,0,0,0,1.32-.14.47.47,0,0,0,.24-.44V94s0,0-.06,0c-.18.17-.36.33-.52.51a.49.49,0,0,1-.3.09,4.09,4.09,0,0,1-1.34-1,7,7,0,0,1-1.56-2,7.55,7.55,0,0,1-.72-1.64,7,7,0,0,1-.37.68,16.11,16.11,0,0,1-1.11,1.75,15,15,0,0,1-1.46,1.53,5.17,5.17,0,0,1-1.11.81c-.09,0-.15-.06-.21-.21s-.34-.39-.54-.6c0,0-.06,0-.07-.07v4.51c0,.12-.09.18-.24.18H173c-.15,0-.22-.06-.22-.18V88a.19.19,0,0,1,.22-.22Zm-2.63,4.68a11.28,11.28,0,0,0,1.5-1.74,22.2,22.2,0,0,0,1-2h-4.3v5A10.45,10.45,0,0,0,175.61,92.47ZM180.23,91a5.81,5.81,0,0,0,1.46,1.77,6.06,6.06,0,0,0,1.45,1,.47.47,0,0,0,.09.06v-5h-3.82A7.36,7.36,0,0,0,180.23,91Z"/><path class="cls-5" d="M192,85c0,.13-.06.21-.15.22s-.15.12-.15.3v1.83h1.93c.12,0,.18.08.18.23V88c0,.17-.06.24-.18.24h-3c0,.8,0,1.49,0,2.06h2.57c.12,0,.18.07.18.22,0,2.12-.08,3.63-.17,4.55a12.32,12.32,0,0,1-.43,2.44,1.29,1.29,0,0,1-1.4.87c-.63,0-1-.1-1-.3a2.23,2.23,0,0,0-.38-.81v-.12a8.24,8.24,0,0,0,1.35.12c.32,0,.53-.19.63-.6a9.27,9.27,0,0,0,.27-1.89c.06-.72.11-1.9.14-3.55h-1.83c0,.45-.06.82-.09,1.12a22,22,0,0,1-.47,3,7.48,7.48,0,0,1-.64,1.66,5.57,5.57,0,0,1-.87,1.26l-.71-.76a4.1,4.1,0,0,0,.6-.9,8.07,8.07,0,0,0,.63-1.65,19.82,19.82,0,0,0,.42-2.85c.09-.89.14-2.19.17-3.92h-1.47c-.12,0-.18-.07-.18-.24v-.46c0-.15.06-.23.18-.23h2.58V85c0-.11.07-.17.24-.17C191.6,84.8,192,84.86,192,85Zm8.26,4.32a5.37,5.37,0,0,1-1.66.78h-.05a11.64,11.64,0,0,0,.26,2.31.33.33,0,0,0,0,.17l.12-.08a5.26,5.26,0,0,0,.93-.66,6.06,6.06,0,0,0,.66-.78.15.15,0,0,1,.11-.09l.91.65c.12.09.2.18.2.28s-.08.12-.23.12a.46.46,0,0,0-.33.11,9.88,9.88,0,0,1-2.11,1.45,5.77,5.77,0,0,0,.22.74,7.12,7.12,0,0,0,.89,1.63,10.31,10.31,0,0,0,1.56,1.7c0,.06,0,.1-.14.16s-.39.27-.6.44a.39.39,0,0,1-.25.1,10,10,0,0,1-1.11-1.26,7.31,7.31,0,0,1-1.07-1.74,10.37,10.37,0,0,1-.7-2.25,16.56,16.56,0,0,1-.33-2.8,6.53,6.53,0,0,1-1.07.09v6.31c.54-.16,1.16-.37,1.82-.63.07,0,.12.06.12.16s-.11.42-.14.61-.06.27-.16.28a29.81,29.81,0,0,1-3.53,1c-.16,0-.25.07-.28.18s-.09.16-.12.16a.19.19,0,0,1-.2-.14l-.33-.87a.18.18,0,0,1,.14-.17c.69-.09,1.2-.15,1.53-.23l.09,0V89.24c0-.1.06-.16.18-.16l.82.31a7.35,7.35,0,0,0,1.62-.21,4.47,4.47,0,0,0,1.79-.84.26.26,0,0,1,.16-.09.26.26,0,0,1,.18.09c.5.41.75.68.75.8s-.06.28-.16.28l-.36-.18A.34.34,0,0,0,200.24,89.29Zm-3.51-4.05c.11.09.17.15.17.21a.16.16,0,0,1-.12.16.17.17,0,0,0-.18.17c-.11.39-.2.73-.29,1h4.74c.12,0,.18.09.18.24v.47q0,.24-.18.24H196c-.18.42-.38.82-.56,1.18a7.39,7.39,0,0,1-.69,1,1,1,0,0,1-.31,0c-.2-.07-.39-.15-.59-.21s-.09-.06-.09-.09a.14.14,0,0,1,.05-.1,9.08,9.08,0,0,0,1.45-2.79,16.64,16.64,0,0,0,.41-1.68q0-.12.09-.12Z"/><path class="cls-5" d="M206.63,91.72c.2,0,.3.06.3.16v3.81a3.39,3.39,0,0,0,0,.52,2.22,2.22,0,0,0,.77.75,3.94,3.94,0,0,0,1.8.32h4.06c.36,0,1,0,1.82-.13a15.14,15.14,0,0,0,1.83-.27l.18,0a.12.12,0,0,1,.12.12,7.39,7.39,0,0,0-.47.93c0,.2-.12.3-.3.3h-7.24a4.42,4.42,0,0,1-2.51-.64,3.36,3.36,0,0,1-.75-.9c-.43.39-.82.75-1.15,1.09a.55.55,0,0,0-.33.42q0,.21-.09.21s-.11,0-.18-.14l-.75-1.09a7.33,7.33,0,0,0,1.83-1.08c.13,0,.21-.18.21-.39v-3h-1.52q-.18,0-.18-.24v-.47c0-.15.06-.22.18-.22ZM206,88.85l.85.63s0,.06-.07.12l-.45.65a11.13,11.13,0,0,0-1.17-.81,6.46,6.46,0,0,0-.83-.42,2.62,2.62,0,0,1,.47-.66c0-.06.09-.11.12-.11C205.31,88.48,205.67,88.67,206,88.85Zm.34-3.19.75.54s0,.07-.07.13a5.93,5.93,0,0,1-.47.63,12.14,12.14,0,0,0-1-.69c-.3-.16-.54-.28-.73-.36a2.73,2.73,0,0,1,.46-.66c.05-.06.09-.1.12-.1Q205.93,85.44,206.3,85.66Zm4.2-.69c0,.12,0,.19-.12.19s-.12.11-.12.29V87h1.59c.12,0,.18.09.18.24v.47q0,.24-.18.24h-2v1.69h2a.16.16,0,0,1,.18.18c0,1.8-.07,3.11-.16,3.89a8,8,0,0,1-.41,2.1c-.16.51-.6.75-1.3.75-.53,0-.8-.09-.81-.29a3.06,3.06,0,0,0-.32-.78v-.1c.41,0,.78,0,1.13,0s.46-.16.55-.5a7.54,7.54,0,0,0,.23-1.56c.06-.6.1-1.58.13-2.93h-1.23a10.83,10.83,0,0,1-.3,2.22,6.09,6.09,0,0,1-.82,1.86,4.2,4.2,0,0,1-.92,1.08.22.22,0,0,1-.15,0,3.66,3.66,0,0,0-.54-.37.28.28,0,0,1-.06-.18,4.39,4.39,0,0,0,1-1.26A6.42,6.42,0,0,0,208.6,92a12.07,12.07,0,0,0,.21-2.36V88h-1.13c-.12,0-.16-.08-.16-.24v-.47c0-.15,0-.24.16-.24h1.65V85c0-.08.08-.12.23-.12C210.19,84.85,210.5,84.89,210.5,85Zm4.07.22c.09.09.15.15.15.2a.16.16,0,0,1-.12.16c-.08,0-.12,0-.14.14-.12.45-.21.82-.3,1.09h3c.07,0,.12.06.12.18v.47c0,.16-.05.24-.12.24h-3.3c-.09.21-.18.42-.27.6a9.5,9.5,0,0,1-.53.81.67.67,0,0,1-.3-.06q-.27-.12-.54-.21c-.07,0-.1-.06-.1-.09a.12.12,0,0,1,0-.09,6.32,6.32,0,0,0,.8-1.32c.12-.3.24-.63.36-1s.21-.82.31-1.39c0-.06,0-.09.08-.09Zm1.8,4a.54.54,0,0,1,.27.06c.21.15.31.27.31.34l-1.57,2h0v.92h1.7a.16.16,0,0,1,.18.18v.58c0,.17-.06.24-.18.24h-1.7v2c0,.72-.69,1.07-2.05,1.07H213c-.06,0-.09-.08-.1-.26a2,2,0,0,0-.24-.69c0-.07,0-.12,0-.12a1.7,1.7,0,0,0,.59.12c.66,0,1-.17,1-.52V93.47h-1.47c-.12,0-.16-.07-.16-.24v-.58c0-.12,0-.18.16-.18h1.47v-1.4q0-.18.24-.18l.09,0,.77-.91h-2.15c-.12,0-.18-.08-.18-.23V89.3c0-.1.06-.16.18-.16Z"/><path class="cls-5" d="M45.68,113.69c.15,0,.23.06.23.18v3.33a1.92,1.92,0,0,0,.19.92,1,1,0,0,0,.42.48,2.7,2.7,0,0,0,.92.31A11.37,11.37,0,0,0,49,119H52a26.7,26.7,0,0,0,4.26-.41.51.51,0,0,1,.21-.06c.08,0,.12,0,.12.06a8,8,0,0,0-.27,1.22c0,.16-.1.25-.25.25H49A7.06,7.06,0,0,1,47.8,120a8.84,8.84,0,0,1-1.1-.27,3.27,3.27,0,0,1-.9-.49,3.55,3.55,0,0,1-.6-.9l0-.06c-.09,0-.14,0-.14,0A6.27,6.27,0,0,0,43.24,120a.16.16,0,0,1-.14.1c-.07,0-.27-.25-.58-.76a.58.58,0,0,1-.06-.3,12.55,12.55,0,0,0,2.32-1.52s.08-.16.08-.36v-2.58H43c-.12,0-.18-.07-.18-.22v-.47c0-.15.06-.24.18-.24Zm-.88-2.85q.68.34,1.17.63s0,.06-.08.12a6.2,6.2,0,0,1-.51.69,16.63,16.63,0,0,0-1.57-.84,8.71,8.71,0,0,0-1.13-.45,3.09,3.09,0,0,1,.47-.66.19.19,0,0,1,.13-.1C43.88,110.45,44.39,110.66,44.8,110.84Zm.28-3.52,1.13.63s0,.07-.09.13c-.33.47-.5.69-.5.69-.48-.3-1-.58-1.5-.85a7.69,7.69,0,0,0-1.08-.44,3.09,3.09,0,0,1,.47-.66c0-.06.09-.1.12-.1C44.21,106.94,44.69,107.14,45.08,107.32Zm9.74,4.78c.15,0,.24.06.24.18v2.34c0,.12-.09.18-.24.18H52.13a2.3,2.3,0,0,0,.3.54,2.86,2.86,0,0,0,.57.75l.17.17a4.84,4.84,0,0,0,.72-.38,5.06,5.06,0,0,0,1-.79.39.39,0,0,1,.14,0,3.77,3.77,0,0,1,.81.77c0,.06-.06.09-.15.09s-.3,0-.32.07a8.28,8.28,0,0,1-1.41.89,1.43,1.43,0,0,0,.21.12,4.56,4.56,0,0,0,1.44.52s.06,0,.06.06a.19.19,0,0,1-.12.18,5.84,5.84,0,0,0-.4.5.17.17,0,0,1-.18.13,1.05,1.05,0,0,1-.39-.16,6.38,6.38,0,0,1-1.73-1.08,4.18,4.18,0,0,1-.84-1,5.46,5.46,0,0,1-.63-1.34h-.75a11.88,11.88,0,0,1-.82.86v1.69c.81-.12,1.56-.27,2.26-.42h.08a.11.11,0,0,1,.12.12,2.09,2.09,0,0,1-.06.69c-1.23.27-2.49.49-3.75.7-.12.24-.23.36-.29.36s-.27-.36-.52-1.11c.34,0,.73-.09,1.17-.16v-1.08a2.5,2.5,0,0,1-.36.24,10.25,10.25,0,0,1-1.41.7.32.32,0,0,1-.23-.09l-.49-.48a.26.26,0,0,1,0-.13,7.09,7.09,0,0,0,1.09-.45,6.83,6.83,0,0,0,1.31-.78,9.56,9.56,0,0,0,.75-.65h-1.8c-.17,0-.24-.06-.24-.18v-2.34c0-.12.07-.18.24-.18ZM56,110.47c.07,0,.12.06.12.18v.46c0,.12,0,.18-.12.18H46.55c-.09,0-.12-.06-.12-.18v-.46c0-.12,0-.18.12-.18Zm-1.17-3.75c.15,0,.24.06.24.18v2.64c0,.12-.09.16-.24.16H47.56c-.17,0-.24,0-.24-.16V106.9c0-.12.07-.18.24-.18Zm-5.22.82H48.37v1.35H49.6ZM54,112.93h-5.5v1H54Zm-2.22-5.39H50.6v1.35h1.17Zm2.22,0H52.76v1.35H54Z"/><path class="cls-5" d="M70.94,106.9c.12,0,.18.07.18.22v.48c0,.15-.06.23-.18.23h-4.8v.88h5.45c.15,0,.24.06.24.18v2.75c0,.12-.09.18-.24.18H71q-.24,0-.24-.18v-2H66.14v3.27c0,.12-.09.18-.24.18h-.58c-.17,0-.24-.06-.24-.18V109.6H60.34v2c0,.12-.09.18-.24.18h-.59c-.15,0-.22-.06-.22-.18v-2.75c0-.12.07-.18.22-.18h5.57v-.88H60.46c-.12,0-.18-.08-.18-.23v-.48c0-.15.06-.22.18-.22Zm.83,6.67c.1,0,.16.09.16.24v.47c0,.16-.06.24-.16.24H66.1c-.15.42-.32.84-.48,1.23H71c.15,0,.24.06.24.16v2.52a1.52,1.52,0,0,1-.22,1c0,.24-.6.46-1.71.7-.21,0-.3-.07-.3-.22a6.69,6.69,0,0,0-.23-.84c.9-.06,1.37-.27,1.4-.65v-1.81H67.84v3c0,.12-.09.18-.24.18H67c-.15,0-.22-.06-.22-.18v-3h-2.3v3c0,.12-.07.18-.22.18h-.59q-.24,0-.24-.18v-3H61.16v3.28c0,.12-.09.18-.24.18h-.58c-.17,0-.24-.06-.24-.18v-4c0-.1.07-.16.24-.16h4.18a6.43,6.43,0,0,0,.35-.69,3.59,3.59,0,0,0,.21-.54H59.51c-.12,0-.16-.08-.16-.24v-.47c0-.15,0-.24.16-.24ZM64,110.35c.07,0,.12.06.12.18V111c0,.12,0,.18-.12.18H61.51c-.09,0-.12-.06-.12-.18v-.46c0-.12,0-.18.12-.18Zm0,1.53c.07,0,.12.06.12.18v.46c0,.12,0,.18-.12.18H61.51c-.09,0-.12-.06-.12-.18v-.46c0-.12,0-.18.12-.18Zm5.68-1.59q.12,0,.12.18v.46q0,.18-.12.18H67.37c-.09,0-.12-.06-.12-.18v-.46c0-.12,0-.18.12-.18Zm0,1.59q.12,0,.12.18v.46q0,.18-.12.18H67.37c-.09,0-.12-.06-.12-.18v-.46c0-.12,0-.18.12-.18Z"/><path class="cls-5" d="M77.29,109.36v-1.82a3.45,3.45,0,0,0-.06-.66.59.59,0,0,1-.06-.28c0-.08.09-.12.28-.12l1.19.16c.1.06.16.11.16.14s-.06.13-.16.13-.3.32-.3.69v1.76h1.59c.1,0,.16.09.16.24v.46c0,.15-.06.23-.16.23H78.34v3.33c.54-.27,1.06-.57,1.56-.87a.08.08,0,0,1,.07,0,.11.11,0,0,1,.12.11,2.89,2.89,0,0,1-.06.82c-.57.35-1.14.68-1.69,1V119c0,.7-.53,1.06-1.58,1.06h-1c-.09,0-.12-.09-.12-.25a2.85,2.85,0,0,0-.29-.69c0-.09,0-.12.12-.12a7.26,7.26,0,0,0,1.17.12c.42,0,.65-.18.65-.53v-3.43c-.54.28-1.07.55-1.59.79-.15.29-.26.42-.35.42s-.28-.4-.58-1.23a19.5,19.5,0,0,0,2.43-1l.09,0v-3.84h-2c-.12,0-.18-.08-.18-.23v-.46c0-.15.06-.24.18-.24Zm9.6,3.93a.34.34,0,0,1,.24.09,1.84,1.84,0,0,1,.3.49,13.13,13.13,0,0,1-.89,2,7.22,7.22,0,0,1-1,1.47c-.12.12-.22.24-.34.35a6.72,6.72,0,0,0,1.39.76,11.81,11.81,0,0,0,2.16.68c.09,0,.15.06.15.09a.28.28,0,0,1-.07.16,4.41,4.41,0,0,0-.53.53c-.07.09-.13.13-.16.13a1.67,1.67,0,0,1-.27-.1c-.42-.12-.89-.29-1.38-.47a14.42,14.42,0,0,1-1.67-.85l-.4-.3a.87.87,0,0,1-.2.15,10.54,10.54,0,0,1-2,1,10,10,0,0,1-1.86.55.31.31,0,0,1-.28-.13c-.12-.17-.24-.33-.35-.5a.18.18,0,0,1-.07-.13c0-.06,0-.09.1-.09.48-.11.95-.23,1.4-.36a7.75,7.75,0,0,0,2.16-1l.28-.19a.7.7,0,0,1-.19-.2,3.93,3.93,0,0,1-1-1.38,7.09,7.09,0,0,1-.75-1.84H81q-.18,0-.18-.24v-.47c0-.15.06-.22.18-.22ZM86.08,107a.19.19,0,0,1,.22.22v3.69c0,.14,0,.23.12.27a.76.76,0,0,0,.41.09h.3c.13,0,.22-.07.27-.24a7.87,7.87,0,0,0,.16-1.14.08.08,0,0,1,.09-.09l.2.06a3.09,3.09,0,0,0,.48.18.24.24,0,0,1,.21.23,12.88,12.88,0,0,1-.38,1.66.58.58,0,0,1-.63.39H86.3a1.58,1.58,0,0,1-.87-.19.54.54,0,0,1-.18-.47v-3.73H83v.72a6.31,6.31,0,0,1-.25,1.8,2.74,2.74,0,0,1-.87,1.26,5.07,5.07,0,0,1-1.11.73.33.33,0,0,1-.27-.1l-.39-.51a.26.26,0,0,1-.11-.21A3.46,3.46,0,0,0,81.68,110a4.36,4.36,0,0,0,.23-1.47v-1.38c0-.15.07-.22.24-.22Zm-3,8.23A5.9,5.9,0,0,0,84,116.6a3.5,3.5,0,0,0,.4.44,4.16,4.16,0,0,0,.42-.42,6.18,6.18,0,0,0,.93-1.43,6.5,6.5,0,0,0,.44-1H82.73A6.65,6.65,0,0,0,83.09,115.19Z"/><path class="cls-5" d="M95.87,107.3c0,.09,0,.14-.12.14s-.3.07-.34.16a16.88,16.88,0,0,1-1.35,2.7V120c0,.12-.09.18-.24.18h-.59q-.24,0-.24-.18v-8.29c-.34.42-.78.9-1.29,1.44a.41.41,0,0,1-.3-.14c-.15-.12-.31-.25-.46-.39a.18.18,0,0,1-.11-.18c.44-.45.87-.94,1.32-1.45a11.53,11.53,0,0,0,1.5-2.22,13.46,13.46,0,0,0,.87-2.13q0-.12.12-.12A4.65,4.65,0,0,1,95.87,107.3Zm7.79-.12c.15,0,.24.06.24.18v5c0,.12-.09.18-.24.18h-.59c-.15,0-.22-.06-.22-.18v-.64h-2.24v2.17h4c.12,0,.18.08.18.23v.46c0,.17-.06.24-.18.24h-3.78a10.43,10.43,0,0,0,1.19,1.46,7.62,7.62,0,0,0,1.57,1.32,5.74,5.74,0,0,0,1.55.73c0,.09-.06.14-.15.17a4.66,4.66,0,0,0-.53.6c-.06.07-.12.12-.15.12a9.93,9.93,0,0,1-1.9-1.23,8.14,8.14,0,0,1-1.43-1.52l-.36-.46v4c0,.12-.07.18-.22.18H99.8q-.24,0-.24-.18v-3.73l-.43.54a11.76,11.76,0,0,1-1.35,1.38,14.67,14.67,0,0,1-1.68,1.17.35.35,0,0,1-.26-.11c-.19-.18-.39-.36-.57-.51a.37.37,0,0,1,0-.15,9.51,9.51,0,0,0,2.85-2.11,17.45,17.45,0,0,0,1.27-1.64H95.81c-.12,0-.18-.07-.18-.24v-.46c0-.15.06-.23.18-.23h3.75v-2.17H97.39v.7c0,.12-.08.18-.23.18h-.58c-.17,0-.24-.06-.24-.18v-5a.21.21,0,0,1,.24-.24Zm-.81,3.65v-2.7H97.39v2.7Z"/><path class="cls-5" d="M111.35,106.6c0,.13-.06.21-.15.22s-.15.12-.15.3V109H113c.12,0,.18.08.18.23v.46c0,.17-.06.24-.18.24h-3c0,.8,0,1.49,0,2.06h2.56c.12,0,.18.07.18.22,0,2.12-.07,3.63-.16,4.55a12.17,12.17,0,0,1-.44,2.44,1.28,1.28,0,0,1-1.39.87c-.63,0-1-.1-1-.3a2,2,0,0,0-.37-.81v-.12a8.24,8.24,0,0,0,1.35.12c.31,0,.52-.19.63-.6a11,11,0,0,0,.27-1.89c.06-.72.1-1.9.13-3.55h-1.83c0,.45-.06.82-.09,1.12a23.84,23.84,0,0,1-.46,3.05,7,7,0,0,1-.65,1.66,5.26,5.26,0,0,1-.87,1.26c-.27-.28-.51-.54-.7-.76a4.1,4.1,0,0,0,.6-.9,9.43,9.43,0,0,0,.63-1.65,21.32,21.32,0,0,0,.42-2.85c.09-.89.13-2.19.16-3.92h-1.47c-.12,0-.18-.07-.18-.24v-.46c0-.15.06-.23.18-.23H110V106.6c0-.11.08-.17.24-.17C111,106.43,111.35,106.49,111.35,106.6Zm8.27,4.32a5.43,5.43,0,0,1-1.67.78h0a12.57,12.57,0,0,0,.25,2.31.34.34,0,0,0,0,.17,1.25,1.25,0,0,0,.12-.08,5.26,5.26,0,0,0,.93-.66,7,7,0,0,0,.66-.78c0-.06.07-.09.1-.09l.92.65a.38.38,0,0,1,.19.28c0,.09-.07.12-.22.12a.44.44,0,0,0-.33.11,9.91,9.91,0,0,1-2.12,1.45,5.79,5.79,0,0,0,.23.74,6.7,6.7,0,0,0,.88,1.63,10.77,10.77,0,0,0,1.56,1.7c0,.06,0,.1-.13.16s-.39.27-.6.44a.44.44,0,0,1-.26.1A10.83,10.83,0,0,1,119,118.7,7.59,7.59,0,0,1,118,117a10.91,10.91,0,0,1-.71-2.25,17.67,17.67,0,0,1-.33-2.8,6.5,6.5,0,0,1-1.06.09v6.31c.54-.16,1.15-.37,1.81-.63.08,0,.12.06.12.17a6,6,0,0,0-.13.6c0,.18-.06.27-.17.28a29.63,29.63,0,0,1-3.52,1c-.17,0-.26.07-.29.18s-.09.16-.12.16a.18.18,0,0,1-.19-.13l-.33-.87a.17.17,0,0,1,.13-.18c.69-.09,1.2-.15,1.53-.23h.09v-7.73c0-.1.06-.16.18-.16l.83.31a7.35,7.35,0,0,0,1.62-.21,4.43,4.43,0,0,0,1.78-.84.22.22,0,0,1,.35,0c.49.41.75.68.75.8s-.06.28-.17.28l-.36-.18A.28.28,0,0,0,119.62,110.92Zm-3.51-4c.1.09.16.15.16.21a.15.15,0,0,1-.12.16c-.1,0-.16.06-.18.17-.1.39-.19.73-.28,1h4.74c.12,0,.18.09.18.24v.47q0,.24-.18.24h-5.09c-.18.42-.37.82-.55,1.18a7.39,7.39,0,0,1-.69,1,1,1,0,0,1-.32,0l-.58-.21q-.09,0-.09-.09a.13.13,0,0,1,0-.1,7.73,7.73,0,0,0,1-1.62,8.91,8.91,0,0,0,.47-1.17,17,17,0,0,0,.4-1.68q0-.12.09-.12Z"/><path class="cls-5" d="M129.17,110.47a.31.31,0,0,1-.24.3.59.59,0,0,0-.34.16,11.83,11.83,0,0,1-1.64,1.55v7.42c0,.12-.09.18-.24.18h-.58c-.17,0-.24-.06-.24-.18v-6.64a23.35,23.35,0,0,1-2,1.26,9.22,9.22,0,0,0-.66-.65.37.37,0,0,1-.11-.18s0-.06.08-.09a12.51,12.51,0,0,0,2.91-1.87,15.21,15.21,0,0,0,1.89-1.94.19.19,0,0,1,.16-.09A6,6,0,0,1,129.17,110.47Zm-.9-3.23a.39.39,0,0,1,.2.3c0,.09-.08.12-.23.12a.68.68,0,0,0-.49.15,15.48,15.48,0,0,1-3.38,2.48.25.25,0,0,1-.22-.11,3.51,3.51,0,0,0-.44-.43.25.25,0,0,1-.1-.15s0-.08.09-.11a4.75,4.75,0,0,0,1.08-.58,8.24,8.24,0,0,0,1.41-1,7.1,7.1,0,0,0,1-1.15c.06-.09.12-.15.17-.15Zm8.4,4.05c.12,0,.18.08.18.23V112c0,.15-.06.22-.18.22h-2.22V119c0,.75-.61,1.12-1.81,1.12l-1.23-.06c-.08,0-.11-.1-.11-.28a2.4,2.4,0,0,0-.25-.78v0a7.39,7.39,0,0,0,1.53.17c.54,0,.81-.18.81-.53v-6.39h-4.1c-.12,0-.18-.07-.18-.22v-.48c0-.15.06-.23.18-.23Zm-.82-4c.12,0,.18.09.18.24V108q0,.24-.18.24h-5.79q-.18,0-.18-.24v-.47c0-.15.06-.24.18-.24Z"/><path class="cls-5" d="M152.09,107.12a.16.16,0,0,1,.18.18v.59q0,.24-.18.24h-5.2V114h5.91a.16.16,0,0,1,.18.18v.58c0,.17-.06.24-.18.24h-5.91V120c0,.12-.11.18-.3.18H146q-.24,0-.24-.18V115h-6c-.12,0-.18-.07-.18-.24v-.58a.16.16,0,0,1,.18-.18h6v-5.91H140.5q-.18,0-.18-.24v-.59a.16.16,0,0,1,.18-.18Zm-8.86,4a12.61,12.61,0,0,1,.6,1.7c0,.06-.36.18-1.05.36a11.09,11.09,0,0,0-.44-1.47,14.06,14.06,0,0,0-1-2c0-.06.28-.24.88-.52C142.64,109.88,143,110.53,143.23,111.11Zm8.26-1.42c.09.07.14.13.14.19s-.08.17-.2.18-.31.11-.34.23a21.32,21.32,0,0,1-1.46,2.94c-.15,0-.24,0-.25-.08l-.74-.45a10.08,10.08,0,0,0,1-1.65,15.59,15.59,0,0,0,.64-1.78.21.21,0,0,1,.2-.15Z"/><path class="cls-5" d="M163.34,110.6a.68.68,0,0,1,.08.17q0,.15-.18.18c-.29,0-.44.07-.47.16-.28.48-.6,1-.93,1.53h7.08c.12,0,.18.06.18.17v.58c0,.17-.06.24-.18.24H166a9.72,9.72,0,0,1-.63,1.46,6.75,6.75,0,0,1-1.08,1.68c-.09.1-.18.19-.25.28l.45.21q2.31,1.17,3.93,2.12l-.08.13-.51.69a42.22,42.22,0,0,0-4.62-2.44l-.43.28a10.9,10.9,0,0,1-2,1,27.77,27.77,0,0,1-3.4,1.11c-.12,0-.18,0-.2-.1s-.28-.42-.45-.71a.24.24,0,0,1-.12-.19,4.54,4.54,0,0,0,1-.2,18.44,18.44,0,0,0,1.85-.46,17.47,17.47,0,0,0,2.25-1l.39-.27c-1.14-.48-2.12-.86-2.93-1.11l-.67.81a.25.25,0,0,1-.21-.09,6.25,6.25,0,0,0-.6-.24c-.06,0-.08-.06-.08-.15.9-1.08,1.59-2,2.1-2.72,0-.06.08-.1.11-.15h-4c-.12,0-.18-.07-.18-.24v-.58c0-.11.06-.17.18-.17h4.63a17.18,17.18,0,0,0,.95-1.6,8,8,0,0,0,.51-1.1c0-.07.07-.12.12-.12Zm0-3.82c0,.13-.06.21-.15.22s-.15.12-.15.3v.77h5.16c.15,0,.24.06.24.18v2.92c0,.12-.09.18-.24.18h-.59c-.15,0-.22-.06-.22-.18V109h-10.2v2.17c0,.12-.09.18-.24.18h-.59c-.15,0-.22-.06-.22-.18v-2.86c0-.15.07-.24.22-.24H162v-1.29c0-.12.07-.18.24-.18Q163.36,106.6,163.36,106.78Zm-2.18,6.85a.14.14,0,0,1,0,.05c-.36.51-.78,1.08-1.27,1.71,1.18.43,2.23.84,3.13,1.21a.15.15,0,0,0,.06,0,6.6,6.6,0,0,0,1.13-1.47,7.15,7.15,0,0,0,.69-1.46Z"/><path class="cls-5" d="M176.5,107.3c0,.09-.05.14-.12.14a.4.4,0,0,0-.35.16,16.88,16.88,0,0,1-1.35,2.7V120c0,.12-.09.18-.24.18h-.58c-.17,0-.24-.06-.24-.18v-8.29q-.52.63-1.29,1.44a.41.41,0,0,1-.3-.14c-.15-.12-.32-.25-.47-.39a.19.19,0,0,1-.1-.18c.43-.45.87-.94,1.32-1.45a11.53,11.53,0,0,0,1.5-2.22,13.46,13.46,0,0,0,.87-2.13.12.12,0,0,1,.12-.12A4.65,4.65,0,0,1,176.5,107.3Zm7.78-.12c.15,0,.24.06.24.18v5c0,.12-.09.18-.24.18h-.58c-.15,0-.23-.06-.23-.18v-.64h-2.23v2.17h4c.12,0,.18.08.18.23v.46c0,.17-.06.24-.18.24h-3.78a11.26,11.26,0,0,0,1.18,1.46,7.69,7.69,0,0,0,1.58,1.32,5.83,5.83,0,0,0,1.54.73c0,.09-.06.14-.15.17a3.9,3.9,0,0,0-.52.6c-.06.07-.12.12-.15.12A10,10,0,0,1,183,118a8.07,8.07,0,0,1-1.42-1.52l-.36-.46v4c0,.12-.08.18-.23.18h-.58c-.17,0-.24-.06-.24-.18v-3.73l-.44.54a11.76,11.76,0,0,1-1.35,1.38,13.84,13.84,0,0,1-1.68,1.17.33.33,0,0,1-.25-.11c-.2-.18-.39-.36-.57-.51a.43.43,0,0,1-.05-.15,8.43,8.43,0,0,0,1.31-.76,8.58,8.58,0,0,0,1.54-1.35,17.15,17.15,0,0,0,1.28-1.64h-3.54c-.12,0-.18-.07-.18-.24v-.46c0-.15.06-.23.18-.23h3.75v-2.17H178v.7c0,.12-.07.18-.22.18h-.59q-.24,0-.24-.18v-5a.22.22,0,0,1,.24-.24Zm-.81,3.65v-2.7H178v2.7Z"/><path class="cls-5" d="M191.62,106.78a.88.88,0,0,1,.36.07c.22.2.34.33.34.39L191,111a.85.85,0,0,0-.05.21.33.33,0,0,0,.08.21,7.63,7.63,0,0,1,.79,1.67,7,7,0,0,1,.32,2,3.79,3.79,0,0,1-.21,1.29,1.51,1.51,0,0,1-.65.81,1.32,1.32,0,0,1-.91.24c-.24,0-.36-.07-.36-.24a2.07,2.07,0,0,0-.23-.76c0-.06.06-.11.18-.11l.65.06c.18,0,.31-.13.4-.4a2.61,2.61,0,0,0,.12-.89,6.48,6.48,0,0,0-.25-1.63,8.43,8.43,0,0,0-1-2,.24.24,0,0,1-.09-.17,1,1,0,0,1,0-.22l1.41-3.53h-2V119.9c0,.12-.08.18-.23.18h-.58a.16.16,0,0,1-.18-.18V107a.16.16,0,0,1,.18-.18Zm5.89.28c.09.08.15.14.15.18s-.1.18-.3.18a1.17,1.17,0,0,0-.22,0,9.35,9.35,0,0,0,.9,1.23,8.41,8.41,0,0,0,3.45,2.28c.09,0,.15.06.15.09a.19.19,0,0,1-.08.17l-.55.49c0,.08-.09.11-.12.11a6.44,6.44,0,0,1-1.58-.81l-.25-.18v.34c0,.17-.05.24-.11.24H194.5c-.09,0-.12-.07-.12-.24v-.46c0-.12,0-.18.12-.18h4.15a6.31,6.31,0,0,1-1-.9,11.77,11.77,0,0,1-1.17-1.49,9.86,9.86,0,0,1-.79,1,11.33,11.33,0,0,1-1,1,12.85,12.85,0,0,1-1.21,1,8.31,8.31,0,0,1-1,.62.26.26,0,0,1-.22-.14,2,2,0,0,0-.44-.52c-.12-.06-.16-.12-.16-.17s0,0,.07-.07a7,7,0,0,0,1.41-.75,9,9,0,0,0,1.56-1.31,6.33,6.33,0,0,0,.86-1,8.14,8.14,0,0,0,.66-1.14.25.25,0,0,1,.19-.13Zm-2.32,9.51c.07.06.12.12.12.17s-.08.18-.23.18a.24.24,0,0,0-.24.13c-.12.24-.24.44-.33.6a6.43,6.43,0,0,0,.6.83,5.34,5.34,0,0,0,.89.73.31.31,0,0,1,.07.17,2.55,2.55,0,0,1-.52.64.21.21,0,0,1-.11,0,11.13,11.13,0,0,1-1.41-1.56c-.12.18-.24.33-.36.49s-.43.5-.64.72l-.53.45a.23.23,0,0,1-.21-.13,1.86,1.86,0,0,0-.42-.5c-.09-.06-.13-.1-.13-.13s0,0,0,0a5.17,5.17,0,0,0,.72-.57,5.43,5.43,0,0,0,.81-1,4.64,4.64,0,0,0,.44-.72,5.63,5.63,0,0,0,.34-.84.15.15,0,0,1,.11-.09Zm.76-4.17c.15,0,.24.06.24.18v3c0,.12-.09.18-.24.18h-2.74c-.17,0-.24-.06-.24-.18v-3c0-.12.07-.18.24-.18Zm-.75.89H194v1.63h1.23Zm4.55,3.28c.09.06.13.12.13.17s-.07.18-.22.18a.28.28,0,0,0-.26.13c-.12.26-.24.48-.34.66a5.07,5.07,0,0,0,.81.84,8.89,8.89,0,0,0,1.3.89.26.26,0,0,1-.09.21c-.15.12-.33.28-.55.49a.12.12,0,0,1-.09,0,4,4,0,0,1-.87-.59,13.56,13.56,0,0,1-1-1.06,4,4,0,0,1-.36.51c-.21.25-.43.49-.64.72s-.39.36-.51.46a.27.27,0,0,1-.23-.13,2.25,2.25,0,0,0-.4-.5c-.09-.06-.14-.1-.14-.13s0,0,0-.06a6.44,6.44,0,0,0,.74-.56,6.08,6.08,0,0,0,1.24-1.72,7.62,7.62,0,0,0,.35-.84c0-.06.07-.11.1-.11Zm.49-4.17c.15,0,.23.06.23.18v3c0,.12-.08.18-.23.18h-2.76q-.24,0-.24-.18v-3q0-.18.24-.18Zm-.76.89h-1.23v1.63h1.23Z"/><path class="cls-5" d="M208,107.89c.15,0,.24.06.24.18v7.56c0,.12-.09.18-.24.18h-.58c-.17,0-.24-.06-.24-.18V115H205.4v1.88c0,.12-.07.18-.22.18h-.6c-.15,0-.23-.06-.23-.18v-8.73a.21.21,0,0,1,.23-.24Zm-.82,6.15v-5.21H205.4V114Zm2.05,2.43c.12,0,.18.06.18.15a11.33,11.33,0,0,1-1.06,2.7l-.11.12a.82.82,0,0,1-.34-.06,3.65,3.65,0,0,0-.56-.2.18.18,0,0,1-.1-.16,7.36,7.36,0,0,0,1.18-2.43.26.26,0,0,1,.29-.2ZM214,109.3h2.58c.12,0,.18.09.18.24V110c0,.15-.06.23-.18.23H214v1.41h2.58c.12,0,.18.09.18.24v.46c0,.17-.06.24-.18.24H214V114h3.29c.12,0,.18.09.18.24a33.25,33.25,0,0,1-.18,3.34,6.43,6.43,0,0,1-.48,1.82c-.2.42-.71.64-1.52.64-.6,0-.9-.1-.91-.3A2.63,2.63,0,0,0,214,119v-.12a7.74,7.74,0,0,0,1.29.12.72.72,0,0,0,.74-.43,4.58,4.58,0,0,0,.31-1.32c.06-.48.12-1.22.15-2.24H210.5v.53c0,.12-.09.18-.24.18h-.58c-.15,0-.23-.06-.23-.18v-8.39c0-.15.08-.22.23-.22H217c.11,0,.17.07.17.22v.48c0,.15-.06.23-.17.23h-3Zm-3,7.2q.18,0,.18.12c.07.78.12,1.59.12,2.46,0,.12-.08.18-.2.18h-.61c-.21,0-.3-.06-.3-.18.06-.72.1-1.55.1-2.46q0-.12.18-.12Zm-.41-7.2h2.4v-1.47h-2.4Zm2.4.93h-2.4v1.41h2.4Zm0,3.81v-1.46h-2.4V114Zm-.12,2.4a15.66,15.66,0,0,1,.53,2.35c0,.06-.08.11-.23.14l-.76,0c-.06,0-.11-.06-.11-.18,0-.72-.12-1.48-.24-2.29a.13.13,0,0,1,.14-.15l.51,0A.19.19,0,0,1,212.78,116.44Zm1.68-.53a12.15,12.15,0,0,1,1,2c0,.13-.07.19-.22.19l-.71.17c-.09,0-.15,0-.18-.17a10.83,10.83,0,0,0-.7-2c0-.07,0-.12.15-.15l.55-.13A.31.31,0,0,1,214.46,115.91Z"/><path class="cls-5" d="M229.67,111.5q-.58.61-1.17,1.2a4.06,4.06,0,0,0-1,2.78h-1.1a5.22,5.22,0,0,1,1.44-3.59c.29-.28.57-.58.87-.88a1.7,1.7,0,0,0,.45-1.11,1.15,1.15,0,0,0-.46-.93,2,2,0,0,0-1.22-.38c-1.09,0-1.66.51-1.69,1.52h-1.1a2.6,2.6,0,0,1,.68-1.74,2.76,2.76,0,0,1,2.11-.78,3.19,3.19,0,0,1,1.86.54,2.08,2.08,0,0,1,.92,1.77A2.47,2.47,0,0,1,229.67,111.5Zm-3.51,7.25v-1.53h1.53v1.53Z"/><path class="cls-5" d="M27.35,99.4a13.14,13.14,0,0,0,2.79,1.53l-.64,1.52a12.87,12.87,0,0,1-3.53-2,8.18,8.18,0,0,1-4,1,7.77,7.77,0,0,1-4.05-1.08,7.2,7.2,0,0,1-2.8-3,9.59,9.59,0,0,1-1-4.4,9.85,9.85,0,0,1,1-4.44,6.93,6.93,0,0,1,2.82-3,8,8,0,0,1,4.08-1,7.85,7.85,0,0,1,4.11,1.09,7.05,7.05,0,0,1,2.79,3,9.81,9.81,0,0,1,1,4.4,10.23,10.23,0,0,1-.62,3.65A7.63,7.63,0,0,1,27.35,99.4Zm-4.8-2.78a8.06,8.06,0,0,1,3.11,1.57,6.77,6.77,0,0,0,1.92-5.26,8.28,8.28,0,0,0-.68-3.5,5.24,5.24,0,0,0-2-2.32A5.43,5.43,0,0,0,22,86.29a5.33,5.33,0,0,0-4,1.67,6.92,6.92,0,0,0-1.61,5,7,7,0,0,0,1.59,4.93A5.29,5.29,0,0,0,22,99.58a5.6,5.6,0,0,0,2.2-.43,7.16,7.16,0,0,0-2.16-1Z"/></g></g></svg>