<svg xmlns="http://www.w3.org/2000/svg" viewBox="0 0 524.95 58.63"><defs><style>.cls-1{opacity:0.97;}.cls-2{fill:#ffe8ca;}.cls-3{fill:#231815;}.cls-4{fill:#009e96;}.cls-5{fill:#fff;}</style></defs><title>資產 13</title><g id="圖層_2" data-name="圖層 2"><g id="Cut2_透過旅遊小夥伴的旅遊案例說明"><g class="cls-1"><circle class="cls-2" cx="54.09" cy="29.32" r="29.32"/></g><path class="cls-3" d="M24,32.94c0,.62-.28.91-.83.91H13.23a27.65,27.65,0,0,0,4.48,2,55.39,55.39,0,0,0,6.16,1.93.91.91,0,0,1,.6.91,1.09,1.09,0,0,1-.24.65.78.78,0,0,1-.67.36,4.21,4.21,0,0,1-1.1-.18c-1.66-.57-3.27-1.17-4.78-1.79a39.92,39.92,0,0,1-4.58-2.29v3.95c0,.6-.33.91-1,.91a.82.82,0,0,1-.94-.91V35.38a29.12,29.12,0,0,1-3.22,1.77,52.7,52.7,0,0,1-6.32,2.39c-.39.06-.62.11-.7.11-.62,0-.91-.34-.91-1a.86.86,0,0,1,.6-.91,49.2,49.2,0,0,0,6.76-2.26,17.52,17.52,0,0,0,3.12-1.61H1.3c-.55,0-.81-.29-.81-.91a.72.72,0,0,1,.81-.81h9.85V30.91a.82.82,0,0,1,.94-.91c.68,0,1,.31,1,.91v1.22h10A.73.73,0,0,1,24,32.94ZM12.9,17.21v.7h9.54c.81,0,1.22.55,1.22,1.64,0,.44-.05.94-.1,1.51-.11.41-.45.62-1,.62s-.7-.21-.7-.62v-.91c0-.47-.21-.7-.62-.7H2.94c-.42,0-.6.28-.6.8v.52c0,.63-.31.91-.94.91a.79.79,0,0,1-.91-.91V19.55a1.45,1.45,0,0,1,1.64-1.64h8.74v-.7a.89.89,0,0,1,1-1A.89.89,0,0,1,12.9,17.21Zm-.73,3.64a1.25,1.25,0,0,1-.21.57,6.53,6.53,0,0,1-.68,1H22.65a.73.73,0,0,1,.8.81c0,.57-.28.83-.8.83h-4.5a3.13,3.13,0,0,1-.37.65,10.92,10.92,0,0,1-2.47,2.47c-.15.11-.26.18-.36.24L22.65,29a.92.92,0,0,1,.7.8c-.05.65-.34,1-.91,1a2,2,0,0,1-.6-.11c-3-.78-5.95-1.53-8.81-2.21a18.21,18.21,0,0,1-2.58,1,27.77,27.77,0,0,1-4.78,1,33.54,33.54,0,0,1-4.06.31c-.67,0-1-.31-1-.91a.72.72,0,0,1,.7-.81,44.45,44.45,0,0,0,7.51-.88c.47-.11.91-.24,1.36-.39l-3.28-.7c-1-.21-1.51-.6-1.51-1.17A1.27,1.27,0,0,1,6,25,12.32,12.32,0,0,0,7.28,24H1.51C1,24,.7,23.76.7,23.19a.72.72,0,0,1,.81-.81H9.07a10.5,10.5,0,0,0,1.28-1.82.9.9,0,0,1,.8-.52C11.78,20.1,12.12,20.36,12.17,20.85ZM9.75,24c-.57.47-1.22,1-1.95,1.46-.13.1-.18.18-.18.26s.1.18.34.23l4.55.91a7.82,7.82,0,0,0,1-.54A10.37,10.37,0,0,0,16.07,24Z"/><path class="cls-3" d="M34,16.69a.84.84,0,0,1,.34.62,2.56,2.56,0,0,1-.1.5,36.61,36.61,0,0,1-1.41,5.25V39.44a.92.92,0,0,1-1.84,0V27.19c-.26.5-.55,1-.81,1.38s-.47.42-.6.42c-.67,0-1-.26-1-.81a1.13,1.13,0,0,1,.18-.62A27.6,27.6,0,0,0,31,23.11a37,37,0,0,0,1.74-6c.08-.42.29-.63.6-.63A1.18,1.18,0,0,1,34,16.69Zm10.2,1.74c0,.63-.29.91-.81.91H38.84c0,.21-.05.36-.05.52a20.86,20.86,0,0,1-.28,2.21H42.2c.93,0,1.43.6,1.43,1.74a21.17,21.17,0,0,1-.6,5.13,20,20,0,0,1-2.13,5.51,19,19,0,0,1-5.2,5.41,1.84,1.84,0,0,1-.7.2.89.89,0,0,1-1-1,.83.83,0,0,1,.29-.62,18.46,18.46,0,0,0,4.63-4.35,12.57,12.57,0,0,0,1-1.61,0,0,0,0,1,0,0c-.78-.91-1.59-1.8-2.42-2.66a.94.94,0,0,1-.21-.49c0-.55.29-.83.91-.83.16,0,.31.1.5.31a15.94,15.94,0,0,1,2,1.95,21.48,21.48,0,0,0,.65-2.21,20.27,20.27,0,0,0,.49-4q0-.6-.39-.6h-3a.44.44,0,0,1-.21,0,4,4,0,0,0-.1.47,19.31,19.31,0,0,1-1.2,3.38,16.85,16.85,0,0,1-2,3.07.84.84,0,0,1-.62.21.67.67,0,0,1-.57-.29.83.83,0,0,1-.24-.62.78.78,0,0,1,.31-.63,18.33,18.33,0,0,0,1.69-2.75,18.42,18.42,0,0,0,1-3.12,26.76,26.76,0,0,0,.68-4.27H35.7c-.55,0-.81-.28-.81-.91a.72.72,0,0,1,.81-.83h7.72A.73.73,0,0,1,44.23,18.43Zm7-.83V37.72c0,1.56-.89,2.34-2.66,2.34a12.1,12.1,0,0,1-3.45-.72.92.92,0,0,1-.71-.91c0-.58.24-.86.71-.91a3.16,3.16,0,0,1,.57.07,13.69,13.69,0,0,0,2.88.63c.52,0,.81-.34.81-1V17.6a.93.93,0,0,1,1.85,0Zm-4,1.95V33.46a.8.8,0,0,1-.91.91.79.79,0,0,1-.91-.91V19.55a.8.8,0,0,1,.91-.91A.81.81,0,0,1,47.27,19.55Z"/><path class="cls-3" d="M67.21,36.55a6.77,6.77,0,0,1-4,1.2,6.2,6.2,0,0,1-3.62-1,3.63,3.63,0,0,1-1.77-3.2c0-.73.32-1.12,1-1.12.28,0,.52.34.67,1,.42,1.77,1.67,2.63,3.75,2.63a4.93,4.93,0,0,0,2.73-.76A2.62,2.62,0,0,0,67.31,33a3.26,3.26,0,0,0-1.24-2.66,6.74,6.74,0,0,0-3.9-.83c-.81,0-1.2-.28-1.2-.86s.39-.8,1.2-.85a9.64,9.64,0,0,0,3.19-.52,2.38,2.38,0,0,0,1.72-2.34,2.17,2.17,0,0,0-1.3-2,5.6,5.6,0,0,0-2.52-.54,3.56,3.56,0,0,0-2.19.7,2.7,2.7,0,0,0-1,1.59c-.15.57-.39.83-.7.83-.65,0-1-.31-1-1A3.36,3.36,0,0,1,60,21.66a5.65,5.65,0,0,1,3.23-1,7.22,7.22,0,0,1,3.79,1A3.73,3.73,0,0,1,68.93,25c0,1.67-1.07,2.89-3.15,3.62A4.31,4.31,0,0,1,69.16,33,4.12,4.12,0,0,1,67.21,36.55Z"/><rect class="cls-4" x="105.6" y="11.17" width="419.35" height="40.44" rx="12"/><path class="cls-5" d="M156.26,24.86c.2,0,.31.06.31.18v6.73c0,.12-.11.18-.31.18h-.58c-.15,0-.22-.06-.22-.18v-1h-8.91v5c0,.48.27.71.82.71h7.56c.65,0,1-.12,1.17-.39a8.58,8.58,0,0,0,.58-2.37,2,2,0,0,0,.66.6c.14.06.22.13.22.22a7.6,7.6,0,0,1-.74,2.48,1.12,1.12,0,0,1-1.08.51h-8.49c-1.21,0-1.81-.38-1.81-1.11V28.32c0-.12,0-.18.06-.18l1.08.12c.13,0,.21.06.21.12s0,.17-.11.18a.16.16,0,0,0-.13.17v1.06h8.91V25.86h-9.9c-.12,0-.18-.07-.18-.24V25a.16.16,0,0,1,.18-.18Z"/><path class="cls-5" d="M162.79,27.09V25.28a3.37,3.37,0,0,0-.06-.66.83.83,0,0,1-.06-.29c0-.07.09-.12.29-.12l1.18.17c.11.06.17.1.17.13s-.06.14-.17.14-.3.31-.3.69v1.75h1.59c.11,0,.16.09.16.24v.47c0,.15-.05.22-.16.22h-1.59v3.33c.54-.27,1.07-.57,1.56-.87a.09.09,0,0,1,.08,0,.1.1,0,0,1,.11.1,3.34,3.34,0,0,1-.05.83c-.57.34-1.14.67-1.7,1v4.41c0,.71-.52,1.07-1.57,1.07h-1c-.09,0-.12-.09-.12-.26a2.55,2.55,0,0,0-.28-.69c0-.09,0-.12.12-.12a6.28,6.28,0,0,0,1.17.12c.42,0,.64-.18.64-.52V32.91c-.54.29-1.06.56-1.59.8-.15.28-.25.42-.34.42s-.29-.41-.59-1.23a18.91,18.91,0,0,0,2.43-1c.05,0,.08,0,.09-.05V28h-2c-.12,0-.18-.07-.18-.22v-.47c0-.15.06-.24.18-.24Zm9.6,3.93a.34.34,0,0,1,.24.09,1.56,1.56,0,0,1,.3.5,12.19,12.19,0,0,1-.89,2,7.5,7.5,0,0,1-1,1.47c-.12.12-.23.24-.35.34a6.82,6.82,0,0,0,1.4.77,12.17,12.17,0,0,0,2.16.67c.09,0,.15.06.15.09a.33.33,0,0,1-.08.17,3.65,3.65,0,0,0-.52.52c-.08.09-.14.14-.17.14a2.43,2.43,0,0,1-.27-.11c-.42-.12-.88-.28-1.38-.46a13.47,13.47,0,0,1-1.66-.86l-.41-.3a1.12,1.12,0,0,1-.19.15,10.06,10.06,0,0,1-2,1,10.35,10.35,0,0,1-1.85.56.32.32,0,0,1-.29-.14c-.12-.16-.24-.33-.34-.49a.23.23,0,0,1-.08-.14c0-.06,0-.09.11-.09.48-.1.94-.22,1.39-.36a7.47,7.47,0,0,0,2.16-1,2.51,2.51,0,0,0,.29-.2.92.92,0,0,1-.2-.19,4,4,0,0,1-1-1.38,7.17,7.17,0,0,1-.75-1.85h-.69c-.12,0-.18-.07-.18-.24v-.46c0-.15.06-.23.18-.23Zm-.81-6.33a.21.21,0,0,1,.23.23v3.69c0,.13,0,.22.11.27a.76.76,0,0,0,.41.09h.3q.19,0,.27-.24a9.35,9.35,0,0,0,.17-1.14c0-.06,0-.09.09-.09l.19.06a3.54,3.54,0,0,0,.48.18c.13,0,.21.1.21.22a13.4,13.4,0,0,1-.37,1.67A.58.58,0,0,1,173,30h-1.23a1.53,1.53,0,0,1-.88-.2.56.56,0,0,1-.18-.46V25.62h-2.27v.72a6,6,0,0,1-.26,1.8,2.74,2.74,0,0,1-.87,1.26,5.07,5.07,0,0,1-1.11.74A.31.31,0,0,1,166,30c-.14-.18-.27-.34-.39-.51a.24.24,0,0,1-.1-.21,3.45,3.45,0,0,0,1.71-1.54,4.69,4.69,0,0,0,.22-1.47V24.92a.21.21,0,0,1,.24-.23Zm-3,8.24a5.9,5.9,0,0,0,.89,1.41,4.26,4.26,0,0,0,.41.43,4.16,4.16,0,0,0,.42-.42,6.45,6.45,0,0,0,.93-1.42,7.27,7.27,0,0,0,.43-1h-3.43A5.52,5.52,0,0,0,168.59,32.93Z"/><path class="cls-5" d="M181.38,25a.12.12,0,0,1-.13.13.43.43,0,0,0-.34.17,17.78,17.78,0,0,1-1.35,2.7v9.72c0,.12-.09.18-.24.18h-.58c-.17,0-.24-.06-.24-.18v-8.3q-.52.63-1.29,1.44a.38.38,0,0,1-.3-.13l-.47-.39a.22.22,0,0,1-.11-.18c.44-.45.88-.95,1.33-1.46a11.53,11.53,0,0,0,1.5-2.22,13.08,13.08,0,0,0,.87-2.13.12.12,0,0,1,.12-.12C181,24.71,181.38,25,181.38,25Zm7.78-.12c.15,0,.24.06.24.18v5c0,.12-.09.18-.24.18h-.58c-.16,0-.23-.06-.23-.18v-.65h-2.23v2.18h4c.13,0,.19.07.19.22v.47c0,.16-.06.24-.19.24h-3.77a11.05,11.05,0,0,0,1.18,1.45,7.89,7.89,0,0,0,1.57,1.32,5.78,5.78,0,0,0,1.55.74c0,.09-.06.13-.15.16a4.43,4.43,0,0,0-.52.6.3.3,0,0,1-.15.12,9.29,9.29,0,0,1-1.91-1.23,7.73,7.73,0,0,1-1.42-1.51c-.12-.15-.24-.3-.36-.47v4c0,.12-.08.18-.23.18h-.58c-.17,0-.24-.06-.24-.18V34l-.44.54a11.76,11.76,0,0,1-1.35,1.38,12.8,12.8,0,0,1-1.68,1.17.36.36,0,0,1-.26-.1c-.19-.18-.38-.36-.56-.51a.43.43,0,0,1-.05-.15,8.9,8.9,0,0,0,1.31-.77,7.85,7.85,0,0,0,1.54-1.35,18.08,18.08,0,0,0,1.28-1.63h-3.54q-.18,0-.18-.24v-.47c0-.15.06-.22.18-.22h3.75V29.49h-2.18v.71c0,.12-.07.18-.22.18h-.59q-.24,0-.24-.18v-5a.22.22,0,0,1,.24-.24Zm-.81,3.64v-2.7h-5.46v2.7Z"/><path class="cls-5" d="M195.28,34.79c.15.06.22.13.22.21s-.05.13-.14.16a.22.22,0,0,0-.24.17,10.56,10.56,0,0,1-1.07,2c-.09.09-.15.15-.18.15a.48.48,0,0,1-.25-.09l-.57-.26a.33.33,0,0,1-.12-.06.17.17,0,0,1,.06-.12,7.1,7.1,0,0,0,.73-1.09,5.63,5.63,0,0,0,.54-1.25c0-.12.07-.18.14-.18Zm5-10.52c0,.15-.05.23-.14.23s-.15.12-.15.31v.47h5q.12,0,.12.18v.46c0,.12,0,.17-.12.17h-2l.11,0c.12.06.19.12.19.2s0,.09-.1.1a.19.19,0,0,0-.2.14,6.77,6.77,0,0,1-.73,1.35h3.61c.07,0,.12.06.12.16v.48c0,.15-.05.23-.12.23H193.17c-.09,0-.12-.08-.12-.23v-.48c0-.1,0-.16.12-.16h3.93c-.41-.6-.78-1.11-1.13-1.53q0-.12.33-.3H194c-.08,0-.11-.05-.11-.17v-.46c0-.12,0-.18.11-.18H199v-1c0-.1.07-.16.24-.16C199.93,24.11,200.31,24.17,200.31,24.27Zm3.86,5.4c.16,0,.25.06.25.17v3.81c0,.12-.09.18-.25.18h-9q-.24,0-.24-.18V29.84c0-.11.08-.17.24-.17Zm-.82,1.76v-1H196v1Zm0,.76H196v.87h7.38Zm-5.73,2.27c.11,0,.17,0,.17.07s0,.17-.08.18-.09.08-.09.17V36c0,.44.24.65.75.65h2.88a2.62,2.62,0,0,0,1.29-.18,2.41,2.41,0,0,0,.64-1,1.8,1.8,0,0,0,.57.51c.13,0,.18.1.18.18-.35.73-.61,1.14-.79,1.21a1.87,1.87,0,0,1-1.18.26h-3.69c-1.11,0-1.65-.33-1.65-1V34.47c0-.07,0-.12,0-.12Zm4.11-6.54-.37-.18c-.08,0-.11,0-.11-.06a.1.1,0,0,1,0-.08,5.52,5.52,0,0,0,.93-1.51h-5.37a12.64,12.64,0,0,1,1.24,1.41c0,.15,0,.22-.1.24a1.54,1.54,0,0,1-.28.18Zm-1.22,7,.86.63s0,.06-.07.12c-.3.39-.46.59-.47.59a10.56,10.56,0,0,0-1.12-.81c-.33-.18-.59-.33-.8-.42a3,3,0,0,1,.41-.6.15.15,0,0,1,.12-.11C199.87,34.52,200.23,34.71,200.51,34.89Zm5,.47c.38.39.71.75,1,1a.31.31,0,0,1-.07.12,7.61,7.61,0,0,1-.45.64,12.15,12.15,0,0,0-1.33-1.35,9.09,9.09,0,0,0-.95-.7,3,3,0,0,1,.46-.66c0-.06.08-.11.12-.11A11.76,11.76,0,0,1,205.54,35.36Z"/><path class="cls-5" d="M213.63,24.54c.12.09.18.15.18.21a.22.22,0,0,1-.18.23.3.3,0,0,0-.33.27l-.45,1.32H216a.44.44,0,0,1,.27.09,1.49,1.49,0,0,1,.31.49,29,29,0,0,1-.84,3.33,15.75,15.75,0,0,1-1,2.48,9.9,9.9,0,0,1-1.26,1.87,8.16,8.16,0,0,1-1.84,1.7,7.1,7.1,0,0,1-1.77.93.36.36,0,0,1-.32-.14c-.12-.18-.24-.36-.36-.52a.27.27,0,0,1-.09-.15c0-.09,0-.15.09-.17a9.22,9.22,0,0,0,1.34-.6,6.64,6.64,0,0,0,2-1.65,9.31,9.31,0,0,0,.76-1,13.11,13.11,0,0,0-1.95-1.47c-.06,0-.07,0-.07-.07a2.83,2.83,0,0,1,.51-.71.27.27,0,0,1,.18-.12,23,23,0,0,1,1.9,1.44.36.36,0,0,0,0-.09,14.2,14.2,0,0,0,.88-2.4,18.6,18.6,0,0,0,.53-2.29H212.5a6.85,6.85,0,0,1-.28.67c-.36.72-.74,1.41-1.13,2.06a11.57,11.57,0,0,1-1.27,1.54.73.73,0,0,1-.35-.06l-.61-.24c-.06,0-.09-.07-.09-.1a.19.19,0,0,1,.07-.18,10,10,0,0,0,1.91-2.48,10.72,10.72,0,0,0,.87-1.8,19.59,19.59,0,0,0,.78-2.58c0-.1.1-.16.16-.16Zm6.2-.09c0,.14-.05.21-.15.23s-.14.12-.14.3v3.75a29.24,29.24,0,0,1,3,3.25.36.36,0,0,1,.14.27s0,.08-.09.11a2.65,2.65,0,0,1-.66.54.25.25,0,0,1-.21-.12,25.39,25.39,0,0,0-2.14-2.51V37.7c0,.12-.08.18-.23.18h-.58c-.17,0-.24-.06-.24-.18V24.45c0-.12.07-.18.24-.18C219.46,24.27,219.83,24.33,219.83,24.45Z"/><path class="cls-5" d="M228.75,24.51a.74.74,0,0,1,.36.08c.22.19.34.33.34.39l-1.3,3.78a.76.76,0,0,0-.05.21.4.4,0,0,0,.07.21,7.12,7.12,0,0,1,.8,1.66,7,7,0,0,1,.32,2.06,3.83,3.83,0,0,1-.21,1.29,1.56,1.56,0,0,1-.65.81,1.38,1.38,0,0,1-.91.24q-.36,0-.36-.24a2.13,2.13,0,0,0-.23-.77c0-.06.06-.1.18-.1l.64.06c.19,0,.32-.14.41-.41a2.59,2.59,0,0,0,.12-.88,6.55,6.55,0,0,0-.25-1.64,8.43,8.43,0,0,0-1-2c-.06-.06-.09-.1-.09-.16a1.07,1.07,0,0,1,0-.23l1.41-3.52h-2V37.64c0,.12-.08.18-.23.18h-.58a.16.16,0,0,1-.18-.18V24.69a.16.16,0,0,1,.18-.18Zm5.89.29c.09.07.15.13.15.18s-.11.18-.3.18a.8.8,0,0,0-.23,0,11.24,11.24,0,0,0,.91,1.23,6.71,6.71,0,0,0,1.3,1.15,7.05,7.05,0,0,0,2.15,1.13c.09,0,.14.06.14.09a.18.18,0,0,1-.07.16c-.21.18-.39.35-.55.5s-.1.1-.13.1a6.36,6.36,0,0,1-1.57-.81l-.26-.18v.35c0,.16,0,.24-.1.24h-4.45c-.09,0-.13-.08-.13-.24v-.47c0-.12,0-.18.13-.18h4.15a6.31,6.31,0,0,1-1-.9,11.58,11.58,0,0,1-1.17-1.48,10.93,10.93,0,0,1-.79,1,11.33,11.33,0,0,1-1,1,14.86,14.86,0,0,1-1.21,1,9.45,9.45,0,0,1-1,.61.25.25,0,0,1-.22-.13,2.07,2.07,0,0,0-.44-.53c-.12-.06-.16-.12-.16-.16s0-.05.07-.08a7,7,0,0,0,1.41-.75,8.88,8.88,0,0,0,1.56-1.3,6.33,6.33,0,0,0,.86-1,8.14,8.14,0,0,0,.66-1.14.25.25,0,0,1,.19-.14Zm-2.32,9.51c.07.06.12.12.12.16s-.08.18-.23.18a.24.24,0,0,0-.24.14c-.12.24-.24.43-.33.6a6.26,6.26,0,0,0,.6.82,4.88,4.88,0,0,0,.89.74.28.28,0,0,1,.07.16,2.42,2.42,0,0,1-.53.65l-.1,0a10.06,10.06,0,0,1-1.41-1.56c-.12.18-.24.33-.36.5l-.64.72-.53.45a.24.24,0,0,1-.21-.14,1.82,1.82,0,0,0-.42-.49c-.09-.06-.13-.11-.13-.14s0,0,0,0a6,6,0,0,0,.72-.57,5.43,5.43,0,0,0,.81-1,5.57,5.57,0,0,0,.44-.72,6.1,6.1,0,0,0,.34-.84.15.15,0,0,1,.11-.09Zm.76-4.17c.15,0,.24.06.24.18v3c0,.12-.09.18-.24.18h-2.75q-.24,0-.24-.18v-3q0-.18.24-.18Zm-.75.88H231.1v1.64h1.23Zm4.55,3.29c.09.06.13.12.13.16s-.08.18-.22.18a.29.29,0,0,0-.26.14c-.12.25-.24.48-.35.66a5.49,5.49,0,0,0,.82.84,7.73,7.73,0,0,0,1.3.88.25.25,0,0,1-.09.21c-.15.12-.33.29-.55.5a.11.11,0,0,1-.09-.05,3.77,3.77,0,0,1-.87-.58c-.3-.29-.62-.65-1-1.07a4,4,0,0,1-.36.51c-.21.26-.44.5-.64.72l-.51.47a.28.28,0,0,1-.23-.14,2.19,2.19,0,0,0-.4-.49c-.09-.06-.14-.11-.14-.14s0,0,0-.06a5.47,5.47,0,0,0,.74-.55,5.93,5.93,0,0,0,.8-1,4.56,4.56,0,0,0,.44-.75,6.89,6.89,0,0,0,.35-.84c0-.06.07-.1.1-.1Zm.49-4.17c.15,0,.22.06.22.18v3c0,.12-.07.18-.22.18h-2.76q-.24,0-.24-.18v-3q0-.18.24-.18Zm-.77.88h-1.22v1.64h1.22Z"/><path class="cls-5" d="M248.49,32a3.12,3.12,0,0,1-1,1l-.39-.44a2.3,2.3,0,0,0,1-1.71H247v-1.8h1.8v1.65A2.67,2.67,0,0,1,248.49,32Z"/><path class="cls-5" d="M270,24.69c.15,0,.24.06.24.17V37.64c0,.12-.09.18-.24.18h-.59q-.24,0-.24-.18v-.47H258.83v.47c0,.12-.08.18-.23.18H258c-.15,0-.22-.06-.22-.18V24.86c0-.11.07-.17.22-.17Zm-.83,11.54V25.56H258.83V36.23Zm-5-2.93a4,4,0,0,1,0,.77c-1.23.34-2.46.66-3.71.93-.15.28-.25.42-.35.42s-.25-.39-.52-1.19c.57-.09,1.27-.22,2.1-.43s1.61-.41,2.34-.65a.19.19,0,0,1,.08,0C264.06,33.12,264.1,33.18,264.1,33.3Zm.51-6c0-.31,0-.64,0-1,0-.12,0-.18.11-.18l.93.07c.16,0,.25.05.25.11s0,.21-.12.24-.12.18-.12.4v.36h1.94c-.24-.21-.5-.39-.74-.57a3.34,3.34,0,0,0-.55-.31,2.57,2.57,0,0,1,.4-.62q.07-.09.12-.09c.3.18.56.33.75.47l.6.48-.07.1-.41.54h1c.08,0,.12.06.12.17V28c0,.17,0,.24-.12.24h-3q0,.86.06,1.44a9.74,9.74,0,0,0,.33,2c0,.27.13.53.19.74a8.21,8.21,0,0,0,.56-1.19,9.78,9.78,0,0,0,.51-1.66.14.14,0,0,1,.15-.14c.78.27,1.17.45,1.17.53s-.06.19-.19.24a.28.28,0,0,0-.25.16,15.66,15.66,0,0,1-.81,2.12,12.07,12.07,0,0,1-.66,1.09,2.79,2.79,0,0,0,.46.72.82.82,0,0,0,.4.18q.07,0,.24-.27a5.09,5.09,0,0,0,.34-.9c.05,0,.1,0,.17.14a1.74,1.74,0,0,0,.42.49.38.38,0,0,1,.18.32,6.73,6.73,0,0,1-.58,1c-.26.36-.51.54-.72.54a.69.69,0,0,1-.34-.07,1.85,1.85,0,0,1-.64-.53,3.55,3.55,0,0,1-.6-.81,9.41,9.41,0,0,1-1.46,1.25.39.39,0,0,1-.18,0,.27.27,0,0,1-.27-.16,3,3,0,0,0-.38-.41.18.18,0,0,1-.11-.19s0-.05.09-.08a2.91,2.91,0,0,0,.76-.48,5.3,5.3,0,0,0,1.07-1,7.64,7.64,0,0,1-.39-1.17,17.73,17.73,0,0,1-.41-2.28c-.06-.45-.09-1-.12-1.67h-4.93c-.08,0-.11-.07-.11-.24V27.5c0-.11,0-.17.11-.17Zm-1,1.82c.15,0,.24.06.24.16v3c0,.12-.09.17-.24.17h-3.51c-.17,0-.24,0-.24-.17v-3c0-.1.07-.16.24-.16Zm-.77.87h-2v1.59h2Z"/><path class="cls-5" d="M279.87,27.15a11.77,11.77,0,0,1-.15-1.75h-2.3q-.18,0-.18-.24v-.47c0-.15.06-.24.18-.24h3c.15,0,.24.06.24.18a14.86,14.86,0,0,0,.19,2.52h4.78c.19,0,.29.08.29.23v9.16a1,1,0,0,1-.65.89,6.2,6.2,0,0,1-1.57.33.17.17,0,0,1-.19-.18,2.74,2.74,0,0,0-.33-.93c0-.06,0-.08.13-.08a3.48,3.48,0,0,0,1.32-.13.48.48,0,0,0,.24-.44V33.32l-.06,0a6.26,6.26,0,0,0-.52.51.51.51,0,0,1-.3.09,4,4,0,0,1-1.34-1,6.66,6.66,0,0,1-1.56-2,7.69,7.69,0,0,1-.72-1.63A6.72,6.72,0,0,1,280,30a16.3,16.3,0,0,1-1.11,1.76,16.21,16.21,0,0,1-1.46,1.53,5.17,5.17,0,0,1-1.11.81c-.09,0-.15-.06-.21-.21l-.54-.6s-.06,0-.07-.08V37.7c0,.12-.09.18-.24.18h-.59c-.15,0-.22-.06-.22-.18V27.38c0-.15.07-.23.22-.23Zm-2.63,4.68a10.83,10.83,0,0,0,1.5-1.74,22.2,22.2,0,0,0,1.05-2h-4.3v5A10.88,10.88,0,0,0,277.24,31.83Zm4.62-1.51a5.78,5.78,0,0,0,1.46,1.77,6,6,0,0,0,1.45.94.24.24,0,0,0,.09.06v-5H281A7.33,7.33,0,0,0,281.86,30.32Z"/><path class="cls-5" d="M293.61,24.33c0,.14-.06.21-.15.23s-.15.12-.15.3v1.83h1.93c.12,0,.18.07.18.22v.47q0,.24-.18.24h-3c0,.79,0,1.48-.05,2.05h2.57c.11,0,.18.08.18.23,0,2.11-.08,3.63-.17,4.54a12.6,12.6,0,0,1-.43,2.45,1.29,1.29,0,0,1-1.4.87c-.63,0-1-.11-1-.3a2.23,2.23,0,0,0-.38-.81v-.12a9.51,9.51,0,0,0,1.35.12c.32,0,.52-.2.63-.6a9.27,9.27,0,0,0,.27-1.89c.06-.72.11-1.91.14-3.56h-1.83c0,.45-.06.83-.09,1.13a21.84,21.84,0,0,1-.47,3,7.58,7.58,0,0,1-.64,1.67A5.57,5.57,0,0,1,290,37.7c-.27-.29-.51-.54-.71-.77a4.1,4.1,0,0,0,.6-.9,7.86,7.86,0,0,0,.63-1.65,21.32,21.32,0,0,0,.42-2.85c.09-.88.14-2.19.17-3.91h-1.47q-.18,0-.18-.24v-.47c0-.15.06-.22.18-.22h2.57V24.33c0-.1.08-.16.25-.16C293.23,24.17,293.61,24.23,293.61,24.33Zm8.26,4.32a5.15,5.15,0,0,1-1.66.78l0,0a11.64,11.64,0,0,0,.26,2.31.27.27,0,0,0,0,.16s.09,0,.12-.07a5.84,5.84,0,0,0,.93-.66,6.06,6.06,0,0,0,.66-.78.16.16,0,0,1,.1-.09l.92.64c.12.09.2.18.2.29s-.08.12-.23.12a.46.46,0,0,0-.33.1,10.35,10.35,0,0,1-2.11,1.46,6.14,6.14,0,0,0,.22.73,7,7,0,0,0,.89,1.64A9.87,9.87,0,0,0,303.39,37c0,.06-.05.11-.14.17l-.6.43a.41.41,0,0,1-.25.11,10,10,0,0,1-1.11-1.26,7.52,7.52,0,0,1-1.07-1.74,11.32,11.32,0,0,1-.71-2.25,19.09,19.09,0,0,1-.33-2.81,6.32,6.32,0,0,1-1.06.09v6.32c.54-.17,1.16-.38,1.81-.63.08,0,.13.06.13.16s-.11.42-.14.6-.06.27-.17.29a29.18,29.18,0,0,1-3.52.94c-.16,0-.25.08-.28.18s-.09.17-.12.17a.19.19,0,0,1-.2-.14l-.33-.87a.17.17,0,0,1,.14-.18c.69-.09,1.2-.15,1.53-.22l.09,0V28.61c0-.11.06-.17.18-.17l.82.32a7.35,7.35,0,0,0,1.62-.21,4.53,4.53,0,0,0,1.79-.84.24.24,0,0,1,.16-.09.26.26,0,0,1,.18.09c.5.4.75.67.75.79s-.06.29-.16.29l-.36-.18A.33.33,0,0,0,301.87,28.65Zm-3.51-4c.11.09.17.15.17.21a.17.17,0,0,1-.12.17.16.16,0,0,0-.18.16c-.11.39-.2.74-.29,1h4.74c.12,0,.18.09.18.24v.46c0,.17-.06.24-.18.24h-5.09c-.17.42-.37.83-.55,1.19a6.68,6.68,0,0,1-.69,1,1,1,0,0,1-.31,0c-.2-.08-.39-.15-.59-.21s-.09-.06-.09-.09a.14.14,0,0,1,.05-.11,7.63,7.63,0,0,0,1-1.62,7.7,7.7,0,0,0,.46-1.17,14.06,14.06,0,0,0,.4-1.68c0-.07.05-.12.1-.12Z"/><path class="cls-5" d="M308.26,31.08c.2,0,.3.06.3.17v3.81a3.39,3.39,0,0,0,0,.52,2.31,2.31,0,0,0,.77.75,3.91,3.91,0,0,0,1.8.32h4.06c.36,0,1,0,1.82-.14a12,12,0,0,0,1.83-.27H319c.08,0,.13,0,.13.12a6.78,6.78,0,0,0-.47.93c0,.19-.12.3-.3.3h-7.24a4.42,4.42,0,0,1-2.51-.65,3.21,3.21,0,0,1-.75-.9c-.43.39-.82.75-1.15,1.1-.21.12-.32.25-.33.42s0,.21-.09.21-.11,0-.18-.14l-.75-1.09a7.71,7.71,0,0,0,1.83-1.08.37.37,0,0,0,.21-.39V32h-1.52c-.12,0-.18-.07-.18-.24v-.46c0-.15.06-.23.18-.23Zm-.68-2.86.86.63s0,.06-.07.12l-.45.64a11.13,11.13,0,0,0-1.17-.81,8.11,8.11,0,0,0-.83-.42,2.62,2.62,0,0,1,.47-.66c0-.06.09-.1.11-.1A11.8,11.8,0,0,1,307.58,28.22Zm.35-3.2.75.54a.35.35,0,0,1-.07.14,5.93,5.93,0,0,1-.47.63,12.14,12.14,0,0,0-1-.69,5.3,5.3,0,0,0-.73-.36,2.73,2.73,0,0,1,.46-.66c0-.06.09-.11.12-.11C307.36,24.71,307.68,24.87,307.93,25Zm4.2-.69c0,.12-.05.2-.12.2s-.12.1-.12.28v1.58h1.59c.12,0,.18.09.18.24v.46c0,.17-.06.24-.18.24h-2.06V29h2a.16.16,0,0,1,.18.18c0,1.8-.07,3.1-.16,3.88a8.44,8.44,0,0,1-.41,2.1c-.16.51-.6.75-1.3.75-.53,0-.8-.09-.81-.28a3.06,3.06,0,0,0-.32-.78v-.11a9,9,0,0,0,1.13.06c.27,0,.46-.16.55-.51a7.07,7.07,0,0,0,.22-1.56c.07-.6.11-1.57.14-2.92h-1.23a10.83,10.83,0,0,1-.3,2.22,6.46,6.46,0,0,1-.82,1.86,4.2,4.2,0,0,1-.92,1.08.22.22,0,0,1-.15,0,3.7,3.7,0,0,0-.54-.38.24.24,0,0,1-.06-.18,4.39,4.39,0,0,0,1-1.26,6.31,6.31,0,0,0,.62-1.77,11.89,11.89,0,0,0,.21-2.35v-1.7h-1.13c-.12,0-.16-.07-.16-.24v-.46c0-.15,0-.24.16-.24H311V24.33c0-.07.08-.12.23-.12C311.82,24.21,312.13,24.26,312.13,24.33Zm4.07.23c.09.09.14.15.14.19a.17.17,0,0,1-.11.17.13.13,0,0,0-.14.13c-.12.45-.21.83-.3,1.1h3c.07,0,.12.06.12.18v.46c0,.17-.05.24-.12.24h-3.3c-.09.21-.19.42-.28.6a7.56,7.56,0,0,1-.52.81.54.54,0,0,1-.3-.06c-.18-.07-.36-.15-.54-.21s-.1-.06-.1-.09a.12.12,0,0,1,0-.09,6.07,6.07,0,0,0,.8-1.32c.12-.3.24-.63.36-1s.21-.83.31-1.4c0-.06,0-.09.08-.09ZM318,28.5a.47.47,0,0,1,.26.06c.22.15.32.27.32.35l-1.58,2v.93h1.69c.13,0,.19.06.19.18v.59c0,.16-.06.24-.19.24H317v2c0,.72-.69,1.06-2.06,1.06h-.28c-.06,0-.09-.07-.1-.25a2.19,2.19,0,0,0-.24-.69c0-.08,0-.12,0-.12a1.7,1.7,0,0,0,.58.12c.66,0,1-.17,1-.53V32.84h-1.47c-.12,0-.16-.08-.16-.24V32c0-.12,0-.18.16-.18h1.47V30.44c0-.12.07-.18.24-.18l.09,0,.77-.92h-2.15c-.12,0-.18-.07-.18-.22v-.48c0-.11.06-.17.18-.17Z"/><path class="cls-5" d="M324.69,31.43c.14,0,.22.06.22.18v3.33a1.83,1.83,0,0,0,.2.91.9.9,0,0,0,.42.48,2.57,2.57,0,0,0,.91.32,11.51,11.51,0,0,0,1.52.1h3.09a26.67,26.67,0,0,0,4.26-.4.47.47,0,0,1,.2-.06c.08,0,.13,0,.13.06a6.07,6.07,0,0,0-.27,1.21c0,.17-.11.26-.26.26H328a7.09,7.09,0,0,1-1.16-.09c-.39-.08-.75-.17-1.09-.27a3.3,3.3,0,0,1-.9-.5,3.55,3.55,0,0,1-.6-.9l0-.06c-.09,0-.13,0-.13,0a6.57,6.57,0,0,0-1.79,1.72c0,.06-.07.11-.13.11s-.28-.26-.59-.77a.7.7,0,0,1-.06-.3,12.1,12.1,0,0,0,2.33-1.51.65.65,0,0,0,.07-.36V32.36h-1.81c-.12,0-.18-.08-.18-.23v-.46c0-.15.06-.24.18-.24Zm-.89-2.85q.68.33,1.17.63l-.07.12q-.5.69-.51.69a14.77,14.77,0,0,0-1.58-.84,8.66,8.66,0,0,0-1.12-.45,2.6,2.6,0,0,1,.46-.66c.05-.06.09-.11.14-.11C322.89,28.19,323.4,28.4,323.8,28.58Zm.28-3.53,1.13.63a.26.26,0,0,1-.09.14l-.49.69c-.48-.3-1-.59-1.5-.86a8.49,8.49,0,0,0-1.08-.43,3,3,0,0,1,.46-.66c.05-.06.09-.11.12-.11C323.22,24.68,323.7,24.87,324.08,25.05Zm9.74,4.79c.15,0,.24.06.24.18v2.34c0,.12-.09.18-.24.18h-2.68a2.72,2.72,0,0,0,.29.54,3,3,0,0,0,.57.75c.07.06.11.12.17.16a6,6,0,0,0,.72-.37,5.22,5.22,0,0,0,1-.8l.14,0a3.9,3.9,0,0,1,.81.76c0,.06-.06.09-.15.09s-.3,0-.31.08a8.61,8.61,0,0,1-1.41.88.72.72,0,0,0,.21.12,4.63,4.63,0,0,0,1.44.53s.06,0,.06.06a.23.23,0,0,1-.13.18,5.74,5.74,0,0,0-.4.49.18.18,0,0,1-.18.14,1.26,1.26,0,0,1-.39-.17,6.17,6.17,0,0,1-1.72-1.08,3.64,3.64,0,0,1-.84-1,5.16,5.16,0,0,1-.63-1.33h-.75a11.43,11.43,0,0,1-.83.85v1.7c.81-.12,1.56-.27,2.27-.42l.07,0a.12.12,0,0,1,.12.12,2.09,2.09,0,0,1-.06.69c-1.23.27-2.49.5-3.75.71-.12.24-.22.36-.28.36s-.27-.36-.53-1.11c.35,0,.74-.09,1.17-.17V34.17a2.5,2.5,0,0,1-.36.24,8.87,8.87,0,0,1-1.41.71.29.29,0,0,1-.22-.09c-.17-.17-.33-.33-.5-.48a.29.29,0,0,1,0-.14,7.09,7.09,0,0,0,1.09-.45,6.83,6.83,0,0,0,1.31-.78c.19-.15.45-.36.75-.64h-1.8q-.24,0-.24-.18V30q0-.18.24-.18ZM335,28.2q.12,0,.12.18v.47q0,.18-.12.18h-9.43c-.09,0-.12-.06-.12-.18v-.47c0-.12,0-.18.12-.18Zm-1.17-3.75c.15,0,.24.06.24.18v2.64c0,.12-.09.17-.24.17h-7.26c-.16,0-.24-.05-.24-.17V24.63q0-.18.24-.18Zm-5.22.83h-1.23v1.35h1.23Zm4.4,5.38h-5.51v1.05H333Zm-2.22-5.38h-1.17v1.35h1.17Zm2.22,0h-1.24v1.35H333Z"/><path class="cls-5" d="M350,24.63c.12,0,.17.08.17.23v.48c0,.15-.05.22-.17.22h-4.8v.89h5.44c.15,0,.24.06.24.18v2.74c0,.12-.09.18-.24.18H350q-.24,0-.24-.18v-2h-4.61V30.6c0,.12-.09.18-.24.18h-.59q-.24,0-.24-.18V27.33h-4.74v2c0,.12-.09.18-.24.18h-.58c-.15,0-.23-.06-.23-.18V26.63c0-.12.08-.18.23-.18h5.56v-.89h-4.62c-.12,0-.18-.07-.18-.22v-.48c0-.15.06-.23.18-.23Zm.82,6.68c.11,0,.16.09.16.24V32c0,.17-.05.24-.16.24H345.1c-.15.42-.31.84-.48,1.23H350c.16,0,.25.06.25.17v2.52a1.49,1.49,0,0,1-.23,1c0,.24-.6.47-1.71.71-.21,0-.3-.08-.3-.23a6.67,6.67,0,0,0-.22-.84c.89-.06,1.36-.27,1.39-.64V34.35h-2.34v3c0,.12-.09.18-.24.18H346c-.14,0-.22-.06-.22-.18v-3H343.5v3c0,.12-.08.18-.23.18h-.58c-.17,0-.24-.06-.24-.18v-3h-2.28v3.29c0,.12-.09.18-.24.18h-.59q-.24,0-.24-.18v-4c0-.11.08-.17.24-.17h4.19a7.24,7.24,0,0,0,.34-.69,2.77,2.77,0,0,0,.21-.54h-5.56c-.12,0-.17-.07-.17-.24v-.46c0-.15,0-.24.17-.24ZM343,28.08q.12,0,.12.18v.47q0,.18-.12.18h-2.46c-.09,0-.12-.06-.12-.18v-.47c0-.12,0-.18.12-.18Zm0,1.53q.12,0,.12.18v.47q0,.18-.12.18h-2.46c-.09,0-.12-.06-.12-.18v-.47c0-.12,0-.18.12-.18ZM348.66,28c.07,0,.12.06.12.18v.47c0,.12,0,.18-.12.18h-2.28c-.09,0-.13-.06-.13-.18V28.2c0-.12,0-.18.13-.18Zm0,1.59c.07,0,.12.06.12.18v.47c0,.12,0,.18-.12.18h-2.28c-.09,0-.13-.06-.13-.18v-.47c0-.12,0-.18.13-.18Z"/><path class="cls-5" d="M356.29,27.09V25.28a3.37,3.37,0,0,0-.06-.66.83.83,0,0,1-.06-.29c0-.07.09-.12.29-.12l1.18.17c.11.06.17.1.17.13s-.06.14-.17.14-.3.31-.3.69v1.75h1.59c.11,0,.16.09.16.24v.47c0,.15,0,.22-.16.22h-1.59v3.33c.54-.27,1.07-.57,1.56-.87a.09.09,0,0,1,.08,0,.1.1,0,0,1,.11.1,3.34,3.34,0,0,1,0,.83c-.57.34-1.14.67-1.7,1v4.41c0,.71-.52,1.07-1.57,1.07h-1c-.09,0-.12-.09-.12-.26a2.55,2.55,0,0,0-.28-.69c0-.09,0-.12.12-.12a6.28,6.28,0,0,0,1.17.12c.42,0,.64-.18.64-.52V32.91c-.54.29-1.06.56-1.59.8-.15.28-.25.42-.34.42s-.29-.41-.59-1.23a18.91,18.91,0,0,0,2.43-1c.05,0,.08,0,.09-.05V28h-2c-.12,0-.18-.07-.18-.22v-.47c0-.15.06-.24.18-.24Zm9.6,3.93a.34.34,0,0,1,.24.09,1.56,1.56,0,0,1,.3.5,12.19,12.19,0,0,1-.89,2,7.5,7.5,0,0,1-1,1.47c-.12.12-.23.24-.35.34a6.82,6.82,0,0,0,1.4.77,12.17,12.17,0,0,0,2.16.67c.09,0,.15.06.15.09a.33.33,0,0,1-.08.17,3.65,3.65,0,0,0-.52.52c-.08.09-.14.14-.17.14a2.43,2.43,0,0,1-.27-.11c-.42-.12-.88-.28-1.38-.46a13.47,13.47,0,0,1-1.66-.86l-.41-.3a1.12,1.12,0,0,1-.19.15,10.06,10.06,0,0,1-2,1,10.35,10.35,0,0,1-1.85.56.32.32,0,0,1-.29-.14c-.12-.16-.24-.33-.34-.49a.23.23,0,0,1-.08-.14c0-.06,0-.09.11-.09.48-.1.94-.22,1.39-.36a7.47,7.47,0,0,0,2.16-1,2.51,2.51,0,0,0,.29-.2.92.92,0,0,1-.2-.19,4,4,0,0,1-1-1.38,7.17,7.17,0,0,1-.75-1.85H360c-.12,0-.18-.07-.18-.24v-.46c0-.15.06-.23.18-.23Zm-.81-6.33a.21.21,0,0,1,.23.23v3.69c0,.13,0,.22.11.27a.76.76,0,0,0,.41.09h.3q.19,0,.27-.24a9.35,9.35,0,0,0,.17-1.14c0-.06,0-.09.09-.09l.19.06a3.54,3.54,0,0,0,.48.18c.13,0,.21.1.21.22a13.4,13.4,0,0,1-.37,1.67.58.58,0,0,1-.63.39h-1.23a1.53,1.53,0,0,1-.88-.2.56.56,0,0,1-.18-.46V25.62H362v.72a6,6,0,0,1-.26,1.8,2.74,2.74,0,0,1-.87,1.26,5.07,5.07,0,0,1-1.11.74.31.31,0,0,1-.27-.11c-.14-.18-.27-.34-.39-.51a.24.24,0,0,1-.1-.21,3.45,3.45,0,0,0,1.71-1.54,4.69,4.69,0,0,0,.22-1.47V24.92a.21.21,0,0,1,.24-.23Zm-3,8.24a5.9,5.9,0,0,0,.89,1.41,4.26,4.26,0,0,0,.41.43,4.16,4.16,0,0,0,.42-.42,6.45,6.45,0,0,0,.93-1.42,7.27,7.27,0,0,0,.43-1h-3.43A5.52,5.52,0,0,0,362.09,32.93Z"/><path class="cls-5" d="M374.88,25a.12.12,0,0,1-.13.13.43.43,0,0,0-.34.17,17.78,17.78,0,0,1-1.35,2.7v9.72c0,.12-.09.18-.24.18h-.58c-.17,0-.24-.06-.24-.18v-8.3q-.53.63-1.29,1.44a.38.38,0,0,1-.3-.13l-.47-.39a.22.22,0,0,1-.11-.18c.44-.45.88-.95,1.33-1.46a11.53,11.53,0,0,0,1.5-2.22,13.08,13.08,0,0,0,.87-2.13.12.12,0,0,1,.12-.12C374.46,24.71,374.88,25,374.88,25Zm7.78-.12c.15,0,.24.06.24.18v5c0,.12-.09.18-.24.18h-.58c-.16,0-.23-.06-.23-.18v-.65h-2.23v2.18h4c.13,0,.19.07.19.22v.47c0,.16-.06.24-.19.24h-3.77A11.05,11.05,0,0,0,381,34.05a7.89,7.89,0,0,0,1.57,1.32,5.78,5.78,0,0,0,1.55.74c0,.09-.06.13-.15.16a4.43,4.43,0,0,0-.52.6.3.3,0,0,1-.15.12,9.29,9.29,0,0,1-1.91-1.23A7.73,7.73,0,0,1,380,34.25c-.12-.15-.24-.3-.36-.47v4c0,.12-.08.18-.23.18h-.58c-.17,0-.24-.06-.24-.18V34l-.44.54a11.76,11.76,0,0,1-1.35,1.38,12.8,12.8,0,0,1-1.68,1.17.36.36,0,0,1-.26-.1c-.19-.18-.38-.36-.56-.51a.43.43,0,0,1,0-.15,8.9,8.9,0,0,0,1.31-.77,7.85,7.85,0,0,0,1.54-1.35,18.08,18.08,0,0,0,1.28-1.63h-3.54q-.18,0-.18-.24v-.47c0-.15.06-.22.18-.22h3.75V29.49h-2.18v.71c0,.12-.07.18-.22.18h-.59q-.24,0-.24-.18v-5a.22.22,0,0,1,.24-.24Zm-.81,3.64v-2.7h-5.46v2.7Z"/><path class="cls-5" d="M390.36,24.33c0,.14-.06.21-.15.23s-.15.12-.15.3v1.83H392c.12,0,.18.07.18.22v.47q0,.24-.18.24h-3c0,.79,0,1.48-.05,2.05h2.57c.11,0,.18.08.18.23,0,2.11-.08,3.63-.17,4.54a12.6,12.6,0,0,1-.43,2.45,1.29,1.29,0,0,1-1.4.87c-.63,0-1-.11-1-.3a2.23,2.23,0,0,0-.38-.81v-.12a9.51,9.51,0,0,0,1.35.12c.32,0,.52-.2.63-.6a9.27,9.27,0,0,0,.27-1.89c.06-.72.11-1.91.14-3.56h-1.83c0,.45-.06.83-.09,1.13a21.84,21.84,0,0,1-.47,3,7.58,7.58,0,0,1-.64,1.67,5.57,5.57,0,0,1-.87,1.26c-.27-.29-.51-.54-.71-.77a4.1,4.1,0,0,0,.6-.9,7.86,7.86,0,0,0,.63-1.65,21.32,21.32,0,0,0,.42-2.85c.09-.88.14-2.19.17-3.91h-1.47q-.18,0-.18-.24v-.47c0-.15.06-.22.18-.22H389V24.33c0-.1.08-.16.25-.16C390,24.17,390.36,24.23,390.36,24.33Zm8.26,4.32a5.15,5.15,0,0,1-1.66.78l0,0a11.64,11.64,0,0,0,.26,2.31.27.27,0,0,0,0,.16s.09,0,.12-.07a5.84,5.84,0,0,0,.93-.66,6.06,6.06,0,0,0,.66-.78.16.16,0,0,1,.1-.09l.92.64c.12.09.2.18.2.29s-.08.12-.23.12a.46.46,0,0,0-.33.1,10.35,10.35,0,0,1-2.11,1.46,6.14,6.14,0,0,0,.22.73,7,7,0,0,0,.89,1.64A9.87,9.87,0,0,0,400.14,37c0,.06-.05.11-.14.17l-.6.43a.41.41,0,0,1-.25.11A10,10,0,0,1,398,36.44,7.52,7.52,0,0,1,397,34.7a11.32,11.32,0,0,1-.71-2.25,19.09,19.09,0,0,1-.33-2.81,6.32,6.32,0,0,1-1.06.09v6.32c.54-.17,1.16-.38,1.81-.63.08,0,.13.06.13.16s-.11.42-.14.6-.06.27-.17.29a29.18,29.18,0,0,1-3.52.94c-.16,0-.25.08-.28.18s-.09.17-.12.17a.19.19,0,0,1-.2-.14l-.33-.87a.17.17,0,0,1,.14-.18c.69-.09,1.2-.15,1.53-.22l.09,0V28.61c0-.11.06-.17.18-.17l.82.32a7.35,7.35,0,0,0,1.62-.21,4.53,4.53,0,0,0,1.79-.84.24.24,0,0,1,.16-.09.26.26,0,0,1,.18.09c.5.4.75.67.75.79s-.06.29-.16.29l-.36-.18A.33.33,0,0,0,398.62,28.65Zm-3.51-4c.11.09.17.15.17.21a.17.17,0,0,1-.12.17.16.16,0,0,0-.18.16c-.11.39-.2.74-.29,1h4.74c.12,0,.18.09.18.24v.46c0,.17-.06.24-.18.24h-5.09c-.17.42-.37.83-.55,1.19a6.68,6.68,0,0,1-.69,1,1,1,0,0,1-.31,0c-.2-.08-.39-.15-.59-.21s-.09-.06-.09-.09a.14.14,0,0,1,.05-.11,7.63,7.63,0,0,0,1-1.62,7.7,7.7,0,0,0,.46-1.17,14.06,14.06,0,0,0,.4-1.68c0-.07.05-.12.1-.12Z"/><path class="cls-5" d="M408.17,28.2a.3.3,0,0,1-.23.3.69.69,0,0,0-.35.17A10.64,10.64,0,0,1,406,30.21v7.43c0,.12-.09.18-.24.18h-.59q-.24,0-.24-.18V31a23.35,23.35,0,0,1-2,1.26,7.05,7.05,0,0,0-.66-.64.4.4,0,0,1-.1-.18s0-.06.07-.09a12,12,0,0,0,2.91-1.88A13.88,13.88,0,0,0,407,27.53a.22.22,0,0,1,.17-.09A5.29,5.29,0,0,1,408.17,28.2ZM407.28,25a.38.38,0,0,1,.19.3c0,.09-.07.12-.22.12a.69.69,0,0,0-.5.15A15.36,15.36,0,0,1,403.38,28a.29.29,0,0,1-.23-.1,4.55,4.55,0,0,0-.43-.44.24.24,0,0,1-.11-.15s0-.07.09-.1a4.81,4.81,0,0,0,1.08-.59,7.67,7.67,0,0,0,1.41-1,7.3,7.3,0,0,0,1-1.16c.05-.09.12-.15.16-.15ZM415.67,29c.12,0,.18.07.18.22v.48c0,.15-.06.23-.18.23h-2.21v6.79c0,.75-.62,1.13-1.82,1.13l-1.23-.06c-.08,0-.1-.11-.1-.29a2.53,2.53,0,0,0-.26-.78v0a8.2,8.2,0,0,0,1.53.16c.54,0,.81-.18.81-.52V30H408.3c-.13,0-.18-.08-.18-.23v-.48c0-.15.05-.22.18-.22Zm-.82-4c.12,0,.18.09.18.24v.46c0,.17-.06.24-.18.24h-5.79c-.12,0-.18-.07-.18-.24v-.46c0-.15.06-.24.18-.24Z"/><path class="cls-5" d="M431.09,24.86c.13,0,.18.06.18.18v.58c0,.17,0,.24-.18.24h-5.2v5.91h5.91A.16.16,0,0,1,432,32v.59q0,.24-.18.24h-5.91V37.7q0,.18-.3.18H425c-.16,0-.23-.06-.23-.18V32.78h-6q-.18,0-.18-.24V32a.16.16,0,0,1,.18-.18h6V25.86H419.5c-.12,0-.18-.07-.18-.24V25a.16.16,0,0,1,.18-.18Zm-8.86,4a11.25,11.25,0,0,1,.6,1.69c0,.06-.36.18-1.05.36a9.88,9.88,0,0,0-.43-1.47,14.63,14.63,0,0,0-1-2c0-.06.29-.24.88-.53A19.68,19.68,0,0,1,422.23,28.85Zm8.27-1.43c.08.08.13.14.13.2s-.07.16-.2.18-.31.1-.34.22A20.57,20.57,0,0,1,428.64,31c-.15,0-.24,0-.26-.07l-.73-.45a9.73,9.73,0,0,0,1-1.65,15,15,0,0,0,.64-1.79.22.22,0,0,1,.2-.15Z"/><path class="cls-5" d="M442.34,28.34a1,1,0,0,1,.08.16q0,.16-.18.18c-.28,0-.43.08-.46.17l-.94,1.53h7.08c.12,0,.18.06.18.16v.59q0,.24-.18.24H445a11.31,11.31,0,0,1-.63,1.45,7.37,7.37,0,0,1-1.08,1.68c-.1.11-.19.2-.26.29l.45.21q2.31,1.17,3.93,2.11l-.07.14-.51.69a46.17,46.17,0,0,0-4.62-2.45c-.15.11-.29.2-.44.29a11.83,11.83,0,0,1-2,1,29.82,29.82,0,0,1-3.41,1.11c-.12,0-.18,0-.19-.11a6.16,6.16,0,0,1-.45-.7c-.09-.08-.12-.14-.12-.2a4.51,4.51,0,0,0,1.05-.19,18.49,18.49,0,0,0,1.84-.47,15.08,15.08,0,0,0,2.25-1l.39-.27c-1.14-.48-2.11-.85-2.92-1.11l-.68.81a.26.26,0,0,1-.21-.09c-.19-.09-.39-.16-.6-.24s-.07-.06-.07-.15c.9-1.08,1.59-2,2.1-2.71a1,1,0,0,1,.1-.15h-4q-.18,0-.18-.24v-.59c0-.1.06-.16.18-.16h4.64a16,16,0,0,0,.94-1.61,8,8,0,0,0,.51-1.09q0-.12.12-.12Zm0-3.83c0,.14-.06.21-.15.23s-.15.12-.15.3v.76h5.16c.15,0,.24.06.24.18v2.93c0,.12-.09.18-.24.18h-.58c-.15,0-.23-.06-.23-.18V26.73h-10.2v2.18c0,.12-.09.18-.24.18h-.58c-.15,0-.23-.06-.23-.18V26a.21.21,0,0,1,.23-.24H441V24.51q0-.18.24-.18Q442.36,24.33,442.36,24.51Zm-2.17,6.86,0,0c-.36.51-.78,1.08-1.28,1.71,1.19.44,2.24.84,3.13,1.22l.07-.05a6.35,6.35,0,0,0,1.12-1.47,6.79,6.79,0,0,0,.69-1.45Z"/><path class="cls-5" d="M455.5,25c0,.09,0,.13-.12.13s-.3.08-.34.17a18.76,18.76,0,0,1-1.35,2.7v9.72c0,.12-.09.18-.24.18h-.59q-.24,0-.24-.18v-8.3c-.34.42-.78.9-1.29,1.44a.39.39,0,0,1-.3-.13l-.46-.39a.2.2,0,0,1-.11-.18c.44-.45.87-.95,1.32-1.46a11.53,11.53,0,0,0,1.5-2.22,13.08,13.08,0,0,0,.87-2.13c0-.07.06-.12.12-.12C455.08,24.71,455.5,25,455.5,25Zm7.79-.12c.14,0,.23.06.23.18v5c0,.12-.09.18-.23.18h-.59c-.15,0-.22-.06-.22-.18v-.65h-2.24v2.18h4c.12,0,.18.07.18.22v.47q0,.24-.18.24h-3.78a10.25,10.25,0,0,0,1.19,1.45,7.36,7.36,0,0,0,1.57,1.32,5.87,5.87,0,0,0,1.54.74c0,.09-.05.13-.15.16a5.27,5.27,0,0,0-.52.6c-.06.08-.12.12-.15.12a9.19,9.19,0,0,1-1.9-1.23,7.79,7.79,0,0,1-1.43-1.51c-.12-.15-.24-.3-.36-.47v4c0,.12-.07.18-.23.18h-.58c-.17,0-.24-.06-.24-.18V34c-.16.21-.31.39-.44.54a11.68,11.68,0,0,1-1.34,1.38,14.29,14.29,0,0,1-1.68,1.17.35.35,0,0,1-.26-.1c-.19-.18-.39-.36-.57-.51a.37.37,0,0,1,0-.15,8.26,8.26,0,0,0,1.3-.77,7.61,7.61,0,0,0,1.55-1.35A20.55,20.55,0,0,0,459,32.6h-3.54q-.18,0-.18-.24v-.47c0-.15.06-.22.18-.22h3.75V29.49H457v.71c0,.12-.08.18-.23.18h-.58c-.17,0-.24-.06-.24-.18v-5a.21.21,0,0,1,.24-.24Zm-.81,3.64v-2.7H457v2.7Z"/><path class="cls-5" d="M470.62,24.51a.74.74,0,0,1,.36.08c.23.19.35.33.35.39L470,28.76a.68.68,0,0,0,0,.21.33.33,0,0,0,.07.21,8,8,0,0,1,.8,1.66,7,7,0,0,1,.31,2.06,3.83,3.83,0,0,1-.21,1.29,1.5,1.5,0,0,1-.64.81,1.41,1.41,0,0,1-.92.24q-.36,0-.36-.24a2.15,2.15,0,0,0-.22-.77c0-.06.06-.1.18-.1l.64.06c.18,0,.32-.14.41-.41a2.86,2.86,0,0,0,.12-.88,6.17,6.17,0,0,0-.26-1.64,8.79,8.79,0,0,0-1-2,.19.19,0,0,1-.09-.16.91.91,0,0,1,0-.23l1.41-3.52h-2V37.64c0,.12-.07.18-.22.18h-.59a.16.16,0,0,1-.18-.18V24.69a.16.16,0,0,1,.18-.18Zm5.89.29c.1.07.16.13.16.18s-.11.18-.3.18a.75.75,0,0,0-.23,0,10.07,10.07,0,0,0,.9,1.23,7,7,0,0,0,1.3,1.15,7.17,7.17,0,0,0,2.15,1.13c.09,0,.15.06.15.09a.2.2,0,0,1-.07.16c-.22.18-.4.35-.56.5s-.09.1-.12.1a6.36,6.36,0,0,1-1.57-.81l-.26-.18v.35c0,.16-.05.24-.1.24H473.5c-.09,0-.12-.08-.12-.24v-.47c0-.12,0-.18.12-.18h4.16a5.88,5.88,0,0,1-1-.9,10.76,10.76,0,0,1-1.17-1.48,10.91,10.91,0,0,1-.8,1,11.13,11.13,0,0,1-1,1,15,15,0,0,1-1.22,1,7.71,7.71,0,0,1-1,.61.26.26,0,0,1-.22-.13,2.27,2.27,0,0,0-.43-.53c-.12-.06-.17-.12-.17-.16s0-.05.07-.08a7.15,7.15,0,0,0,1.42-.75,9.67,9.67,0,0,0,1.56-1.3,6.24,6.24,0,0,0,.85-1,8.14,8.14,0,0,0,.66-1.14.28.28,0,0,1,.19-.14Zm-2.32,9.51c.07.06.12.12.12.16s-.07.18-.23.18a.26.26,0,0,0-.24.14,6.23,6.23,0,0,1-.33.6,6.24,6.24,0,0,0,.61.82A4.45,4.45,0,0,0,475,37a.24.24,0,0,1,.08.16,2.42,2.42,0,0,1-.53.65.19.19,0,0,1-.1,0A9.57,9.57,0,0,1,473,36.15c-.12.18-.24.33-.37.5l-.64.72-.53.45a.22.22,0,0,1-.2-.14,2.26,2.26,0,0,0-.42-.49c-.09-.06-.14-.11-.14-.14s0,0,.05,0a6.76,6.76,0,0,0,.71-.57,5.06,5.06,0,0,0,.82-1,4.56,4.56,0,0,0,.43-.72,6.1,6.1,0,0,0,.34-.84c0-.06.08-.09.11-.09Zm.77-4.17c.15,0,.24.06.24.18v3c0,.12-.09.18-.24.18h-2.75q-.24,0-.24-.18v-3q0-.18.24-.18Zm-.75.88H473v1.64h1.23Zm4.54,3.29c.09.06.14.12.14.16s-.08.18-.23.18a.27.27,0,0,0-.25.14c-.12.25-.24.48-.35.66a6,6,0,0,0,.81.84,8.64,8.64,0,0,0,1.3.88.22.22,0,0,1-.09.21c-.15.12-.33.29-.55.5a.14.14,0,0,1-.09-.05,4,4,0,0,1-.87-.58c-.3-.29-.61-.65-1-1.07a5.16,5.16,0,0,1-.35.51c-.21.26-.44.5-.65.72s-.39.36-.51.47a.26.26,0,0,1-.22-.14,2.22,2.22,0,0,0-.41-.49c-.09-.06-.13-.11-.13-.14s0,0,0-.06a4.44,4.44,0,0,0,.74-.55,6.5,6.5,0,0,0,.81-1,5.4,5.4,0,0,0,.44-.75,5.63,5.63,0,0,0,.34-.84c0-.06.08-.1.11-.1Zm.5-4.17c.15,0,.22.06.22.18v3c0,.12-.07.18-.22.18h-2.76c-.17,0-.24-.06-.24-.18v-3c0-.12.07-.18.24-.18Zm-.77.88h-1.23v1.64h1.23Z"/><path class="cls-5" d="M487.05,25.62c.15,0,.24.06.24.18v7.56c0,.12-.09.18-.24.18h-.59q-.24,0-.24-.18v-.64h-1.81v1.87c0,.12-.08.18-.23.18h-.6c-.15,0-.22-.06-.22-.18V25.86c0-.15.07-.24.22-.24Zm-.83,6.15v-5.2h-1.81v5.2Zm2.06,2.43c.12,0,.18.06.18.15a10.9,10.9,0,0,1-1.07,2.7l-.1.12a.84.84,0,0,1-.35-.06,4.37,4.37,0,0,0-.55-.19.2.2,0,0,1-.11-.17,7.39,7.39,0,0,0,1.19-2.43c0-.12.11-.19.28-.19ZM493,27h2.58c.12,0,.18.09.18.24v.47c0,.15-.06.22-.18.22H493v1.41h2.58c.12,0,.18.09.18.24v.47q0,.24-.18.24H493v1.45h3.28c.12,0,.18.09.18.24,0,1.56-.09,2.67-.18,3.35a6.11,6.11,0,0,1-.48,1.81c-.19.42-.7.65-1.51.65-.6,0-.91-.11-.92-.3a2.83,2.83,0,0,0-.37-.81v-.12a8.72,8.72,0,0,0,1.29.12.71.71,0,0,0,.73-.44,4.18,4.18,0,0,0,.31-1.32c.06-.48.13-1.21.16-2.23H489.5v.52c0,.12-.08.18-.23.18h-.59c-.15,0-.22-.06-.22-.18V24.86c0-.15.07-.23.22-.23H496c.1,0,.16.08.16.23v.48c0,.15-.06.22-.16.22h-3Zm-3,7.2c.12,0,.18.05.18.12a24,24,0,0,1,.12,2.46c0,.12-.07.18-.2.18h-.61c-.21,0-.3-.06-.3-.18.06-.72.11-1.54.11-2.46,0-.07.06-.12.18-.12ZM489.5,27h2.41V25.56H489.5Zm2.41.93H489.5v1.41h2.41Zm0,3.81V30.32H489.5v1.45Zm-.12,2.4a15.59,15.59,0,0,1,.52,2.36c0,.06-.07.1-.23.13l-.76.05c-.06,0-.1-.06-.1-.18-.05-.72-.13-1.49-.24-2.3,0-.09,0-.15.13-.15h.51A.19.19,0,0,1,491.79,34.17Zm1.68-.52a12.85,12.85,0,0,1,.95,2c0,.14-.07.2-.22.2l-.7.16a.17.17,0,0,1-.18-.16,11,11,0,0,0-.71-2c0-.08.05-.12.15-.15l.56-.14A.44.44,0,0,1,493.47,33.65Z"/><path class="cls-5" d="M508.67,29.24c-.38.4-.77.81-1.17,1.2a4.06,4.06,0,0,0-1,2.77h-1.09a5.09,5.09,0,0,1,1.44-3.58l.86-.89a1.67,1.67,0,0,0,.46-1.11,1.17,1.17,0,0,0-.47-.93,1.94,1.94,0,0,0-1.21-.37c-1.1,0-1.67.51-1.7,1.51h-1.09a2.6,2.6,0,0,1,.67-1.74,2.79,2.79,0,0,1,2.12-.78,3.23,3.23,0,0,1,1.86.54,2.08,2.08,0,0,1,.91,1.77A2.45,2.45,0,0,1,508.67,29.24Zm-3.5,7.24V35h1.53v1.53Z"/><path class="cls-5" d="M131.37,36.11a13.14,13.14,0,0,0,2.79,1.53l-.64,1.52a12.66,12.66,0,0,1-3.53-2,8.08,8.08,0,0,1-4.05,1,7.77,7.77,0,0,1-4-1.08,7.2,7.2,0,0,1-2.8-3,9.63,9.63,0,0,1-1-4.41,9.84,9.84,0,0,1,1-4.43,7,7,0,0,1,2.82-3.05,8.09,8.09,0,0,1,4.08-1,7.93,7.93,0,0,1,4.11,1.08,7.14,7.14,0,0,1,2.79,3,9.77,9.77,0,0,1,1,4.39,10.25,10.25,0,0,1-.62,3.66A7.63,7.63,0,0,1,131.37,36.11Zm-4.8-2.78a7.93,7.93,0,0,1,3.11,1.57,6.78,6.78,0,0,0,1.92-5.27,8.27,8.27,0,0,0-.68-3.49,5.18,5.18,0,0,0-2-2.32,5.68,5.68,0,0,0-7,.84,7,7,0,0,0-1.61,5,7,7,0,0,0,1.59,4.93A5.27,5.27,0,0,0,126,36.29a5.44,5.44,0,0,0,2.2-.44,7.13,7.13,0,0,0-2.16-.94Z"/></g></g></svg>