<svg xmlns="http://www.w3.org/2000/svg" viewBox="0 0 48.76 48.76"><defs><style>.cls-1{fill:#10837c;}.cls-2{fill:#fff;}</style></defs><title>資產 5</title><g id="圖層_2" data-name="圖層 2"><g id="側邊按鈕"><circle class="cls-1" cx="24.38" cy="24.38" r="24.38"/><path class="cls-2" d="M12.64,10.57v4.72a8.38,8.38,0,0,0,1.44-1c.07-.06.15-.12.24-.21-.36-.3-.74-.61-1.13-.88l.87-.87a11.63,11.63,0,0,1,1.07.83,6.91,6.91,0,0,0,.53-.83l.27-.53H13.12v-1.2h3.31c.14-.36.27-.75.41-1.17l1.21.52a.31.31,0,0,1,.15.25c0,.09-.12.16-.36.24a.82.82,0,0,0-.06.16h4v1.2H18.88a7,7,0,0,0,.74,1.31,5.65,5.65,0,0,0,.94-.78l1,.34c.16,0,.26.09.26.19s-.1.15-.25.22a6.25,6.25,0,0,1-1.17.92,8.73,8.73,0,0,0,1.82,1.39L21,16.24a5.14,5.14,0,0,1-.65-.53v3.72H18.14V21.5a1.33,1.33,0,0,1-.45,1.1,3,3,0,0,1-1.86.38l-.53-1.3h1c.33,0,.53-.14.56-.43V19.43H14.3V15.7a10.69,10.69,0,0,1-1,.66l-.71-.71v5.79H9.82v1.35H8.64V10.57ZM11.46,13.7V11.77H9.82V13.7Zm0,3.31V14.83H9.82V17Zm0,3.25V18.13H9.82v2.13Zm3.7-.06c.17,0,.26.09.26.18s-.09.15-.24.22a8.3,8.3,0,0,1-1.59,2l-.95-.75a6.87,6.87,0,0,0,1.54-2Zm3.92-3.78v-.88H15.6v.88Zm0,1.12H15.6v.71h3.48Zm0-3.19a9.73,9.73,0,0,1-1.35-2.58h-.48a14.68,14.68,0,0,1-1,1.87c-.18.24-.37.48-.56.71Zm2.63,7.45-1.18.75a10.49,10.49,0,0,0-1.83-1.82l.94-.76A11.38,11.38,0,0,1,21.74,21.8Z"/><path class="cls-2" d="M30.11,9.52c.16,0,.25.09.25.18s-.09.18-.24.29-.24.4-.36.58h1.78l.3-.1a.63.63,0,0,1,.32.1l.67.43c.09.06.13.12.13.16s-.1.25-.3.37L31.59,13H32.9v4.86a10.72,10.72,0,0,0,1.42-2.92l1.09.37c.13,0,.21.1.21.16s0,.11-.12.17a1.55,1.55,0,0,0-.3.6h1.19v-1.6l1.19.11c.22,0,.34.07.34.19s-.09.17-.25.29v1h2.2v1.18h-2.2V19h2.5V20.2h-2.5V23H36.39V20.2H33.14V19h3.25V17.37H34.68A11,11,0,0,1,34,18.55l-1.12-.62v3.81A1.1,1.1,0,0,1,32,22.87a4.16,4.16,0,0,1-1.31.23l-.49-1.24,1,0a.42.42,0,0,0,.42-.46V19.85H28.38a16.36,16.36,0,0,1-.78,3.07l-1.25-.65a12.8,12.8,0,0,0,.84-2.95,26.5,26.5,0,0,0,.29-3.78V13.37l-.3.29-1-.83a12.86,12.86,0,0,0,2.88-3.66ZM30.23,13l.84-1.3H29A16,16,0,0,1,27.9,13Zm-.64,5.72V17h-.9c0,.6-.09,1.18-.15,1.72Zm0-2.9V14.12h-.87v1.65Zm1.14,0h.93V14.12h-.93Zm0,2.9h.93V17h-.93Zm9.08-8.75a14.62,14.62,0,0,1-.23,3.4,1.25,1.25,0,0,1-.58.94,3.48,3.48,0,0,1-1.61.27l-.59-1.24a3.66,3.66,0,0,0,1.33-.13.75.75,0,0,0,.3-.5,5.73,5.73,0,0,0,.18-1.54h-1.9a4.39,4.39,0,0,1-.56,2A4.41,4.41,0,0,1,34,14.71l-1-1.05a4.49,4.49,0,0,0,2-1.23,2.82,2.82,0,0,0,.39-1.31h-1.8V9.92Z"/><path class="cls-2" d="M21.43,27.82V29H15.89v1.18h4.55v6.25H19.08v-.71H15.87a5.86,5.86,0,0,1-.49,2.19.74.74,0,0,1-.09.18,11.7,11.7,0,0,0,2.64.85,28.35,28.35,0,0,0,4.11.68L21,41a35.89,35.89,0,0,1-4.11-.91,14.38,14.38,0,0,1-2.5-1,4.11,4.11,0,0,1-.65.47A11.61,11.61,0,0,1,9.58,41l-1-1.3a11.75,11.75,0,0,0,3.79-.88,3.45,3.45,0,0,0,.8-.45,8,8,0,0,1-1.71-1.63l1.18-.59A6.68,6.68,0,0,0,14,37.41a3.89,3.89,0,0,0,.47-1.69H11.3v.71H9.94V30.18h4.59V29H8.76V27.82Zm-6.9,4.59V31.29H11.3v1.12Zm0,2.19V33.48H11.3V34.6Zm1.36-2.19h3.19V31.29H15.89Zm0,2.19h3.19V33.48H15.89Z"/><path class="cls-2" d="M37.37,32.91a.28.28,0,0,1,.2.27c0,.14-.17.21-.48.24-.34.28-.65.53-1,.77h2.63l.12-.12a.25.25,0,0,1,.17.08l.87.68a.31.31,0,0,1,.2.24c0,.15-.17.27-.49.36a23.64,23.64,0,0,1-5.74,4A22.91,22.91,0,0,1,27,41.14l-.42-1.24a21.45,21.45,0,0,0,6.63-1.48,9.09,9.09,0,0,0-1.15-1l1-.88a15.22,15.22,0,0,1,1.51,1.22,15,15,0,0,0,3.13-2.4H34.41a24.78,24.78,0,0,1-4.88,2.36l-.87-1.18a18.36,18.36,0,0,0,4-1.62,15.39,15.39,0,0,0,3.61-2.62Zm-3.11-5.06a.26.26,0,0,1,.18.26q0,.2-.48.24l-.5.47h2.87l.11-.12a.25.25,0,0,1,.18.08l.87.69a.27.27,0,0,1,.18.24c0,.15-.16.25-.46.34a19.14,19.14,0,0,1-4.55,3.66,16.18,16.18,0,0,1-5.48,1.54L26.77,34a15.08,15.08,0,0,0,4.62-1.09,10.34,10.34,0,0,0-1.09-1l.95-.89a13.2,13.2,0,0,1,1.44,1.21A11.7,11.7,0,0,0,35.33,30H32a19,19,0,0,1-4,2.25l-.83-1.13a13.38,13.38,0,0,0,3.17-1.45,11.72,11.72,0,0,0,2.85-2.38Z"/></g></g></svg>