<svg xmlns="http://www.w3.org/2000/svg" viewBox="0 0 48.76 48.76"><defs><style>.cls-1{fill:#fd903d;}.cls-2{fill:#fff;}</style></defs><title>資產 4</title><g id="圖層_2" data-name="圖層 2"><g id="側邊按鈕"><circle class="cls-1" cx="24.38" cy="24.38" r="24.38"/><path class="cls-2" d="M11.34,8.1c.14.06.21.12.21.19s-.12.27-.35.35c-.39,1-.73,1.83-1.07,2.55V21H8.83V13.61c-.31.51-.65,1-1,1.58l-1-1A23.64,23.64,0,0,0,8.7,11.09a28.65,28.65,0,0,0,1.43-3.57Zm7.71.07V12.9H16v1.3h4.18v1.18H16.55a11.47,11.47,0,0,0,1.72,2,15.18,15.18,0,0,0,2.48,1.66l-1.12,1.18a11.81,11.81,0,0,1-2.37-2.08A11.13,11.13,0,0,1,16,16.49V21h-1.3V16.66c-.39.6-.75,1.1-1.09,1.53a10.16,10.16,0,0,1-2.22,2L10.37,19a7.75,7.75,0,0,0,2.27-1.6,12.31,12.31,0,0,0,1.6-2H10.66V14.2h4.08V12.9h-3V8.17ZM17.69,9.35H13.15v2.36h4.54Z"/><path class="cls-2" d="M29.79,8.05c0-.26,0-.53,0-.82l1.21,0c.21,0,.32.06.32.12a.88.88,0,0,1-.23.3v.35h1.95V7.23l1.2.09c.21,0,.33.1.33.2s-.08.17-.23.3v.23H38v2.78H34.35v.65H38.6c0,1-.08,1.68-.14,2.16a2,2,0,0,1-.33,1,1.43,1.43,0,0,1-.89.34L37,14.53v4.68H34.12a34.51,34.51,0,0,0,4.72.82l-1.08,1.12a35,35,0,0,1-5-1.35l.54-.59H30.36l.56.44a.27.27,0,0,1,.12.21c0,.06-.1.12-.3.17a45.34,45.34,0,0,1-4.59,1.12l-1.07-1a24.47,24.47,0,0,0,4.27-.94H26.8v-4.5a2.2,2.2,0,0,1-.43.18l-1.29-.75a17.47,17.47,0,0,0,1.72-.73v-.22h.42A8.79,8.79,0,0,0,28,12.7a1.29,1.29,0,0,0,.18-.16h-1.4c-.06.19-.11.37-.15.52l-1.3-.28A28.24,28.24,0,0,0,26,9.41l1.3.36h2.34c0-.19,0-.41.07-.65H26V8.05ZM29.37,11a.7.7,0,0,1,.06-.17H27.15c0,.24-.1.45-.14.65h2.08Zm6.34,3.89v-.65H28.1v.65Zm0,1.66v-.71H28.1v.71Zm0,.94H28.1v.65h7.61Zm-2.66-4.3v-.65H29.88a4.88,4.88,0,0,1-.57.65Zm0-2.36H30.74c-.08.24-.15.47-.23.65h2.54ZM31,9.77h2.08V9.12H31C31,9.36,31,9.58,31,9.77Zm3.38,0h2.3V9.12h-2.3ZM37,13.19v.4a.49.49,0,0,0,.24-.4c0-.16,0-.38,0-.65H34.35v.65Z"/><path class="cls-2" d="M12.14,27.82V29H7.07V27.82Zm-.29,6.27v4.65H10.62v-.65H8.67v.77H7.43V34.09Zm-.3-8.21V27H7.72V25.88Zm0,4.07v1.11H7.72V30Zm0,2.07v1.11H7.72V32ZM10.62,37V35.2H8.67V37Zm5.3-5.26v1.12H14.74v3a15,15,0,0,0,1.59-.56v1.06c-.73.35-1.86.8-3.42,1.36-.1.15-.21.23-.3.23s-.15-.08-.15-.21l-.32-1.26a13.13,13.13,0,0,0,1.36-.28V32.83H12.38V31.71Zm.23-3.35c0-1,0-2,0-3.13l1.33.28c.16,0,.26.1.26.19a.64.64,0,0,1-.23.41c0,.8,0,1.56,0,2.25h3.1v1.18H17.53a37.54,37.54,0,0,0,.35,3.85,12.78,12.78,0,0,0,.86,3.23c.15.37.31.53.43.53s.28-.68.52-2.07l1.12.94c-.62,2-1.15,3-1.58,3s-.74-.41-1.23-1.19a12.91,12.91,0,0,1-1.46-4.5,30.25,30.25,0,0,1-.35-3.75H12.5V28.36Zm4.26-1.07-.9.83a11.12,11.12,0,0,0-1.64-1.65l.83-.77A13.12,13.12,0,0,1,20.41,27.29Z"/><path class="cls-2" d="M28.64,25.7q.27,0,.27.18c0,.11-.13.2-.41.29a1.73,1.73,0,0,1-.13.24h3.56v1.12H30.17a4.8,4.8,0,0,1,.51.89l-1.12.23a8.14,8.14,0,0,0-.71-1.12H27.66a13.73,13.73,0,0,1-1.35,1.65l-1.17-.59a10.76,10.76,0,0,0,2.25-3.19Zm5.79,0q.27,0,.27.18c0,.11-.14.2-.41.29,0,.09-.09.18-.12.24h4.37v1.12h-2a7.47,7.47,0,0,1,.49.89l-1.12.23a10.36,10.36,0,0,0-.67-1.12H33.6a12.66,12.66,0,0,1-.82,1.24h4V34.9H35v.77h3.54v1.12H35V39H33.76V36.79H30.12a4.66,4.66,0,0,1-.86,1.37,4.79,4.79,0,0,1-1.4,1l-1.18-.94a4.39,4.39,0,0,0,1.42-.79,3.08,3.08,0,0,0,.56-.63H25.32V35.67h3.83a5.86,5.86,0,0,0,.14-.77h-1.9V28.77H32l-.6-.3a10.28,10.28,0,0,0,1.78-3.07Zm1,4.84v-.71H28.69v.71Zm0,1.66v-.65H28.69v.65Zm0,1H28.69v.65h6.78ZM33.76,34.9H30.53c0,.29-.08.55-.11.77h3.34Z"/></g></g></svg>