<svg xmlns="http://www.w3.org/2000/svg" viewBox="0 0 184.49 111.38"><defs><style>.cls-1{fill:#009e96;}.cls-2{fill:#fff;}</style></defs><title>資產 14</title><g id="圖層_2" data-name="圖層 2"><g id="Cut3_輕鬆瞭解保障內容"><path class="cls-1" d="M7.69,95.76A16,16,0,0,1,6,96.39v3h4.33c-.07-1.52-.09-3.34-.09-5.43l1.73.19c.26.06.42.15.42.27s-.16.36-.46.66c0,1.64,0,3.08.08,4.31h5v1.56h-5c.08,1.07.17,2,.29,2.68a9.86,9.86,0,0,0,.32,1.5,25.51,25.51,0,0,0,2.07-3l1.5.76a.49.49,0,0,1,.21.36c0,.12-.19.21-.53.29A23.2,23.2,0,0,1,13.28,107a8,8,0,0,0,.47,1.05c.46.91.86,1.35,1.16,1.35.12,0,.23-.1.36-.31a11.29,11.29,0,0,0,.82-2.37l1.41,1.19a11,11,0,0,1-1,2.47c-.46.67-.93,1-1.43,1a2.07,2.07,0,0,1-1.46-.82A8.81,8.81,0,0,1,12,108.15a26.78,26.78,0,0,1-3.27,2.2l-1.28-1.27a19,19,0,0,0,3.35-2.15c.19-.15.36-.3.53-.45a19.45,19.45,0,0,1-.82-3.88c0-.49-.09-1.06-.13-1.67H6v2.83c1-.24,1.88-.53,2.81-.83v1.55c-.75.27-1.69.57-2.81.92v4a1.55,1.55,0,0,1-.79,1.44,7.12,7.12,0,0,1-3.37.49l-.66-1.71h2c.69,0,1.07-.17,1.12-.53v-3.19c-1,.29-2.09.59-3.26.89-.14.27-.25.38-.36.38s-.23-.09-.23-.3L0,105c1.44-.21,2.89-.48,4.29-.82v-3.27H.44V99.37H4.29V96.89c-.91.22-1.82.41-2.73.55L.44,95.88a17.24,17.24,0,0,0,3.74-.57,17.78,17.78,0,0,0,3.46-1.22l1.21,1.2a.38.38,0,0,1,.12.28c0,.12-.08.16-.21.16l-.48-.1A2.19,2.19,0,0,0,7.69,95.76Zm9.07,1.32-1.26,1.1A15.9,15.9,0,0,0,13,96.26l1.19-1.12A16.81,16.81,0,0,1,16.76,97.08Z"/><path class="cls-1" d="M27.15,96.54a26.86,26.86,0,0,0,1.08-2.6l1.33.53c.25.08.38.21.38.36s-.13.19-.36.23c-.23.53-.43,1-.64,1.48h9V98H28.21c-.41.77-.81,1.44-1.19,2h8.56v9.35a1.5,1.5,0,0,1-1.25,1.55,6.84,6.84,0,0,1-1.94.31l-.66-1.64,1.56,0a.63.63,0,0,0,.66-.71v-1h-7.2v3.27H25.12v-8.84a16,16,0,0,1-3.19,2.3l-1.11-1.63A10.62,10.62,0,0,0,25,99.77,11.79,11.79,0,0,0,26.35,98H21.26V96.54Zm6.8,6.77v-1.79h-7.2v1.79Zm0,3.11v-1.71h-7.2v1.71Z"/><path class="cls-1" d="M57.81,95.44V97H51.43v4.37H57v1.56H51.43v5.49h7.28v1.63H42.39v-1.63h7.35v-5.49H44v-1.56h5.79V97H43.28V95.44Zm-.28,11.13-1.56,1a16.36,16.36,0,0,0-2.6-3l1.18-1A19.17,19.17,0,0,1,57.53,106.57Z"/><path class="cls-1" d="M72.45,94.3c.32,0,.49.1.49.25s-.13.28-.38.51v12.33h4.83v-9.5l1.67.12c.3,0,.47.11.47.24s-.13.25-.36.44V111H77.39v-1.94h-12V111H63.57V97.89l1.7.12c.3,0,.47.11.47.24s-.13.25-.38.44v8.7H70.7V94.17Z"/><path class="cls-1" d="M89.3,94.53c.15.08.23.15.23.23s-.15.3-.44.38l0,0a15.36,15.36,0,0,0,3.29,3.09l-1.2,1a3.34,3.34,0,0,1-.38-.34v1.44h-2v2.09H91.6V104H88.79v4.79c.91-.12,1.8-.25,2.68-.42v1.35c-1.43.28-3.65.68-6.69,1.18-.13.19-.25.3-.36.3s-.21-.09-.21-.26l-.4-1.6c1.14-.08,2.28-.19,3.42-.34v-5H84.11v-1.48h3.12V100.4h-2v-.78c-.3.29-.62.57-1,.86l-1.13-1.11a19.47,19.47,0,0,0,2.74-2.56A19.93,19.93,0,0,0,88,93.88Zm-2.66,13.3-1.27.74c-.4-1-.84-2-1.33-3l1.33-.67C85.84,105.93,86.26,106.88,86.64,107.83Zm4.1-8.91a20.59,20.59,0,0,1-2.45-2.66,16.75,16.75,0,0,1-1.54,1.88c-.26.27-.51.53-.77.78Zm.84,6.61c.15.08.25.15.25.23s-.1.26-.29.36l-1.2,2-1.12-.53L90.5,105ZM100,94.91v7.94H97.24a13.71,13.71,0,0,0,.61,2.34,19,19,0,0,0,1.92-1.67l1.08,1.1a.33.33,0,0,1,.11.24c0,.12-.15.16-.45.16-.69.47-1.41.93-2.13,1.38a1.5,1.5,0,0,0,.15.25,11,11,0,0,0,2.79,3.32l-1.55,1.2a21.09,21.09,0,0,1-1.94-2.56,12.64,12.64,0,0,1-1.29-2.72,16.86,16.86,0,0,1-.76-3H94.2v6A27.51,27.51,0,0,0,97,108v1.33c-.95.38-2.42.91-4.39,1.56-.14.19-.25.3-.36.3s-.21-.09-.21-.26l-.4-1.6a9.48,9.48,0,0,0,1-.19V94.91Zm-1.55,3.27V96.32H94.2v1.86Zm0,3.26V99.58H94.2v1.86Z"/><path class="cls-1" d="M111.91,98.33c.19.06.3.13.3.23a.34.34,0,0,1-.15.21c-.27.07-.78.6-1.52,1.61-.32.42-.66.84-1,1.22v9.57h-1.78v-7.73c-.51.49-1,1-1.62,1.42L104.5,104a21.28,21.28,0,0,0,5.93-6.15Zm-1-3.57c.19.07.3.15.3.23a.3.3,0,0,1-.15.22,3.43,3.43,0,0,0-1.18,1A19,19,0,0,1,106.42,99l-1.63-.89a15.42,15.42,0,0,0,4.67-3.85Zm10.85,5.64V102H118.6v7.27a1.77,1.77,0,0,1-.76,1.56,6,6,0,0,1-3.18.53l-.74-1.86h1.79q.95,0,1-.51v-7h-5.26V100.4Zm-.74-5.11v1.63H112.8V95.29Z"/><path class="cls-1" d="M130.93,95c.15.08.25.15.25.25s-.16.34-.44.44c-.48,1.17-.91,2.2-1.33,3.07v12.45h-1.64v-9.44c-.37.62-.81,1.27-1.27,1.93l-1.25-1.25a26.59,26.59,0,0,0,2.33-3.82,32.25,32.25,0,0,0,1.83-4.35Zm11.45,2.55v1.63h-12.1V97.59Zm-.81,7.79v5.72h-1.64v-.59h-7.35v.59H131v-5.72Zm-.67-5.19v1.48h-9.42v-1.48Zm.08,2.58v1.49h-9.5v-1.49Zm-.08-7.63v1.48h-9.34V95.14Zm-1,13.87v-2.15h-7.35V109Z"/><path class="cls-1" d="M149,94.91h13.22v14.25a1.64,1.64,0,0,1-1.44,1.63,8.92,8.92,0,0,1-2.21.31l-.66-1.71,1.82,0c.52,0,.78-.25.78-.71V105.3h-4.23v5h-1.71v-5h-4.2c-.08.42-.15.8-.23,1.18a16.12,16.12,0,0,1-1.73,4.54l-1.71-.89a12.67,12.67,0,0,0,1.71-3.95,22.36,22.36,0,0,0,.59-5.12V94.91Zm5.57,8.91v-3h-3.86v.2a27,27,0,0,1-.15,2.76Zm0-4.45v-2.9h-3.86v2.9Zm1.71,0h4.23v-2.9h-4.23Zm0,4.45h4.23v-3h-4.23Z"/><path class="cls-1" d="M175.83,94.07c.26,0,.41.12.41.25s-.09.21-.28.38v1.62H182v1.5H176v2.5h8.53V102H176v1.67a36,36,0,0,1,6.08,3.53l-1.12,1.18a45.5,45.5,0,0,0-5-2.92v5.83h-1.64V102h-6.91v-1.64h6.91V93.94Z"/><rect class="cls-1" x="50.03" width="85.64" height="39.36" rx="19.68"/><path class="cls-2" d="M79.06,12.48c.22,0,.34.07.34.2v7.63c0,.14-.12.21-.34.21H78.4c-.17,0-.25-.07-.25-.21V19.19H68.05v5.65c0,.54.3.79.93.79h8.57c.73,0,1.17-.13,1.33-.44a10,10,0,0,0,.66-2.68,2.19,2.19,0,0,0,.75.68c.15.06.24.15.24.25a8.36,8.36,0,0,1-.84,2.81,1.27,1.27,0,0,1-1.22.57H68.85c-1.38,0-2.06-.42-2.06-1.25V16.4c0-.13,0-.2.07-.2l1.22.14c.16,0,.24.06.24.13s0,.19-.12.21a.16.16,0,0,0-.15.18v1.21h10.1V13.62H66.93c-.14,0-.21-.09-.21-.28v-.66a.18.18,0,0,1,.21-.2Z"/><path class="cls-2" d="M90.93,12.29c.17,0,.27.07.27.19V17.8a.24.24,0,0,1-.27.27H86.29V27c0,.14-.1.2-.27.2h-.66c-.19,0-.28-.06-.28-.2V12.48c0-.12.09-.19.28-.19ZM90,14.67V13.28H86.29v1.39Zm0,2.4v-1.4H86.29v1.4Zm5.71,2.33c.08,0,.13.06.13.18v.55c0,.17,0,.25-.13.25H94.18v2h2.33c.08,0,.13.07.13.2v.53c0,.19,0,.27-.13.27H94.18v3.39c0,.13-.09.2-.26.2h-.66a.18.18,0,0,1-.2-.2V23.37H90.93a6.69,6.69,0,0,1-.2.9A3.7,3.7,0,0,1,89.57,26a7.67,7.67,0,0,1-1.49,1,.46.46,0,0,1-.31-.1c-.15-.21-.31-.4-.44-.55a.29.29,0,0,1-.12-.22,4.72,4.72,0,0,0,2.39-2.23,2.84,2.84,0,0,0,.16-.56H87.55c-.1,0-.14-.08-.14-.27v-.53c0-.13,0-.2.14-.2h2.36c0-.19,0-.37,0-.54V20.38H88.35c-.1,0-.14-.08-.14-.25v-.55c0-.12,0-.18.14-.18Zm-2.65,1h-2v1.43c0,.2,0,.39,0,.56h2Zm5.37-8.09c.22,0,.34.07.34.19v12.9A1.4,1.4,0,0,1,98,26.64a7,7,0,0,1-2,.46c-.14,0-.2-.07-.22-.21a3.06,3.06,0,0,0-.38-1.05c0-.07.06-.1.16-.1a3.76,3.76,0,0,0,1.71-.21.7.7,0,0,0,.33-.64V18H93.06c-.19,0-.28-.08-.28-.27V12.48c0-.12.09-.19.28-.19Zm-.85,2.38V13.28H94v1.39Zm0,2.33V15.67H94V17Z"/><path class="cls-2" d="M116.36,12.85a24.34,24.34,0,0,1-4.11.75,49,49,0,0,1-5.34.27V15.6H117c.17,0,.25.07.25.21V22c0,.13-.08.2-.25.2h-.67c-.18,0-.27-.07-.27-.2V21h-9.18a10.33,10.33,0,0,1-.46,2.72A6.52,6.52,0,0,1,105.21,26a6.11,6.11,0,0,1-1.36,1.31.52.52,0,0,1-.17,0,3.9,3.9,0,0,0-.61-.46.3.3,0,0,1-.09-.24,5.61,5.61,0,0,0,1.5-1.53,8.43,8.43,0,0,0,.94-2.16,11.81,11.81,0,0,0,.3-2.87v-7a.24.24,0,0,1,.26-.27h.13c2.35,0,4.18-.1,5.51-.24a21.3,21.3,0,0,0,4.32-.8,1.4,1.4,0,0,1,.4-.09.5.5,0,0,1,.21.09c.56.48.85.77.85.9s-.07.34-.21.34l-.39-.2A2.94,2.94,0,0,0,116.36,12.85ZM106.91,20h9.16V16.68h-9.16Z"/><rect class="cls-1" x="92.35" y="46.14" width="1" height="27.18"/><circle class="cls-1" cx="92.85" cy="72.08" r="5.17"/></g></g></svg>