<svg xmlns="http://www.w3.org/2000/svg" viewBox="0 0 205.62 111.51"><defs><style>.cls-1{fill:#3eacce;}.cls-2{fill:#fff;}</style></defs><title>資產 15</title><g id="圖層_2" data-name="圖層 2"><g id="Cut3_輕鬆瞭解保障內容"><path class="cls-1" d="M6,95c.17.07.27.15.27.24s-.15.35-.46.46c-.49,1.22-1,2.26-1.4,3.17V111.3H2.74v-9.42c-.46.72-1,1.46-1.49,2.22L0,102.83a29.08,29.08,0,0,0,2.56-4,31.85,31.85,0,0,0,2-4.6Zm11.4,14.19v1.56H5.26v-1.56ZM15.81,95.35v11.72H7V95.35Zm-1.71,5.11V96.9H8.68v3.56Zm0,1.5H8.68v3.55H14.1Z"/><path class="cls-1" d="M28.82,95.9c-.57.24-1.14.45-1.69.62v3h4.33c-.07-1.52-.09-3.35-.09-5.44l1.73.19c.26.06.41.15.41.27s-.15.36-.45.66c0,1.64,0,3.08.07,4.32h5.06v1.55h-5c.08,1.07.17,2,.29,2.68a8.78,8.78,0,0,0,.32,1.5,26.77,26.77,0,0,0,2.07-3l1.5.76a.51.51,0,0,1,.21.36c0,.12-.19.21-.53.29a22.68,22.68,0,0,1-2.66,3.47,8,8,0,0,0,.47,1c.46.91.86,1.35,1.16,1.35.12,0,.23-.1.36-.31a11.69,11.69,0,0,0,.82-2.37l1.4,1.2a10.49,10.49,0,0,1-1,2.46c-.46.67-.93,1-1.43,1a2.07,2.07,0,0,1-1.46-.81,9.29,9.29,0,0,1-1.58-2.42,26.94,26.94,0,0,1-3.26,2.21l-1.28-1.28A19.58,19.58,0,0,0,32,107.07l.53-.46a19.5,19.5,0,0,1-.82-3.87c-.06-.5-.09-1.07-.13-1.68H27.13v2.83c.95-.24,1.88-.53,2.81-.83v1.56c-.76.26-1.69.57-2.81.91v4a1.54,1.54,0,0,1-.8,1.44,7,7,0,0,1-3.36.5l-.66-1.71h2c.68,0,1.06-.18,1.12-.54V106c-1,.29-2.09.59-3.27.89-.13.27-.24.38-.36.38s-.22-.09-.22-.3l-.44-1.84c1.44-.21,2.89-.48,4.29-.82v-3.27H21.57V99.51h3.85V97a26.39,26.39,0,0,1-2.73.55L21.57,96a17.24,17.24,0,0,0,3.74-.57,17.5,17.5,0,0,0,3.45-1.22L30,95.42a.38.38,0,0,1,.11.29c0,.11-.07.15-.2.15l-.48-.1A1.91,1.91,0,0,0,28.82,95.9Zm9.06,1.31-1.25,1.1a15.51,15.51,0,0,0-2.53-1.92l1.2-1.12A16.74,16.74,0,0,1,37.88,97.21Z"/><path class="cls-1" d="M48.28,96.67a26.86,26.86,0,0,0,1.08-2.6l1.33.53c.25.08.38.21.38.37s-.13.19-.36.22c-.23.54-.44,1-.65,1.48h9v1.49H49.34c-.42.78-.82,1.44-1.19,2h8.56v9.35a1.51,1.51,0,0,1-1.25,1.56,7.25,7.25,0,0,1-1.94.3l-.66-1.63,1.55,0a.64.64,0,0,0,.67-.71v-1h-7.2v3.27H46.25v-8.84a15.05,15.05,0,0,1-3.2,2.3L42,103.06a10.53,10.53,0,0,0,4.22-3.16,11.79,11.79,0,0,0,1.31-1.74H42.39V96.67Zm6.8,6.77v-1.79h-7.2v1.79Zm0,3.11v-1.71h-7.2v1.71Z"/><path class="cls-1" d="M78.94,95.57v1.56H72.56v4.37h5.57v1.56H72.56v5.49h7.28v1.63H63.52v-1.63h7.35v-5.49H65.08V101.5h5.79V97.13H64.41V95.57Zm-.28,11.14-1.56,1a16.36,16.36,0,0,0-2.6-3l1.17-1A18.44,18.44,0,0,1,78.66,106.71Z"/><path class="cls-1" d="M93.57,94.43c.33,0,.5.1.5.25s-.14.29-.38.51v12.33h4.82V98l1.67.12c.31,0,.48.11.48.24s-.13.25-.36.44v12.33H98.51v-1.94h-12v1.94H84.7V98l1.69.12c.31,0,.48.11.48.24s-.13.25-.38.44v8.7h5.34V94.3Z"/><path class="cls-1" d="M110.43,94.66c.15.08.23.15.23.23s-.16.3-.44.38l0,0a15.11,15.11,0,0,0,3.29,3.09l-1.2,1.05a2.16,2.16,0,0,1-.38-.34v1.44h-2v2.09h2.81v1.48h-2.81v4.79q1.36-.17,2.67-.42v1.35c-1.42.29-3.64.68-6.68,1.18-.14.19-.25.3-.37.3s-.2-.09-.2-.26l-.4-1.6c1.14-.07,2.28-.19,3.42-.34v-5h-3.12v-1.48h3.12v-2.09h-2v-.78c-.3.29-.62.57-1,.86l-1.12-1.1A19.51,19.51,0,0,0,107,96.94,21.15,21.15,0,0,0,109.1,94ZM107.77,108l-1.27.74c-.4-1-.84-2-1.33-3l1.33-.67C107,106.06,107.39,107,107.77,108Zm4.1-8.91a19.9,19.9,0,0,1-2.45-2.66,16.75,16.75,0,0,1-1.54,1.88c-.26.27-.51.53-.78.78Zm.84,6.61c.15.08.24.15.24.23a.4.4,0,0,1-.28.36l-1.2,2-1.12-.53,1.27-2.58ZM121.12,95V103h-2.75a13.47,13.47,0,0,0,.61,2.34,19,19,0,0,0,1.92-1.67l1.08,1.1a.4.4,0,0,1,.11.25c0,.11-.15.15-.45.15-.69.47-1.41.93-2.13,1.39a1,1,0,0,0,.15.24,11.07,11.07,0,0,0,2.79,3.33l-1.55,1.19a20.34,20.34,0,0,1-1.94-2.56,12.42,12.42,0,0,1-1.29-2.72,16,16,0,0,1-.76-3h-1.58v6a26.57,26.57,0,0,0,2.75-.82v1.33c-1,.38-2.41.91-4.39,1.56-.13.19-.24.3-.36.3s-.21-.09-.21-.26l-.39-1.6a9.48,9.48,0,0,0,1-.19V95Zm-1.55,3.27V96.45h-4.24v1.86Zm0,3.27V99.71h-4.24v1.87Z"/><path class="cls-1" d="M133,98.46c.19.06.3.13.3.23s-.06.13-.15.21c-.27.07-.78.61-1.52,1.61-.32.42-.67.84-1,1.22v9.57h-1.78v-7.73c-.52.5-1,1-1.62,1.43l-1.63-.9A21.28,21.28,0,0,0,131.56,98Zm-1-3.57c.19.08.3.15.3.23a.33.33,0,0,1-.15.23c-.21,0-.61.38-1.18,1a19.82,19.82,0,0,1-3.49,2.78l-1.64-.9a15.2,15.2,0,0,0,4.68-3.85Zm10.85,5.64v1.56h-3.2v7.28a1.75,1.75,0,0,1-.76,1.55,5.89,5.89,0,0,1-3.17.54l-.74-1.87h1.79c.62,0,1-.17,1-.51v-7H132.6v-1.56Zm-.75-5.11v1.63h-8.24V95.42Z"/><path class="cls-1" d="M152.06,95.17c.15.08.24.16.24.25s-.15.34-.43.44c-.48,1.18-.92,2.2-1.33,3.08v12.44H148.9v-9.44c-.38.62-.81,1.27-1.27,1.93l-1.25-1.25a26.59,26.59,0,0,0,2.33-3.82,32.25,32.25,0,0,0,1.83-4.35Zm11.45,2.55v1.63h-12.1V97.72Zm-.82,7.79v5.72h-1.63v-.59h-7.35v.59h-1.62v-5.72Zm-.66-5.19v1.48h-9.42v-1.48Zm.08,2.59v1.48h-9.5v-1.48ZM162,95.27v1.48h-9.35V95.27Zm-1,13.87V107h-7.35v2.15Z"/><path class="cls-1" d="M170.09,95h13.22v14.25a1.63,1.63,0,0,1-1.44,1.63,9,9,0,0,1-2.21.31l-.66-1.71,1.82,0c.51,0,.78-.25.78-.7v-3.35h-4.24v5.06h-1.71v-5.06h-4.19c-.08.42-.16.8-.23,1.18a16.12,16.12,0,0,1-1.73,4.54l-1.71-.89a12.57,12.57,0,0,0,1.71-4,22.27,22.27,0,0,0,.59-5.11V95Zm5.56,8.91v-3H171.8v.21a26.84,26.84,0,0,1-.15,2.75Zm0-4.44V96.6H171.8v2.91Zm1.71,0h4.24V96.6h-4.24Zm0,4.44h4.24v-3h-4.24Z"/><path class="cls-1" d="M197,94.21c.27,0,.42.11.42.24s-.09.21-.28.38v1.62h6.08V98h-6.08v2.51h8.53v1.63h-8.53v1.67a36.44,36.44,0,0,1,6.08,3.53L202,108.47a45.36,45.36,0,0,0-4.95-2.92v5.83h-1.64v-9.29h-6.91v-1.63h6.91V94.07Z"/><rect class="cls-1" x="61.25" width="85.64" height="39.36" rx="19.68"/><path class="cls-2" d="M84.32,14.48V12c0-.14.09-.21.28-.21.83,0,1.25.07,1.25.21s-.06.24-.17.25-.15.14-.15.34v1.87H91c.14,0,.2.09.2.26v.54c0,.17-.06.26-.2.26H85.53v2.92H92.3c.13,0,.2.1.2.27v.53c0,.19-.07.27-.2.27H85.77a15,15,0,0,0,2,2.19,11.81,11.81,0,0,0,2.57,1.86,10.88,10.88,0,0,0,2.51,1.05.21.21,0,0,1-.17.2q-.37.39-.66.72-.11.15-.15.15A13.34,13.34,0,0,1,88.79,24a11.08,11.08,0,0,1-2.32-2.05,8.59,8.59,0,0,1-.94-1.09V27c0,.14-.1.2-.27.2H84.6c-.19,0-.28-.06-.28-.2v-6c-.49.58-.91,1.06-1.29,1.43a20.86,20.86,0,0,1-2.31,2A17.6,17.6,0,0,1,77.88,26a.38.38,0,0,1-.29-.1c-.22-.22-.44-.41-.64-.58a.32.32,0,0,1,0-.17,18.68,18.68,0,0,0,2.21-1.12,13.72,13.72,0,0,0,2.63-2A28.53,28.53,0,0,0,84,19.53H77.56c-.14,0-.21-.08-.21-.27v-.53c0-.17.07-.27.21-.27h6.76V15.54h-5.5c-.14,0-.21-.09-.21-.26v-.54c0-.17.07-.26.21-.26Z"/><path class="cls-2" d="M102.57,12.29c.17,0,.27.07.27.19V17.8a.24.24,0,0,1-.27.27H97.92V27c0,.14-.1.2-.27.2H97c-.19,0-.27-.06-.27-.2V12.48c0-.12.08-.19.27-.19Zm-.94,2.38V13.28H97.92v1.39Zm0,2.4v-1.4H97.92v1.4Zm5.71,2.33c.09,0,.14.06.14.18v.55c0,.17,0,.25-.14.25h-1.53v2h2.33c.09,0,.14.07.14.2v.53c0,.19,0,.27-.14.27h-2.33v3.38c0,.14-.08.21-.25.21h-.67a.18.18,0,0,1-.2-.21V23.37h-2.12a6.64,6.64,0,0,1-.21.9A3.68,3.68,0,0,1,101.21,26a7.77,7.77,0,0,1-1.5,1,.42.42,0,0,1-.31-.11,6.78,6.78,0,0,0-.44-.54.33.33,0,0,1-.12-.22,4.71,4.71,0,0,0,2.4-2.23,2.29,2.29,0,0,0,.15-.56H99.18c-.1,0-.13-.08-.13-.27v-.53c0-.13,0-.2.13-.2h2.36c0-.19,0-.37,0-.54V20.38H100c-.1,0-.13-.08-.13-.25v-.55c0-.12,0-.18.13-.18Zm-2.65,1h-2v1.43c0,.2,0,.39,0,.56h2Zm5.37-8.09c.22,0,.34.07.34.19v12.9a1.41,1.41,0,0,1-.81,1.26,7,7,0,0,1-2,.46c-.13,0-.2-.07-.22-.21a2.8,2.8,0,0,0-.37-1.05c0-.07,0-.1.15-.1a3.82,3.82,0,0,0,1.72-.21.71.71,0,0,0,.32-.64V18h-4.52c-.19,0-.27-.08-.27-.27V12.48c0-.12.08-.19.27-.19Zm-.85,2.38V13.28h-3.59v1.39Zm0,2.33V15.67h-3.59V17Z"/><path class="cls-2" d="M128,12.85a24.47,24.47,0,0,1-4.12.75,48.82,48.82,0,0,1-5.34.27V15.6h10.1c.17,0,.26.07.26.21V22c0,.13-.09.2-.26.2H128c-.19,0-.27-.07-.27-.2V21h-9.18a10.76,10.76,0,0,1-.46,2.72A6.69,6.69,0,0,1,116.85,26a6.85,6.85,0,0,1-1.36,1.31.46.46,0,0,1-.17,0,4,4,0,0,0-.62-.46.33.33,0,0,1-.08-.24,5.73,5.73,0,0,0,1.49-1.53,7.79,7.79,0,0,0,.94-2.16,11.77,11.77,0,0,0,.31-2.87v-7c0-.17.08-.27.25-.27h.14c2.34,0,4.18-.11,5.5-.24a21.3,21.3,0,0,0,4.32-.8,1.39,1.39,0,0,1,.41-.09.48.48,0,0,1,.2.09c.56.48.85.76.85.9s-.07.34-.2.34l-.39-.2A2.85,2.85,0,0,0,128,12.85ZM118.54,20h9.17V16.67h-9.17Z"/><rect class="cls-1" x="105.56" y="46.27" width="1" height="27.18"/><circle class="cls-1" cx="106.06" cy="72.21" r="5.17"/></g></g></svg>